<?xml version="1.0"?>
<VTKFile type="UnstructuredGrid" version="0.1" byte_order="LittleEndian">
  <UnstructuredGrid>
    <Piece NumberOfPoints="441" NumberOfCells="288">
      <Points>
        <DataArray type="Float32" NumberOfComponents="3" format="ascii">
          -55.7143 -53.033 0 -40.0899 -65.6459 0 -21.7335 -73.7851 0 -1.89597 -76.896 0 18.0708 -74.7665 0 36.806 -67.5419 0 53.033 -55.7143 0 -67.5419 -36.806 0 -37.1429 -35.3553 0 -20.7856 -46.878 0 -1.26398 -51.264 0 18.4501 -47.8454 0 35.3553 -37.1429 0 65.6459 -40.0899 0 -74.7665 -18.0708 0 -47.8454 -18.4501 0 -18.5714 -17.6777 0 -0.631991 -25.632 0 17.6777 -18.5714 0 46.878 -20.7856 0 73.7851 -21.7335 0 -76.896 1.89597 0 -51.264 1.26398 0 -25.632 0.631991 0 0 0 0 25.632 -0.631991 0 51.264 -1.26398 0 76.896 -1.89597 0 -73.7851 21.7335 0 -46.878 20.7856 0 -17.6777 18.5714 0 0.631991 25.632 0 18.5714 17.6777 0 47.8454 18.4501 0 74.7665 18.0708 0 -65.6459 40.0899 0 -35.3553 37.1429 0 -18.4501 47.8454 0 1.26398 51.264 0 20.7856 46.878 0 37.1429 35.3553 0 67.5419 36.806 0 -53.033 55.7143 0 -36.806 67.5419 0 -18.0708 74.7665 0 1.89597 76.896 0 21.7335 73.7851 0 40.0899 65.6459 0 55.7143 53.033 0 -55.7143 -53.033 35.736 -40.0899 -65.6459 35.736 -21.7335 -73.7851 35.736 -1.89597 -76.896 35.736 18.0708 -74.7665 35.736 36.806 -67.5419 35.736 53.033 -55.7143 35.736 -67.5419 -36.806 35.736 -37.1429 -35.3553 35.736 -20.7856 -46.878 35.736 -1.26398 -51.264 35.736 18.4501 -47.8454 35.736 35.3553 -37.1429 35.736 65.6459 -40.0899 35.736 -74.7665 -18.0708 35.736 -47.8454 -18.4501 35.736 -18.5714 -17.6777 35.736 -0.631991 -25.632 35.736 17.6777 -18.5714 35.736 46.878 -20.7856 35.736 73.7851 -21.7335 35.736 -76.896 1.89597 35.736 -51.264 1.26398 35.736 -25.632 0.631991 35.736 -1.46542e-16 6.28782e-17 35.736 25.632 -0.631991 35.736 51.264 -1.26398 35.736 76.896 -1.89597 35.736 -73.7851 21.7335 35.736 -46.878 20.7856 35.736 -17.6777 18.5714 35.736 0.631991 25.632 35.736 18.5714 17.6777 35.736 47.8454 18.4501 35.736 74.7665 18.0708 35.736 -65.6459 40.0899 35.736 -35.3553 37.1429 35.736 -18.4501 47.8454 35.736 1.26398 51.264 35.736 20.7856 46.878 35.736 37.1429 35.3553 35.736 67.5419 36.806 35.736 -53.033 55.7143 35.736 -36.806 67.5419 35.736 -18.0708 74.7665 35.736 1.89597 76.896 35.736 21.7335 73.7851 35.736 40.0899 65.6459 35.736 55.7143 53.033 35.736 -55.7143 -53.033 71.472 -40.0899 -65.6459 71.472 -21.7335 -73.7851 71.472 -1.89597 -76.896 71.472 18.0708 -74.7665 71.472 36.806 -67.5419 71.472 53.033 -55.7143 71.472 -67.5419 -36.806 71.472 -37.1429 -35.3553 71.472 -20.7856 -46.878 71.472 -1.26398 -51.264 71.472 18.4501 -47.8454 71.472 35.3553 -37.1429 71.472 65.6459 -40.0899 71.472 -74.7665 -18.0708 71.472 -47.8454 -18.4501 71.472 -18.5714 -17.6777 71.472 -0.631991 -25.632 71.472 17.6777 -18.5714 71.472 46.878 -20.7856 71.472 73.7851 -21.7335 71.472 -76.896 1.89597 71.472 -51.264 1.26398 71.472 -25.632 0.631991 71.472 -2.93811e-16 1.46507e-16 71.472 25.632 -0.631991 71.472 51.264 -1.26398 71.472 76.896 -1.89597 71.472 -73.7851 21.7335 71.472 -46.878 20.7856 71.472 -17.6777 18.5714 71.472 0.631991 25.632 71.472 18.5714 17.6777 71.472 47.8454 18.4501 71.472 74.7665 18.0708 71.472 -65.6459 40.0899 71.472 -35.3553 37.1429 71.472 -18.4501 47.8454 71.472 1.26398 51.264 71.472 20.7856 46.878 71.472 37.1429 35.3553 71.472 67.5419 36.806 71.472 -53.033 55.7143 71.472 -36.806 67.5419 71.472 -18.0708 74.7665 71.472 1.89597 76.896 71.472 21.7335 73.7851 71.472 40.0899 65.6459 71.472 55.7143 53.033 71.472 -55.7143 -53.033 107.208 -40.0899 -65.6459 107.208 -21.7335 -73.7851 107.208 -1.89597 -76.896 107.208 18.0708 -74.7665 107.208 36.806 -67.5419 107.208 53.033 -55.7143 107.208 -67.5419 -36.806 107.208 -37.1429 -35.3553 107.208 -20.7856 -46.878 107.208 -1.26398 -51.264 107.208 18.4501 -47.8454 107.208 35.3553 -37.1429 107.208 65.6459 -40.0899 107.208 -74.7665 -18.0708 107.208 -47.8454 -18.4501 107.208 -18.5714 -17.6777 107.208 -0.631991 -25.632 107.208 17.6777 -18.5714 107.208 46.878 -20.7856 107.208 73.7851 -21.7335 107.208 -76.896 1.89597 107.208 -51.264 1.26398 107.208 -25.632 0.631991 107.208 -8.32092e-16 5.797e-16 107.208 25.632 -0.631991 107.208 51.264 -1.26398 107.208 76.896 -1.89597 107.208 -73.7851 21.7335 107.208 -46.878 20.7856 107.208 -17.6777 18.5714 107.208 0.631991 25.632 107.208 18.5714 17.6777 107.208 47.8454 18.4501 107.208 74.7665 18.0708 107.208 -65.6459 40.0899 107.208 -35.3553 37.1429 107.208 -18.4501 47.8454 107.208 1.26398 51.264 107.208 20.7856 46.878 107.208 37.1429 35.3553 107.208 67.5419 36.806 107.208 -53.033 55.7143 107.208 -36.806 67.5419 107.208 -18.0708 74.7665 107.208 1.89597 76.896 107.208 21.7335 73.7851 107.208 40.0899 65.6459 107.208 55.7143 53.033 107.208 -55.7143 -53.033 142.944 -40.0899 -65.6459 142.944 -21.7335 -73.7851 142.944 -1.89597 -76.896 142.944 18.0708 -74.7665 142.944 36.806 -67.5419 142.944 53.033 -55.7143 142.944 -67.5419 -36.806 142.944 -37.1429 -35.3553 142.944 -20.7856 -46.878 142.944 -1.26398 -51.264 142.944 18.4501 -47.8454 142.944 35.3553 -37.1429 142.944 65.6459 -40.0899 142.944 -74.7665 -18.0708 142.944 -47.8454 -18.4501 142.944 -18.5714 -17.6777 142.944 -0.631991 -25.632 142.944 17.6777 -18.5714 142.944 46.878 -20.7856 142.944 73.7851 -21.7335 142.944 -76.896 1.89597 142.944 -51.264 1.26398 142.944 -25.632 0.631991 142.944 -1.05658e-15 9.92747e-16 142.944 25.632 -0.631991 142.944 51.264 -1.26398 142.944 76.896 -1.89597 142.944 -73.7851 21.7335 142.944 -46.878 20.7856 142.944 -17.6777 18.5714 142.944 0.631991 25.632 142.944 18.5714 17.6777 142.944 47.8454 18.4501 142.944 74.7665 18.0708 142.944 -65.6459 40.0899 142.944 -35.3553 37.1429 142.944 -18.4501 47.8454 142.944 1.26398 51.264 142.944 20.7856 46.878 142.944 37.1429 35.3553 142.944 67.5419 36.806 142.944 -53.033 55.7143 142.944 -36.806 67.5419 142.944 -18.0708 74.7665 142.944 1.89597 76.896 142.944 21.7335 73.7851 142.944 40.0899 65.6459 142.944 55.7143 53.033 142.944 -55.7143 -53.033 178.68 -40.0899 -65.6459 178.68 -21.7335 -73.7851 178.68 -1.89597 -76.896 178.68 18.0708 -74.7665 178.68 36.806 -67.5419 178.68 53.033 -55.7143 178.68 -67.5419 -36.806 178.68 -37.1429 -35.3553 178.68 -20.7856 -46.878 178.68 -1.26398 -51.264 178.68 18.4501 -47.8454 178.68 35.3553 -37.1429 178.68 65.6459 -40.0899 178.68 -74.7665 -18.0708 178.68 -47.8454 -18.4501 178.68 -18.5714 -17.6777 178.68 -0.631991 -25.632 178.68 17.6777 -18.5714 178.68 46.878 -20.7856 178.68 73.7851 -21.7335 178.68 -76.896 1.89597 178.68 -51.264 1.26398 178.68 -25.632 0.631991 178.68 -1.89901e-15 8.47114e-16 178.68 25.632 -0.631991 178.68 51.264 -1.26398 178.68 76.896 -1.89597 178.68 -73.7851 21.7335 178.68 -46.878 20.7856 178.68 -17.6777 18.5714 178.68 0.631991 25.632 178.68 18.5714 17.6777 178.68 47.8454 18.4501 178.68 74.7665 18.0708 178.68 -65.6459 40.0899 178.68 -35.3553 37.1429 178.68 -18.4501 47.8454 178.68 1.26398 51.264 178.68 20.7856 46.878 178.68 37.1429 35.3553 178.68 67.5419 36.806 178.68 -53.033 55.7143 178.68 -36.806 67.5419 178.68 -18.0708 74.7665 178.68 1.89597 76.896 178.68 21.7335 73.7851 178.68 40.0899 65.6459 178.68 55.7143 53.033 178.68 -55.7143 -53.033 214.416 -40.0899 -65.6459 214.416 -21.7335 -73.7851 214.416 -1.89597 -76.896 214.416 18.0708 -74.7665 214.416 36.806 -67.5419 214.416 53.033 -55.7143 214.416 -67.5419 -36.806 214.416 -37.1429 -35.3553 214.416 -20.7856 -46.878 214.416 -1.26398 -51.264 214.416 18.4501 -47.8454 214.416 35.3553 -37.1429 214.416 65.6459 -40.0899 214.416 -74.7665 -18.0708 214.416 -47.8454 -18.4501 214.416 -18.5714 -17.6777 214.416 -0.631991 -25.632 214.416 17.6777 -18.5714 214.416 46.878 -20.7856 214.416 73.7851 -21.7335 214.416 -76.896 1.89597 214.416 -51.264 1.26398 214.416 -25.632 0.631991 214.416 -2.27794e-15 1.10214e-15 214.416 25.632 -0.631991 214.416 51.264 -1.26398 214.416 76.896 -1.89597 214.416 -73.7851 21.7335 214.416 -46.878 20.7856 214.416 -17.6777 18.5714 214.416 0.631991 25.632 214.416 18.5714 17.6777 214.416 47.8454 18.4501 214.416 74.7665 18.0708 214.416 -65.6459 40.0899 214.416 -35.3553 37.1429 214.416 -18.4501 47.8454 214.416 1.26398 51.264 214.416 20.7856 46.878 214.416 37.1429 35.3553 214.416 67.5419 36.806 214.416 -53.033 55.7143 214.416 -36.806 67.5419 214.416 -18.0708 74.7665 214.416 1.89597 76.896 214.416 21.7335 73.7851 214.416 40.0899 65.6459 214.416 55.7143 53.033 214.416 -55.7143 -53.033 250.152 -40.0899 -65.6459 250.152 -21.7335 -73.7851 250.152 -1.89597 -76.896 250.152 18.0708 -74.7665 250.152 36.806 -67.5419 250.152 53.033 -55.7143 250.152 -67.5419 -36.806 250.152 -37.1429 -35.3553 250.152 -20.7856 -46.878 250.152 -1.26398 -51.264 250.152 18.4501 -47.8454 250.152 35.3553 -37.1429 250.152 65.6459 -40.0899 250.152 -74.7665 -18.0708 250.152 -47.8454 -18.4501 250.152 -18.5714 -17.6777 250.152 -0.631991 -25.632 250.152 17.6777 -18.5714 250.152 46.878 -20.7856 250.152 73.7851 -21.7335 250.152 -76.896 1.89597 250.152 -51.264 1.26398 250.152 -25.632 0.631991 250.152 -2.04772e-15 1.18856e-15 250.152 25.632 -0.631991 250.152 51.264 -1.26398 250.152 76.896 -1.89597 250.152 -73.7851 21.7335 250.152 -46.878 20.7856 250.152 -17.6777 18.5714 250.152 0.631991 25.632 250.152 18.5714 17.6777 250.152 47.8454 18.4501 250.152 74.7665 18.0708 250.152 -65.6459 40.0899 250.152 -35.3553 37.1429 250.152 -18.4501 47.8454 250.152 1.26398 51.264 250.152 20.7856 46.878 250.152 37.1429 35.3553 250.152 67.5419 36.806 250.152 -53.033 55.7143 250.152 -36.806 67.5419 250.152 -18.0708 74.7665 250.152 1.89597 76.896 250.152 21.7335 73.7851 250.152 40.0899 65.6459 250.152 55.7143 53.033 250.152 -55.7143 -53.033 285.888 -40.0899 -65.6459 285.888 -21.7335 -73.7851 285.888 -1.89597 -76.896 285.888 18.0708 -74.7665 285.888 36.806 -67.5419 285.888 53.033 -55.7143 285.888 -67.5419 -36.806 285.888 -37.1429 -35.3553 285.888 -20.7856 -46.878 285.888 -1.26398 -51.264 285.888 18.4501 -47.8454 285.888 35.3553 -37.1429 285.888 65.6459 -40.0899 285.888 -74.7665 -18.0708 285.888 -47.8454 -18.4501 285.888 -18.5714 -17.6777 285.888 -0.631991 -25.632 285.888 17.6777 -18.5714 285.888 46.878 -20.7856 285.888 73.7851 -21.7335 285.888 -76.896 1.89597 285.888 -51.264 1.26398 285.888 -25.632 0.631991 285.888 -2.31582e-15 7.9492e-16 285.888 25.632 -0.631991 285.888 51.264 -1.26398 285.888 76.896 -1.89597 285.888 -73.7851 21.7335 285.888 -46.878 20.7856 285.888 -17.6777 18.5714 285.888 0.631991 25.632 285.888 18.5714 17.6777 285.888 47.8454 18.4501 285.888 74.7665 18.0708 285.888 -65.6459 40.0899 285.888 -35.3553 37.1429 285.888 -18.4501 47.8454 285.888 1.26398 51.264 285.888 20.7856 46.878 285.888 37.1429 35.3553 285.888 67.5419 36.806 285.888 -53.033 55.7143 285.888 -36.806 67.5419 285.888 -18.0708 74.7665 285.888 1.89597 76.896 285.888 21.7335 73.7851 285.888 40.0899 65.6459 285.888 55.7143 53.033 285.888
        </DataArray>
      </Points>
      <Cells>
        <DataArray type="Int32" Name="connectivity" format="ascii">
          0 1 8 7 49 50 57 56 1 2 9 8 50 51 58 57 2 3 10 9 51 52 59 58 3 4 11 10 52 53 60 59 4 5 12 11 53 54 61 60 5 6 13 12 54 55 62 61 7 8 15 14 56 57 64 63 8 9 16 15 57 58 65 64 9 10 17 16 58 59 66 65 10 11 18 17 59 60 67 66 11 12 19 18 60 61 68 67 12 13 20 19 61 62 69 68 14 15 22 21 63 64 71 70 15 16 23 22 64 65 72 71 16 17 24 23 65 66 73 72 17 18 25 24 66 67 74 73 18 19 26 25 67 68 75 74 19 20 27 26 68 69 76 75 21 22 29 28 70 71 78 77 22 23 30 29 71 72 79 78 23 24 31 30 72 73 80 79 24 25 32 31 73 74 81 80 25 26 33 32 74 75 82 81 26 27 34 33 75 76 83 82 28 29 36 35 77 78 85 84 29 30 37 36 78 79 86 85 30 31 38 37 79 80 87 86 31 32 39 38 80 81 88 87 32 33 40 39 81 82 89 88 33 34 41 40 82 83 90 89 35 36 43 42 84 85 92 91 36 37 44 43 85 86 93 92 37 38 45 44 86 87 94 93 38 39 46 45 87 88 95 94 39 40 47 46 88 89 96 95 40 41 48 47 89 90 97 96 49 50 57 56 98 99 106 105 50 51 58 57 99 100 107 106 51 52 59 58 100 101 108 107 52 53 60 59 101 102 109 108 53 54 61 60 102 103 110 109 54 55 62 61 103 104 111 110 56 57 64 63 105 106 113 112 57 58 65 64 106 107 114 113 58 59 66 65 107 108 115 114 59 60 67 66 108 109 116 115 60 61 68 67 109 110 117 116 61 62 69 68 110 111 118 117 63 64 71 70 112 113 120 119 64 65 72 71 113 114 121 120 65 66 73 72 114 115 122 121 66 67 74 73 115 116 123 122 67 68 75 74 116 117 124 123 68 69 76 75 117 118 125 124 70 71 78 77 119 120 127 126 71 72 79 78 120 121 128 127 72 73 80 79 121 122 129 128 73 74 81 80 122 123 130 129 74 75 82 81 123 124 131 130 75 76 83 82 124 125 132 131 77 78 85 84 126 127 134 133 78 79 86 85 127 128 135 134 79 80 87 86 128 129 136 135 80 81 88 87 129 130 137 136 81 82 89 88 130 131 138 137 82 83 90 89 131 132 139 138 84 85 92 91 133 134 141 140 85 86 93 92 134 135 142 141 86 87 94 93 135 136 143 142 87 88 95 94 136 137 144 143 88 89 96 95 137 138 145 144 89 90 97 96 138 139 146 145 98 99 106 105 147 148 155 154 99 100 107 106 148 149 156 155 100 101 108 107 149 150 157 156 101 102 109 108 150 151 158 157 102 103 110 109 151 152 159 158 103 104 111 110 152 153 160 159 105 106 113 112 154 155 162 161 106 107 114 113 155 156 163 162 107 108 115 114 156 157 164 163 108 109 116 115 157 158 165 164 109 110 117 116 158 159 166 165 110 111 118 117 159 160 167 166 112 113 120 119 161 162 169 168 113 114 121 120 162 163 170 169 114 115 122 121 163 164 171 170 115 116 123 122 164 165 172 171 116 117 124 123 165 166 173 172 117 118 125 124 166 167 174 173 119 120 127 126 168 169 176 175 120 121 128 127 169 170 177 176 121 122 129 128 170 171 178 177 122 123 130 129 171 172 179 178 123 124 131 130 172 173 180 179 124 125 132 131 173 174 181 180 126 127 134 133 175 176 183 182 127 128 135 134 176 177 184 183 128 129 136 135 177 178 185 184 129 130 137 136 178 179 186 185 130 131 138 137 179 180 187 186 131 132 139 138 180 181 188 187 133 134 141 140 182 183 190 189 134 135 142 141 183 184 191 190 135 136 143 142 184 185 192 191 136 137 144 143 185 186 193 192 137 138 145 144 186 187 194 193 138 139 146 145 187 188 195 194 147 148 155 154 196 197 204 203 148 149 156 155 197 198 205 204 149 150 157 156 198 199 206 205 150 151 158 157 199 200 207 206 151 152 159 158 200 201 208 207 152 153 160 159 201 202 209 208 154 155 162 161 203 204 211 210 155 156 163 162 204 205 212 211 156 157 164 163 205 206 213 212 157 158 165 164 206 207 214 213 158 159 166 165 207 208 215 214 159 160 167 166 208 209 216 215 161 162 169 168 210 211 218 217 162 163 170 169 211 212 219 218 163 164 171 170 212 213 220 219 164 165 172 171 213 214 221 220 165 166 173 172 214 215 222 221 166 167 174 173 215 216 223 222 168 169 176 175 217 218 225 224 169 170 177 176 218 219 226 225 170 171 178 177 219 220 227 226 171 172 179 178 220 221 228 227 172 173 180 179 221 222 229 228 173 174 181 180 222 223 230 229 175 176 183 182 224 225 232 231 176 177 184 183 225 226 233 232 177 178 185 184 226 227 234 233 178 179 186 185 227 228 235 234 179 180 187 186 228 229 236 235 180 181 188 187 229 230 237 236 182 183 190 189 231 232 239 238 183 184 191 190 232 233 240 239 184 185 192 191 233 234 241 240 185 186 193 192 234 235 242 241 186 187 194 193 235 236 243 242 187 188 195 194 236 237 244 243 196 197 204 203 245 246 253 252 197 198 205 204 246 247 254 253 198 199 206 205 247 248 255 254 199 200 207 206 248 249 256 255 200 201 208 207 249 250 257 256 201 202 209 208 250 251 258 257 203 204 211 210 252 253 260 259 204 205 212 211 253 254 261 260 205 206 213 212 254 255 262 261 206 207 214 213 255 256 263 262 207 208 215 214 256 257 264 263 208 209 216 215 257 258 265 264 210 211 218 217 259 260 267 266 211 212 219 218 260 261 268 267 212 213 220 219 261 262 269 268 213 214 221 220 262 263 270 269 214 215 222 221 263 264 271 270 215 216 223 222 264 265 272 271 217 218 225 224 266 267 274 273 218 219 226 225 267 268 275 274 219 220 227 226 268 269 276 275 220 221 228 227 269 270 277 276 221 222 229 228 270 271 278 277 222 223 230 229 271 272 279 278 224 225 232 231 273 274 281 280 225 226 233 232 274 275 282 281 226 227 234 233 275 276 283 282 227 228 235 234 276 277 284 283 228 229 236 235 277 278 285 284 229 230 237 236 278 279 286 285 231 232 239 238 280 281 288 287 232 233 240 239 281 282 289 288 233 234 241 240 282 283 290 289 234 235 242 241 283 284 291 290 235 236 243 242 284 285 292 291 236 237 244 243 285 286 293 292 245 246 253 252 294 295 302 301 246 247 254 253 295 296 303 302 247 248 255 254 296 297 304 303 248 249 256 255 297 298 305 304 249 250 257 256 298 299 306 305 250 251 258 257 299 300 307 306 252 253 260 259 301 302 309 308 253 254 261 260 302 303 310 309 254 255 262 261 303 304 311 310 255 256 263 262 304 305 312 311 256 257 264 263 305 306 313 312 257 258 265 264 306 307 314 313 259 260 267 266 308 309 316 315 260 261 268 267 309 310 317 316 261 262 269 268 310 311 318 317 262 263 270 269 311 312 319 318 263 264 271 270 312 313 320 319 264 265 272 271 313 314 321 320 266 267 274 273 315 316 323 322 267 268 275 274 316 317 324 323 268 269 276 275 317 318 325 324 269 270 277 276 318 319 326 325 270 271 278 277 319 320 327 326 271 272 279 278 320 321 328 327 273 274 281 280 322 323 330 329 274 275 282 281 323 324 331 330 275 276 283 282 324 325 332 331 276 277 284 283 325 326 333 332 277 278 285 284 326 327 334 333 278 279 286 285 327 328 335 334 280 281 288 287 329 330 337 336 281 282 289 288 330 331 338 337 282 283 290 289 331 332 339 338 283 284 291 290 332 333 340 339 284 285 292 291 333 334 341 340 285 286 293 292 334 335 342 341 294 295 302 301 343 344 351 350 295 296 303 302 344 345 352 351 296 297 304 303 345 346 353 352 297 298 305 304 346 347 354 353 298 299 306 305 347 348 355 354 299 300 307 306 348 349 356 355 301 302 309 308 350 351 358 357 302 303 310 309 351 352 359 358 303 304 311 310 352 353 360 359 304 305 312 311 353 354 361 360 305 306 313 312 354 355 362 361 306 307 314 313 355 356 363 362 308 309 316 315 357 358 365 364 309 310 317 316 358 359 366 365 310 311 318 317 359 360 367 366 311 312 319 318 360 361 368 367 312 313 320 319 361 362 369 368 313 314 321 320 362 363 370 369 315 316 323 322 364 365 372 371 316 317 324 323 365 366 373 372 317 318 325 324 366 367 374 373 318 319 326 325 367 368 375 374 319 320 327 326 368 369 376 375 320 321 328 327 369 370 377 376 322 323 330 329 371 372 379 378 323 324 331 330 372 373 380 379 324 325 332 331 373 374 381 380 325 326 333 332 374 375 382 381 326 327 334 333 375 376 383 382 327 328 335 334 376 377 384 383 329 330 337 336 378 379 386 385 330 331 338 337 379 380 387 386 331 332 339 338 380 381 388 387 332 333 340 339 381 382 389 388 333 334 341 340 382 383 390 389 334 335 342 341 383 384 391 390 343 344 351 350 392 393 400 399 344 345 352 351 393 394 401 400 345 346 353 352 394 395 402 401 346 347 354 353 395 396 403 402 347 348 355 354 396 397 404 403 348 349 356 355 397 398 405 404 350 351 358 357 399 400 407 406 351 352 359 358 400 401 408 407 352 353 360 359 401 402 409 408 353 354 361 360 402 403 410 409 354 355 362 361 403 404 411 410 355 356 363 362 404 405 412 411 357 358 365 364 406 407 414 413 358 359 366 365 407 408 415 414 359 360 367 366 408 409 416 415 360 361 368 367 409 410 417 416 361 362 369 368 410 411 418 417 362 363 370 369 411 412 419 418 364 365 372 371 413 414 421 420 365 366 373 372 414 415 422 421 366 367 374 373 415 416 423 422 367 368 375 374 416 417 424 423 368 369 376 375 417 418 425 424 369 370 377 376 418 419 426 425 371 372 379 378 420 421 428 427 372 373 380 379 421 422 429 428 373 374 381 380 422 423 430 429 374 375 382 381 423 424 431 430 375 376 383 382 424 425 432 431 376 377 384 383 425 426 433 432 378 379 386 385 427 428 435 434 379 380 387 386 428 429 436 435 380 381 388 387 429 430 437 436 381 382 389 388 430 431 438 437 382 383 390 389 431 432 439 438 383 384 391 390 432 433 440 439
        </DataArray>
        <DataArray type="Int32" Name="offsets" format="ascii">
          8 16 24 32 40 48 56 64 72 80 88 96 104 112 120 128 136 144 152 160 168 176 184 192 200 208 216 224 232 240 248 256 264 272 280 288 296 304 312 320 328 336 344 352 360 368 376 384 392 400 408 416 424 432 440 448 456 464 472 480 488 496 504 512 520 528 536 544 552 560 568 576 584 592 600 608 616 624 632 640 648 656 664 672 680 688 696 704 712 720 728 736 744 752 760 768 776 784 792 800 808 816 824 832 840 848 856 864 872 880 888 896 904 912 920 928 936 944 952 960 968 976 984 992 1000 1008 1016 1024 1032 1040 1048 1056 1064 1072 1080 1088 1096 1104 1112 1120 1128 1136 1144 1152 1160 1168 1176 1184 1192 1200 1208 1216 1224 1232 1240 1248 1256 1264 1272 1280 1288 1296 1304 1312 1320 1328 1336 1344 1352 1360 1368 1376 1384 1392 1400 1408 1416 1424 1432 1440 1448 1456 1464 1472 1480 1488 1496 1504 1512 1520 1528 1536 1544 1552 1560 1568 1576 1584 1592 1600 1608 1616 1624 1632 1640 1648 1656 1664 1672 1680 1688 1696 1704 1712 1720 1728 1736 1744 1752 1760 1768 1776 1784 1792 1800 1808 1816 1824 1832 1840 1848 1856 1864 1872 1880 1888 1896 1904 1912 1920 1928 1936 1944 1952 1960 1968 1976 1984 1992 2000 2008 2016 2024 2032 2040 2048 2056 2064 2072 2080 2088 2096 2104 2112 2120 2128 2136 2144 2152 2160 2168 2176 2184 2192 2200 2208 2216 2224 2232 2240 2248 2256 2264 2272 2280 2288 2296 2304
        </DataArray>
        <DataArray type="UInt8" Name="types" format="ascii">
          12 12 12 12 12 12 12 12 12 12 12 12 12 12 12 12 12 12 12 12 12 12 12 12 12 12 12 12 12 12 12 12 12 12 12 12 12 12 12 12 12 12 12 12 12 12 12 12 12 12 12 12 12 12 12 12 12 12 12 12 12 12 12 12 12 12 12 12 12 12 12 12 12 12 12 12 12 12 12 12 12 12 12 12 12 12 12 12 12 12 12 12 12 12 12 12 12 12 12 12 12 12 12 12 12 12 12 12 12 12 12 12 12 12 12 12 12 12 12 12 12 12 12 12 12 12 12 12 12 12 12 12 12 12 12 12 12 12 12 12 12 12 12 12 12 12 12 12 12 12 12 12 12 12 12 12 12 12 12 12 12 12 12 12 12 12 12 12 12 12 12 12 12 12 12 12 12 12 12 12 12 12 12 12 12 12 12 12 12 12 12 12 12 12 12 12 12 12 12 12 12 12 12 12 12 12 12 12 12 12 12 12 12 12 12 12 12 12 12 12 12 12 12 12 12 12 12 12 12 12 12 12 12 12 12 12 12 12 12 12 12 12 12 12 12 12 12 12 12 12 12 12 12 12 12 12 12 12 12 12 12 12 12 12 12 12 12 12 12 12 12 12 12 12 12 12 12 12 12 12 12 12 12 12 12 12 12 12
        </DataArray>
      </Cells>
      <PointData>
        <DataArray type="Float32" Name="displacement" NumberOfComponents="3" format="ascii">
          -0.335164 0 0 -0.323743 -0.0867468 0 -0.29026 -0.167582 0 -0.236997 -0.236997 0 -0.167582 -0.29026 0 -0.0867468 -0.323743 0 -3.86071e-17 -0.335164 0 -0.323743 0.0867468 0 -0.223443 -7.00578e-18 0 -0.206434 -0.0855078 0 -0.157998 -0.157998 0 -0.0855078 -0.206434 0 -3.52186e-17 -0.223443 0 0.0867468 -0.323743 0 -0.29026 0.167582 0 -0.206434 0.0855078 0 -0.111721 4.21268e-18 0 -0.0789989 -0.0789989 0 -1.89634e-17 -0.111721 0 0.0855078 -0.206434 0 0.167582 -0.29026 0 -0.236997 0.236997 0 -0.157998 0.157998 0 -0.0789989 0.0789989 0 0 0 0 0.0789989 -0.0789989 0 0.157998 -0.157998 0 0.236997 -0.236997 0 -0.167582 0.29026 0 -0.0855078 0.206434 0 -1.89908e-17 0.111721 0 0.0789989 0.0789989 0 0.111721 -5.19463e-18 0 0.206434 -0.0855078 0 0.29026 -0.167582 0 -0.0867468 0.323743 0 2.11651e-17 0.223443 0 0.0855078 0.206434 0 0.157998 0.157998 0 0.206434 0.0855078 0 0.223443 -3.25121e-17 0 0.323743 -0.0867468 0 1.31916e-17 0.335164 0 0.0867468 0.323743 0 0.167582 0.29026 0 0.236997 0.236997 0 0.29026 0.167582 0 0.323743 0.0867468 0 0.335164 -4.57783e-17 0 -0.335164 1.12218e-17 -0.2205 -0.323743 -0.0867468 -0.2205 -0.29026 -0.167582 -0.2205 -0.236997 -0.236997 -0.2205 -0.167582 -0.29026 -0.2205 -0.0867468 -0.323743 -0.2205 -9.82967e-17 -0.335164 -0.2205 -0.323743 0.0867468 -0.2205 -0.223443 3.75742e-17 -0.2205 -0.206434 -0.0855078 -0.2205 -0.157998 -0.157998 -0.2205 -0.0855078 -0.206434 -0.2205 -6.09055e-17 -0.223443 -0.2205 0.0867468 -0.323743 -0.2205 -0.29026 0.167582 -0.2205 -0.206434 0.0855078 -0.2205 -0.111721 1.9528e-17 -0.2205 -0.0789989 -0.0789989 -0.2205 -3.6884e-17 -0.111721 -0.2205 0.0855078 -0.206434 -0.2205 0.167582 -0.29026 -0.2205 -0.236997 0.236997 -0.2205 -0.157998 0.157998 -0.2205 -0.0789989 0.0789989 -0.2205 -1.83177e-17 7.85978e-18 -0.2205 0.0789989 -0.0789989 -0.2205 0.157998 -0.157998 -0.2205 0.236997 -0.236997 -0.2205 -0.167582 0.29026 -0.2205 -0.0855078 0.206434 -0.2205 -3.26932e-17 0.111721 -0.2205 0.0789989 0.0789989 -0.2205 0.111721 -2.7148e-17 -0.2205 0.206434 -0.0855078 -0.2205 0.29026 -0.167582 -0.2205 -0.0867468 0.323743 -0.2205 1.76953e-19 0.223443 -0.2205 0.0855078 0.206434 -0.2205 0.157998 0.157998 -0.2205 0.206434 0.0855078 -0.2205 0.223443 -3.3898e-17 -0.2205 0.323743 -0.0867468 -0.2205 1.80158e-17 0.335164 -0.2205 0.0867468 0.323743 -0.2205 0.167582 0.29026 -0.2205 0.236997 0.236997 -0.2205 0.29026 0.167582 -0.2205 0.323743 0.0867468 -0.2205 0.335164 -6.00109e-17 -0.2205 -0.335164 1.1672e-16 -0.441 -0.323743 -0.0867468 -0.441 -0.29026 -0.167582 -0.441 -0.236997 -0.236997 -0.441 -0.167582 -0.29026 -0.441 -0.0867468 -0.323743 -0.441 -1.45628e-16 -0.335164 -0.441 -0.323743 0.0867468 -0.441 -0.223443 7.61026e-17 -0.441 -0.206434 -0.0855078 -0.441 -0.157998 -0.157998 -0.441 -0.0855078 -0.206434 -0.441 -1.10724e-16 -0.223443 -0.441 0.0867468 -0.323743 -0.441 -0.29026 0.167582 -0.441 -0.206434 0.0855078 -0.441 -0.111721 5.88133e-17 -0.441 -0.0789989 -0.0789989 -0.441 -8.7826e-17 -0.111721 -0.441 0.0855078 -0.206434 -0.441 0.167582 -0.29026 -0.441 -0.236997 0.236997 -0.441 -0.157998 0.157998 -0.441 -0.0789989 0.0789989 -0.441 -3.67264e-17 1.83134e-17 -0.441 0.0789989 -0.0789989 -0.441 0.157998 -0.157998 -0.441 0.236997 -0.236997 -0.441 -0.167582 0.29026 -0.441 -0.0855078 0.206434 -0.441 -4.20423e-17 0.111721 -0.441 0.0789989 0.0789989 -0.441 0.111721 -2.18537e-18 -0.441 0.206434 -0.0855078 -0.441 0.29026 -0.167582 -0.441 -0.0867468 0.323743 -0.441 1.48887e-17 0.223443 -0.441 0.0855078 0.206434 -0.441 0.157998 0.157998 -0.441 0.206434 0.0855078 -0.441 0.223443 -2.40347e-17 -0.441 0.323743 -0.0867468 -0.441 5.70078e-17 0.335164 -0.441 0.0867468 0.323743 -0.441 0.167582 0.29026 -0.441 0.236997 0.236997 -0.441 0.29026 0.167582 -0.441 0.323743 0.0867468 -0.441 0.335164 -7.34683e-17 -0.441 -0.335164 1.92977e-16 -0.6615 -0.323743 -0.0867468 -0.6615 -0.29026 -0.167582 -0.6615 -0.236997 -0.236997 -0.6615 -0.167582 -0.29026 -0.6615 -0.0867468 -0.323743 -0.6615 -2.39307e-16 -0.335164 -0.6615 -0.323743 0.0867468 -0.6615 -0.223443 1.69286e-16 -0.6615 -0.206434 -0.0855078 -0.6615 -0.157998 -0.157998 -0.6615 -0.0855078 -0.206434 -0.6615 -1.86948e-16 -0.223443 -0.6615 0.0867468 -0.323743 -0.6615 -0.29026 0.167582 -0.6615 -0.206434 0.0855078 -0.6615 -0.111721 1.25991e-16 -0.6615 -0.0789989 -0.0789989 -0.6615 -1.52469e-16 -0.111721 -0.6615 0.0855078 -0.206434 -0.6615 0.167582 -0.29026 -0.6615 -0.236997 0.236997 -0.6615 -0.157998 0.157998 -0.6615 -0.0789989 0.0789989 -0.6615 -1.04011e-16 7.24625e-17 -0.6615 0.0789989 -0.0789989 -0.6615 0.157998 -0.157998 -0.6615 0.236997 -0.236997 -0.6615 -0.167582 0.29026 -0.6615 -0.0855078 0.206434 -0.6615 -6.03591e-17 0.111721 -0.6615 0.0789989 0.0789989 -0.6615 0.111721 2.36304e-17 -0.6615 0.206434 -0.0855078 -0.6615 0.29026 -0.167582 -0.6615 -0.0867468 0.323743 -0.6615 2.47093e-18 0.223443 -0.6615 0.0855078 0.206434 -0.6615 0.157998 0.157998 -0.6615 0.206434 0.0855078 -0.6615 0.223443 -2.85786e-17 -0.6615 0.323743 -0.0867468 -0.6615 4.70263e-17 0.335164 -0.6615 0.0867468 0.323743 -0.6615 0.167582 0.29026 -0.6615 0.236997 0.236997 -0.6615 0.29026 0.167582 -0.6615 0.323743 0.0867468 -0.6615 0.335164 -1.04758e-16 -0.6615 -0.335164 3.48141e-16 -0.882 -0.323743 -0.0867468 -0.882 -0.29026 -0.167582 -0.882 -0.236997 -0.236997 -0.882 -0.167582 -0.29026 -0.882 -0.0867468 -0.323743 -0.882 -3.64475e-16 -0.335164 -0.882 -0.323743 0.0867468 -0.882 -0.223443 2.62373e-16 -0.882 -0.206434 -0.0855078 -0.882 -0.157998 -0.157998 -0.882 -0.0855078 -0.206434 -0.882 -3.19861e-16 -0.223443 -0.882 0.0867468 -0.323743 -0.882 -0.29026 0.167582 -0.882 -0.206434 0.0855078 -0.882 -0.111721 1.88958e-16 -0.882 -0.0789989 -0.0789989 -0.882 -2.45648e-16 -0.111721 -0.882 0.0855078 -0.206434 -0.882 0.167582 -0.29026 -0.882 -0.236997 0.236997 -0.882 -0.157998 0.157998 -0.882 -0.0789989 0.0789989 -0.882 -1.32073e-16 1.24093e-16 -0.882 0.0789989 -0.0789989 -0.882 0.157998 -0.157998 -0.882 0.236997 -0.236997 -0.882 -0.167582 0.29026 -0.882 -0.0855078 0.206434 -0.882 -8.00668e-17 0.111721 -0.882 0.0789989 0.0789989 -0.882 0.111721 4.2494e-17 -0.882 0.206434 -0.0855078 -0.882 0.29026 -0.167582 -0.882 -0.0867468 0.323743 -0.882 3.27986e-17 0.223443 -0.882 0.0855078 0.206434 -0.882 0.157998 0.157998 -0.882 0.206434 0.0855078 -0.882 0.223443 -6.3234e-17 -0.882 0.323743 -0.0867468 -0.882 1.23673e-16 0.335164 -0.882 0.0867468 0.323743 -0.882 0.167582 0.29026 -0.882 0.236997 0.236997 -0.882 0.29026 0.167582 -0.882 0.323743 0.0867468 -0.882 0.335164 -1.1046e-16 -0.882 -0.335164 4.18603e-16 -1.1025 -0.323743 -0.0867468 -1.1025 -0.29026 -0.167582 -1.1025 -0.236997 -0.236997 -1.1025 -0.167582 -0.29026 -1.1025 -0.0867468 -0.323743 -1.1025 -4.99144e-16 -0.335164 -1.1025 -0.323743 0.0867468 -1.1025 -0.223443 3.17097e-16 -1.1025 -0.206434 -0.0855078 -1.1025 -0.157998 -0.157998 -1.1025 -0.0855078 -0.206434 -1.1025 -4.30071e-16 -0.223443 -1.1025 0.0867468 -0.323743 -1.1025 -0.29026 0.167582 -1.1025 -0.206434 0.0855078 -1.1025 -0.111721 2.55714e-16 -1.1025 -0.0789989 -0.0789989 -1.1025 -3.37152e-16 -0.111721 -1.1025 0.0855078 -0.206434 -1.1025 0.167582 -0.29026 -1.1025 -0.236997 0.236997 -1.1025 -0.157998 0.157998 -1.1025 -0.0789989 0.0789989 -1.1025 -2.37376e-16 1.05889e-16 -1.1025 0.0789989 -0.0789989 -1.1025 0.157998 -0.157998 -1.1025 0.236997 -0.236997 -1.1025 -0.167582 0.29026 -1.1025 -0.0855078 0.206434 -1.1025 -1.13214e-16 0.111721 -1.1025 0.0789989 0.0789989 -1.1025 0.111721 4.58623e-18 -1.1025 0.206434 -0.0855078 -1.1025 0.29026 -0.167582 -1.1025 -0.0867468 0.323743 -1.1025 5.0099e-17 0.223443 -1.1025 0.0855078 0.206434 -1.1025 0.157998 0.157998 -1.1025 0.206434 0.0855078 -1.1025 0.223443 -7.43767e-17 -1.1025 0.323743 -0.0867468 -1.1025 1.36935e-16 0.335164 -1.1025 0.0867468 0.323743 -1.1025 0.167582 0.29026 -1.1025 0.236997 0.236997 -1.1025 0.29026 0.167582 -1.1025 0.323743 0.0867468 -1.1025 0.335164 -2.11743e-16 -1.1025 -0.335164 5.3614e-16 -1.323 -0.323743 -0.0867468 -1.323 -0.29026 -0.167582 -1.323 -0.236997 -0.236997 -1.323 -0.167582 -0.29026 -1.323 -0.0867468 -0.323743 -1.323 -5.82749e-16 -0.335164 -1.323 -0.323743 0.0867468 -1.323 -0.223443 3.74462e-16 -1.323 -0.206434 -0.0855078 -1.323 -0.157998 -0.157998 -1.323 -0.0855078 -0.206434 -1.323 -4.53939e-16 -0.223443 -1.323 0.0867468 -0.323743 -1.323 -0.29026 0.167582 -1.323 -0.206434 0.0855078 -1.323 -0.111721 2.2116e-16 -1.323 -0.0789989 -0.0789989 -1.323 -3.65219e-16 -0.111721 -1.323 0.0855078 -0.206434 -1.323 0.167582 -0.29026 -1.323 -0.236997 0.236997 -1.323 -0.157998 0.157998 -1.323 -0.0789989 0.0789989 -1.323 -2.84743e-16 1.37767e-16 -1.323 0.0789989 -0.0789989 -1.323 0.157998 -0.157998 -1.323 0.236997 -0.236997 -1.323 -0.167582 0.29026 -1.323 -0.0855078 0.206434 -1.323 -1.59861e-16 0.111721 -1.323 0.0789989 0.0789989 -1.323 0.111721 8.08932e-18 -1.323 0.206434 -0.0855078 -1.323 0.29026 -0.167582 -1.323 -0.0867468 0.323743 -1.323 -1.61207e-17 0.223443 -1.323 0.0855078 0.206434 -1.323 0.157998 0.157998 -1.323 0.206434 0.0855078 -1.323 0.223443 -1.38855e-16 -1.323 0.323743 -0.0867468 -1.323 1.24192e-16 0.335164 -1.323 0.0867468 0.323743 -1.323 0.167582 0.29026 -1.323 0.236997 0.236997 -1.323 0.29026 0.167582 -1.323 0.323743 0.0867468 -1.323 0.335164 -2.61052e-16 -1.323 -0.335164 6.43447e-16 -1.5435 -0.323743 -0.0867468 -1.5435 -0.29026 -0.167582 -1.5435 -0.236997 -0.236997 -1.5435 -0.167582 -0.29026 -1.5435 -0.0867468 -0.323743 -1.5435 -6.13957e-16 -0.335164 -1.5435 -0.323743 0.0867468 -1.5435 -0.223443 4.21061e-16 -1.5435 -0.206434 -0.0855078 -1.5435 -0.157998 -0.157998 -1.5435 -0.0855078 -0.206434 -1.5435 -5.21635e-16 -0.223443 -1.5435 0.0867468 -0.323743 -1.5435 -0.29026 0.167582 -1.5435 -0.206434 0.0855078 -1.5435 -0.111721 2.97112e-16 -1.5435 -0.0789989 -0.0789989 -1.5435 -4.05909e-16 -0.111721 -1.5435 0.0855078 -0.206434 -1.5435 0.167582 -0.29026 -1.5435 -0.236997 0.236997 -1.5435 -0.157998 0.157998 -1.5435 -0.0789989 0.0789989 -1.5435 -2.55965e-16 1.4857e-16 -1.5435 0.0789989 -0.0789989 -1.5435 0.157998 -0.157998 -1.5435 0.236997 -0.236997 -1.5435 -0.167582 0.29026 -1.5435 -0.0855078 0.206434 -1.5435 -1.34305e-16 0.111721 -1.5435 0.0789989 0.0789989 -1.5435 0.111721 -4.31208e-18 -1.5435 0.206434 -0.0855078 -1.5435 0.29026 -0.167582 -1.5435 -0.0867468 0.323743 -1.5435 5.79151e-17 0.223443 -1.5435 0.0855078 0.206434 -1.5435 0.157998 0.157998 -1.5435 0.206434 0.0855078 -1.5435 0.223443 -1.17967e-16 -1.5435 0.323743 -0.0867468 -1.5435 1.95083e-16 0.335164 -1.5435 0.0867468 0.323743 -1.5435 0.167582 0.29026 -1.5435 0.236997 0.236997 -1.5435 0.29026 0.167582 -1.5435 0.323743 0.0867468 -1.5435 0.335164 -2.73769e-16 -1.5435 -0.335164 5.0459e-16 -1.764 -0.323743 -0.0867468 -1.764 -0.29026 -0.167582 -1.764 -0.236997 -0.236997 -1.764 -0.167582 -0.29026 -1.764 -0.0867468 -0.323743 -1.764 -7.10456e-16 -0.335164 -1.764 -0.323743 0.0867468 -1.764 -0.223443 4.33653e-16 -1.764 -0.206434 -0.0855078 -1.764 -0.157998 -0.157998 -1.764 -0.0855078 -0.206434 -1.764 -6.04283e-16 -0.223443 -1.764 0.0867468 -0.323743 -1.764 -0.29026 0.167582 -1.764 -0.206434 0.0855078 -1.764 -0.111721 3.14964e-16 -1.764 -0.0789989 -0.0789989 -1.764 -4.46109e-16 -0.111721 -1.764 0.0855078 -0.206434 -1.764 0.167582 -0.29026 -1.764 -0.236997 0.236997 -1.764 -0.157998 0.157998 -1.764 -0.0789989 0.0789989 -1.764 -2.89477e-16 9.9365e-17 -1.764 0.0789989 -0.0789989 -1.764 0.157998 -0.157998 -1.764 0.236997 -0.236997 -1.764 -0.167582 0.29026 -1.764 -0.0855078 0.206434 -1.764 -1.739e-16 0.111721 -1.764 0.0789989 0.0789989 -1.764 0.111721 -5.10501e-17 -1.764 0.206434 -0.0855078 -1.764 0.29026 -0.167582 -1.764 -0.0867468 0.323743 -1.764 -2.33821e-18 0.223443 -1.764 0.0855078 0.206434 -1.764 0.157998 0.157998 -1.764 0.206434 0.0855078 -1.764 0.223443 -1.85043e-16 -1.764 0.323743 -0.0867468 -1.764 1.41557e-16 0.335164 -1.764 0.0867468 0.323743 -1.764 0.167582 0.29026 -1.764 0.236997 0.236997 -1.764 0.29026 0.167582 -1.764 0.323743 0.0867468 -1.764 0.335164 -3.44569e-16 -1.764
        </DataArray>
      </PointData>
      <CellData>
        <DataArray type="Float32" Name="stress_zz" NumberOfComponents="1" format="ascii">
          26.7984 26.7984 26.7984 26.7984 26.7984 26.7984 26.7984 26.7984 26.7984 26.7984 26.7984 26.7984 26.7984 26.7984 26.7984 26.7984 26.7984 26.7984 26.7984 26.7984 26.7984 26.7984 26.7984 26.7984 26.7984 26.7984 26.7984 26.7984 26.7984 26.7984 26.7984 26.7984 26.7984 26.7984 26.7984 26.7984 26.7984 26.7984 26.7984 26.7984 26.7984 26.7984 26.7984 26.7984 26.7984 26.7984 26.7984 26.7984 26.7984 26.7984 26.7984 26.7984 26.7984 26.7984 26.7984 26.7984 26.7984 26.7984 26.7984 26.7984 26.7984 26.7984 26.7984 26.7984 26.7984 26.7984 26.7984 26.7984 26.7984 26.7984 26.7984 26.7984 26.7984 26.7984 26.7984 26.7984 26.7984 26.7984 26.7984 26.7984 26.7984 26.7984 26.7984 26.7984 26.7984 26.7984 26.7984 26.7984 26.7984 26.7984 26.7984 26.7984 26.7984 26.7984 26.7984 26.7984 26.7984 26.7984 26.7984 26.7984 26.7984 26.7984 26.7984 26.7984 26.7984 26.7984 26.7984 26.7984 26.7984 26.7984 26.7984 26.7984 26.7984 26.7984 26.7984 26.7984 26.7984 26.7984 26.7984 26.7984 26.7984 26.7984 26.7984 26.7984 26.7984 26.7984 26.7984 26.7984 26.7984 26.7984 26.7984 26.7984 26.7984 26.7984 26.7984 26.7984 26.7984 26.7984 26.7984 26.7984 26.7984 26.7984 26.7984 26.7984 26.7984 26.7984 26.7984 26.7984 26.7984 26.7984 26.7984 26.7984 26.7984 26.7984 26.7984 26.7984 26.7984 26.7984 26.7984 26.7984 26.7984 26.7984 26.7984 26.7984 26.7984 26.7984 26.7984 26.7984 26.7984 26.7984 26.7984 26.7984 26.7984 26.7984 26.7984 26.7984 26.7984 26.7984 26.7984 26.7984 26.7984 26.7984 26.7984 26.7984 26.7984 26.7984 26.7984 26.7984 26.7984 26.7984 26.7984 26.7984 26.7984 26.7984 26.7984 26.7984 26.7984 26.7984 26.7984 26.7984 26.7984 26.7984 26.7984 26.7984 26.7984 26.7984 26.7984 26.7984 26.7984 26.7984 26.7984 26.7984 26.7984 26.7984 26.7984 26.7984 26.7984 26.7984 26.7984 26.7984 26.7984 26.7984 26.7984 26.7984 26.7984 26.7984 26.7984 26.7984 26.7984 26.7984 26.7984 26.7984 26.7984 26.7984 26.7984 26.7984 26.7984 26.7984 26.7984 26.7984 26.7984 26.7984 26.7984 26.7984 26.7984 26.7984 26.7984 26.7984 26.7984 26.7984 26.7984 26.7984 26.7984 26.7984 26.7984 26.7984 26.7984 26.7984 26.7984 26.7984 26.7984 26.7984 26.7984 26.7984 26.7984 26.7984 26.7984 26.7984 26.7984 26.7984 26.7984 26.7984 26.7984 26.7984 26.7984 26.7984 26.7984 26.7984 26.7984 26.7984 26.7984 26.7984 26.7984 26.7984 26.7984 26.7984 26.7984 26.7984
        </DataArray>
        <DataArray type="Float32" Name="deviatoric_strain" NumberOfComponents="1" format="ascii">
          0.00602664 0.00602664 0.00602664 0.00602664 0.00602664 0.00602664 0.00602664 0.00602664 0.00602664 0.00602664 0.00602664 0.00602664 0.00602664 0.00602664 0.00602664 0.00602664 0.00602664 0.00602664 0.00602664 0.00602664 0.00602664 0.00602664 0.00602664 0.00602664 0.00602664 0.00602664 0.00602664 0.00602664 0.00602664 0.00602664 0.00602664 0.00602664 0.00602664 0.00602664 0.00602664 0.00602664 0.00602664 0.00602664 0.00602664 0.00602664 0.00602664 0.00602664 0.00602664 0.00602664 0.00602664 0.00602664 0.00602664 0.00602664 0.00602664 0.00602664 0.00602664 0.00602664 0.00602664 0.00602664 0.00602664 0.00602664 0.00602664 0.00602664 0.00602664 0.00602664 0.00602664 0.00602664 0.00602664 0.00602664 0.00602664 0.00602664 0.00602664 0.00602664 0.00602664 0.00602664 0.00602664 0.00602664 0.00602664 0.00602664 0.00602664 0.00602664 0.00602664 0.00602664 0.00602664 0.00602664 0.00602664 0.00602664 0.00602664 0.00602664 0.00602664 0.00602664 0.00602664 0.00602664 0.00602664 0.00602664 0.00602664 0.00602664 0.00602664 0.00602664 0.00602664 0.00602664 0.00602664 0.00602664 0.00602664 0.00602664 0.00602664 0.00602664 0.00602664 0.00602664 0.00602664 0.00602664 0.00602664 0.00602664 0.00602664 0.00602664 0.00602664 0.00602664 0.00602664 0.00602664 0.00602664 0.00602664 0.00602664 0.00602664 0.00602664 0.00602664 0.00602664 0.00602664 0.00602664 0.00602664 0.00602664 0.00602664 0.00602664 0.00602664 0.00602664 0.00602664 0.00602664 0.00602664 0.00602664 0.00602664 0.00602664 0.00602664 0.00602664 0.00602664 0.00602664 0.00602664 0.00602664 0.00602664 0.00602664 0.00602664 0.00602664 0.00602664 0.00602664 0.00602664 0.00602664 0.00602664 0.00602664 0.00602664 0.00602664 0.00602664 0.00602664 0.00602664 0.00602664 0.00602664 0.00602664 0.00602664 0.00602664 0.00602664 0.00602664 0.00602664 0.00602664 0.00602664 0.00602664 0.00602664 0.00602664 0.00602664 0.00602664 0.00602664 0.00602664 0.00602664 0.00602664 0.00602664 0.00602664 0.00602664 0.00602664 0.00602664 0.00602664 0.00602664 0.00602664 0.00602664 0.00602664 0.00602664 0.00602664 0.00602664 0.00602664 0.00602664 0.00602664 0.00602664 0.00602664 0.00602664 0.00602664 0.00602664 0.00602664 0.00602664 0.00602664 0.00602664 0.00602664 0.00602664 0.00602664 0.00602664 0.00602664 0.00602664 0.00602664 0.00602664 0.00602664 0.00602664 0.00602664 0.00602664 0.00602664 0.00602664 0.00602664 0.00602664 0.00602664 0.00602664 0.00602664 0.00602664 0.00602664 0.00602664 0.00602664 0.00602664 0.00602664 0.00602664 0.00602664 0.00602664 0.00602664 0.00602664 0.00602664 0.00602664 0.00602664 0.00602664 0.00602664 0.00602664 0.00602664 0.00602664 0.00602664 0.00602664 0.00602664 0.00602664 0.00602664 0.00602664 0.00602664 0.00602664 0.00602664 0.00602664 0.00602664 0.00602664 0.00602664 0.00602664 0.00602664 0.00602664 0.00602664 0.00602664 0.00602664 0.00602664 0.00602664 0.00602664 0.00602664 0.00602664 0.00602664 0.00602664 0.00602664 0.00602664 0.00602664 0.00602664 0.00602664 0.00602664 0.00602664 0.00602664 0.00602664 0.00602664 0.00602664 0.00602664 0.00602664 0.00602664 0.00602664 0.00602664 0.00602664 0.00602664 0.00602664 0.00602664 0.00602664 0.00602664 0.00602664 0.00602664
        </DataArray>
      </CellData>
    </Piece>
  </UnstructuredGrid>
</VTKFile>
