<?xml version="1.0"?>
<VTKFile type="UnstructuredGrid" version="0.1" byte_order="LittleEndian">
  <UnstructuredGrid>
    <Piece NumberOfPoints="441" NumberOfCells="288">
      <Points>
        <DataArray type="Float32" NumberOfComponents="3" format="ascii">
          -54.6024 -53.033 0 -39.0159 -65.3581 0 -20.7705 -73.2291 0 -1.1097 -76.1097 0 18.6268 -73.8035 0 37.0938 -66.4678 0 53.033 -54.6024 0 -66.4678 -37.0938 0 -36.4016 -35.3553 0 -20.1008 -46.5944 0 -0.739799 -50.7398 0 18.7338 -47.1606 0 35.3553 -36.4016 0 65.3581 -39.0159 0 -73.8035 -18.6268 0 -47.1606 -18.7338 0 -18.2008 -17.6777 0 -0.3699 -25.3699 0 17.6777 -18.2008 0 46.5944 -20.1008 0 73.2291 -20.7705 0 -76.1097 1.1097 0 -50.7398 0.739799 0 -25.3699 0.3699 0 0 0 0 25.3699 -0.3699 0 50.7398 -0.739799 0 76.1097 -1.1097 0 -73.2291 20.7705 0 -46.5944 20.1008 0 -17.6777 18.2008 0 0.3699 25.3699 0 18.2008 17.6777 0 47.1606 18.7338 0 73.8035 18.6268 0 -65.3581 39.0159 0 -35.3553 36.4016 0 -18.7338 47.1606 0 0.739799 50.7398 0 20.1008 46.5944 0 36.4016 35.3553 0 66.4678 37.0938 0 -53.033 54.6024 0 -37.0938 66.4678 0 -18.6268 73.8035 0 1.1097 76.1097 0 20.7705 73.2291 0 39.0159 65.3581 0 54.6024 53.033 0 -54.6024 -53.033 36.384 -39.0159 -65.3581 36.384 -20.7705 -73.2291 36.384 -1.1097 -76.1097 36.384 18.6268 -73.8035 36.384 37.0938 -66.4678 36.384 53.033 -54.6024 36.384 -66.4678 -37.0938 36.384 -36.4016 -35.3553 36.384 -20.1008 -46.5944 36.384 -0.739799 -50.7398 36.384 18.7338 -47.1606 36.384 35.3553 -36.4016 36.384 65.3581 -39.0159 36.384 -73.8035 -18.6268 36.384 -47.1606 -18.7338 36.384 -18.2008 -17.6777 36.384 -0.3699 -25.3699 36.384 17.6777 -18.2008 36.384 46.5944 -20.1008 36.384 73.2291 -20.7705 36.384 -76.1097 1.1097 36.384 -50.7398 0.739799 36.384 -25.3699 0.3699 36.384 -3.95425e-17 -4.45287e-17 36.384 25.3699 -0.3699 36.384 50.7398 -0.739799 36.384 76.1097 -1.1097 36.384 -73.2291 20.7705 36.384 -46.5944 20.1008 36.384 -17.6777 18.2008 36.384 0.3699 25.3699 36.384 18.2008 17.6777 36.384 47.1606 18.7338 36.384 73.8035 18.6268 36.384 -65.3581 39.0159 36.384 -35.3553 36.4016 36.384 -18.7338 47.1606 36.384 0.739799 50.7398 36.384 20.1008 46.5944 36.384 36.4016 35.3553 36.384 66.4678 37.0938 36.384 -53.033 54.6024 36.384 -37.0938 66.4678 36.384 -18.6268 73.8035 36.384 1.1097 76.1097 36.384 20.7705 73.2291 36.384 39.0159 65.3581 36.384 54.6024 53.033 36.384 -54.6024 -53.033 72.768 -39.0159 -65.3581 72.768 -20.7705 -73.2291 72.768 -1.1097 -76.1097 72.768 18.6268 -73.8035 72.768 37.0938 -66.4678 72.768 53.033 -54.6024 72.768 -66.4678 -37.0938 72.768 -36.4016 -35.3553 72.768 -20.1008 -46.5944 72.768 -0.739799 -50.7398 72.768 18.7338 -47.1606 72.768 35.3553 -36.4016 72.768 65.3581 -39.0159 72.768 -73.8035 -18.6268 72.768 -47.1606 -18.7338 72.768 -18.2008 -17.6777 72.768 -0.3699 -25.3699 72.768 17.6777 -18.2008 72.768 46.5944 -20.1008 72.768 73.2291 -20.7705 72.768 -76.1097 1.1097 72.768 -50.7398 0.739799 72.768 -25.3699 0.3699 72.768 -2.14497e-16 -2.9759e-16 72.768 25.3699 -0.3699 72.768 50.7398 -0.739799 72.768 76.1097 -1.1097 72.768 -73.2291 20.7705 72.768 -46.5944 20.1008 72.768 -17.6777 18.2008 72.768 0.3699 25.3699 72.768 18.2008 17.6777 72.768 47.1606 18.7338 72.768 73.8035 18.6268 72.768 -65.3581 39.0159 72.768 -35.3553 36.4016 72.768 -18.7338 47.1606 72.768 0.739799 50.7398 72.768 20.1008 46.5944 72.768 36.4016 35.3553 72.768 66.4678 37.0938 72.768 -53.033 54.6024 72.768 -37.0938 66.4678 72.768 -18.6268 73.8035 72.768 1.1097 76.1097 72.768 20.7705 73.2291 72.768 39.0159 65.3581 72.768 54.6024 53.033 72.768 -54.6024 -53.033 109.152 -39.0159 -65.3581 109.152 -20.7705 -73.2291 109.152 -1.1097 -76.1097 109.152 18.6268 -73.8035 109.152 37.0938 -66.4678 109.152 53.033 -54.6024 109.152 -66.4678 -37.0938 109.152 -36.4016 -35.3553 109.152 -20.1008 -46.5944 109.152 -0.739799 -50.7398 109.152 18.7338 -47.1606 109.152 35.3553 -36.4016 109.152 65.3581 -39.0159 109.152 -73.8035 -18.6268 109.152 -47.1606 -18.7338 109.152 -18.2008 -17.6777 109.152 -0.3699 -25.3699 109.152 17.6777 -18.2008 109.152 46.5944 -20.1008 109.152 73.2291 -20.7705 109.152 -76.1097 1.1097 109.152 -50.7398 0.739799 109.152 -25.3699 0.3699 109.152 -2.8802e-16 -7.59815e-16 109.152 25.3699 -0.3699 109.152 50.7398 -0.739799 109.152 76.1097 -1.1097 109.152 -73.2291 20.7705 109.152 -46.5944 20.1008 109.152 -17.6777 18.2008 109.152 0.3699 25.3699 109.152 18.2008 17.6777 109.152 47.1606 18.7338 109.152 73.8035 18.6268 109.152 -65.3581 39.0159 109.152 -35.3553 36.4016 109.152 -18.7338 47.1606 109.152 0.739799 50.7398 109.152 20.1008 46.5944 109.152 36.4016 35.3553 109.152 66.4678 37.0938 109.152 -53.033 54.6024 109.152 -37.0938 66.4678 109.152 -18.6268 73.8035 109.152 1.1097 76.1097 109.152 20.7705 73.2291 109.152 39.0159 65.3581 109.152 54.6024 53.033 109.152 -54.6024 -53.033 145.536 -39.0159 -65.3581 145.536 -20.7705 -73.2291 145.536 -1.1097 -76.1097 145.536 18.6268 -73.8035 145.536 37.0938 -66.4678 145.536 53.033 -54.6024 145.536 -66.4678 -37.0938 145.536 -36.4016 -35.3553 145.536 -20.1008 -46.5944 145.536 -0.739799 -50.7398 145.536 18.7338 -47.1606 145.536 35.3553 -36.4016 145.536 65.3581 -39.0159 145.536 -73.8035 -18.6268 145.536 -47.1606 -18.7338 145.536 -18.2008 -17.6777 145.536 -0.3699 -25.3699 145.536 17.6777 -18.2008 145.536 46.5944 -20.1008 145.536 73.2291 -20.7705 145.536 -76.1097 1.1097 145.536 -50.7398 0.739799 145.536 -25.3699 0.3699 145.536 -4.46219e-16 -1.09547e-15 145.536 25.3699 -0.3699 145.536 50.7398 -0.739799 145.536 76.1097 -1.1097 145.536 -73.2291 20.7705 145.536 -46.5944 20.1008 145.536 -17.6777 18.2008 145.536 0.3699 25.3699 145.536 18.2008 17.6777 145.536 47.1606 18.7338 145.536 73.8035 18.6268 145.536 -65.3581 39.0159 145.536 -35.3553 36.4016 145.536 -18.7338 47.1606 145.536 0.739799 50.7398 145.536 20.1008 46.5944 145.536 36.4016 35.3553 145.536 66.4678 37.0938 145.536 -53.033 54.6024 145.536 -37.0938 66.4678 145.536 -18.6268 73.8035 145.536 1.1097 76.1097 145.536 20.7705 73.2291 145.536 39.0159 65.3581 145.536 54.6024 53.033 145.536 -54.6024 -53.033 181.92 -39.0159 -65.3581 181.92 -20.7705 -73.2291 181.92 -1.1097 -76.1097 181.92 18.6268 -73.8035 181.92 37.0938 -66.4678 181.92 53.033 -54.6024 181.92 -66.4678 -37.0938 181.92 -36.4016 -35.3553 181.92 -20.1008 -46.5944 181.92 -0.739799 -50.7398 181.92 18.7338 -47.1606 181.92 35.3553 -36.4016 181.92 65.3581 -39.0159 181.92 -73.8035 -18.6268 181.92 -47.1606 -18.7338 181.92 -18.2008 -17.6777 181.92 -0.3699 -25.3699 181.92 17.6777 -18.2008 181.92 46.5944 -20.1008 181.92 73.2291 -20.7705 181.92 -76.1097 1.1097 181.92 -50.7398 0.739799 181.92 -25.3699 0.3699 181.92 -5.89774e-16 -1.61851e-15 181.92 25.3699 -0.3699 181.92 50.7398 -0.739799 181.92 76.1097 -1.1097 181.92 -73.2291 20.7705 181.92 -46.5944 20.1008 181.92 -17.6777 18.2008 181.92 0.3699 25.3699 181.92 18.2008 17.6777 181.92 47.1606 18.7338 181.92 73.8035 18.6268 181.92 -65.3581 39.0159 181.92 -35.3553 36.4016 181.92 -18.7338 47.1606 181.92 0.739799 50.7398 181.92 20.1008 46.5944 181.92 36.4016 35.3553 181.92 66.4678 37.0938 181.92 -53.033 54.6024 181.92 -37.0938 66.4678 181.92 -18.6268 73.8035 181.92 1.1097 76.1097 181.92 20.7705 73.2291 181.92 39.0159 65.3581 181.92 54.6024 53.033 181.92 -54.6024 -53.033 218.304 -39.0159 -65.3581 218.304 -20.7705 -73.2291 218.304 -1.1097 -76.1097 218.304 18.6268 -73.8035 218.304 37.0938 -66.4678 218.304 53.033 -54.6024 218.304 -66.4678 -37.0938 218.304 -36.4016 -35.3553 218.304 -20.1008 -46.5944 218.304 -0.739799 -50.7398 218.304 18.7338 -47.1606 218.304 35.3553 -36.4016 218.304 65.3581 -39.0159 218.304 -73.8035 -18.6268 218.304 -47.1606 -18.7338 218.304 -18.2008 -17.6777 218.304 -0.3699 -25.3699 218.304 17.6777 -18.2008 218.304 46.5944 -20.1008 218.304 73.2291 -20.7705 218.304 -76.1097 1.1097 218.304 -50.7398 0.739799 218.304 -25.3699 0.3699 218.304 -7.05846e-16 -2.273e-15 218.304 25.3699 -0.3699 218.304 50.7398 -0.739799 218.304 76.1097 -1.1097 218.304 -73.2291 20.7705 218.304 -46.5944 20.1008 218.304 -17.6777 18.2008 218.304 0.3699 25.3699 218.304 18.2008 17.6777 218.304 47.1606 18.7338 218.304 73.8035 18.6268 218.304 -65.3581 39.0159 218.304 -35.3553 36.4016 218.304 -18.7338 47.1606 218.304 0.739799 50.7398 218.304 20.1008 46.5944 218.304 36.4016 35.3553 218.304 66.4678 37.0938 218.304 -53.033 54.6024 218.304 -37.0938 66.4678 218.304 -18.6268 73.8035 218.304 1.1097 76.1097 218.304 20.7705 73.2291 218.304 39.0159 65.3581 218.304 54.6024 53.033 218.304 -54.6024 -53.033 254.688 -39.0159 -65.3581 254.688 -20.7705 -73.2291 254.688 -1.1097 -76.1097 254.688 18.6268 -73.8035 254.688 37.0938 -66.4678 254.688 53.033 -54.6024 254.688 -66.4678 -37.0938 254.688 -36.4016 -35.3553 254.688 -20.1008 -46.5944 254.688 -0.739799 -50.7398 254.688 18.7338 -47.1606 254.688 35.3553 -36.4016 254.688 65.3581 -39.0159 254.688 -73.8035 -18.6268 254.688 -47.1606 -18.7338 254.688 -18.2008 -17.6777 254.688 -0.3699 -25.3699 254.688 17.6777 -18.2008 254.688 46.5944 -20.1008 254.688 73.2291 -20.7705 254.688 -76.1097 1.1097 254.688 -50.7398 0.739799 254.688 -25.3699 0.3699 254.688 -5.40533e-16 -2.60905e-15 254.688 25.3699 -0.3699 254.688 50.7398 -0.739799 254.688 76.1097 -1.1097 254.688 -73.2291 20.7705 254.688 -46.5944 20.1008 254.688 -17.6777 18.2008 254.688 0.3699 25.3699 254.688 18.2008 17.6777 254.688 47.1606 18.7338 254.688 73.8035 18.6268 254.688 -65.3581 39.0159 254.688 -35.3553 36.4016 254.688 -18.7338 47.1606 254.688 0.739799 50.7398 254.688 20.1008 46.5944 254.688 36.4016 35.3553 254.688 66.4678 37.0938 254.688 -53.033 54.6024 254.688 -37.0938 66.4678 254.688 -18.6268 73.8035 254.688 1.1097 76.1097 254.688 20.7705 73.2291 254.688 39.0159 65.3581 254.688 54.6024 53.033 254.688 -54.6024 -53.033 291.072 -39.0159 -65.3581 291.072 -20.7705 -73.2291 291.072 -1.1097 -76.1097 291.072 18.6268 -73.8035 291.072 37.0938 -66.4678 291.072 53.033 -54.6024 291.072 -66.4678 -37.0938 291.072 -36.4016 -35.3553 291.072 -20.1008 -46.5944 291.072 -0.739799 -50.7398 291.072 18.7338 -47.1606 291.072 35.3553 -36.4016 291.072 65.3581 -39.0159 291.072 -73.8035 -18.6268 291.072 -47.1606 -18.7338 291.072 -18.2008 -17.6777 291.072 -0.3699 -25.3699 291.072 17.6777 -18.2008 291.072 46.5944 -20.1008 291.072 73.2291 -20.7705 291.072 -76.1097 1.1097 291.072 -50.7398 0.739799 291.072 -25.3699 0.3699 291.072 -6.31299e-16 -2.5365e-15 291.072 25.3699 -0.3699 291.072 50.7398 -0.739799 291.072 76.1097 -1.1097 291.072 -73.2291 20.7705 291.072 -46.5944 20.1008 291.072 -17.6777 18.2008 291.072 0.3699 25.3699 291.072 18.2008 17.6777 291.072 47.1606 18.7338 291.072 73.8035 18.6268 291.072 -65.3581 39.0159 291.072 -35.3553 36.4016 291.072 -18.7338 47.1606 291.072 0.739799 50.7398 291.072 20.1008 46.5944 291.072 36.4016 35.3553 291.072 66.4678 37.0938 291.072 -53.033 54.6024 291.072 -37.0938 66.4678 291.072 -18.6268 73.8035 291.072 1.1097 76.1097 291.072 20.7705 73.2291 291.072 39.0159 65.3581 291.072 54.6024 53.033 291.072
        </DataArray>
      </Points>
      <Cells>
        <DataArray type="Int32" Name="connectivity" format="ascii">
          0 1 8 7 49 50 57 56 1 2 9 8 50 51 58 57 2 3 10 9 51 52 59 58 3 4 11 10 52 53 60 59 4 5 12 11 53 54 61 60 5 6 13 12 54 55 62 61 7 8 15 14 56 57 64 63 8 9 16 15 57 58 65 64 9 10 17 16 58 59 66 65 10 11 18 17 59 60 67 66 11 12 19 18 60 61 68 67 12 13 20 19 61 62 69 68 14 15 22 21 63 64 71 70 15 16 23 22 64 65 72 71 16 17 24 23 65 66 73 72 17 18 25 24 66 67 74 73 18 19 26 25 67 68 75 74 19 20 27 26 68 69 76 75 21 22 29 28 70 71 78 77 22 23 30 29 71 72 79 78 23 24 31 30 72 73 80 79 24 25 32 31 73 74 81 80 25 26 33 32 74 75 82 81 26 27 34 33 75 76 83 82 28 29 36 35 77 78 85 84 29 30 37 36 78 79 86 85 30 31 38 37 79 80 87 86 31 32 39 38 80 81 88 87 32 33 40 39 81 82 89 88 33 34 41 40 82 83 90 89 35 36 43 42 84 85 92 91 36 37 44 43 85 86 93 92 37 38 45 44 86 87 94 93 38 39 46 45 87 88 95 94 39 40 47 46 88 89 96 95 40 41 48 47 89 90 97 96 49 50 57 56 98 99 106 105 50 51 58 57 99 100 107 106 51 52 59 58 100 101 108 107 52 53 60 59 101 102 109 108 53 54 61 60 102 103 110 109 54 55 62 61 103 104 111 110 56 57 64 63 105 106 113 112 57 58 65 64 106 107 114 113 58 59 66 65 107 108 115 114 59 60 67 66 108 109 116 115 60 61 68 67 109 110 117 116 61 62 69 68 110 111 118 117 63 64 71 70 112 113 120 119 64 65 72 71 113 114 121 120 65 66 73 72 114 115 122 121 66 67 74 73 115 116 123 122 67 68 75 74 116 117 124 123 68 69 76 75 117 118 125 124 70 71 78 77 119 120 127 126 71 72 79 78 120 121 128 127 72 73 80 79 121 122 129 128 73 74 81 80 122 123 130 129 74 75 82 81 123 124 131 130 75 76 83 82 124 125 132 131 77 78 85 84 126 127 134 133 78 79 86 85 127 128 135 134 79 80 87 86 128 129 136 135 80 81 88 87 129 130 137 136 81 82 89 88 130 131 138 137 82 83 90 89 131 132 139 138 84 85 92 91 133 134 141 140 85 86 93 92 134 135 142 141 86 87 94 93 135 136 143 142 87 88 95 94 136 137 144 143 88 89 96 95 137 138 145 144 89 90 97 96 138 139 146 145 98 99 106 105 147 148 155 154 99 100 107 106 148 149 156 155 100 101 108 107 149 150 157 156 101 102 109 108 150 151 158 157 102 103 110 109 151 152 159 158 103 104 111 110 152 153 160 159 105 106 113 112 154 155 162 161 106 107 114 113 155 156 163 162 107 108 115 114 156 157 164 163 108 109 116 115 157 158 165 164 109 110 117 116 158 159 166 165 110 111 118 117 159 160 167 166 112 113 120 119 161 162 169 168 113 114 121 120 162 163 170 169 114 115 122 121 163 164 171 170 115 116 123 122 164 165 172 171 116 117 124 123 165 166 173 172 117 118 125 124 166 167 174 173 119 120 127 126 168 169 176 175 120 121 128 127 169 170 177 176 121 122 129 128 170 171 178 177 122 123 130 129 171 172 179 178 123 124 131 130 172 173 180 179 124 125 132 131 173 174 181 180 126 127 134 133 175 176 183 182 127 128 135 134 176 177 184 183 128 129 136 135 177 178 185 184 129 130 137 136 178 179 186 185 130 131 138 137 179 180 187 186 131 132 139 138 180 181 188 187 133 134 141 140 182 183 190 189 134 135 142 141 183 184 191 190 135 136 143 142 184 185 192 191 136 137 144 143 185 186 193 192 137 138 145 144 186 187 194 193 138 139 146 145 187 188 195 194 147 148 155 154 196 197 204 203 148 149 156 155 197 198 205 204 149 150 157 156 198 199 206 205 150 151 158 157 199 200 207 206 151 152 159 158 200 201 208 207 152 153 160 159 201 202 209 208 154 155 162 161 203 204 211 210 155 156 163 162 204 205 212 211 156 157 164 163 205 206 213 212 157 158 165 164 206 207 214 213 158 159 166 165 207 208 215 214 159 160 167 166 208 209 216 215 161 162 169 168 210 211 218 217 162 163 170 169 211 212 219 218 163 164 171 170 212 213 220 219 164 165 172 171 213 214 221 220 165 166 173 172 214 215 222 221 166 167 174 173 215 216 223 222 168 169 176 175 217 218 225 224 169 170 177 176 218 219 226 225 170 171 178 177 219 220 227 226 171 172 179 178 220 221 228 227 172 173 180 179 221 222 229 228 173 174 181 180 222 223 230 229 175 176 183 182 224 225 232 231 176 177 184 183 225 226 233 232 177 178 185 184 226 227 234 233 178 179 186 185 227 228 235 234 179 180 187 186 228 229 236 235 180 181 188 187 229 230 237 236 182 183 190 189 231 232 239 238 183 184 191 190 232 233 240 239 184 185 192 191 233 234 241 240 185 186 193 192 234 235 242 241 186 187 194 193 235 236 243 242 187 188 195 194 236 237 244 243 196 197 204 203 245 246 253 252 197 198 205 204 246 247 254 253 198 199 206 205 247 248 255 254 199 200 207 206 248 249 256 255 200 201 208 207 249 250 257 256 201 202 209 208 250 251 258 257 203 204 211 210 252 253 260 259 204 205 212 211 253 254 261 260 205 206 213 212 254 255 262 261 206 207 214 213 255 256 263 262 207 208 215 214 256 257 264 263 208 209 216 215 257 258 265 264 210 211 218 217 259 260 267 266 211 212 219 218 260 261 268 267 212 213 220 219 261 262 269 268 213 214 221 220 262 263 270 269 214 215 222 221 263 264 271 270 215 216 223 222 264 265 272 271 217 218 225 224 266 267 274 273 218 219 226 225 267 268 275 274 219 220 227 226 268 269 276 275 220 221 228 227 269 270 277 276 221 222 229 228 270 271 278 277 222 223 230 229 271 272 279 278 224 225 232 231 273 274 281 280 225 226 233 232 274 275 282 281 226 227 234 233 275 276 283 282 227 228 235 234 276 277 284 283 228 229 236 235 277 278 285 284 229 230 237 236 278 279 286 285 231 232 239 238 280 281 288 287 232 233 240 239 281 282 289 288 233 234 241 240 282 283 290 289 234 235 242 241 283 284 291 290 235 236 243 242 284 285 292 291 236 237 244 243 285 286 293 292 245 246 253 252 294 295 302 301 246 247 254 253 295 296 303 302 247 248 255 254 296 297 304 303 248 249 256 255 297 298 305 304 249 250 257 256 298 299 306 305 250 251 258 257 299 300 307 306 252 253 260 259 301 302 309 308 253 254 261 260 302 303 310 309 254 255 262 261 303 304 311 310 255 256 263 262 304 305 312 311 256 257 264 263 305 306 313 312 257 258 265 264 306 307 314 313 259 260 267 266 308 309 316 315 260 261 268 267 309 310 317 316 261 262 269 268 310 311 318 317 262 263 270 269 311 312 319 318 263 264 271 270 312 313 320 319 264 265 272 271 313 314 321 320 266 267 274 273 315 316 323 322 267 268 275 274 316 317 324 323 268 269 276 275 317 318 325 324 269 270 277 276 318 319 326 325 270 271 278 277 319 320 327 326 271 272 279 278 320 321 328 327 273 274 281 280 322 323 330 329 274 275 282 281 323 324 331 330 275 276 283 282 324 325 332 331 276 277 284 283 325 326 333 332 277 278 285 284 326 327 334 333 278 279 286 285 327 328 335 334 280 281 288 287 329 330 337 336 281 282 289 288 330 331 338 337 282 283 290 289 331 332 339 338 283 284 291 290 332 333 340 339 284 285 292 291 333 334 341 340 285 286 293 292 334 335 342 341 294 295 302 301 343 344 351 350 295 296 303 302 344 345 352 351 296 297 304 303 345 346 353 352 297 298 305 304 346 347 354 353 298 299 306 305 347 348 355 354 299 300 307 306 348 349 356 355 301 302 309 308 350 351 358 357 302 303 310 309 351 352 359 358 303 304 311 310 352 353 360 359 304 305 312 311 353 354 361 360 305 306 313 312 354 355 362 361 306 307 314 313 355 356 363 362 308 309 316 315 357 358 365 364 309 310 317 316 358 359 366 365 310 311 318 317 359 360 367 366 311 312 319 318 360 361 368 367 312 313 320 319 361 362 369 368 313 314 321 320 362 363 370 369 315 316 323 322 364 365 372 371 316 317 324 323 365 366 373 372 317 318 325 324 366 367 374 373 318 319 326 325 367 368 375 374 319 320 327 326 368 369 376 375 320 321 328 327 369 370 377 376 322 323 330 329 371 372 379 378 323 324 331 330 372 373 380 379 324 325 332 331 373 374 381 380 325 326 333 332 374 375 382 381 326 327 334 333 375 376 383 382 327 328 335 334 376 377 384 383 329 330 337 336 378 379 386 385 330 331 338 337 379 380 387 386 331 332 339 338 380 381 388 387 332 333 340 339 381 382 389 388 333 334 341 340 382 383 390 389 334 335 342 341 383 384 391 390 343 344 351 350 392 393 400 399 344 345 352 351 393 394 401 400 345 346 353 352 394 395 402 401 346 347 354 353 395 396 403 402 347 348 355 354 396 397 404 403 348 349 356 355 397 398 405 404 350 351 358 357 399 400 407 406 351 352 359 358 400 401 408 407 352 353 360 359 401 402 409 408 353 354 361 360 402 403 410 409 354 355 362 361 403 404 411 410 355 356 363 362 404 405 412 411 357 358 365 364 406 407 414 413 358 359 366 365 407 408 415 414 359 360 367 366 408 409 416 415 360 361 368 367 409 410 417 416 361 362 369 368 410 411 418 417 362 363 370 369 411 412 419 418 364 365 372 371 413 414 421 420 365 366 373 372 414 415 422 421 366 367 374 373 415 416 423 422 367 368 375 374 416 417 424 423 368 369 376 375 417 418 425 424 369 370 377 376 418 419 426 425 371 372 379 378 420 421 428 427 372 373 380 379 421 422 429 428 373 374 381 380 422 423 430 429 374 375 382 381 423 424 431 430 375 376 383 382 424 425 432 431 376 377 384 383 425 426 433 432 378 379 386 385 427 428 435 434 379 380 387 386 428 429 436 435 380 381 388 387 429 430 437 436 381 382 389 388 430 431 438 437 382 383 390 389 431 432 439 438 383 384 391 390 432 433 440 439
        </DataArray>
        <DataArray type="Int32" Name="offsets" format="ascii">
          8 16 24 32 40 48 56 64 72 80 88 96 104 112 120 128 136 144 152 160 168 176 184 192 200 208 216 224 232 240 248 256 264 272 280 288 296 304 312 320 328 336 344 352 360 368 376 384 392 400 408 416 424 432 440 448 456 464 472 480 488 496 504 512 520 528 536 544 552 560 568 576 584 592 600 608 616 624 632 640 648 656 664 672 680 688 696 704 712 720 728 736 744 752 760 768 776 784 792 800 808 816 824 832 840 848 856 864 872 880 888 896 904 912 920 928 936 944 952 960 968 976 984 992 1000 1008 1016 1024 1032 1040 1048 1056 1064 1072 1080 1088 1096 1104 1112 1120 1128 1136 1144 1152 1160 1168 1176 1184 1192 1200 1208 1216 1224 1232 1240 1248 1256 1264 1272 1280 1288 1296 1304 1312 1320 1328 1336 1344 1352 1360 1368 1376 1384 1392 1400 1408 1416 1424 1432 1440 1448 1456 1464 1472 1480 1488 1496 1504 1512 1520 1528 1536 1544 1552 1560 1568 1576 1584 1592 1600 1608 1616 1624 1632 1640 1648 1656 1664 1672 1680 1688 1696 1704 1712 1720 1728 1736 1744 1752 1760 1768 1776 1784 1792 1800 1808 1816 1824 1832 1840 1848 1856 1864 1872 1880 1888 1896 1904 1912 1920 1928 1936 1944 1952 1960 1968 1976 1984 1992 2000 2008 2016 2024 2032 2040 2048 2056 2064 2072 2080 2088 2096 2104 2112 2120 2128 2136 2144 2152 2160 2168 2176 2184 2192 2200 2208 2216 2224 2232 2240 2248 2256 2264 2272 2280 2288 2296 2304
        </DataArray>
        <DataArray type="UInt8" Name="types" format="ascii">
          12 12 12 12 12 12 12 12 12 12 12 12 12 12 12 12 12 12 12 12 12 12 12 12 12 12 12 12 12 12 12 12 12 12 12 12 12 12 12 12 12 12 12 12 12 12 12 12 12 12 12 12 12 12 12 12 12 12 12 12 12 12 12 12 12 12 12 12 12 12 12 12 12 12 12 12 12 12 12 12 12 12 12 12 12 12 12 12 12 12 12 12 12 12 12 12 12 12 12 12 12 12 12 12 12 12 12 12 12 12 12 12 12 12 12 12 12 12 12 12 12 12 12 12 12 12 12 12 12 12 12 12 12 12 12 12 12 12 12 12 12 12 12 12 12 12 12 12 12 12 12 12 12 12 12 12 12 12 12 12 12 12 12 12 12 12 12 12 12 12 12 12 12 12 12 12 12 12 12 12 12 12 12 12 12 12 12 12 12 12 12 12 12 12 12 12 12 12 12 12 12 12 12 12 12 12 12 12 12 12 12 12 12 12 12 12 12 12 12 12 12 12 12 12 12 12 12 12 12 12 12 12 12 12 12 12 12 12 12 12 12 12 12 12 12 12 12 12 12 12 12 12 12 12 12 12 12 12 12 12 12 12 12 12 12 12 12 12 12 12 12 12 12 12 12 12 12 12 12 12 12 12 12 12 12 12 12 12
        </DataArray>
      </Cells>
      <PointData>
        <DataArray type="Float32" Name="displacement" NumberOfComponents="3" format="ascii">
          -0.196169 0 0 -0.189485 -0.0507722 0 -0.169887 -0.0980844 0 -0.138712 -0.138712 0 -0.0980844 -0.169887 0 -0.0507722 -0.189485 0 -2.27101e-18 -0.196169 0 -0.189485 0.0507722 0 -0.130779 -8.93507e-18 0 -0.120824 -0.0500471 0 -0.0924749 -0.0924749 0 -0.0500471 -0.120824 0 -1.00544e-17 -0.130779 0 0.0507722 -0.189485 0 -0.169887 0.0980844 0 -0.120824 0.0500471 0 -0.0653896 -2.95721e-18 0 -0.0462374 -0.0462374 0 -4.27051e-18 -0.0653896 0 0.0500471 -0.120824 0 0.0980844 -0.169887 0 -0.138712 0.138712 0 -0.0924749 0.0924749 0 -0.0462374 0.0462374 0 0 0 0 0.0462374 -0.0462374 0 0.0924749 -0.0924749 0 0.138712 -0.138712 0 -0.0980844 0.169887 0 -0.0500471 0.120824 0 1.51601e-18 0.0653896 0 0.0462374 0.0462374 0 0.0653896 -1.32407e-17 0 0.120824 -0.0500471 0 0.169887 -0.0980844 0 -0.0507722 0.189485 0 3.16444e-17 0.130779 0 0.0500471 0.120824 0 0.0924749 0.0924749 0 0.120824 0.0500471 0 0.130779 -2.37476e-17 0 0.189485 -0.0507722 0 5.31036e-17 0.196169 0 0.0507722 0.189485 0 0.0980844 0.169887 0 0.138712 0.138712 0 0.169887 0.0980844 0 0.189485 0.0507722 0 0.196169 -4.49459e-17 0 -0.196169 7.94521e-18 -0.1395 -0.189485 -0.0507722 -0.1395 -0.169887 -0.0980844 -0.1395 -0.138712 -0.138712 -0.1395 -0.0980844 -0.169887 -0.1395 -0.0507722 -0.189485 -0.1395 -3.15277e-17 -0.196169 -0.1395 -0.189485 0.0507722 -0.1395 -0.130779 3.98396e-18 -0.1395 -0.120824 -0.0500471 -0.1395 -0.0924749 -0.0924749 -0.1395 -0.0500471 -0.120824 -0.1395 -2.22593e-17 -0.130779 -0.1395 0.0507722 -0.189485 -0.1395 -0.169887 0.0980844 -0.1395 -0.120824 0.0500471 -0.1395 -0.0653896 -6.02578e-19 -0.1395 -0.0462374 -0.0462374 -0.1395 -1.74599e-17 -0.0653896 -0.1395 0.0500471 -0.120824 -0.1395 0.0980844 -0.169887 -0.1395 -0.138712 0.138712 -0.1395 -0.0924749 0.0924749 -0.1395 -0.0462374 0.0462374 -0.1395 -4.94282e-18 -5.56609e-18 -0.1395 0.0462374 -0.0462374 -0.1395 0.0924749 -0.0924749 -0.1395 0.138712 -0.138712 -0.1395 -0.0980844 0.169887 -0.1395 -0.0500471 0.120824 -0.1395 -1.15328e-17 0.0653896 -0.1395 0.0462374 0.0462374 -0.1395 0.0653896 -3.10975e-17 -0.1395 0.120824 -0.0500471 -0.1395 0.169887 -0.0980844 -0.1395 -0.0507722 0.189485 -0.1395 2.65919e-17 0.130779 -0.1395 0.0500471 0.120824 -0.1395 0.0924749 0.0924749 -0.1395 0.120824 0.0500471 -0.1395 0.130779 -4.13032e-17 -0.1395 0.189485 -0.0507722 -0.1395 5.83991e-17 0.196169 -0.1395 0.0507722 0.189485 -0.1395 0.0980844 0.169887 -0.1395 0.138712 0.138712 -0.1395 0.169887 0.0980844 -0.1395 0.189485 0.0507722 -0.1395 0.196169 -7.35707e-17 -0.1395 -0.196169 2.59602e-17 -0.279 -0.189485 -0.0507722 -0.279 -0.169887 -0.0980844 -0.279 -0.138712 -0.138712 -0.279 -0.0980844 -0.169887 -0.279 -0.0507722 -0.189485 -0.279 -8.41153e-17 -0.196169 -0.279 -0.189485 0.0507722 -0.279 -0.130779 -2.75152e-18 -0.279 -0.120824 -0.0500471 -0.279 -0.0924749 -0.0924749 -0.279 -0.0500471 -0.120824 -0.279 -5.85182e-17 -0.130779 -0.279 0.0507722 -0.189485 -0.279 -0.169887 0.0980844 -0.279 -0.120824 0.0500471 -0.279 -0.0653896 -2.25454e-17 -0.279 -0.0462374 -0.0462374 -0.279 -4.48401e-17 -0.0653896 -0.279 0.0500471 -0.120824 -0.279 0.0980844 -0.169887 -0.279 -0.138712 0.138712 -0.279 -0.0924749 0.0924749 -0.279 -0.0462374 0.0462374 -0.279 -2.68121e-17 -3.71987e-17 -0.279 0.0462374 -0.0462374 -0.279 0.0924749 -0.0924749 -0.279 0.138712 -0.138712 -0.279 -0.0980844 0.169887 -0.279 -0.0500471 0.120824 -0.279 -6.40839e-18 0.0653896 -0.279 0.0462374 0.0462374 -0.279 0.0653896 -6.16393e-17 -0.279 0.120824 -0.0500471 -0.279 0.169887 -0.0980844 -0.279 -0.0507722 0.189485 -0.279 5.53674e-17 0.130779 -0.279 0.0500471 0.120824 -0.279 0.0924749 0.0924749 -0.279 0.120824 0.0500471 -0.279 0.130779 -8.25304e-17 -0.279 0.189485 -0.0507722 -0.279 1.0045e-16 0.196169 -0.279 0.0507722 0.189485 -0.279 0.0980844 0.169887 -0.279 0.138712 0.138712 -0.279 0.169887 0.0980844 -0.279 0.189485 0.0507722 -0.279 0.196169 -1.24793e-16 -0.279 -0.196169 3.62197e-17 -0.4185 -0.189485 -0.0507722 -0.4185 -0.169887 -0.0980844 -0.4185 -0.138712 -0.138712 -0.4185 -0.0980844 -0.169887 -0.4185 -0.0507722 -0.189485 -0.4185 -1.50676e-16 -0.196169 -0.4185 -0.189485 0.0507722 -0.4185 -0.130779 -9.37585e-19 -0.4185 -0.120824 -0.0500471 -0.4185 -0.0924749 -0.0924749 -0.4185 -0.0500471 -0.120824 -0.4185 -1.19293e-16 -0.130779 -0.4185 0.0507722 -0.189485 -0.4185 -0.169887 0.0980844 -0.4185 -0.120824 0.0500471 -0.4185 -0.0653896 -4.1408e-17 -0.4185 -0.0462374 -0.0462374 -0.4185 -8.72769e-17 -0.0653896 -0.4185 0.0500471 -0.120824 -0.4185 0.0980844 -0.169887 -0.4185 -0.138712 0.138712 -0.4185 -0.0924749 0.0924749 -0.4185 -0.0462374 0.0462374 -0.4185 -3.60024e-17 -9.49769e-17 -0.4185 0.0462374 -0.0462374 -0.4185 0.0924749 -0.0924749 -0.4185 0.138712 -0.138712 -0.4185 -0.0980844 0.169887 -0.4185 -0.0500471 0.120824 -0.4185 -6.33937e-18 0.0653896 -0.4185 0.0462374 0.0462374 -0.4185 0.0653896 -1.33816e-16 -0.4185 0.120824 -0.0500471 -0.4185 0.169887 -0.0980844 -0.4185 -0.0507722 0.189485 -0.4185 6.67845e-17 0.130779 -0.4185 0.0500471 0.120824 -0.4185 0.0924749 0.0924749 -0.4185 0.120824 0.0500471 -0.4185 0.130779 -1.70637e-16 -0.4185 0.189485 -0.0507722 -0.4185 1.24031e-16 0.196169 -0.4185 0.0507722 0.189485 -0.4185 0.0980844 0.169887 -0.4185 0.138712 0.138712 -0.4185 0.169887 0.0980844 -0.4185 0.189485 0.0507722 -0.4185 0.196169 -2.1919e-16 -0.4185 -0.196169 8.0497e-17 -0.558 -0.189485 -0.0507722 -0.558 -0.169887 -0.0980844 -0.558 -0.138712 -0.138712 -0.558 -0.0980844 -0.169887 -0.558 -0.0507722 -0.189485 -0.558 -2.63011e-16 -0.196169 -0.558 -0.189485 0.0507722 -0.558 -0.130779 -3.10317e-18 -0.558 -0.120824 -0.0500471 -0.558 -0.0924749 -0.0924749 -0.558 -0.0500471 -0.120824 -0.558 -1.88597e-16 -0.130779 -0.558 0.0507722 -0.189485 -0.558 -0.169887 0.0980844 -0.558 -0.120824 0.0500471 -0.558 -0.0653896 -7.5314e-17 -0.558 -0.0462374 -0.0462374 -0.558 -1.32465e-16 -0.0653896 -0.558 0.0500471 -0.120824 -0.558 0.0980844 -0.169887 -0.558 -0.138712 0.138712 -0.558 -0.0924749 0.0924749 -0.558 -0.0462374 0.0462374 -0.558 -5.57773e-17 -1.36934e-16 -0.558 0.0462374 -0.0462374 -0.558 0.0924749 -0.0924749 -0.558 0.138712 -0.138712 -0.558 -0.0980844 0.169887 -0.558 -0.0500471 0.120824 -0.558 4.62138e-19 0.0653896 -0.558 0.0462374 0.0462374 -0.558 0.0653896 -2.1286e-16 -0.558 0.120824 -0.0500471 -0.558 0.169887 -0.0980844 -0.558 -0.0507722 0.189485 -0.558 8.80212e-17 0.130779 -0.558 0.0500471 0.120824 -0.558 0.0924749 0.0924749 -0.558 0.120824 0.0500471 -0.558 0.130779 -2.6442e-16 -0.558 0.189485 -0.0507722 -0.558 1.59412e-16 0.196169 -0.558 0.0507722 0.189485 -0.558 0.0980844 0.169887 -0.558 0.138712 0.138712 -0.558 0.169887 0.0980844 -0.558 0.189485 0.0507722 -0.558 0.196169 -3.49321e-16 -0.558 -0.196169 9.36164e-17 -0.6975 -0.189485 -0.0507722 -0.6975 -0.169887 -0.0980844 -0.6975 -0.138712 -0.138712 -0.6975 -0.0980844 -0.169887 -0.6975 -0.0507722 -0.189485 -0.6975 -3.51085e-16 -0.196169 -0.6975 -0.189485 0.0507722 -0.6975 -0.130779 6.75372e-18 -0.6975 -0.120824 -0.0500471 -0.6975 -0.0924749 -0.0924749 -0.6975 -0.0500471 -0.120824 -0.6975 -2.68978e-16 -0.130779 -0.6975 0.0507722 -0.189485 -0.6975 -0.169887 0.0980844 -0.6975 -0.120824 0.0500471 -0.6975 -0.0653896 -8.50621e-17 -0.6975 -0.0462374 -0.0462374 -0.6975 -1.71361e-16 -0.0653896 -0.6975 0.0500471 -0.120824 -0.6975 0.0980844 -0.169887 -0.6975 -0.138712 0.138712 -0.6975 -0.0924749 0.0924749 -0.6975 -0.0462374 0.0462374 -0.6975 -7.37217e-17 -2.02313e-16 -0.6975 0.0462374 -0.0462374 -0.6975 0.0924749 -0.0924749 -0.6975 0.138712 -0.138712 -0.6975 -0.0980844 0.169887 -0.6975 -0.0500471 0.120824 -0.6975 1.24262e-17 0.0653896 -0.6975 0.0462374 0.0462374 -0.6975 0.0653896 -3.148e-16 -0.6975 0.120824 -0.0500471 -0.6975 0.169887 -0.0980844 -0.6975 -0.0507722 0.189485 -0.6975 1.46316e-16 0.130779 -0.6975 0.0500471 0.120824 -0.6975 0.0924749 0.0924749 -0.6975 0.120824 0.0500471 -0.6975 0.130779 -3.77683e-16 -0.6975 0.189485 -0.0507722 -0.6975 2.50411e-16 0.196169 -0.6975 0.0507722 0.189485 -0.6975 0.0980844 0.169887 -0.6975 0.138712 0.138712 -0.6975 0.169887 0.0980844 -0.6975 0.189485 0.0507722 -0.6975 0.196169 -4.80957e-16 -0.6975 -0.196169 9.87239e-17 -0.837 -0.189485 -0.0507722 -0.837 -0.169887 -0.0980844 -0.837 -0.138712 -0.138712 -0.837 -0.0980844 -0.169887 -0.837 -0.0507722 -0.189485 -0.837 -4.74459e-16 -0.196169 -0.837 -0.189485 0.0507722 -0.837 -0.130779 -4.27491e-17 -0.837 -0.120824 -0.0500471 -0.837 -0.0924749 -0.0924749 -0.837 -0.0500471 -0.120824 -0.837 -3.30869e-16 -0.130779 -0.837 0.0507722 -0.189485 -0.837 -0.169887 0.0980844 -0.837 -0.120824 0.0500471 -0.837 -0.0653896 -1.60113e-16 -0.837 -0.0462374 -0.0462374 -0.837 -2.01806e-16 -0.0653896 -0.837 0.0500471 -0.120824 -0.837 0.0980844 -0.169887 -0.837 -0.138712 0.138712 -0.837 -0.0924749 0.0924749 -0.837 -0.0462374 0.0462374 -0.837 -8.82308e-17 -2.84125e-16 -0.837 0.0462374 -0.0462374 -0.837 0.0924749 -0.0924749 -0.837 0.138712 -0.138712 -0.837 -0.0980844 0.169887 -0.837 -0.0500471 0.120824 -0.837 4.30393e-17 0.0653896 -0.837 0.0462374 0.0462374 -0.837 0.0653896 -4.09648e-16 -0.837 0.120824 -0.0500471 -0.837 0.169887 -0.0980844 -0.837 -0.0507722 0.189485 -0.837 1.74356e-16 0.130779 -0.837 0.0500471 0.120824 -0.837 0.0924749 0.0924749 -0.837 0.120824 0.0500471 -0.837 0.130779 -5.34131e-16 -0.837 0.189485 -0.0507722 -0.837 2.95361e-16 0.196169 -0.837 0.0507722 0.189485 -0.837 0.0980844 0.169887 -0.837 0.138712 0.138712 -0.837 0.169887 0.0980844 -0.837 0.189485 0.0507722 -0.837 0.196169 -6.41814e-16 -0.837 -0.196169 1.61835e-16 -0.9765 -0.189485 -0.0507722 -0.9765 -0.169887 -0.0980844 -0.9765 -0.138712 -0.138712 -0.9765 -0.0980844 -0.169887 -0.9765 -0.0507722 -0.189485 -0.9765 -4.99958e-16 -0.196169 -0.9765 -0.189485 0.0507722 -0.9765 -0.130779 -1.12927e-17 -0.9765 -0.120824 -0.0500471 -0.9765 -0.0924749 -0.0924749 -0.9765 -0.0500471 -0.120824 -0.9765 -3.80631e-16 -0.130779 -0.9765 0.0507722 -0.189485 -0.9765 -0.169887 0.0980844 -0.9765 -0.120824 0.0500471 -0.9765 -0.0653896 -1.86595e-16 -0.9765 -0.0462374 -0.0462374 -0.9765 -2.42272e-16 -0.0653896 -0.9765 0.0500471 -0.120824 -0.9765 0.0980844 -0.169887 -0.9765 -0.138712 0.138712 -0.9765 -0.0924749 0.0924749 -0.9765 -0.0462374 0.0462374 -0.9765 -6.75667e-17 -3.26132e-16 -0.9765 0.0462374 -0.0462374 -0.9765 0.0924749 -0.0924749 -0.9765 0.138712 -0.138712 -0.9765 -0.0980844 0.169887 -0.9765 -0.0500471 0.120824 -0.9765 5.66588e-17 0.0653896 -0.9765 0.0462374 0.0462374 -0.9765 0.0653896 -4.5828e-16 -0.9765 0.120824 -0.0500471 -0.9765 0.169887 -0.0980844 -0.9765 -0.0507722 0.189485 -0.9765 1.89281e-16 0.130779 -0.9765 0.0500471 0.120824 -0.9765 0.0924749 0.0924749 -0.9765 0.120824 0.0500471 -0.9765 0.130779 -6.04797e-16 -0.9765 0.189485 -0.0507722 -0.9765 2.88271e-16 0.196169 -0.9765 0.0507722 0.189485 -0.9765 0.0980844 0.169887 -0.9765 0.138712 0.138712 -0.9765 0.169887 0.0980844 -0.9765 0.189485 0.0507722 -0.9765 0.196169 -7.4796e-16 -0.9765 -0.196169 2.96957e-17 -1.116 -0.189485 -0.0507722 -1.116 -0.169887 -0.0980844 -1.116 -0.138712 -0.138712 -1.116 -0.0980844 -0.169887 -1.116 -0.0507722 -0.189485 -1.116 -5.1727e-16 -0.196169 -1.116 -0.189485 0.0507722 -1.116 -0.130779 -4.46715e-17 -1.116 -0.120824 -0.0500471 -1.116 -0.0924749 -0.0924749 -1.116 -0.0500471 -0.120824 -1.116 -3.67354e-16 -0.130779 -1.116 0.0507722 -0.189485 -1.116 -0.169887 0.0980844 -1.116 -0.120824 0.0500471 -1.116 -0.0653896 -1.82419e-16 -1.116 -0.0462374 -0.0462374 -1.116 -2.3984e-16 -0.0653896 -1.116 0.0500471 -0.120824 -1.116 0.0980844 -0.169887 -1.116 -0.138712 0.138712 -1.116 -0.0924749 0.0924749 -1.116 -0.0462374 0.0462374 -1.116 -7.89124e-17 -3.17063e-16 -1.116 0.0462374 -0.0462374 -1.116 0.0924749 -0.0924749 -1.116 0.138712 -0.138712 -1.116 -0.0980844 0.169887 -1.116 -0.0500471 0.120824 -1.116 3.7082e-17 0.0653896 -1.116 0.0462374 0.0462374 -1.116 0.0653896 -4.85487e-16 -1.116 0.120824 -0.0500471 -1.116 0.169887 -0.0980844 -1.116 -0.0507722 0.189485 -1.116 1.9339e-16 0.130779 -1.116 0.0500471 0.120824 -1.116 0.0924749 0.0924749 -1.116 0.120824 0.0500471 -1.116 0.130779 -6.05122e-16 -1.116 0.189485 -0.0507722 -1.116 3.11108e-16 0.196169 -1.116 0.0507722 0.189485 -1.116 0.0980844 0.169887 -1.116 0.138712 0.138712 -1.116 0.169887 0.0980844 -1.116 0.189485 0.0507722 -1.116 0.196169 -7.26247e-16 -1.116
        </DataArray>
      </PointData>
      <CellData>
        <DataArray type="Float32" Name="stress_zz" NumberOfComponents="1" format="ascii">
          28.2391 28.2391 28.2391 28.2391 28.2391 28.2391 28.2391 28.2391 28.2391 28.2391 28.2391 28.2391 28.2391 28.2391 28.2391 28.2391 28.2391 28.2391 28.2391 28.2391 28.2391 28.2391 28.2391 28.2391 28.2391 28.2391 28.2391 28.2391 28.2391 28.2391 28.2391 28.2391 28.2391 28.2391 28.2391 28.2391 28.2391 28.2391 28.2391 28.2391 28.2391 28.2391 28.2391 28.2391 28.2391 28.2391 28.2391 28.2391 28.2391 28.2391 28.2391 28.2391 28.2391 28.2391 28.2391 28.2391 28.2391 28.2391 28.2391 28.2391 28.2391 28.2391 28.2391 28.2391 28.2391 28.2391 28.2391 28.2391 28.2391 28.2391 28.2391 28.2391 28.2391 28.2391 28.2391 28.2391 28.2391 28.2391 28.2391 28.2391 28.2391 28.2391 28.2391 28.2391 28.2391 28.2391 28.2391 28.2391 28.2391 28.2391 28.2391 28.2391 28.2391 28.2391 28.2391 28.2391 28.2391 28.2391 28.2391 28.2391 28.2391 28.2391 28.2391 28.2391 28.2391 28.2391 28.2391 28.2391 28.2391 28.2391 28.2391 28.2391 28.2391 28.2391 28.2391 28.2391 28.2391 28.2391 28.2391 28.2391 28.2391 28.2391 28.2391 28.2391 28.2391 28.2391 28.2391 28.2391 28.2391 28.2391 28.2391 28.2391 28.2391 28.2391 28.2391 28.2391 28.2391 28.2391 28.2391 28.2391 28.2391 28.2391 28.2391 28.2391 28.2391 28.2391 28.2391 28.2391 28.2391 28.2391 28.2391 28.2391 28.2391 28.2391 28.2391 28.2391 28.2391 28.2391 28.2391 28.2391 28.2391 28.2391 28.2391 28.2391 28.2391 28.2391 28.2391 28.2391 28.2391 28.2391 28.2391 28.2391 28.2391 28.2391 28.2391 28.2391 28.2391 28.2391 28.2391 28.2391 28.2391 28.2391 28.2391 28.2391 28.2391 28.2391 28.2391 28.2391 28.2391 28.2391 28.2391 28.2391 28.2391 28.2391 28.2391 28.2391 28.2391 28.2391 28.2391 28.2391 28.2391 28.2391 28.2391 28.2391 28.2391 28.2391 28.2391 28.2391 28.2391 28.2391 28.2391 28.2391 28.2391 28.2391 28.2391 28.2391 28.2391 28.2391 28.2391 28.2391 28.2391 28.2391 28.2391 28.2391 28.2391 28.2391 28.2391 28.2391 28.2391 28.2391 28.2391 28.2391 28.2391 28.2391 28.2391 28.2391 28.2391 28.2391 28.2391 28.2391 28.2391 28.2391 28.2391 28.2391 28.2391 28.2391 28.2391 28.2391 28.2391 28.2391 28.2391 28.2391 28.2391 28.2391 28.2391 28.2391 28.2391 28.2391 28.2391 28.2391 28.2391 28.2391 28.2391 28.2391 28.2391 28.2391 28.2391 28.2391 28.2391 28.2391 28.2391 28.2391 28.2391 28.2391 28.2391 28.2391 28.2391 28.2391 28.2391 28.2391 28.2391 28.2391 28.2391 28.2391 28.2391 28.2391 28.2391 28.2391
        </DataArray>
        <DataArray type="Float32" Name="deviatoric_strain" NumberOfComponents="1" format="ascii">
          0.003713 0.003713 0.003713 0.003713 0.003713 0.003713 0.003713 0.003713 0.003713 0.003713 0.003713 0.003713 0.003713 0.003713 0.003713 0.003713 0.003713 0.003713 0.003713 0.003713 0.003713 0.003713 0.003713 0.003713 0.003713 0.003713 0.003713 0.003713 0.003713 0.003713 0.003713 0.003713 0.003713 0.003713 0.003713 0.003713 0.003713 0.003713 0.003713 0.003713 0.003713 0.003713 0.003713 0.003713 0.003713 0.003713 0.003713 0.003713 0.003713 0.003713 0.003713 0.003713 0.003713 0.003713 0.003713 0.003713 0.003713 0.003713 0.003713 0.003713 0.003713 0.003713 0.003713 0.003713 0.003713 0.003713 0.003713 0.003713 0.003713 0.003713 0.003713 0.003713 0.003713 0.003713 0.003713 0.003713 0.003713 0.003713 0.003713 0.003713 0.003713 0.003713 0.003713 0.003713 0.003713 0.003713 0.003713 0.003713 0.003713 0.003713 0.003713 0.003713 0.003713 0.003713 0.003713 0.003713 0.003713 0.003713 0.003713 0.003713 0.003713 0.003713 0.003713 0.003713 0.003713 0.003713 0.003713 0.003713 0.003713 0.003713 0.003713 0.003713 0.003713 0.003713 0.003713 0.003713 0.003713 0.003713 0.003713 0.003713 0.003713 0.003713 0.003713 0.003713 0.003713 0.003713 0.003713 0.003713 0.003713 0.003713 0.003713 0.003713 0.003713 0.003713 0.003713 0.003713 0.003713 0.003713 0.003713 0.003713 0.003713 0.003713 0.003713 0.003713 0.003713 0.003713 0.003713 0.003713 0.003713 0.003713 0.003713 0.003713 0.003713 0.003713 0.003713 0.003713 0.003713 0.003713 0.003713 0.003713 0.003713 0.003713 0.003713 0.003713 0.003713 0.003713 0.003713 0.003713 0.003713 0.003713 0.003713 0.003713 0.003713 0.003713 0.003713 0.003713 0.003713 0.003713 0.003713 0.003713 0.003713 0.003713 0.003713 0.003713 0.003713 0.003713 0.003713 0.003713 0.003713 0.003713 0.003713 0.003713 0.003713 0.003713 0.003713 0.003713 0.003713 0.003713 0.003713 0.003713 0.003713 0.003713 0.003713 0.003713 0.003713 0.003713 0.003713 0.003713 0.003713 0.003713 0.003713 0.003713 0.003713 0.003713 0.003713 0.003713 0.003713 0.003713 0.003713 0.003713 0.003713 0.003713 0.003713 0.003713 0.003713 0.003713 0.003713 0.003713 0.003713 0.003713 0.003713 0.003713 0.003713 0.003713 0.003713 0.003713 0.003713 0.003713 0.003713 0.003713 0.003713 0.003713 0.003713 0.003713 0.003713 0.003713 0.003713 0.003713 0.003713 0.003713 0.003713 0.003713 0.003713 0.003713 0.003713 0.003713 0.003713 0.003713 0.003713 0.003713 0.003713 0.003713 0.003713 0.003713 0.003713 0.003713 0.003713 0.003713 0.003713 0.003713 0.003713 0.003713 0.003713 0.003713 0.003713 0.003713 0.003713 0.003713 0.003713 0.003713 0.003713 0.003713 0.003713 0.003713 0.003713 0.003713 0.003713 0.003713
        </DataArray>
      </CellData>
    </Piece>
  </UnstructuredGrid>
</VTKFile>
