<?xml version="1.0"?>
<VTKFile type="UnstructuredGrid" version="0.1" byte_order="LittleEndian">
  <UnstructuredGrid>
    <Piece NumberOfPoints="441" NumberOfCells="288">
      <Points>
        <DataArray type="Float32" NumberOfComponents="3" format="ascii">
          -53.1756 -53.033 0 -37.6377 -64.9888 0 -19.5349 -72.5157 0 -0.1008 -75.1008 0 19.3402 -72.5679 0 37.4631 -65.0896 0 53.033 -53.1756 0 -65.0896 -37.4631 0 -35.4504 -35.3553 0 -19.222 -46.2303 0 -0.0672 -50.0672 0 19.0978 -46.2818 0 35.3553 -35.4504 0 64.9888 -37.6377 0 -72.5679 -19.3402 0 -46.2818 -19.0978 0 -17.7252 -17.6777 0 -0.0336 -25.0336 0 17.6777 -17.7252 0 46.2303 -19.222 0 72.5157 -19.5349 0 -75.1008 0.1008 0 -50.0672 0.0672 0 -25.0336 0.0336 0 0 0 0 25.0336 -0.0336 0 50.0672 -0.0672 0 75.1008 -0.1008 0 -72.5157 19.5349 0 -46.2303 19.222 0 -17.6777 17.7252 0 0.0336 25.0336 0 17.7252 17.6777 0 46.2818 19.0978 0 72.5679 19.3402 0 -64.9888 37.6377 0 -35.3553 35.4504 0 -19.0978 46.2818 0 0.0672 50.0672 0 19.222 46.2303 0 35.4504 35.3553 0 65.0896 37.4631 0 -53.033 53.1756 0 -37.4631 65.0896 0 -19.3402 72.5679 0 0.1008 75.1008 0 19.5349 72.5157 0 37.6377 64.9888 0 53.1756 53.033 0 -53.1756 -53.033 37.248 -37.6377 -64.9888 37.248 -19.5349 -72.5157 37.248 -0.1008 -75.1008 37.248 19.3402 -72.5679 37.248 37.4631 -65.0896 37.248 53.033 -53.1756 37.248 -65.0896 -37.4631 37.248 -35.4504 -35.3553 37.248 -19.222 -46.2303 37.248 -0.0672 -50.0672 37.248 19.0978 -46.2818 37.248 35.3553 -35.4504 37.248 64.9888 -37.6377 37.248 -72.5679 -19.3402 37.248 -46.2818 -19.0978 37.248 -17.7252 -17.6777 37.248 -0.0336 -25.0336 37.248 17.6777 -17.7252 37.248 46.2303 -19.222 37.248 72.5157 -19.5349 37.248 -75.1008 0.1008 37.248 -50.0672 0.0672 37.248 -25.0336 0.0336 37.248 -4.7692e-18 5.70287e-18 37.248 25.0336 -0.0336 37.248 50.0672 -0.0672 37.248 75.1008 -0.1008 37.248 -72.5157 19.5349 37.248 -46.2303 19.222 37.248 -17.6777 17.7252 37.248 0.0336 25.0336 37.248 17.7252 17.6777 37.248 46.2818 19.0978 37.248 72.5679 19.3402 37.248 -64.9888 37.6377 37.248 -35.3553 35.4504 37.248 -19.0978 46.2818 37.248 0.0672 50.0672 37.248 19.222 46.2303 37.248 35.4504 35.3553 37.248 65.0896 37.4631 37.248 -53.033 53.1756 37.248 -37.4631 65.0896 37.248 -19.3402 72.5679 37.248 0.1008 75.1008 37.248 19.5349 72.5157 37.248 37.6377 64.9888 37.248 53.1756 53.033 37.248 -53.1756 -53.033 74.496 -37.6377 -64.9888 74.496 -19.5349 -72.5157 74.496 -0.1008 -75.1008 74.496 19.3402 -72.5679 74.496 37.4631 -65.0896 74.496 53.033 -53.1756 74.496 -65.0896 -37.4631 74.496 -35.4504 -35.3553 74.496 -19.222 -46.2303 74.496 -0.0672 -50.0672 74.496 19.0978 -46.2818 74.496 35.3553 -35.4504 74.496 64.9888 -37.6377 74.496 -72.5679 -19.3402 74.496 -46.2818 -19.0978 74.496 -17.7252 -17.6777 74.496 -0.0336 -25.0336 74.496 17.6777 -17.7252 74.496 46.2303 -19.222 74.496 72.5157 -19.5349 74.496 -75.1008 0.1008 74.496 -50.0672 0.0672 74.496 -25.0336 0.0336 74.496 -2.26134e-17 1.09699e-18 74.496 25.0336 -0.0336 74.496 50.0672 -0.0672 74.496 75.1008 -0.1008 74.496 -72.5157 19.5349 74.496 -46.2303 19.222 74.496 -17.6777 17.7252 74.496 0.0336 25.0336 74.496 17.7252 17.6777 74.496 46.2818 19.0978 74.496 72.5679 19.3402 74.496 -64.9888 37.6377 74.496 -35.3553 35.4504 74.496 -19.0978 46.2818 74.496 0.0672 50.0672 74.496 19.222 46.2303 74.496 35.4504 35.3553 74.496 65.0896 37.4631 74.496 -53.033 53.1756 74.496 -37.4631 65.0896 74.496 -19.3402 72.5679 74.496 0.1008 75.1008 74.496 19.5349 72.5157 74.496 37.6377 64.9888 74.496 53.1756 53.033 74.496 -53.1756 -53.033 111.744 -37.6377 -64.9888 111.744 -19.5349 -72.5157 111.744 -0.1008 -75.1008 111.744 19.3402 -72.5679 111.744 37.4631 -65.0896 111.744 53.033 -53.1756 111.744 -65.0896 -37.4631 111.744 -35.4504 -35.3553 111.744 -19.222 -46.2303 111.744 -0.0672 -50.0672 111.744 19.0978 -46.2818 111.744 35.3553 -35.4504 111.744 64.9888 -37.6377 111.744 -72.5679 -19.3402 111.744 -46.2818 -19.0978 111.744 -17.7252 -17.6777 111.744 -0.0336 -25.0336 111.744 17.6777 -17.7252 111.744 46.2303 -19.222 111.744 72.5157 -19.5349 111.744 -75.1008 0.1008 111.744 -50.0672 0.0672 111.744 -25.0336 0.0336 111.744 -3.60999e-17 2.87606e-17 111.744 25.0336 -0.0336 111.744 50.0672 -0.0672 111.744 75.1008 -0.1008 111.744 -72.5157 19.5349 111.744 -46.2303 19.222 111.744 -17.6777 17.7252 111.744 0.0336 25.0336 111.744 17.7252 17.6777 111.744 46.2818 19.0978 111.744 72.5679 19.3402 111.744 -64.9888 37.6377 111.744 -35.3553 35.4504 111.744 -19.0978 46.2818 111.744 0.0672 50.0672 111.744 19.222 46.2303 111.744 35.4504 35.3553 111.744 65.0896 37.4631 111.744 -53.033 53.1756 111.744 -37.4631 65.0896 111.744 -19.3402 72.5679 111.744 0.1008 75.1008 111.744 19.5349 72.5157 111.744 37.6377 64.9888 111.744 53.1756 53.033 111.744 -53.1756 -53.033 148.992 -37.6377 -64.9888 148.992 -19.5349 -72.5157 148.992 -0.1008 -75.1008 148.992 19.3402 -72.5679 148.992 37.4631 -65.0896 148.992 53.033 -53.1756 148.992 -65.0896 -37.4631 148.992 -35.4504 -35.3553 148.992 -19.222 -46.2303 148.992 -0.0672 -50.0672 148.992 19.0978 -46.2818 148.992 35.3553 -35.4504 148.992 64.9888 -37.6377 148.992 -72.5679 -19.3402 148.992 -46.2818 -19.0978 148.992 -17.7252 -17.6777 148.992 -0.0336 -25.0336 148.992 17.6777 -17.7252 148.992 46.2303 -19.222 148.992 72.5157 -19.5349 148.992 -75.1008 0.1008 148.992 -50.0672 0.0672 148.992 -25.0336 0.0336 148.992 -6.84143e-17 4.54107e-17 148.992 25.0336 -0.0336 148.992 50.0672 -0.0672 148.992 75.1008 -0.1008 148.992 -72.5157 19.5349 148.992 -46.2303 19.222 148.992 -17.6777 17.7252 148.992 0.0336 25.0336 148.992 17.7252 17.6777 148.992 46.2818 19.0978 148.992 72.5679 19.3402 148.992 -64.9888 37.6377 148.992 -35.3553 35.4504 148.992 -19.0978 46.2818 148.992 0.0672 50.0672 148.992 19.222 46.2303 148.992 35.4504 35.3553 148.992 65.0896 37.4631 148.992 -53.033 53.1756 148.992 -37.4631 65.0896 148.992 -19.3402 72.5679 148.992 0.1008 75.1008 148.992 19.5349 72.5157 148.992 37.6377 64.9888 148.992 53.1756 53.033 148.992 -53.1756 -53.033 186.24 -37.6377 -64.9888 186.24 -19.5349 -72.5157 186.24 -0.1008 -75.1008 186.24 19.3402 -72.5679 186.24 37.4631 -65.0896 186.24 53.033 -53.1756 186.24 -65.0896 -37.4631 186.24 -35.4504 -35.3553 186.24 -19.222 -46.2303 186.24 -0.0672 -50.0672 186.24 19.0978 -46.2818 186.24 35.3553 -35.4504 186.24 64.9888 -37.6377 186.24 -72.5679 -19.3402 186.24 -46.2818 -19.0978 186.24 -17.7252 -17.6777 186.24 -0.0336 -25.0336 186.24 17.6777 -17.7252 186.24 46.2303 -19.222 186.24 72.5157 -19.5349 186.24 -75.1008 0.1008 186.24 -50.0672 0.0672 186.24 -25.0336 0.0336 186.24 -6.08289e-17 6.601e-17 186.24 25.0336 -0.0336 186.24 50.0672 -0.0672 186.24 75.1008 -0.1008 186.24 -72.5157 19.5349 186.24 -46.2303 19.222 186.24 -17.6777 17.7252 186.24 0.0336 25.0336 186.24 17.7252 17.6777 186.24 46.2818 19.0978 186.24 72.5679 19.3402 186.24 -64.9888 37.6377 186.24 -35.3553 35.4504 186.24 -19.0978 46.2818 186.24 0.0672 50.0672 186.24 19.222 46.2303 186.24 35.4504 35.3553 186.24 65.0896 37.4631 186.24 -53.033 53.1756 186.24 -37.4631 65.0896 186.24 -19.3402 72.5679 186.24 0.1008 75.1008 186.24 19.5349 72.5157 186.24 37.6377 64.9888 186.24 53.1756 53.033 186.24 -53.1756 -53.033 223.488 -37.6377 -64.9888 223.488 -19.5349 -72.5157 223.488 -0.1008 -75.1008 223.488 19.3402 -72.5679 223.488 37.4631 -65.0896 223.488 53.033 -53.1756 223.488 -65.0896 -37.4631 223.488 -35.4504 -35.3553 223.488 -19.222 -46.2303 223.488 -0.0672 -50.0672 223.488 19.0978 -46.2818 223.488 35.3553 -35.4504 223.488 64.9888 -37.6377 223.488 -72.5679 -19.3402 223.488 -46.2818 -19.0978 223.488 -17.7252 -17.6777 223.488 -0.0336 -25.0336 223.488 17.6777 -17.7252 223.488 46.2303 -19.222 223.488 72.5157 -19.5349 223.488 -75.1008 0.1008 223.488 -50.0672 0.0672 223.488 -25.0336 0.0336 223.488 -7.99258e-17 1.00308e-16 223.488 25.0336 -0.0336 223.488 50.0672 -0.0672 223.488 75.1008 -0.1008 223.488 -72.5157 19.5349 223.488 -46.2303 19.222 223.488 -17.6777 17.7252 223.488 0.0336 25.0336 223.488 17.7252 17.6777 223.488 46.2818 19.0978 223.488 72.5679 19.3402 223.488 -64.9888 37.6377 223.488 -35.3553 35.4504 223.488 -19.0978 46.2818 223.488 0.0672 50.0672 223.488 19.222 46.2303 223.488 35.4504 35.3553 223.488 65.0896 37.4631 223.488 -53.033 53.1756 223.488 -37.4631 65.0896 223.488 -19.3402 72.5679 223.488 0.1008 75.1008 223.488 19.5349 72.5157 223.488 37.6377 64.9888 223.488 53.1756 53.033 223.488 -53.1756 -53.033 260.736 -37.6377 -64.9888 260.736 -19.5349 -72.5157 260.736 -0.1008 -75.1008 260.736 19.3402 -72.5679 260.736 37.4631 -65.0896 260.736 53.033 -53.1756 260.736 -65.0896 -37.4631 260.736 -35.4504 -35.3553 260.736 -19.222 -46.2303 260.736 -0.0672 -50.0672 260.736 19.0978 -46.2818 260.736 35.3553 -35.4504 260.736 64.9888 -37.6377 260.736 -72.5679 -19.3402 260.736 -46.2818 -19.0978 260.736 -17.7252 -17.6777 260.736 -0.0336 -25.0336 260.736 17.6777 -17.7252 260.736 46.2303 -19.222 260.736 72.5157 -19.5349 260.736 -75.1008 0.1008 260.736 -50.0672 0.0672 260.736 -25.0336 0.0336 260.736 -1.01241e-16 1.10475e-16 260.736 25.0336 -0.0336 260.736 50.0672 -0.0672 260.736 75.1008 -0.1008 260.736 -72.5157 19.5349 260.736 -46.2303 19.222 260.736 -17.6777 17.7252 260.736 0.0336 25.0336 260.736 17.7252 17.6777 260.736 46.2818 19.0978 260.736 72.5679 19.3402 260.736 -64.9888 37.6377 260.736 -35.3553 35.4504 260.736 -19.0978 46.2818 260.736 0.0672 50.0672 260.736 19.222 46.2303 260.736 35.4504 35.3553 260.736 65.0896 37.4631 260.736 -53.033 53.1756 260.736 -37.4631 65.0896 260.736 -19.3402 72.5679 260.736 0.1008 75.1008 260.736 19.5349 72.5157 260.736 37.6377 64.9888 260.736 53.1756 53.033 260.736 -53.1756 -53.033 297.984 -37.6377 -64.9888 297.984 -19.5349 -72.5157 297.984 -0.1008 -75.1008 297.984 19.3402 -72.5679 297.984 37.4631 -65.0896 297.984 53.033 -53.1756 297.984 -65.0896 -37.4631 297.984 -35.4504 -35.3553 297.984 -19.222 -46.2303 297.984 -0.0672 -50.0672 297.984 19.0978 -46.2818 297.984 35.3553 -35.4504 297.984 64.9888 -37.6377 297.984 -72.5679 -19.3402 297.984 -46.2818 -19.0978 297.984 -17.7252 -17.6777 297.984 -0.0336 -25.0336 297.984 17.6777 -17.7252 297.984 46.2303 -19.222 297.984 72.5157 -19.5349 297.984 -75.1008 0.1008 297.984 -50.0672 0.0672 297.984 -25.0336 0.0336 297.984 -1.05723e-16 1.33751e-16 297.984 25.0336 -0.0336 297.984 50.0672 -0.0672 297.984 75.1008 -0.1008 297.984 -72.5157 19.5349 297.984 -46.2303 19.222 297.984 -17.6777 17.7252 297.984 0.0336 25.0336 297.984 17.7252 17.6777 297.984 46.2818 19.0978 297.984 72.5679 19.3402 297.984 -64.9888 37.6377 297.984 -35.3553 35.4504 297.984 -19.0978 46.2818 297.984 0.0672 50.0672 297.984 19.222 46.2303 297.984 35.4504 35.3553 297.984 65.0896 37.4631 297.984 -53.033 53.1756 297.984 -37.4631 65.0896 297.984 -19.3402 72.5679 297.984 0.1008 75.1008 297.984 19.5349 72.5157 297.984 37.6377 64.9888 297.984 53.1756 53.033 297.984
        </DataArray>
      </Points>
      <Cells>
        <DataArray type="Int32" Name="connectivity" format="ascii">
          0 1 8 7 49 50 57 56 1 2 9 8 50 51 58 57 2 3 10 9 51 52 59 58 3 4 11 10 52 53 60 59 4 5 12 11 53 54 61 60 5 6 13 12 54 55 62 61 7 8 15 14 56 57 64 63 8 9 16 15 57 58 65 64 9 10 17 16 58 59 66 65 10 11 18 17 59 60 67 66 11 12 19 18 60 61 68 67 12 13 20 19 61 62 69 68 14 15 22 21 63 64 71 70 15 16 23 22 64 65 72 71 16 17 24 23 65 66 73 72 17 18 25 24 66 67 74 73 18 19 26 25 67 68 75 74 19 20 27 26 68 69 76 75 21 22 29 28 70 71 78 77 22 23 30 29 71 72 79 78 23 24 31 30 72 73 80 79 24 25 32 31 73 74 81 80 25 26 33 32 74 75 82 81 26 27 34 33 75 76 83 82 28 29 36 35 77 78 85 84 29 30 37 36 78 79 86 85 30 31 38 37 79 80 87 86 31 32 39 38 80 81 88 87 32 33 40 39 81 82 89 88 33 34 41 40 82 83 90 89 35 36 43 42 84 85 92 91 36 37 44 43 85 86 93 92 37 38 45 44 86 87 94 93 38 39 46 45 87 88 95 94 39 40 47 46 88 89 96 95 40 41 48 47 89 90 97 96 49 50 57 56 98 99 106 105 50 51 58 57 99 100 107 106 51 52 59 58 100 101 108 107 52 53 60 59 101 102 109 108 53 54 61 60 102 103 110 109 54 55 62 61 103 104 111 110 56 57 64 63 105 106 113 112 57 58 65 64 106 107 114 113 58 59 66 65 107 108 115 114 59 60 67 66 108 109 116 115 60 61 68 67 109 110 117 116 61 62 69 68 110 111 118 117 63 64 71 70 112 113 120 119 64 65 72 71 113 114 121 120 65 66 73 72 114 115 122 121 66 67 74 73 115 116 123 122 67 68 75 74 116 117 124 123 68 69 76 75 117 118 125 124 70 71 78 77 119 120 127 126 71 72 79 78 120 121 128 127 72 73 80 79 121 122 129 128 73 74 81 80 122 123 130 129 74 75 82 81 123 124 131 130 75 76 83 82 124 125 132 131 77 78 85 84 126 127 134 133 78 79 86 85 127 128 135 134 79 80 87 86 128 129 136 135 80 81 88 87 129 130 137 136 81 82 89 88 130 131 138 137 82 83 90 89 131 132 139 138 84 85 92 91 133 134 141 140 85 86 93 92 134 135 142 141 86 87 94 93 135 136 143 142 87 88 95 94 136 137 144 143 88 89 96 95 137 138 145 144 89 90 97 96 138 139 146 145 98 99 106 105 147 148 155 154 99 100 107 106 148 149 156 155 100 101 108 107 149 150 157 156 101 102 109 108 150 151 158 157 102 103 110 109 151 152 159 158 103 104 111 110 152 153 160 159 105 106 113 112 154 155 162 161 106 107 114 113 155 156 163 162 107 108 115 114 156 157 164 163 108 109 116 115 157 158 165 164 109 110 117 116 158 159 166 165 110 111 118 117 159 160 167 166 112 113 120 119 161 162 169 168 113 114 121 120 162 163 170 169 114 115 122 121 163 164 171 170 115 116 123 122 164 165 172 171 116 117 124 123 165 166 173 172 117 118 125 124 166 167 174 173 119 120 127 126 168 169 176 175 120 121 128 127 169 170 177 176 121 122 129 128 170 171 178 177 122 123 130 129 171 172 179 178 123 124 131 130 172 173 180 179 124 125 132 131 173 174 181 180 126 127 134 133 175 176 183 182 127 128 135 134 176 177 184 183 128 129 136 135 177 178 185 184 129 130 137 136 178 179 186 185 130 131 138 137 179 180 187 186 131 132 139 138 180 181 188 187 133 134 141 140 182 183 190 189 134 135 142 141 183 184 191 190 135 136 143 142 184 185 192 191 136 137 144 143 185 186 193 192 137 138 145 144 186 187 194 193 138 139 146 145 187 188 195 194 147 148 155 154 196 197 204 203 148 149 156 155 197 198 205 204 149 150 157 156 198 199 206 205 150 151 158 157 199 200 207 206 151 152 159 158 200 201 208 207 152 153 160 159 201 202 209 208 154 155 162 161 203 204 211 210 155 156 163 162 204 205 212 211 156 157 164 163 205 206 213 212 157 158 165 164 206 207 214 213 158 159 166 165 207 208 215 214 159 160 167 166 208 209 216 215 161 162 169 168 210 211 218 217 162 163 170 169 211 212 219 218 163 164 171 170 212 213 220 219 164 165 172 171 213 214 221 220 165 166 173 172 214 215 222 221 166 167 174 173 215 216 223 222 168 169 176 175 217 218 225 224 169 170 177 176 218 219 226 225 170 171 178 177 219 220 227 226 171 172 179 178 220 221 228 227 172 173 180 179 221 222 229 228 173 174 181 180 222 223 230 229 175 176 183 182 224 225 232 231 176 177 184 183 225 226 233 232 177 178 185 184 226 227 234 233 178 179 186 185 227 228 235 234 179 180 187 186 228 229 236 235 180 181 188 187 229 230 237 236 182 183 190 189 231 232 239 238 183 184 191 190 232 233 240 239 184 185 192 191 233 234 241 240 185 186 193 192 234 235 242 241 186 187 194 193 235 236 243 242 187 188 195 194 236 237 244 243 196 197 204 203 245 246 253 252 197 198 205 204 246 247 254 253 198 199 206 205 247 248 255 254 199 200 207 206 248 249 256 255 200 201 208 207 249 250 257 256 201 202 209 208 250 251 258 257 203 204 211 210 252 253 260 259 204 205 212 211 253 254 261 260 205 206 213 212 254 255 262 261 206 207 214 213 255 256 263 262 207 208 215 214 256 257 264 263 208 209 216 215 257 258 265 264 210 211 218 217 259 260 267 266 211 212 219 218 260 261 268 267 212 213 220 219 261 262 269 268 213 214 221 220 262 263 270 269 214 215 222 221 263 264 271 270 215 216 223 222 264 265 272 271 217 218 225 224 266 267 274 273 218 219 226 225 267 268 275 274 219 220 227 226 268 269 276 275 220 221 228 227 269 270 277 276 221 222 229 228 270 271 278 277 222 223 230 229 271 272 279 278 224 225 232 231 273 274 281 280 225 226 233 232 274 275 282 281 226 227 234 233 275 276 283 282 227 228 235 234 276 277 284 283 228 229 236 235 277 278 285 284 229 230 237 236 278 279 286 285 231 232 239 238 280 281 288 287 232 233 240 239 281 282 289 288 233 234 241 240 282 283 290 289 234 235 242 241 283 284 291 290 235 236 243 242 284 285 292 291 236 237 244 243 285 286 293 292 245 246 253 252 294 295 302 301 246 247 254 253 295 296 303 302 247 248 255 254 296 297 304 303 248 249 256 255 297 298 305 304 249 250 257 256 298 299 306 305 250 251 258 257 299 300 307 306 252 253 260 259 301 302 309 308 253 254 261 260 302 303 310 309 254 255 262 261 303 304 311 310 255 256 263 262 304 305 312 311 256 257 264 263 305 306 313 312 257 258 265 264 306 307 314 313 259 260 267 266 308 309 316 315 260 261 268 267 309 310 317 316 261 262 269 268 310 311 318 317 262 263 270 269 311 312 319 318 263 264 271 270 312 313 320 319 264 265 272 271 313 314 321 320 266 267 274 273 315 316 323 322 267 268 275 274 316 317 324 323 268 269 276 275 317 318 325 324 269 270 277 276 318 319 326 325 270 271 278 277 319 320 327 326 271 272 279 278 320 321 328 327 273 274 281 280 322 323 330 329 274 275 282 281 323 324 331 330 275 276 283 282 324 325 332 331 276 277 284 283 325 326 333 332 277 278 285 284 326 327 334 333 278 279 286 285 327 328 335 334 280 281 288 287 329 330 337 336 281 282 289 288 330 331 338 337 282 283 290 289 331 332 339 338 283 284 291 290 332 333 340 339 284 285 292 291 333 334 341 340 285 286 293 292 334 335 342 341 294 295 302 301 343 344 351 350 295 296 303 302 344 345 352 351 296 297 304 303 345 346 353 352 297 298 305 304 346 347 354 353 298 299 306 305 347 348 355 354 299 300 307 306 348 349 356 355 301 302 309 308 350 351 358 357 302 303 310 309 351 352 359 358 303 304 311 310 352 353 360 359 304 305 312 311 353 354 361 360 305 306 313 312 354 355 362 361 306 307 314 313 355 356 363 362 308 309 316 315 357 358 365 364 309 310 317 316 358 359 366 365 310 311 318 317 359 360 367 366 311 312 319 318 360 361 368 367 312 313 320 319 361 362 369 368 313 314 321 320 362 363 370 369 315 316 323 322 364 365 372 371 316 317 324 323 365 366 373 372 317 318 325 324 366 367 374 373 318 319 326 325 367 368 375 374 319 320 327 326 368 369 376 375 320 321 328 327 369 370 377 376 322 323 330 329 371 372 379 378 323 324 331 330 372 373 380 379 324 325 332 331 373 374 381 380 325 326 333 332 374 375 382 381 326 327 334 333 375 376 383 382 327 328 335 334 376 377 384 383 329 330 337 336 378 379 386 385 330 331 338 337 379 380 387 386 331 332 339 338 380 381 388 387 332 333 340 339 381 382 389 388 333 334 341 340 382 383 390 389 334 335 342 341 383 384 391 390 343 344 351 350 392 393 400 399 344 345 352 351 393 394 401 400 345 346 353 352 394 395 402 401 346 347 354 353 395 396 403 402 347 348 355 354 396 397 404 403 348 349 356 355 397 398 405 404 350 351 358 357 399 400 407 406 351 352 359 358 400 401 408 407 352 353 360 359 401 402 409 408 353 354 361 360 402 403 410 409 354 355 362 361 403 404 411 410 355 356 363 362 404 405 412 411 357 358 365 364 406 407 414 413 358 359 366 365 407 408 415 414 359 360 367 366 408 409 416 415 360 361 368 367 409 410 417 416 361 362 369 368 410 411 418 417 362 363 370 369 411 412 419 418 364 365 372 371 413 414 421 420 365 366 373 372 414 415 422 421 366 367 374 373 415 416 423 422 367 368 375 374 416 417 424 423 368 369 376 375 417 418 425 424 369 370 377 376 418 419 426 425 371 372 379 378 420 421 428 427 372 373 380 379 421 422 429 428 373 374 381 380 422 423 430 429 374 375 382 381 423 424 431 430 375 376 383 382 424 425 432 431 376 377 384 383 425 426 433 432 378 379 386 385 427 428 435 434 379 380 387 386 428 429 436 435 380 381 388 387 429 430 437 436 381 382 389 388 430 431 438 437 382 383 390 389 431 432 439 438 383 384 391 390 432 433 440 439
        </DataArray>
        <DataArray type="Int32" Name="offsets" format="ascii">
          8 16 24 32 40 48 56 64 72 80 88 96 104 112 120 128 136 144 152 160 168 176 184 192 200 208 216 224 232 240 248 256 264 272 280 288 296 304 312 320 328 336 344 352 360 368 376 384 392 400 408 416 424 432 440 448 456 464 472 480 488 496 504 512 520 528 536 544 552 560 568 576 584 592 600 608 616 624 632 640 648 656 664 672 680 688 696 704 712 720 728 736 744 752 760 768 776 784 792 800 808 816 824 832 840 848 856 864 872 880 888 896 904 912 920 928 936 944 952 960 968 976 984 992 1000 1008 1016 1024 1032 1040 1048 1056 1064 1072 1080 1088 1096 1104 1112 1120 1128 1136 1144 1152 1160 1168 1176 1184 1192 1200 1208 1216 1224 1232 1240 1248 1256 1264 1272 1280 1288 1296 1304 1312 1320 1328 1336 1344 1352 1360 1368 1376 1384 1392 1400 1408 1416 1424 1432 1440 1448 1456 1464 1472 1480 1488 1496 1504 1512 1520 1528 1536 1544 1552 1560 1568 1576 1584 1592 1600 1608 1616 1624 1632 1640 1648 1656 1664 1672 1680 1688 1696 1704 1712 1720 1728 1736 1744 1752 1760 1768 1776 1784 1792 1800 1808 1816 1824 1832 1840 1848 1856 1864 1872 1880 1888 1896 1904 1912 1920 1928 1936 1944 1952 1960 1968 1976 1984 1992 2000 2008 2016 2024 2032 2040 2048 2056 2064 2072 2080 2088 2096 2104 2112 2120 2128 2136 2144 2152 2160 2168 2176 2184 2192 2200 2208 2216 2224 2232 2240 2248 2256 2264 2272 2280 2288 2296 2304
        </DataArray>
        <DataArray type="UInt8" Name="types" format="ascii">
          12 12 12 12 12 12 12 12 12 12 12 12 12 12 12 12 12 12 12 12 12 12 12 12 12 12 12 12 12 12 12 12 12 12 12 12 12 12 12 12 12 12 12 12 12 12 12 12 12 12 12 12 12 12 12 12 12 12 12 12 12 12 12 12 12 12 12 12 12 12 12 12 12 12 12 12 12 12 12 12 12 12 12 12 12 12 12 12 12 12 12 12 12 12 12 12 12 12 12 12 12 12 12 12 12 12 12 12 12 12 12 12 12 12 12 12 12 12 12 12 12 12 12 12 12 12 12 12 12 12 12 12 12 12 12 12 12 12 12 12 12 12 12 12 12 12 12 12 12 12 12 12 12 12 12 12 12 12 12 12 12 12 12 12 12 12 12 12 12 12 12 12 12 12 12 12 12 12 12 12 12 12 12 12 12 12 12 12 12 12 12 12 12 12 12 12 12 12 12 12 12 12 12 12 12 12 12 12 12 12 12 12 12 12 12 12 12 12 12 12 12 12 12 12 12 12 12 12 12 12 12 12 12 12 12 12 12 12 12 12 12 12 12 12 12 12 12 12 12 12 12 12 12 12 12 12 12 12 12 12 12 12 12 12 12 12 12 12 12 12 12 12 12 12 12 12 12 12 12 12 12 12 12 12 12 12 12 12
        </DataArray>
      </Cells>
      <PointData>
        <DataArray type="Float32" Name="displacement" NumberOfComponents="3" format="ascii">
          -0.0178191 0 0 -0.0172119 -0.00461192 0 -0.0154318 -0.00890955 0 -0.0126 -0.0126 0 -0.00890955 -0.0154318 0 -0.00461192 -0.0172119 0 -1.37638e-18 -0.0178191 0 -0.0172119 0.00461192 0 -0.0118794 -1.33642e-19 0 -0.0109751 -0.00454605 0 -0.0084 -0.0084 0 -0.00454605 -0.0109751 0 -1.56988e-18 -0.0118794 0 0.00461192 -0.0172119 0 -0.0154318 0.00890955 0 -0.0109751 0.00454605 0 -0.0059397 1.74516e-19 0 -0.0042 -0.0042 0 -1.02328e-18 -0.0059397 0 0.00454605 -0.0109751 0 0.00890955 -0.0154318 0 -0.0126 0.0126 0 -0.0084 0.0084 0 -0.0042 0.0042 0 0 0 0 0.0042 -0.0042 0 0.0084 -0.0084 0 0.0126 -0.0126 0 -0.00890955 0.0154318 0 -0.00454605 0.0109751 0 -8.72038e-19 0.0059397 0 0.0042 0.0042 0 0.0059397 -1.88484e-19 0 0.0109751 -0.00454605 0 0.0154318 -0.00890955 0 -0.00461192 0.0172119 0 6.2221e-19 0.0118794 0 0.00454605 0.0109751 0 0.0084 0.0084 0 0.0109751 0.00454605 0 0.0118794 -1.81664e-18 0 0.0172119 -0.00461192 0 1.45682e-18 0.0178191 0 0.00461192 0.0172119 0 0.00890955 0.0154318 0 0.0126 0.0126 0 0.0154318 0.00890955 0 0.0172119 0.00461192 0 0.0178191 -3.08369e-18 0 -0.0178191 2.34178e-18 -0.0315 -0.0172119 -0.00461192 -0.0315 -0.0154318 -0.00890955 -0.0315 -0.0126 -0.0126 -0.0315 -0.00890955 -0.0154318 -0.0315 -0.00461192 -0.0172119 -0.0315 -2.81669e-18 -0.0178191 -0.0315 -0.0172119 0.00461192 -0.0315 -0.0118794 7.3254e-19 -0.0315 -0.0109751 -0.00454605 -0.0315 -0.0084 -0.0084 -0.0315 -0.00454605 -0.0109751 -0.0315 -2.61683e-18 -0.0118794 -0.0315 0.00461192 -0.0172119 -0.0315 -0.0154318 0.00890955 -0.0315 -0.0109751 0.00454605 -0.0315 -0.0059397 1.71121e-19 -0.0315 -0.0042 -0.0042 -0.0315 -2.06759e-18 -0.0059397 -0.0315 0.00454605 -0.0109751 -0.0315 0.00890955 -0.0154318 -0.0315 -0.0126 0.0126 -0.0315 -0.0084 0.0084 -0.0315 -0.0042 0.0042 -0.0315 -5.96151e-19 7.12858e-19 -0.0315 0.0042 -0.0042 -0.0315 0.0084 -0.0084 -0.0315 0.0126 -0.0126 -0.0315 -0.00890955 0.0154318 -0.0315 -0.00454605 0.0109751 -0.0315 -7.42719e-19 0.0059397 -0.0315 0.0042 0.0042 -0.0315 0.0059397 -7.88183e-19 -0.0315 0.0109751 -0.00454605 -0.0315 0.0154318 -0.00890955 -0.0315 -0.00461192 0.0172119 -0.0315 1.38511e-18 0.0118794 -0.0315 0.00454605 0.0109751 -0.0315 0.0084 0.0084 -0.0315 0.0109751 0.00454605 -0.0315 0.0118794 -1.36713e-18 -0.0315 0.0172119 -0.00461192 -0.0315 1.57886e-18 0.0178191 -0.0315 0.00461192 0.0172119 -0.0315 0.00890955 0.0154318 -0.0315 0.0126 0.0126 -0.0315 0.0154318 0.00890955 -0.0315 0.0172119 0.00461192 -0.0315 0.0178191 -4.20699e-18 -0.0315 -0.0178191 1.96214e-18 -0.063 -0.0172119 -0.00461192 -0.063 -0.0154318 -0.00890955 -0.063 -0.0126 -0.0126 -0.063 -0.00890955 -0.0154318 -0.063 -0.00461192 -0.0172119 -0.063 -4.34049e-18 -0.0178191 -0.063 -0.0172119 0.00461192 -0.063 -0.0118794 4.74952e-19 -0.063 -0.0109751 -0.00454605 -0.063 -0.0084 -0.0084 -0.063 -0.00454605 -0.0109751 -0.063 -3.1615e-18 -0.0118794 -0.063 0.00461192 -0.0172119 -0.063 -0.0154318 0.00890955 -0.063 -0.0109751 0.00454605 -0.063 -0.0059397 7.47416e-19 -0.063 -0.0042 -0.0042 -0.063 -2.87117e-18 -0.0059397 -0.063 0.00454605 -0.0109751 -0.063 0.00890955 -0.0154318 -0.063 -0.0126 0.0126 -0.063 -0.0084 0.0084 -0.063 -0.0042 0.0042 -0.063 -2.82667e-18 1.37123e-19 -0.063 0.0042 -0.0042 -0.063 0.0084 -0.0084 -0.063 0.0126 -0.0126 -0.063 -0.00890955 0.0154318 -0.063 -0.00454605 0.0109751 -0.063 -3.47714e-18 0.0059397 -0.063 0.0042 0.0042 -0.063 0.0059397 3.57065e-19 -0.063 0.0109751 -0.00454605 -0.063 0.0154318 -0.00890955 -0.063 -0.00461192 0.0172119 -0.063 -6.70106e-19 0.0118794 -0.063 0.00454605 0.0109751 -0.063 0.0084 0.0084 -0.063 0.0109751 0.00454605 -0.063 0.0118794 6.12691e-19 -0.063 0.0172119 -0.00461192 -0.063 -1.15059e-18 0.0178191 -0.063 0.00461192 0.0172119 -0.063 0.00890955 0.0154318 -0.063 0.0126 0.0126 -0.063 0.0154318 0.00890955 -0.063 0.0172119 0.00461192 -0.063 0.0178191 -1.2923e-18 -0.063 -0.0178191 3.73922e-18 -0.0945 -0.0172119 -0.00461192 -0.0945 -0.0154318 -0.00890955 -0.0945 -0.0126 -0.0126 -0.0945 -0.00890955 -0.0154318 -0.0945 -0.00461192 -0.0172119 -0.0945 -3.48536e-18 -0.0178191 -0.0945 -0.0172119 0.00461192 -0.0945 -0.0118794 4.11957e-18 -0.0945 -0.0109751 -0.00454605 -0.0945 -0.0084 -0.0084 -0.0945 -0.00454605 -0.0109751 -0.0945 -4.78693e-18 -0.0118794 -0.0945 0.00461192 -0.0172119 -0.0945 -0.0154318 0.00890955 -0.0945 -0.0109751 0.00454605 -0.0945 -0.0059397 2.89501e-18 -0.0945 -0.0042 -0.0042 -0.0945 -6.35784e-18 -0.0059397 -0.0945 0.00454605 -0.0109751 -0.0945 0.00890955 -0.0154318 -0.0945 -0.0126 0.0126 -0.0945 -0.0084 0.0084 -0.0945 -0.0042 0.0042 -0.0945 -4.51248e-18 3.59508e-18 -0.0945 0.0042 -0.0042 -0.0945 0.0084 -0.0084 -0.0945 0.0126 -0.0126 -0.0945 -0.00890955 0.0154318 -0.0945 -0.00454605 0.0109751 -0.0945 -5.24705e-18 0.0059397 -0.0945 0.0042 0.0042 -0.0945 0.0059397 3.01026e-18 -0.0945 0.0109751 -0.00454605 -0.0945 0.0154318 -0.00890955 -0.0945 -0.00461192 0.0172119 -0.0945 -3.11658e-18 0.0118794 -0.0945 0.00454605 0.0109751 -0.0945 0.0084 0.0084 -0.0945 0.0109751 0.00454605 -0.0945 0.0118794 1.90756e-18 -0.0945 0.0172119 -0.00461192 -0.0945 -4.13646e-18 0.0178191 -0.0945 0.00461192 0.0172119 -0.0945 0.00890955 0.0154318 -0.0945 0.0126 0.0126 -0.0945 0.0154318 0.00890955 -0.0945 0.0172119 0.00461192 -0.0945 0.0178191 7.77054e-19 -0.0945 -0.0178191 9.33642e-18 -0.126 -0.0172119 -0.00461192 -0.126 -0.0154318 -0.00890955 -0.126 -0.0126 -0.0126 -0.126 -0.00890955 -0.0154318 -0.126 -0.00461192 -0.0172119 -0.126 -9.11173e-18 -0.0178191 -0.126 -0.0172119 0.00461192 -0.126 -0.0118794 5.74097e-18 -0.126 -0.0109751 -0.00454605 -0.126 -0.0084 -0.0084 -0.126 -0.00454605 -0.0109751 -0.126 -7.14929e-18 -0.0118794 -0.126 0.00461192 -0.0172119 -0.126 -0.0154318 0.00890955 -0.126 -0.0109751 0.00454605 -0.126 -0.0059397 5.61738e-18 -0.126 -0.0042 -0.0042 -0.126 -8.11226e-18 -0.0059397 -0.126 0.00454605 -0.0109751 -0.126 0.00890955 -0.0154318 -0.126 -0.0126 0.0126 -0.126 -0.0084 0.0084 -0.126 -0.0042 0.0042 -0.126 -8.55179e-18 5.67634e-18 -0.126 0.0042 -0.0042 -0.126 0.0084 -0.0084 -0.126 0.0126 -0.0126 -0.126 -0.00890955 0.0154318 -0.126 -0.00454605 0.0109751 -0.126 -8.38245e-18 0.0059397 -0.126 0.0042 0.0042 -0.126 0.0059397 2.336e-18 -0.126 0.0109751 -0.00454605 -0.126 0.0154318 -0.00890955 -0.126 -0.00461192 0.0172119 -0.126 -5.51492e-18 0.0118794 -0.126 0.00454605 0.0109751 -0.126 0.0084 0.0084 -0.126 0.0109751 0.00454605 -0.126 0.0118794 3.24034e-18 -0.126 0.0172119 -0.00461192 -0.126 -4.45585e-18 0.0178191 -0.126 0.00461192 0.0172119 -0.126 0.00890955 0.0154318 -0.126 0.0126 0.0126 -0.126 0.0154318 0.00890955 -0.126 0.0172119 0.00461192 -0.126 0.0178191 4.72257e-19 -0.126 -0.0178191 7.80494e-18 -0.1575 -0.0172119 -0.00461192 -0.1575 -0.0154318 -0.00890955 -0.1575 -0.0126 -0.0126 -0.1575 -0.00890955 -0.0154318 -0.1575 -0.00461192 -0.0172119 -0.1575 -1.10565e-17 -0.0178191 -0.1575 -0.0172119 0.00461192 -0.1575 -0.0118794 8.4035e-18 -0.1575 -0.0109751 -0.00454605 -0.1575 -0.0084 -0.0084 -0.1575 -0.00454605 -0.0109751 -0.1575 -1.14899e-17 -0.0118794 -0.1575 0.00461192 -0.0172119 -0.1575 -0.0154318 0.00890955 -0.1575 -0.0109751 0.00454605 -0.1575 -0.0059397 9.47969e-18 -0.1575 -0.0042 -0.0042 -0.1575 -9.62993e-18 -0.0059397 -0.1575 0.00454605 -0.0109751 -0.1575 0.00890955 -0.0154318 -0.1575 -0.0126 0.0126 -0.1575 -0.0084 0.0084 -0.1575 -0.0042 0.0042 -0.1575 -7.60361e-18 8.25125e-18 -0.1575 0.0042 -0.0042 -0.1575 0.0084 -0.0084 -0.1575 0.0126 -0.0126 -0.1575 -0.00890955 0.0154318 -0.1575 -0.00454605 0.0109751 -0.1575 -9.47017e-18 0.0059397 -0.1575 0.0042 0.0042 -0.1575 0.0059397 1.03023e-17 -0.1575 0.0109751 -0.00454605 -0.1575 0.0154318 -0.00890955 -0.1575 -0.00461192 0.0172119 -0.1575 -8.35955e-18 0.0118794 -0.1575 0.00454605 0.0109751 -0.1575 0.0084 0.0084 -0.1575 0.0109751 0.00454605 -0.1575 0.0118794 7.469e-18 -0.1575 0.0172119 -0.00461192 -0.1575 -8.46568e-18 0.0178191 -0.1575 0.00461192 0.0172119 -0.1575 0.00890955 0.0154318 -0.1575 0.0126 0.0126 -0.1575 0.0154318 0.00890955 -0.1575 0.0172119 0.00461192 -0.1575 0.0178191 2.0693e-18 -0.1575 -0.0178191 1.53489e-17 -0.189 -0.0172119 -0.00461192 -0.189 -0.0154318 -0.00890955 -0.189 -0.0126 -0.0126 -0.189 -0.00890955 -0.0154318 -0.189 -0.00461192 -0.0172119 -0.189 -1.16522e-17 -0.0178191 -0.189 -0.0172119 0.00461192 -0.189 -0.0118794 1.41704e-17 -0.189 -0.0109751 -0.00454605 -0.189 -0.0084 -0.0084 -0.189 -0.00454605 -0.0109751 -0.189 -1.38291e-17 -0.0118794 -0.189 0.00461192 -0.0172119 -0.189 -0.0154318 0.00890955 -0.189 -0.0109751 0.00454605 -0.189 -0.0059397 1.2961e-17 -0.189 -0.0042 -0.0042 -0.189 -1.14456e-17 -0.0059397 -0.189 0.00454605 -0.0109751 -0.189 0.00890955 -0.0154318 -0.189 -0.0126 0.0126 -0.189 -0.0084 0.0084 -0.189 -0.0042 0.0042 -0.189 -9.99073e-18 1.25385e-17 -0.189 0.0042 -0.0042 -0.189 0.0084 -0.0084 -0.189 0.0126 -0.0126 -0.189 -0.00890955 0.0154318 -0.189 -0.00454605 0.0109751 -0.189 -1.04753e-17 0.0059397 -0.189 0.0042 0.0042 -0.189 0.0059397 1.0916e-17 -0.189 0.0109751 -0.00454605 -0.189 0.0154318 -0.00890955 -0.189 -0.00461192 0.0172119 -0.189 -6.14622e-18 0.0118794 -0.189 0.00454605 0.0109751 -0.189 0.0084 0.0084 -0.189 0.0109751 0.00454605 -0.189 0.0118794 1.07744e-17 -0.189 0.0172119 -0.00461192 -0.189 -6.50976e-18 0.0178191 -0.189 0.00461192 0.0172119 -0.189 0.00890955 0.0154318 -0.189 0.0126 0.0126 -0.189 0.0154318 0.00890955 -0.189 0.0172119 0.00461192 -0.189 0.0178191 1.28798e-17 -0.189 -0.0178191 2.54933e-17 -0.2205 -0.0172119 -0.00461192 -0.2205 -0.0154318 -0.00890955 -0.2205 -0.0126 -0.0126 -0.2205 -0.00890955 -0.0154318 -0.2205 -0.00461192 -0.0172119 -0.2205 -1.9011e-17 -0.0178191 -0.2205 -0.0172119 0.00461192 -0.2205 -0.0118794 2.09901e-17 -0.2205 -0.0109751 -0.00454605 -0.2205 -0.0084 -0.0084 -0.2205 -0.00454605 -0.0109751 -0.2205 -1.41144e-17 -0.0118794 -0.2205 0.00461192 -0.0172119 -0.2205 -0.0154318 0.00890955 -0.2205 -0.0109751 0.00454605 -0.2205 -0.0059397 1.68489e-17 -0.2205 -0.0042 -0.0042 -0.2205 -1.64394e-17 -0.0059397 -0.2205 0.00454605 -0.0109751 -0.2205 0.00890955 -0.0154318 -0.2205 -0.0126 0.0126 -0.2205 -0.0084 0.0084 -0.2205 -0.0042 0.0042 -0.2205 -1.26551e-17 1.38094e-17 -0.2205 0.0042 -0.0042 -0.2205 0.0084 -0.0084 -0.2205 0.0126 -0.0126 -0.2205 -0.00890955 0.0154318 -0.2205 -0.00454605 0.0109751 -0.2205 -1.04313e-17 0.0059397 -0.2205 0.0042 0.0042 -0.2205 0.0059397 1.04594e-17 -0.2205 0.0109751 -0.00454605 -0.2205 0.0154318 -0.00890955 -0.2205 -0.00461192 0.0172119 -0.2205 -7.11846e-18 0.0118794 -0.2205 0.00454605 0.0109751 -0.2205 0.0084 0.0084 -0.2205 0.0109751 0.00454605 -0.2205 0.0118794 1.06974e-17 -0.2205 0.0172119 -0.00461192 -0.2205 -3.20853e-18 0.0178191 -0.2205 0.00461192 0.0172119 -0.2205 0.00890955 0.0154318 -0.2205 0.0126 0.0126 -0.2205 0.0154318 0.00890955 -0.2205 0.0172119 0.00461192 -0.2205 0.0178191 5.5026e-18 -0.2205 -0.0178191 1.19445e-17 -0.252 -0.0172119 -0.00461192 -0.252 -0.0154318 -0.00890955 -0.252 -0.0126 -0.0126 -0.252 -0.00890955 -0.0154318 -0.252 -0.00461192 -0.0172119 -0.252 -1.65601e-17 -0.0178191 -0.252 -0.0172119 0.00461192 -0.252 -0.0118794 1.97684e-17 -0.252 -0.0109751 -0.00454605 -0.252 -0.0084 -0.0084 -0.252 -0.00454605 -0.0109751 -0.252 -1.57631e-17 -0.0118794 -0.252 0.00461192 -0.0172119 -0.252 -0.0154318 0.00890955 -0.252 -0.0109751 0.00454605 -0.252 -0.0059397 1.67626e-17 -0.252 -0.0042 -0.0042 -0.252 -1.08499e-17 -0.0059397 -0.252 0.00454605 -0.0109751 -0.252 0.00890955 -0.0154318 -0.252 -0.0126 0.0126 -0.252 -0.0084 0.0084 -0.252 -0.0042 0.0042 -0.252 -1.32154e-17 1.67189e-17 -0.252 0.0042 -0.0042 -0.252 0.0084 -0.0084 -0.252 0.0126 -0.0126 -0.252 -0.00890955 0.0154318 -0.252 -0.00454605 0.0109751 -0.252 -1.48886e-17 0.0059397 -0.252 0.0042 0.0042 -0.252 0.0059397 1.49362e-17 -0.252 0.0109751 -0.00454605 -0.252 0.0154318 -0.00890955 -0.252 -0.00461192 0.0172119 -0.252 -1.15969e-17 0.0118794 -0.252 0.00454605 0.0109751 -0.252 0.0084 0.0084 -0.252 0.0109751 0.00454605 -0.252 0.0118794 1.17565e-17 -0.252 0.0172119 -0.00461192 -0.252 -9.96126e-18 0.0178191 -0.252 0.00461192 0.0172119 -0.252 0.00890955 0.0154318 -0.252 0.0126 0.0126 -0.252 0.0154318 0.00890955 -0.252 0.0172119 0.00461192 -0.252 0.0178191 1.59719e-17 -0.252
        </DataArray>
      </PointData>
      <CellData>
        <DataArray type="Float32" Name="stress_zz" NumberOfComponents="1" format="ascii">
          25.2 25.2 25.2 25.2 25.2 25.2 25.2 25.2 25.2 25.2 25.2 25.2 25.2 25.2 25.2 25.2 25.2 25.2 25.2 25.2 25.2 25.2 25.2 25.2 25.2 25.2 25.2 25.2 25.2 25.2 25.2 25.2 25.2 25.2 25.2 25.2 25.2 25.2 25.2 25.2 25.2 25.2 25.2 25.2 25.2 25.2 25.2 25.2 25.2 25.2 25.2 25.2 25.2 25.2 25.2 25.2 25.2 25.2 25.2 25.2 25.2 25.2 25.2 25.2 25.2 25.2 25.2 25.2 25.2 25.2 25.2 25.2 25.2 25.2 25.2 25.2 25.2 25.2 25.2 25.2 25.2 25.2 25.2 25.2 25.2 25.2 25.2 25.2 25.2 25.2 25.2 25.2 25.2 25.2 25.2 25.2 25.2 25.2 25.2 25.2 25.2 25.2 25.2 25.2 25.2 25.2 25.2 25.2 25.2 25.2 25.2 25.2 25.2 25.2 25.2 25.2 25.2 25.2 25.2 25.2 25.2 25.2 25.2 25.2 25.2 25.2 25.2 25.2 25.2 25.2 25.2 25.2 25.2 25.2 25.2 25.2 25.2 25.2 25.2 25.2 25.2 25.2 25.2 25.2 25.2 25.2 25.2 25.2 25.2 25.2 25.2 25.2 25.2 25.2 25.2 25.2 25.2 25.2 25.2 25.2 25.2 25.2 25.2 25.2 25.2 25.2 25.2 25.2 25.2 25.2 25.2 25.2 25.2 25.2 25.2 25.2 25.2 25.2 25.2 25.2 25.2 25.2 25.2 25.2 25.2 25.2 25.2 25.2 25.2 25.2 25.2 25.2 25.2 25.2 25.2 25.2 25.2 25.2 25.2 25.2 25.2 25.2 25.2 25.2 25.2 25.2 25.2 25.2 25.2 25.2 25.2 25.2 25.2 25.2 25.2 25.2 25.2 25.2 25.2 25.2 25.2 25.2 25.2 25.2 25.2 25.2 25.2 25.2 25.2 25.2 25.2 25.2 25.2 25.2 25.2 25.2 25.2 25.2 25.2 25.2 25.2 25.2 25.2 25.2 25.2 25.2 25.2 25.2 25.2 25.2 25.2 25.2 25.2 25.2 25.2 25.2 25.2 25.2 25.2 25.2 25.2 25.2 25.2 25.2 25.2 25.2 25.2 25.2 25.2 25.2 25.2 25.2 25.2 25.2 25.2 25.2 25.2 25.2 25.2 25.2 25.2 25.2 25.2 25.2 25.2 25.2 25.2 25.2
        </DataArray>
        <DataArray type="Float32" Name="deviatoric_strain" NumberOfComponents="1" format="ascii">
          0.000672 0.000672 0.000672 0.000672 0.000672 0.000672 0.000672 0.000672 0.000672 0.000672 0.000672 0.000672 0.000672 0.000672 0.000672 0.000672 0.000672 0.000672 0.000672 0.000672 0.000672 0.000672 0.000672 0.000672 0.000672 0.000672 0.000672 0.000672 0.000672 0.000672 0.000672 0.000672 0.000672 0.000672 0.000672 0.000672 0.000672 0.000672 0.000672 0.000672 0.000672 0.000672 0.000672 0.000672 0.000672 0.000672 0.000672 0.000672 0.000672 0.000672 0.000672 0.000672 0.000672 0.000672 0.000672 0.000672 0.000672 0.000672 0.000672 0.000672 0.000672 0.000672 0.000672 0.000672 0.000672 0.000672 0.000672 0.000672 0.000672 0.000672 0.000672 0.000672 0.000672 0.000672 0.000672 0.000672 0.000672 0.000672 0.000672 0.000672 0.000672 0.000672 0.000672 0.000672 0.000672 0.000672 0.000672 0.000672 0.000672 0.000672 0.000672 0.000672 0.000672 0.000672 0.000672 0.000672 0.000672 0.000672 0.000672 0.000672 0.000672 0.000672 0.000672 0.000672 0.000672 0.000672 0.000672 0.000672 0.000672 0.000672 0.000672 0.000672 0.000672 0.000672 0.000672 0.000672 0.000672 0.000672 0.000672 0.000672 0.000672 0.000672 0.000672 0.000672 0.000672 0.000672 0.000672 0.000672 0.000672 0.000672 0.000672 0.000672 0.000672 0.000672 0.000672 0.000672 0.000672 0.000672 0.000672 0.000672 0.000672 0.000672 0.000672 0.000672 0.000672 0.000672 0.000672 0.000672 0.000672 0.000672 0.000672 0.000672 0.000672 0.000672 0.000672 0.000672 0.000672 0.000672 0.000672 0.000672 0.000672 0.000672 0.000672 0.000672 0.000672 0.000672 0.000672 0.000672 0.000672 0.000672 0.000672 0.000672 0.000672 0.000672 0.000672 0.000672 0.000672 0.000672 0.000672 0.000672 0.000672 0.000672 0.000672 0.000672 0.000672 0.000672 0.000672 0.000672 0.000672 0.000672 0.000672 0.000672 0.000672 0.000672 0.000672 0.000672 0.000672 0.000672 0.000672 0.000672 0.000672 0.000672 0.000672 0.000672 0.000672 0.000672 0.000672 0.000672 0.000672 0.000672 0.000672 0.000672 0.000672 0.000672 0.000672 0.000672 0.000672 0.000672 0.000672 0.000672 0.000672 0.000672 0.000672 0.000672 0.000672 0.000672 0.000672 0.000672 0.000672 0.000672 0.000672 0.000672 0.000672 0.000672 0.000672 0.000672 0.000672 0.000672 0.000672 0.000672 0.000672 0.000672 0.000672 0.000672 0.000672 0.000672 0.000672 0.000672 0.000672 0.000672 0.000672 0.000672 0.000672 0.000672 0.000672 0.000672 0.000672 0.000672 0.000672 0.000672 0.000672 0.000672 0.000672 0.000672 0.000672 0.000672 0.000672 0.000672 0.000672 0.000672 0.000672 0.000672 0.000672 0.000672 0.000672 0.000672 0.000672 0.000672 0.000672 0.000672 0.000672 0.000672 0.000672 0.000672 0.000672 0.000672 0.000672 0.000672
        </DataArray>
      </CellData>
    </Piece>
  </UnstructuredGrid>
</VTKFile>
