<?xml version="1.0"?>
<VTKFile type="UnstructuredGrid" version="0.1" byte_order="LittleEndian">
  <UnstructuredGrid>
    <Piece NumberOfPoints="441" NumberOfCells="288">
      <Points>
        <DataArray type="Float32" NumberOfComponents="3" format="ascii">
          -56.4556 -53.033 0 -40.806 -65.8377 0 -22.3755 -74.1557 0 -2.42016 -77.4202 0 17.7001 -75.4085 0 36.6142 -68.2579 0 53.033 -56.4556 0 -68.2579 -36.6142 0 -37.6371 -35.3553 0 -21.2422 -47.0672 0 -1.61344 -51.6134 0 18.261 -48.302 0 35.3553 -37.6371 0 65.8377 -40.806 0 -75.4085 -17.7001 0 -48.302 -18.261 0 -18.8185 -17.6777 0 -0.806719 -25.8067 0 17.6777 -18.8185 0 47.0672 -21.2422 0 74.1557 -22.3755 0 -77.4202 2.42016 0 -51.6134 1.61344 0 -25.8067 0.806719 0 0 0 0 25.8067 -0.806719 0 51.6134 -1.61344 0 77.4202 -2.42016 0 -74.1557 22.3755 0 -47.0672 21.2422 0 -17.6777 18.8185 0 0.806719 25.8067 0 18.8185 17.6777 0 48.302 18.261 0 75.4085 17.7001 0 -65.8377 40.806 0 -35.3553 37.6371 0 -18.261 48.302 0 1.61344 51.6134 0 21.2422 47.0672 0 37.6371 35.3553 0 68.2579 36.6142 0 -53.033 56.4556 0 -36.6142 68.2579 0 -17.7001 75.4085 0 2.42016 77.4202 0 22.3755 74.1557 0 40.806 65.8377 0 56.4556 53.033 0 -56.4556 -53.033 35.304 -40.806 -65.8377 35.304 -22.3755 -74.1557 35.304 -2.42016 -77.4202 35.304 17.7001 -75.4085 35.304 36.6142 -68.2579 35.304 53.033 -56.4556 35.304 -68.2579 -36.6142 35.304 -37.6371 -35.3553 35.304 -21.2422 -47.0672 35.304 -1.61344 -51.6134 35.304 18.261 -48.302 35.304 35.3553 -37.6371 35.304 65.8377 -40.806 35.304 -75.4085 -17.7001 35.304 -48.302 -18.261 35.304 -18.8185 -17.6777 35.304 -0.806719 -25.8067 35.304 17.6777 -18.8185 35.304 47.0672 -21.2422 35.304 74.1557 -22.3755 35.304 -77.4202 2.42016 35.304 -51.6134 1.61344 35.304 -25.8067 0.806719 35.304 9.65284e-17 -2.34082e-16 35.304 25.8067 -0.806719 35.304 51.6134 -1.61344 35.304 77.4202 -2.42016 35.304 -74.1557 22.3755 35.304 -47.0672 21.2422 35.304 -17.6777 18.8185 35.304 0.806719 25.8067 35.304 18.8185 17.6777 35.304 48.302 18.261 35.304 75.4085 17.7001 35.304 -65.8377 40.806 35.304 -35.3553 37.6371 35.304 -18.261 48.302 35.304 1.61344 51.6134 35.304 21.2422 47.0672 35.304 37.6371 35.3553 35.304 68.2579 36.6142 35.304 -53.033 56.4556 35.304 -36.6142 68.2579 35.304 -17.7001 75.4085 35.304 2.42016 77.4202 35.304 22.3755 74.1557 35.304 40.806 65.8377 35.304 56.4556 53.033 35.304 -56.4556 -53.033 70.608 -40.806 -65.8377 70.608 -22.3755 -74.1557 70.608 -2.42016 -77.4202 70.608 17.7001 -75.4085 70.608 36.6142 -68.2579 70.608 53.033 -56.4556 70.608 -68.2579 -36.6142 70.608 -37.6371 -35.3553 70.608 -21.2422 -47.0672 70.608 -1.61344 -51.6134 70.608 18.261 -48.302 70.608 35.3553 -37.6371 70.608 65.8377 -40.806 70.608 -75.4085 -17.7001 70.608 -48.302 -18.261 70.608 -18.8185 -17.6777 70.608 -0.806719 -25.8067 70.608 17.6777 -18.8185 70.608 47.0672 -21.2422 70.608 74.1557 -22.3755 70.608 -77.4202 2.42016 70.608 -51.6134 1.61344 70.608 -25.8067 0.806719 70.608 2.96017e-17 -4.26389e-16 70.608 25.8067 -0.806719 70.608 51.6134 -1.61344 70.608 77.4202 -2.42016 70.608 -74.1557 22.3755 70.608 -47.0672 21.2422 70.608 -17.6777 18.8185 70.608 0.806719 25.8067 70.608 18.8185 17.6777 70.608 48.302 18.261 70.608 75.4085 17.7001 70.608 -65.8377 40.806 70.608 -35.3553 37.6371 70.608 -18.261 48.302 70.608 1.61344 51.6134 70.608 21.2422 47.0672 70.608 37.6371 35.3553 70.608 68.2579 36.6142 70.608 -53.033 56.4556 70.608 -36.6142 68.2579 70.608 -17.7001 75.4085 70.608 2.42016 77.4202 70.608 22.3755 74.1557 70.608 40.806 65.8377 70.608 56.4556 53.033 70.608 -56.4556 -53.033 105.912 -40.806 -65.8377 105.912 -22.3755 -74.1557 105.912 -2.42016 -77.4202 105.912 17.7001 -75.4085 105.912 36.6142 -68.2579 105.912 53.033 -56.4556 105.912 -68.2579 -36.6142 105.912 -37.6371 -35.3553 105.912 -21.2422 -47.0672 105.912 -1.61344 -51.6134 105.912 18.261 -48.302 105.912 35.3553 -37.6371 105.912 65.8377 -40.806 105.912 -75.4085 -17.7001 105.912 -48.302 -18.261 105.912 -18.8185 -17.6777 105.912 -0.806719 -25.8067 105.912 17.6777 -18.8185 105.912 47.0672 -21.2422 105.912 74.1557 -22.3755 105.912 -77.4202 2.42016 105.912 -51.6134 1.61344 105.912 -25.8067 0.806719 105.912 3.07348e-16 -9.87808e-17 105.912 25.8067 -0.806719 105.912 51.6134 -1.61344 105.912 77.4202 -2.42016 105.912 -74.1557 22.3755 105.912 -47.0672 21.2422 105.912 -17.6777 18.8185 105.912 0.806719 25.8067 105.912 18.8185 17.6777 105.912 48.302 18.261 105.912 75.4085 17.7001 105.912 -65.8377 40.806 105.912 -35.3553 37.6371 105.912 -18.261 48.302 105.912 1.61344 51.6134 105.912 21.2422 47.0672 105.912 37.6371 35.3553 105.912 68.2579 36.6142 105.912 -53.033 56.4556 105.912 -36.6142 68.2579 105.912 -17.7001 75.4085 105.912 2.42016 77.4202 105.912 22.3755 74.1557 105.912 40.806 65.8377 105.912 56.4556 53.033 105.912 -56.4556 -53.033 141.216 -40.806 -65.8377 141.216 -22.3755 -74.1557 141.216 -2.42016 -77.4202 141.216 17.7001 -75.4085 141.216 36.6142 -68.2579 141.216 53.033 -56.4556 141.216 -68.2579 -36.6142 141.216 -37.6371 -35.3553 141.216 -21.2422 -47.0672 141.216 -1.61344 -51.6134 141.216 18.261 -48.302 141.216 35.3553 -37.6371 141.216 65.8377 -40.806 141.216 -75.4085 -17.7001 141.216 -48.302 -18.261 141.216 -18.8185 -17.6777 141.216 -0.806719 -25.8067 141.216 17.6777 -18.8185 141.216 47.0672 -21.2422 141.216 74.1557 -22.3755 141.216 -77.4202 2.42016 141.216 -51.6134 1.61344 141.216 -25.8067 0.806719 141.216 9.97249e-17 -7.28432e-17 141.216 25.8067 -0.806719 141.216 51.6134 -1.61344 141.216 77.4202 -2.42016 141.216 -74.1557 22.3755 141.216 -47.0672 21.2422 141.216 -17.6777 18.8185 141.216 0.806719 25.8067 141.216 18.8185 17.6777 141.216 48.302 18.261 141.216 75.4085 17.7001 141.216 -65.8377 40.806 141.216 -35.3553 37.6371 141.216 -18.261 48.302 141.216 1.61344 51.6134 141.216 21.2422 47.0672 141.216 37.6371 35.3553 141.216 68.2579 36.6142 141.216 -53.033 56.4556 141.216 -36.6142 68.2579 141.216 -17.7001 75.4085 141.216 2.42016 77.4202 141.216 22.3755 74.1557 141.216 40.806 65.8377 141.216 56.4556 53.033 141.216 -56.4556 -53.033 176.52 -40.806 -65.8377 176.52 -22.3755 -74.1557 176.52 -2.42016 -77.4202 176.52 17.7001 -75.4085 176.52 36.6142 -68.2579 176.52 53.033 -56.4556 176.52 -68.2579 -36.6142 176.52 -37.6371 -35.3553 176.52 -21.2422 -47.0672 176.52 -1.61344 -51.6134 176.52 18.261 -48.302 176.52 35.3553 -37.6371 176.52 65.8377 -40.806 176.52 -75.4085 -17.7001 176.52 -48.302 -18.261 176.52 -18.8185 -17.6777 176.52 -0.806719 -25.8067 176.52 17.6777 -18.8185 176.52 47.0672 -21.2422 176.52 74.1557 -22.3755 176.52 -77.4202 2.42016 176.52 -51.6134 1.61344 176.52 -25.8067 0.806719 176.52 -7.97741e-17 1.00159e-16 176.52 25.8067 -0.806719 176.52 51.6134 -1.61344 176.52 77.4202 -2.42016 176.52 -74.1557 22.3755 176.52 -47.0672 21.2422 176.52 -17.6777 18.8185 176.52 0.806719 25.8067 176.52 18.8185 17.6777 176.52 48.302 18.261 176.52 75.4085 17.7001 176.52 -65.8377 40.806 176.52 -35.3553 37.6371 176.52 -18.261 48.302 176.52 1.61344 51.6134 176.52 21.2422 47.0672 176.52 37.6371 35.3553 176.52 68.2579 36.6142 176.52 -53.033 56.4556 176.52 -36.6142 68.2579 176.52 -17.7001 75.4085 176.52 2.42016 77.4202 176.52 22.3755 74.1557 176.52 40.806 65.8377 176.52 56.4556 53.033 176.52 -56.4556 -53.033 211.824 -40.806 -65.8377 211.824 -22.3755 -74.1557 211.824 -2.42016 -77.4202 211.824 17.7001 -75.4085 211.824 36.6142 -68.2579 211.824 53.033 -56.4556 211.824 -68.2579 -36.6142 211.824 -37.6371 -35.3553 211.824 -21.2422 -47.0672 211.824 -1.61344 -51.6134 211.824 18.261 -48.302 211.824 35.3553 -37.6371 211.824 65.8377 -40.806 211.824 -75.4085 -17.7001 211.824 -48.302 -18.261 211.824 -18.8185 -17.6777 211.824 -0.806719 -25.8067 211.824 17.6777 -18.8185 211.824 47.0672 -21.2422 211.824 74.1557 -22.3755 211.824 -77.4202 2.42016 211.824 -51.6134 1.61344 211.824 -25.8067 0.806719 211.824 -6.18234e-16 1.45791e-16 211.824 25.8067 -0.806719 211.824 51.6134 -1.61344 211.824 77.4202 -2.42016 211.824 -74.1557 22.3755 211.824 -47.0672 21.2422 211.824 -17.6777 18.8185 211.824 0.806719 25.8067 211.824 18.8185 17.6777 211.824 48.302 18.261 211.824 75.4085 17.7001 211.824 -65.8377 40.806 211.824 -35.3553 37.6371 211.824 -18.261 48.302 211.824 1.61344 51.6134 211.824 21.2422 47.0672 211.824 37.6371 35.3553 211.824 68.2579 36.6142 211.824 -53.033 56.4556 211.824 -36.6142 68.2579 211.824 -17.7001 75.4085 211.824 2.42016 77.4202 211.824 22.3755 74.1557 211.824 40.806 65.8377 211.824 56.4556 53.033 211.824 -56.4556 -53.033 247.128 -40.806 -65.8377 247.128 -22.3755 -74.1557 247.128 -2.42016 -77.4202 247.128 17.7001 -75.4085 247.128 36.6142 -68.2579 247.128 53.033 -56.4556 247.128 -68.2579 -36.6142 247.128 -37.6371 -35.3553 247.128 -21.2422 -47.0672 247.128 -1.61344 -51.6134 247.128 18.261 -48.302 247.128 35.3553 -37.6371 247.128 65.8377 -40.806 247.128 -75.4085 -17.7001 247.128 -48.302 -18.261 247.128 -18.8185 -17.6777 247.128 -0.806719 -25.8067 247.128 17.6777 -18.8185 247.128 47.0672 -21.2422 247.128 74.1557 -22.3755 247.128 -77.4202 2.42016 247.128 -51.6134 1.61344 247.128 -25.8067 0.806719 247.128 -4.04494e-16 2.6755e-16 247.128 25.8067 -0.806719 247.128 51.6134 -1.61344 247.128 77.4202 -2.42016 247.128 -74.1557 22.3755 247.128 -47.0672 21.2422 247.128 -17.6777 18.8185 247.128 0.806719 25.8067 247.128 18.8185 17.6777 247.128 48.302 18.261 247.128 75.4085 17.7001 247.128 -65.8377 40.806 247.128 -35.3553 37.6371 247.128 -18.261 48.302 247.128 1.61344 51.6134 247.128 21.2422 47.0672 247.128 37.6371 35.3553 247.128 68.2579 36.6142 247.128 -53.033 56.4556 247.128 -36.6142 68.2579 247.128 -17.7001 75.4085 247.128 2.42016 77.4202 247.128 22.3755 74.1557 247.128 40.806 65.8377 247.128 56.4556 53.033 247.128 -56.4556 -53.033 282.432 -40.806 -65.8377 282.432 -22.3755 -74.1557 282.432 -2.42016 -77.4202 282.432 17.7001 -75.4085 282.432 36.6142 -68.2579 282.432 53.033 -56.4556 282.432 -68.2579 -36.6142 282.432 -37.6371 -35.3553 282.432 -21.2422 -47.0672 282.432 -1.61344 -51.6134 282.432 18.261 -48.302 282.432 35.3553 -37.6371 282.432 65.8377 -40.806 282.432 -75.4085 -17.7001 282.432 -48.302 -18.261 282.432 -18.8185 -17.6777 282.432 -0.806719 -25.8067 282.432 17.6777 -18.8185 282.432 47.0672 -21.2422 282.432 74.1557 -22.3755 282.432 -77.4202 2.42016 282.432 -51.6134 1.61344 282.432 -25.8067 0.806719 282.432 -3.91567e-16 2.56049e-16 282.432 25.8067 -0.806719 282.432 51.6134 -1.61344 282.432 77.4202 -2.42016 282.432 -74.1557 22.3755 282.432 -47.0672 21.2422 282.432 -17.6777 18.8185 282.432 0.806719 25.8067 282.432 18.8185 17.6777 282.432 48.302 18.261 282.432 75.4085 17.7001 282.432 -65.8377 40.806 282.432 -35.3553 37.6371 282.432 -18.261 48.302 282.432 1.61344 51.6134 282.432 21.2422 47.0672 282.432 37.6371 35.3553 282.432 68.2579 36.6142 282.432 -53.033 56.4556 282.432 -36.6142 68.2579 282.432 -17.7001 75.4085 282.432 2.42016 77.4202 282.432 22.3755 74.1557 282.432 40.806 65.8377 282.432 56.4556 53.033 282.432
        </DataArray>
      </Points>
      <Cells>
        <DataArray type="Int32" Name="connectivity" format="ascii">
          0 1 8 7 49 50 57 56 1 2 9 8 50 51 58 57 2 3 10 9 51 52 59 58 3 4 11 10 52 53 60 59 4 5 12 11 53 54 61 60 5 6 13 12 54 55 62 61 7 8 15 14 56 57 64 63 8 9 16 15 57 58 65 64 9 10 17 16 58 59 66 65 10 11 18 17 59 60 67 66 11 12 19 18 60 61 68 67 12 13 20 19 61 62 69 68 14 15 22 21 63 64 71 70 15 16 23 22 64 65 72 71 16 17 24 23 65 66 73 72 17 18 25 24 66 67 74 73 18 19 26 25 67 68 75 74 19 20 27 26 68 69 76 75 21 22 29 28 70 71 78 77 22 23 30 29 71 72 79 78 23 24 31 30 72 73 80 79 24 25 32 31 73 74 81 80 25 26 33 32 74 75 82 81 26 27 34 33 75 76 83 82 28 29 36 35 77 78 85 84 29 30 37 36 78 79 86 85 30 31 38 37 79 80 87 86 31 32 39 38 80 81 88 87 32 33 40 39 81 82 89 88 33 34 41 40 82 83 90 89 35 36 43 42 84 85 92 91 36 37 44 43 85 86 93 92 37 38 45 44 86 87 94 93 38 39 46 45 87 88 95 94 39 40 47 46 88 89 96 95 40 41 48 47 89 90 97 96 49 50 57 56 98 99 106 105 50 51 58 57 99 100 107 106 51 52 59 58 100 101 108 107 52 53 60 59 101 102 109 108 53 54 61 60 102 103 110 109 54 55 62 61 103 104 111 110 56 57 64 63 105 106 113 112 57 58 65 64 106 107 114 113 58 59 66 65 107 108 115 114 59 60 67 66 108 109 116 115 60 61 68 67 109 110 117 116 61 62 69 68 110 111 118 117 63 64 71 70 112 113 120 119 64 65 72 71 113 114 121 120 65 66 73 72 114 115 122 121 66 67 74 73 115 116 123 122 67 68 75 74 116 117 124 123 68 69 76 75 117 118 125 124 70 71 78 77 119 120 127 126 71 72 79 78 120 121 128 127 72 73 80 79 121 122 129 128 73 74 81 80 122 123 130 129 74 75 82 81 123 124 131 130 75 76 83 82 124 125 132 131 77 78 85 84 126 127 134 133 78 79 86 85 127 128 135 134 79 80 87 86 128 129 136 135 80 81 88 87 129 130 137 136 81 82 89 88 130 131 138 137 82 83 90 89 131 132 139 138 84 85 92 91 133 134 141 140 85 86 93 92 134 135 142 141 86 87 94 93 135 136 143 142 87 88 95 94 136 137 144 143 88 89 96 95 137 138 145 144 89 90 97 96 138 139 146 145 98 99 106 105 147 148 155 154 99 100 107 106 148 149 156 155 100 101 108 107 149 150 157 156 101 102 109 108 150 151 158 157 102 103 110 109 151 152 159 158 103 104 111 110 152 153 160 159 105 106 113 112 154 155 162 161 106 107 114 113 155 156 163 162 107 108 115 114 156 157 164 163 108 109 116 115 157 158 165 164 109 110 117 116 158 159 166 165 110 111 118 117 159 160 167 166 112 113 120 119 161 162 169 168 113 114 121 120 162 163 170 169 114 115 122 121 163 164 171 170 115 116 123 122 164 165 172 171 116 117 124 123 165 166 173 172 117 118 125 124 166 167 174 173 119 120 127 126 168 169 176 175 120 121 128 127 169 170 177 176 121 122 129 128 170 171 178 177 122 123 130 129 171 172 179 178 123 124 131 130 172 173 180 179 124 125 132 131 173 174 181 180 126 127 134 133 175 176 183 182 127 128 135 134 176 177 184 183 128 129 136 135 177 178 185 184 129 130 137 136 178 179 186 185 130 131 138 137 179 180 187 186 131 132 139 138 180 181 188 187 133 134 141 140 182 183 190 189 134 135 142 141 183 184 191 190 135 136 143 142 184 185 192 191 136 137 144 143 185 186 193 192 137 138 145 144 186 187 194 193 138 139 146 145 187 188 195 194 147 148 155 154 196 197 204 203 148 149 156 155 197 198 205 204 149 150 157 156 198 199 206 205 150 151 158 157 199 200 207 206 151 152 159 158 200 201 208 207 152 153 160 159 201 202 209 208 154 155 162 161 203 204 211 210 155 156 163 162 204 205 212 211 156 157 164 163 205 206 213 212 157 158 165 164 206 207 214 213 158 159 166 165 207 208 215 214 159 160 167 166 208 209 216 215 161 162 169 168 210 211 218 217 162 163 170 169 211 212 219 218 163 164 171 170 212 213 220 219 164 165 172 171 213 214 221 220 165 166 173 172 214 215 222 221 166 167 174 173 215 216 223 222 168 169 176 175 217 218 225 224 169 170 177 176 218 219 226 225 170 171 178 177 219 220 227 226 171 172 179 178 220 221 228 227 172 173 180 179 221 222 229 228 173 174 181 180 222 223 230 229 175 176 183 182 224 225 232 231 176 177 184 183 225 226 233 232 177 178 185 184 226 227 234 233 178 179 186 185 227 228 235 234 179 180 187 186 228 229 236 235 180 181 188 187 229 230 237 236 182 183 190 189 231 232 239 238 183 184 191 190 232 233 240 239 184 185 192 191 233 234 241 240 185 186 193 192 234 235 242 241 186 187 194 193 235 236 243 242 187 188 195 194 236 237 244 243 196 197 204 203 245 246 253 252 197 198 205 204 246 247 254 253 198 199 206 205 247 248 255 254 199 200 207 206 248 249 256 255 200 201 208 207 249 250 257 256 201 202 209 208 250 251 258 257 203 204 211 210 252 253 260 259 204 205 212 211 253 254 261 260 205 206 213 212 254 255 262 261 206 207 214 213 255 256 263 262 207 208 215 214 256 257 264 263 208 209 216 215 257 258 265 264 210 211 218 217 259 260 267 266 211 212 219 218 260 261 268 267 212 213 220 219 261 262 269 268 213 214 221 220 262 263 270 269 214 215 222 221 263 264 271 270 215 216 223 222 264 265 272 271 217 218 225 224 266 267 274 273 218 219 226 225 267 268 275 274 219 220 227 226 268 269 276 275 220 221 228 227 269 270 277 276 221 222 229 228 270 271 278 277 222 223 230 229 271 272 279 278 224 225 232 231 273 274 281 280 225 226 233 232 274 275 282 281 226 227 234 233 275 276 283 282 227 228 235 234 276 277 284 283 228 229 236 235 277 278 285 284 229 230 237 236 278 279 286 285 231 232 239 238 280 281 288 287 232 233 240 239 281 282 289 288 233 234 241 240 282 283 290 289 234 235 242 241 283 284 291 290 235 236 243 242 284 285 292 291 236 237 244 243 285 286 293 292 245 246 253 252 294 295 302 301 246 247 254 253 295 296 303 302 247 248 255 254 296 297 304 303 248 249 256 255 297 298 305 304 249 250 257 256 298 299 306 305 250 251 258 257 299 300 307 306 252 253 260 259 301 302 309 308 253 254 261 260 302 303 310 309 254 255 262 261 303 304 311 310 255 256 263 262 304 305 312 311 256 257 264 263 305 306 313 312 257 258 265 264 306 307 314 313 259 260 267 266 308 309 316 315 260 261 268 267 309 310 317 316 261 262 269 268 310 311 318 317 262 263 270 269 311 312 319 318 263 264 271 270 312 313 320 319 264 265 272 271 313 314 321 320 266 267 274 273 315 316 323 322 267 268 275 274 316 317 324 323 268 269 276 275 317 318 325 324 269 270 277 276 318 319 326 325 270 271 278 277 319 320 327 326 271 272 279 278 320 321 328 327 273 274 281 280 322 323 330 329 274 275 282 281 323 324 331 330 275 276 283 282 324 325 332 331 276 277 284 283 325 326 333 332 277 278 285 284 326 327 334 333 278 279 286 285 327 328 335 334 280 281 288 287 329 330 337 336 281 282 289 288 330 331 338 337 282 283 290 289 331 332 339 338 283 284 291 290 332 333 340 339 284 285 292 291 333 334 341 340 285 286 293 292 334 335 342 341 294 295 302 301 343 344 351 350 295 296 303 302 344 345 352 351 296 297 304 303 345 346 353 352 297 298 305 304 346 347 354 353 298 299 306 305 347 348 355 354 299 300 307 306 348 349 356 355 301 302 309 308 350 351 358 357 302 303 310 309 351 352 359 358 303 304 311 310 352 353 360 359 304 305 312 311 353 354 361 360 305 306 313 312 354 355 362 361 306 307 314 313 355 356 363 362 308 309 316 315 357 358 365 364 309 310 317 316 358 359 366 365 310 311 318 317 359 360 367 366 311 312 319 318 360 361 368 367 312 313 320 319 361 362 369 368 313 314 321 320 362 363 370 369 315 316 323 322 364 365 372 371 316 317 324 323 365 366 373 372 317 318 325 324 366 367 374 373 318 319 326 325 367 368 375 374 319 320 327 326 368 369 376 375 320 321 328 327 369 370 377 376 322 323 330 329 371 372 379 378 323 324 331 330 372 373 380 379 324 325 332 331 373 374 381 380 325 326 333 332 374 375 382 381 326 327 334 333 375 376 383 382 327 328 335 334 376 377 384 383 329 330 337 336 378 379 386 385 330 331 338 337 379 380 387 386 331 332 339 338 380 381 388 387 332 333 340 339 381 382 389 388 333 334 341 340 382 383 390 389 334 335 342 341 383 384 391 390 343 344 351 350 392 393 400 399 344 345 352 351 393 394 401 400 345 346 353 352 394 395 402 401 346 347 354 353 395 396 403 402 347 348 355 354 396 397 404 403 348 349 356 355 397 398 405 404 350 351 358 357 399 400 407 406 351 352 359 358 400 401 408 407 352 353 360 359 401 402 409 408 353 354 361 360 402 403 410 409 354 355 362 361 403 404 411 410 355 356 363 362 404 405 412 411 357 358 365 364 406 407 414 413 358 359 366 365 407 408 415 414 359 360 367 366 408 409 416 415 360 361 368 367 409 410 417 416 361 362 369 368 410 411 418 417 362 363 370 369 411 412 419 418 364 365 372 371 413 414 421 420 365 366 373 372 414 415 422 421 366 367 374 373 415 416 423 422 367 368 375 374 416 417 424 423 368 369 376 375 417 418 425 424 369 370 377 376 418 419 426 425 371 372 379 378 420 421 428 427 372 373 380 379 421 422 429 428 373 374 381 380 422 423 430 429 374 375 382 381 423 424 431 430 375 376 383 382 424 425 432 431 376 377 384 383 425 426 433 432 378 379 386 385 427 428 435 434 379 380 387 386 428 429 436 435 380 381 388 387 429 430 437 436 381 382 389 388 430 431 438 437 382 383 390 389 431 432 439 438 383 384 391 390 432 433 440 439
        </DataArray>
        <DataArray type="Int32" Name="offsets" format="ascii">
          8 16 24 32 40 48 56 64 72 80 88 96 104 112 120 128 136 144 152 160 168 176 184 192 200 208 216 224 232 240 248 256 264 272 280 288 296 304 312 320 328 336 344 352 360 368 376 384 392 400 408 416 424 432 440 448 456 464 472 480 488 496 504 512 520 528 536 544 552 560 568 576 584 592 600 608 616 624 632 640 648 656 664 672 680 688 696 704 712 720 728 736 744 752 760 768 776 784 792 800 808 816 824 832 840 848 856 864 872 880 888 896 904 912 920 928 936 944 952 960 968 976 984 992 1000 1008 1016 1024 1032 1040 1048 1056 1064 1072 1080 1088 1096 1104 1112 1120 1128 1136 1144 1152 1160 1168 1176 1184 1192 1200 1208 1216 1224 1232 1240 1248 1256 1264 1272 1280 1288 1296 1304 1312 1320 1328 1336 1344 1352 1360 1368 1376 1384 1392 1400 1408 1416 1424 1432 1440 1448 1456 1464 1472 1480 1488 1496 1504 1512 1520 1528 1536 1544 1552 1560 1568 1576 1584 1592 1600 1608 1616 1624 1632 1640 1648 1656 1664 1672 1680 1688 1696 1704 1712 1720 1728 1736 1744 1752 1760 1768 1776 1784 1792 1800 1808 1816 1824 1832 1840 1848 1856 1864 1872 1880 1888 1896 1904 1912 1920 1928 1936 1944 1952 1960 1968 1976 1984 1992 2000 2008 2016 2024 2032 2040 2048 2056 2064 2072 2080 2088 2096 2104 2112 2120 2128 2136 2144 2152 2160 2168 2176 2184 2192 2200 2208 2216 2224 2232 2240 2248 2256 2264 2272 2280 2288 2296 2304
        </DataArray>
        <DataArray type="UInt8" Name="types" format="ascii">
          12 12 12 12 12 12 12 12 12 12 12 12 12 12 12 12 12 12 12 12 12 12 12 12 12 12 12 12 12 12 12 12 12 12 12 12 12 12 12 12 12 12 12 12 12 12 12 12 12 12 12 12 12 12 12 12 12 12 12 12 12 12 12 12 12 12 12 12 12 12 12 12 12 12 12 12 12 12 12 12 12 12 12 12 12 12 12 12 12 12 12 12 12 12 12 12 12 12 12 12 12 12 12 12 12 12 12 12 12 12 12 12 12 12 12 12 12 12 12 12 12 12 12 12 12 12 12 12 12 12 12 12 12 12 12 12 12 12 12 12 12 12 12 12 12 12 12 12 12 12 12 12 12 12 12 12 12 12 12 12 12 12 12 12 12 12 12 12 12 12 12 12 12 12 12 12 12 12 12 12 12 12 12 12 12 12 12 12 12 12 12 12 12 12 12 12 12 12 12 12 12 12 12 12 12 12 12 12 12 12 12 12 12 12 12 12 12 12 12 12 12 12 12 12 12 12 12 12 12 12 12 12 12 12 12 12 12 12 12 12 12 12 12 12 12 12 12 12 12 12 12 12 12 12 12 12 12 12 12 12 12 12 12 12 12 12 12 12 12 12 12 12 12 12 12 12 12 12 12 12 12 12 12 12 12 12 12 12
        </DataArray>
      </Cells>
      <PointData>
        <DataArray type="Float32" Name="displacement" NumberOfComponents="3" format="ascii">
          -0.427827 0 0 -0.413249 -0.11073 0 -0.370509 -0.213914 0 -0.302519 -0.302519 0 -0.213914 -0.370509 0 -0.11073 -0.413249 0 5.72629e-17 -0.427827 0 -0.413249 0.11073 0 -0.285218 -7.82238e-18 0 -0.263507 -0.109148 0 -0.20168 -0.20168 0 -0.109148 -0.263507 0 5.73043e-18 -0.285218 0 0.11073 -0.413249 0 -0.370509 0.213914 0 -0.263507 0.109148 0 -0.142609 -5.0222e-18 0 -0.10084 -0.10084 0 -2.89122e-18 -0.142609 0 0.109148 -0.263507 0 0.213914 -0.370509 0 -0.302519 0.302519 0 -0.20168 0.20168 0 -0.10084 0.10084 0 0 0 0 0.10084 -0.10084 0 0.20168 -0.20168 0 0.302519 -0.302519 0 -0.213914 0.370509 0 -0.109148 0.263507 0 -2.78366e-17 0.142609 0 0.10084 0.10084 0 0.142609 1.03648e-18 0 0.263507 -0.109148 0 0.370509 -0.213914 0 -0.11073 0.413249 0 3.22376e-17 0.285218 0 0.109148 0.263507 0 0.20168 0.20168 0 0.263507 0.109148 0 0.285218 -1.47463e-17 0 0.413249 -0.11073 0 7.04172e-17 0.427827 0 0.11073 0.413249 0 0.213914 0.370509 0 0.302519 0.302519 0 0.370509 0.213914 0 0.413249 0.11073 0 0.427827 -4.5878e-17 0 -0.427827 2.65867e-18 -0.2745 -0.413249 -0.11073 -0.2745 -0.370509 -0.213914 -0.2745 -0.302519 -0.302519 -0.2745 -0.213914 -0.370509 -0.2745 -0.11073 -0.413249 -0.2745 -3.81866e-17 -0.427827 -0.2745 -0.413249 0.11073 -0.2745 -0.285218 -2.69108e-18 -0.2745 -0.263507 -0.109148 -0.2745 -0.20168 -0.20168 -0.2745 -0.109148 -0.263507 -0.2745 -1.68675e-17 -0.285218 -0.2745 0.11073 -0.413249 -0.2745 -0.370509 0.213914 -0.2745 -0.263507 0.109148 -0.2745 -0.142609 -3.03659e-17 -0.2745 -0.10084 -0.10084 -0.2745 -1.27999e-17 -0.142609 -0.2745 0.109148 -0.263507 -0.2745 0.213914 -0.370509 -0.2745 -0.302519 0.302519 -0.2745 -0.20168 0.20168 -0.2745 -0.10084 0.10084 -0.2745 1.20661e-17 -2.92602e-17 -0.2745 0.10084 -0.10084 -0.2745 0.20168 -0.20168 -0.2745 0.302519 -0.302519 -0.2745 -0.213914 0.370509 -0.2745 -0.109148 0.263507 -0.2745 -1.51916e-17 0.142609 -0.2745 0.10084 0.10084 -0.2745 0.142609 -6.59623e-17 -0.2745 0.263507 -0.109148 -0.2745 0.370509 -0.213914 -0.2745 -0.11073 0.413249 -0.2745 5.50418e-17 0.285218 -0.2745 0.109148 0.263507 -0.2745 0.20168 0.20168 -0.2745 0.263507 0.109148 -0.2745 0.285218 -3.58442e-17 -0.2745 0.413249 -0.11073 -0.2745 8.90653e-17 0.427827 -0.2745 0.11073 0.413249 -0.2745 0.213914 0.370509 -0.2745 0.302519 0.302519 -0.2745 0.370509 0.213914 -0.2745 0.413249 0.11073 -0.2745 0.427827 -7.99816e-18 -0.2745 -0.427827 7.5696e-17 -0.549 -0.413249 -0.11073 -0.549 -0.370509 -0.213914 -0.549 -0.302519 -0.302519 -0.549 -0.213914 -0.370509 -0.549 -0.11073 -0.413249 -0.549 -5.04999e-17 -0.427827 -0.549 -0.413249 0.11073 -0.549 -0.285218 2.82279e-17 -0.549 -0.263507 -0.109148 -0.549 -0.20168 -0.20168 -0.549 -0.109148 -0.263507 -0.549 -3.8177e-17 -0.285218 -0.549 0.11073 -0.413249 -0.549 -0.370509 0.213914 -0.549 -0.263507 0.109148 -0.549 -0.142609 -2.46499e-17 -0.549 -0.10084 -0.10084 -0.549 -1.65392e-17 -0.142609 -0.549 0.109148 -0.263507 -0.549 0.213914 -0.370509 -0.549 -0.302519 0.302519 -0.549 -0.20168 0.20168 -0.549 -0.10084 0.10084 -0.549 3.70021e-18 -5.32986e-17 -0.549 0.10084 -0.10084 -0.549 0.20168 -0.20168 -0.549 0.302519 -0.302519 -0.549 -0.213914 0.370509 -0.549 -0.109148 0.263507 -0.549 5.70706e-18 0.142609 -0.549 0.10084 0.10084 -0.549 0.142609 -5.86786e-17 -0.549 0.263507 -0.109148 -0.549 0.370509 -0.213914 -0.549 -0.11073 0.413249 -0.549 5.96025e-17 0.285218 -0.549 0.109148 0.263507 -0.549 0.20168 0.20168 -0.549 0.263507 0.109148 -0.549 0.285218 -6.13936e-17 -0.549 0.413249 -0.11073 -0.549 1.13691e-16 0.427827 -0.549 0.11073 0.413249 -0.549 0.213914 0.370509 -0.549 0.302519 0.302519 -0.549 0.370509 0.213914 -0.549 0.413249 0.11073 -0.549 0.427827 -9.98344e-17 -0.549 -0.427827 5.45886e-17 -0.8235 -0.413249 -0.11073 -0.8235 -0.370509 -0.213914 -0.8235 -0.302519 -0.302519 -0.8235 -0.213914 -0.370509 -0.8235 -0.11073 -0.413249 -0.8235 -7.00287e-17 -0.427827 -0.8235 -0.413249 0.11073 -0.8235 -0.285218 5.50749e-17 -0.8235 -0.263507 -0.109148 -0.8235 -0.20168 -0.20168 -0.8235 -0.109148 -0.263507 -0.8235 -2.67874e-17 -0.285218 -0.8235 0.11073 -0.413249 -0.8235 -0.370509 0.213914 -0.8235 -0.263507 0.109148 -0.8235 -0.142609 3.02188e-17 -0.8235 -0.10084 -0.10084 -0.8235 -1.42402e-17 -0.142609 -0.8235 0.109148 -0.263507 -0.8235 0.213914 -0.370509 -0.8235 -0.302519 0.302519 -0.8235 -0.20168 0.20168 -0.8235 -0.10084 0.10084 -0.8235 3.84185e-17 -1.23476e-17 -0.8235 0.10084 -0.10084 -0.8235 0.20168 -0.20168 -0.8235 0.302519 -0.302519 -0.8235 -0.213914 0.370509 -0.8235 -0.109148 0.263507 -0.8235 7.67572e-17 0.142609 -0.8235 0.10084 0.10084 -0.8235 0.142609 -7.14681e-17 -0.8235 0.263507 -0.109148 -0.8235 0.370509 -0.213914 -0.8235 -0.11073 0.413249 -0.8235 1.2115e-16 0.285218 -0.8235 0.109148 0.263507 -0.8235 0.20168 0.20168 -0.8235 0.263507 0.109148 -0.8235 0.285218 -1.23042e-16 -0.8235 0.413249 -0.11073 -0.8235 1.31073e-16 0.427827 -0.8235 0.11073 0.413249 -0.8235 0.213914 0.370509 -0.8235 0.302519 0.302519 -0.8235 0.370509 0.213914 -0.8235 0.413249 0.11073 -0.8235 0.427827 -1.83211e-16 -0.8235 -0.427827 1.84616e-16 -1.098 -0.413249 -0.11073 -1.098 -0.370509 -0.213914 -1.098 -0.302519 -0.302519 -1.098 -0.213914 -0.370509 -1.098 -0.11073 -0.413249 -1.098 -2.18805e-16 -0.427827 -1.098 -0.413249 0.11073 -1.098 -0.285218 8.72906e-17 -1.098 -0.263507 -0.109148 -1.098 -0.20168 -0.20168 -1.098 -0.109148 -0.263507 -1.098 -1.49526e-16 -0.285218 -1.098 0.11073 -0.413249 -1.098 -0.370509 0.213914 -1.098 -0.263507 0.109148 -1.098 -0.142609 2.74877e-17 -1.098 -0.10084 -0.10084 -1.098 -9.99188e-17 -0.142609 -1.098 0.109148 -0.263507 -1.098 0.213914 -0.370509 -1.098 -0.302519 0.302519 -1.098 -0.20168 0.20168 -1.098 -0.10084 0.10084 -1.098 1.24656e-17 -9.1054e-18 -1.098 0.10084 -0.10084 -1.098 0.20168 -0.20168 -1.098 0.302519 -0.302519 -1.098 -0.213914 0.370509 -1.098 -0.109148 0.263507 -1.098 4.89549e-17 0.142609 -1.098 0.10084 0.10084 -1.098 0.142609 -6.05617e-17 -1.098 0.263507 -0.109148 -1.098 0.370509 -0.213914 -1.098 -0.11073 0.413249 -1.098 1.7782e-16 0.285218 -1.098 0.109148 0.263507 -1.098 0.20168 0.20168 -1.098 0.263507 0.109148 -1.098 0.285218 -1.11808e-16 -1.098 0.413249 -0.11073 -1.098 2.29221e-16 0.427827 -1.098 0.11073 0.413249 -1.098 0.213914 0.370509 -1.098 0.302519 0.302519 -1.098 0.370509 0.213914 -1.098 0.413249 0.11073 -1.098 0.427827 -2.29381e-16 -1.098 -0.427827 3.18994e-16 -1.3725 -0.413249 -0.11073 -1.3725 -0.370509 -0.213914 -1.3725 -0.302519 -0.302519 -1.3725 -0.213914 -0.370509 -1.3725 -0.11073 -0.413249 -1.3725 -2.50436e-16 -0.427827 -1.3725 -0.413249 0.11073 -1.3725 -0.285218 2.19525e-16 -1.3725 -0.263507 -0.109148 -1.3725 -0.20168 -0.20168 -1.3725 -0.109148 -0.263507 -1.3725 -1.63478e-16 -0.285218 -1.3725 0.11073 -0.413249 -1.3725 -0.370509 0.213914 -1.3725 -0.263507 0.109148 -1.3725 -0.142609 1.18419e-16 -1.3725 -0.10084 -0.10084 -1.3725 -7.62491e-17 -0.142609 -1.3725 0.109148 -0.263507 -1.3725 0.213914 -0.370509 -1.3725 -0.302519 0.302519 -1.3725 -0.20168 0.20168 -1.3725 -0.10084 0.10084 -1.3725 -9.97177e-18 1.25199e-17 -1.3725 0.10084 -0.10084 -1.3725 0.20168 -0.20168 -1.3725 0.302519 -0.302519 -1.3725 -0.213914 0.370509 -1.3725 -0.109148 0.263507 -1.3725 9.00105e-17 0.142609 -1.3725 0.10084 0.10084 -1.3725 0.142609 -1.04993e-16 -1.3725 0.263507 -0.109148 -1.3725 0.370509 -0.213914 -1.3725 -0.11073 0.413249 -1.3725 2.21238e-16 0.285218 -1.3725 0.109148 0.263507 -1.3725 0.20168 0.20168 -1.3725 0.263507 0.109148 -1.3725 0.285218 -1.59862e-16 -1.3725 0.413249 -0.11073 -1.3725 2.76926e-16 0.427827 -1.3725 0.11073 0.413249 -1.3725 0.213914 0.370509 -1.3725 0.302519 0.302519 -1.3725 0.370509 0.213914 -1.3725 0.413249 0.11073 -1.3725 0.427827 -2.69539e-16 -1.3725 -0.427827 3.41461e-16 -1.647 -0.413249 -0.11073 -1.647 -0.370509 -0.213914 -1.647 -0.302519 -0.302519 -1.647 -0.213914 -0.370509 -1.647 -0.11073 -0.413249 -1.647 -3.69243e-16 -0.427827 -1.647 -0.413249 0.11073 -1.647 -0.285218 2.12279e-16 -1.647 -0.263507 -0.109148 -1.647 -0.20168 -0.20168 -1.647 -0.109148 -0.263507 -1.647 -2.2947e-16 -0.285218 -1.647 0.11073 -0.413249 -1.647 -0.370509 0.213914 -1.647 -0.263507 0.109148 -1.647 -0.142609 1.08345e-16 -1.647 -0.10084 -0.10084 -1.647 -1.41036e-16 -0.142609 -1.647 0.109148 -0.263507 -1.647 0.213914 -0.370509 -1.647 -0.302519 0.302519 -1.647 -0.20168 0.20168 -1.647 -0.10084 0.10084 -1.647 -7.72793e-17 1.82239e-17 -1.647 0.10084 -0.10084 -1.647 0.20168 -0.20168 -1.647 0.302519 -0.302519 -1.647 -0.213914 0.370509 -1.647 -0.109148 0.263507 -1.647 5.28647e-17 0.142609 -1.647 0.10084 0.10084 -1.647 0.142609 -9.87565e-17 -1.647 0.263507 -0.109148 -1.647 0.370509 -0.213914 -1.647 -0.11073 0.413249 -1.647 1.73506e-16 0.285218 -1.647 0.109148 0.263507 -1.647 0.20168 0.20168 -1.647 0.263507 0.109148 -1.647 0.285218 -2.24135e-16 -1.647 0.413249 -0.11073 -1.647 2.51603e-16 0.427827 -1.647 0.11073 0.413249 -1.647 0.213914 0.370509 -1.647 0.302519 0.302519 -1.647 0.370509 0.213914 -1.647 0.413249 0.11073 -1.647 0.427827 -3.51076e-16 -1.647 -0.427827 3.65093e-16 -1.9215 -0.413249 -0.11073 -1.9215 -0.370509 -0.213914 -1.9215 -0.302519 -0.302519 -1.9215 -0.213914 -0.370509 -1.9215 -0.11073 -0.413249 -1.9215 -3.30402e-16 -0.427827 -1.9215 -0.413249 0.11073 -1.9215 -0.285218 1.9791e-16 -1.9215 -0.263507 -0.109148 -1.9215 -0.20168 -0.20168 -1.9215 -0.109148 -0.263507 -1.9215 -2.3715e-16 -0.285218 -1.9215 0.11073 -0.413249 -1.9215 -0.370509 0.213914 -1.9215 -0.263507 0.109148 -1.9215 -0.142609 1.59229e-16 -1.9215 -0.10084 -0.10084 -1.9215 -1.53348e-16 -0.142609 -1.9215 0.109148 -0.263507 -1.9215 0.213914 -0.370509 -1.9215 -0.302519 0.302519 -1.9215 -0.20168 0.20168 -1.9215 -0.10084 0.10084 -1.9215 -5.05618e-17 3.34437e-17 -1.9215 0.10084 -0.10084 -1.9215 0.20168 -0.20168 -1.9215 0.302519 -0.302519 -1.9215 -0.213914 0.370509 -1.9215 -0.109148 0.263507 -1.9215 3.53769e-17 0.142609 -1.9215 0.10084 0.10084 -1.9215 0.142609 -1.04039e-16 -1.9215 0.263507 -0.109148 -1.9215 0.370509 -0.213914 -1.9215 -0.11073 0.413249 -1.9215 2.49976e-16 0.285218 -1.9215 0.109148 0.263507 -1.9215 0.20168 0.20168 -1.9215 0.263507 0.109148 -1.9215 0.285218 -2.164e-16 -1.9215 0.413249 -0.11073 -1.9215 3.13323e-16 0.427827 -1.9215 0.11073 0.413249 -1.9215 0.213914 0.370509 -1.9215 0.302519 0.302519 -1.9215 0.370509 0.213914 -1.9215 0.413249 0.11073 -1.9215 0.427827 -3.86574e-16 -1.9215 -0.427827 3.46784e-16 -2.196 -0.413249 -0.11073 -2.196 -0.370509 -0.213914 -2.196 -0.302519 -0.302519 -2.196 -0.213914 -0.370509 -2.196 -0.11073 -0.413249 -2.196 -4.14961e-16 -0.427827 -2.196 -0.413249 0.11073 -2.196 -0.285218 2.60147e-16 -2.196 -0.263507 -0.109148 -2.196 -0.20168 -0.20168 -2.196 -0.109148 -0.263507 -2.196 -2.75482e-16 -0.285218 -2.196 0.11073 -0.413249 -2.196 -0.370509 0.213914 -2.196 -0.263507 0.109148 -2.196 -0.142609 1.68708e-16 -2.196 -0.10084 -0.10084 -2.196 -1.7323e-16 -0.142609 -2.196 0.109148 -0.263507 -2.196 0.213914 -0.370509 -2.196 -0.302519 0.302519 -2.196 -0.20168 0.20168 -2.196 -0.10084 0.10084 -2.196 -4.89459e-17 3.20061e-17 -2.196 0.10084 -0.10084 -2.196 0.20168 -0.20168 -2.196 0.302519 -0.302519 -2.196 -0.213914 0.370509 -2.196 -0.109148 0.263507 -2.196 7.07697e-17 0.142609 -2.196 0.10084 0.10084 -2.196 0.142609 -1.01123e-16 -2.196 0.263507 -0.109148 -2.196 0.370509 -0.213914 -2.196 -0.11073 0.413249 -2.196 1.87929e-16 0.285218 -2.196 0.109148 0.263507 -2.196 0.20168 0.20168 -2.196 0.263507 0.109148 -2.196 0.285218 -2.39108e-16 -2.196 0.413249 -0.11073 -2.196 3.22046e-16 0.427827 -2.196 0.11073 0.413249 -2.196 0.213914 0.370509 -2.196 0.302519 0.302519 -2.196 0.370509 0.213914 -2.196 0.413249 0.11073 -2.196 0.427827 -4.34638e-16 -2.196
        </DataArray>
      </PointData>
      <CellData>
        <DataArray type="Float32" Name="stress_zz" NumberOfComponents="1" format="ascii">
          25.838 25.838 25.838 25.838 25.838 25.838 25.838 25.838 25.838 25.838 25.838 25.838 25.838 25.838 25.838 25.838 25.838 25.838 25.838 25.838 25.838 25.838 25.838 25.838 25.838 25.838 25.838 25.838 25.838 25.838 25.838 25.838 25.838 25.838 25.838 25.838 25.838 25.838 25.838 25.838 25.838 25.838 25.838 25.838 25.838 25.838 25.838 25.838 25.838 25.838 25.838 25.838 25.838 25.838 25.838 25.838 25.838 25.838 25.838 25.838 25.838 25.838 25.838 25.838 25.838 25.838 25.838 25.838 25.838 25.838 25.838 25.838 25.838 25.838 25.838 25.838 25.838 25.838 25.838 25.838 25.838 25.838 25.838 25.838 25.838 25.838 25.838 25.838 25.838 25.838 25.838 25.838 25.838 25.838 25.838 25.838 25.838 25.838 25.838 25.838 25.838 25.838 25.838 25.838 25.838 25.838 25.838 25.838 25.838 25.838 25.838 25.838 25.838 25.838 25.838 25.838 25.838 25.838 25.838 25.838 25.838 25.838 25.838 25.838 25.838 25.838 25.838 25.838 25.838 25.838 25.838 25.838 25.838 25.838 25.838 25.838 25.838 25.838 25.838 25.838 25.838 25.838 25.838 25.838 25.838 25.838 25.838 25.838 25.838 25.838 25.838 25.838 25.838 25.838 25.838 25.838 25.838 25.838 25.838 25.838 25.838 25.838 25.838 25.838 25.838 25.838 25.838 25.838 25.838 25.838 25.838 25.838 25.838 25.838 25.838 25.838 25.838 25.838 25.838 25.838 25.838 25.838 25.838 25.838 25.838 25.838 25.838 25.838 25.838 25.838 25.838 25.838 25.838 25.838 25.838 25.838 25.838 25.838 25.838 25.838 25.838 25.838 25.838 25.838 25.838 25.838 25.838 25.838 25.838 25.838 25.838 25.838 25.838 25.838 25.838 25.838 25.838 25.838 25.838 25.838 25.838 25.838 25.838 25.838 25.838 25.838 25.838 25.838 25.838 25.838 25.838 25.838 25.838 25.838 25.838 25.838 25.838 25.838 25.838 25.838 25.838 25.838 25.838 25.838 25.838 25.838 25.838 25.838 25.838 25.838 25.838 25.838 25.838 25.838 25.838 25.838 25.838 25.838 25.838 25.838 25.838 25.838 25.838 25.838 25.838 25.838 25.838 25.838 25.838 25.838 25.838 25.838 25.838 25.838 25.838 25.838 25.838 25.838 25.838 25.838 25.838 25.838 25.838 25.838 25.838 25.838 25.838 25.838
        </DataArray>
        <DataArray type="Float32" Name="deviatoric_strain" NumberOfComponents="1" format="ascii">
          0.00756906 0.00756906 0.00756906 0.00756906 0.00756906 0.00756906 0.00756906 0.00756906 0.00756906 0.00756906 0.00756906 0.00756906 0.00756906 0.00756906 0.00756906 0.00756906 0.00756906 0.00756906 0.00756906 0.00756906 0.00756906 0.00756906 0.00756906 0.00756906 0.00756906 0.00756906 0.00756906 0.00756906 0.00756906 0.00756906 0.00756906 0.00756906 0.00756906 0.00756906 0.00756906 0.00756906 0.00756906 0.00756906 0.00756906 0.00756906 0.00756906 0.00756906 0.00756906 0.00756906 0.00756906 0.00756906 0.00756906 0.00756906 0.00756906 0.00756906 0.00756906 0.00756906 0.00756906 0.00756906 0.00756906 0.00756906 0.00756906 0.00756906 0.00756906 0.00756906 0.00756906 0.00756906 0.00756906 0.00756906 0.00756906 0.00756906 0.00756906 0.00756906 0.00756906 0.00756906 0.00756906 0.00756906 0.00756906 0.00756906 0.00756906 0.00756906 0.00756906 0.00756906 0.00756906 0.00756906 0.00756906 0.00756906 0.00756906 0.00756906 0.00756906 0.00756906 0.00756906 0.00756906 0.00756906 0.00756906 0.00756906 0.00756906 0.00756906 0.00756906 0.00756906 0.00756906 0.00756906 0.00756906 0.00756906 0.00756906 0.00756906 0.00756906 0.00756906 0.00756906 0.00756906 0.00756906 0.00756906 0.00756906 0.00756906 0.00756906 0.00756906 0.00756906 0.00756906 0.00756906 0.00756906 0.00756906 0.00756906 0.00756906 0.00756906 0.00756906 0.00756906 0.00756906 0.00756906 0.00756906 0.00756906 0.00756906 0.00756906 0.00756906 0.00756906 0.00756906 0.00756906 0.00756906 0.00756906 0.00756906 0.00756906 0.00756906 0.00756906 0.00756906 0.00756906 0.00756906 0.00756906 0.00756906 0.00756906 0.00756906 0.00756906 0.00756906 0.00756906 0.00756906 0.00756906 0.00756906 0.00756906 0.00756906 0.00756906 0.00756906 0.00756906 0.00756906 0.00756906 0.00756906 0.00756906 0.00756906 0.00756906 0.00756906 0.00756906 0.00756906 0.00756906 0.00756906 0.00756906 0.00756906 0.00756906 0.00756906 0.00756906 0.00756906 0.00756906 0.00756906 0.00756906 0.00756906 0.00756906 0.00756906 0.00756906 0.00756906 0.00756906 0.00756906 0.00756906 0.00756906 0.00756906 0.00756906 0.00756906 0.00756906 0.00756906 0.00756906 0.00756906 0.00756906 0.00756906 0.00756906 0.00756906 0.00756906 0.00756906 0.00756906 0.00756906 0.00756906 0.00756906 0.00756906 0.00756906 0.00756906 0.00756906 0.00756906 0.00756906 0.00756906 0.00756906 0.00756906 0.00756906 0.00756906 0.00756906 0.00756906 0.00756906 0.00756906 0.00756906 0.00756906 0.00756906 0.00756906 0.00756906 0.00756906 0.00756906 0.00756906 0.00756906 0.00756906 0.00756906 0.00756906 0.00756906 0.00756906 0.00756906 0.00756906 0.00756906 0.00756906 0.00756906 0.00756906 0.00756906 0.00756906 0.00756906 0.00756906 0.00756906 0.00756906 0.00756906 0.00756906 0.00756906 0.00756906 0.00756906 0.00756906 0.00756906 0.00756906 0.00756906 0.00756906 0.00756906 0.00756906 0.00756906 0.00756906 0.00756906 0.00756906 0.00756906 0.00756906 0.00756906 0.00756906 0.00756906 0.00756906 0.00756906 0.00756906 0.00756906 0.00756906 0.00756906 0.00756906 0.00756906 0.00756906 0.00756906 0.00756906 0.00756906 0.00756906 0.00756906 0.00756906 0.00756906 0.00756906 0.00756906 0.00756906 0.00756906 0.00756906 0.00756906 0.00756906 0.00756906 0.00756906
        </DataArray>
      </CellData>
    </Piece>
  </UnstructuredGrid>
</VTKFile>
