<?xml version="1.0"?>
<VTKFile type="UnstructuredGrid" version="0.1" byte_order="LittleEndian">
  <UnstructuredGrid>
    <Piece NumberOfPoints="441" NumberOfCells="288">
      <Points>
        <DataArray type="Float32" NumberOfComponents="3" format="ascii">
          -55.3437 -53.033 0 -39.7319 -65.5499 0 -21.4125 -73.5998 0 -1.63388 -76.6339 0 18.2561 -74.4455 0 36.902 -67.1838 0 53.033 -55.3437 0 -67.1838 -36.902 0 -36.8958 -35.3553 0 -20.5574 -46.7835 0 -1.08925 -51.0893 0 18.5447 -47.6172 0 35.3553 -36.8958 0 65.5499 -39.7319 0 -74.4455 -18.2561 0 -47.6172 -18.5447 0 -18.4479 -17.6777 0 -0.544627 -25.5446 0 17.6777 -18.4479 0 46.7835 -20.5574 0 73.5998 -21.4125 0 -76.6339 1.63388 0 -51.0893 1.08925 0 -25.5446 0.544627 0 0 0 0 25.5446 -0.544627 0 51.0893 -1.08925 0 76.6339 -1.63388 0 -73.5998 21.4125 0 -46.7835 20.5574 0 -17.6777 18.4479 0 0.544627 25.5446 0 18.4479 17.6777 0 47.6172 18.5447 0 74.4455 18.2561 0 -65.5499 39.7319 0 -35.3553 36.8958 0 -18.5447 47.6172 0 1.08925 51.0893 0 20.5574 46.7835 0 36.8958 35.3553 0 67.1838 36.902 0 -53.033 55.3437 0 -36.902 67.1838 0 -18.2561 74.4455 0 1.63388 76.6339 0 21.4125 73.5998 0 39.7319 65.5499 0 55.3437 53.033 0 -55.3437 -53.033 35.952 -39.7319 -65.5499 35.952 -21.4125 -73.5998 35.952 -1.63388 -76.6339 35.952 18.2561 -74.4455 35.952 36.902 -67.1838 35.952 53.033 -55.3437 35.952 -67.1838 -36.902 35.952 -36.8958 -35.3553 35.952 -20.5574 -46.7835 35.952 -1.08925 -51.0893 35.952 18.5447 -47.6172 35.952 35.3553 -36.8958 35.952 65.5499 -39.7319 35.952 -74.4455 -18.2561 35.952 -47.6172 -18.5447 35.952 -18.4479 -17.6777 35.952 -0.544627 -25.5446 35.952 17.6777 -18.4479 35.952 46.7835 -20.5574 35.952 73.5998 -21.4125 35.952 -76.6339 1.63388 35.952 -51.0893 1.08925 35.952 -25.5446 0.544627 35.952 -9.77563e-17 -1.3002e-16 35.952 25.5446 -0.544627 35.952 51.0893 -1.08925 35.952 76.6339 -1.63388 35.952 -73.5998 21.4125 35.952 -46.7835 20.5574 35.952 -17.6777 18.4479 35.952 0.544627 25.5446 35.952 18.4479 17.6777 35.952 47.6172 18.5447 35.952 74.4455 18.2561 35.952 -65.5499 39.7319 35.952 -35.3553 36.8958 35.952 -18.5447 47.6172 35.952 1.08925 51.0893 35.952 20.5574 46.7835 35.952 36.8958 35.3553 35.952 67.1838 36.902 35.952 -53.033 55.3437 35.952 -36.902 67.1838 35.952 -18.2561 74.4455 35.952 1.63388 76.6339 35.952 21.4125 73.5998 35.952 39.7319 65.5499 35.952 55.3437 53.033 35.952 -55.3437 -53.033 71.904 -39.7319 -65.5499 71.904 -21.4125 -73.5998 71.904 -1.63388 -76.6339 71.904 18.2561 -74.4455 71.904 36.902 -67.1838 71.904 53.033 -55.3437 71.904 -67.1838 -36.902 71.904 -36.8958 -35.3553 71.904 -20.5574 -46.7835 71.904 -1.08925 -51.0893 71.904 18.5447 -47.6172 71.904 35.3553 -36.8958 71.904 65.5499 -39.7319 71.904 -74.4455 -18.2561 71.904 -47.6172 -18.5447 71.904 -18.4479 -17.6777 71.904 -0.544627 -25.5446 71.904 17.6777 -18.4479 71.904 46.7835 -20.5574 71.904 73.5998 -21.4125 71.904 -76.6339 1.63388 71.904 -51.0893 1.08925 71.904 -25.5446 0.544627 71.904 -2.79422e-16 -4.69623e-16 71.904 25.5446 -0.544627 71.904 51.0893 -1.08925 71.904 76.6339 -1.63388 71.904 -73.5998 21.4125 71.904 -46.7835 20.5574 71.904 -17.6777 18.4479 71.904 0.544627 25.5446 71.904 18.4479 17.6777 71.904 47.6172 18.5447 71.904 74.4455 18.2561 71.904 -65.5499 39.7319 71.904 -35.3553 36.8958 71.904 -18.5447 47.6172 71.904 1.08925 51.0893 71.904 20.5574 46.7835 71.904 36.8958 35.3553 71.904 67.1838 36.902 71.904 -53.033 55.3437 71.904 -36.902 67.1838 71.904 -18.2561 74.4455 71.904 1.63388 76.6339 71.904 21.4125 73.5998 71.904 39.7319 65.5499 71.904 55.3437 53.033 71.904 -55.3437 -53.033 107.856 -39.7319 -65.5499 107.856 -21.4125 -73.5998 107.856 -1.63388 -76.6339 107.856 18.2561 -74.4455 107.856 36.902 -67.1838 107.856 53.033 -55.3437 107.856 -67.1838 -36.902 107.856 -36.8958 -35.3553 107.856 -20.5574 -46.7835 107.856 -1.08925 -51.0893 107.856 18.5447 -47.6172 107.856 35.3553 -36.8958 107.856 65.5499 -39.7319 107.856 -74.4455 -18.2561 107.856 -47.6172 -18.5447 107.856 -18.4479 -17.6777 107.856 -0.544627 -25.5446 107.856 17.6777 -18.4479 107.856 46.7835 -20.5574 107.856 73.5998 -21.4125 107.856 -76.6339 1.63388 107.856 -51.0893 1.08925 107.856 -25.5446 0.544627 107.856 -3.72856e-16 -6.45903e-16 107.856 25.5446 -0.544627 107.856 51.0893 -1.08925 107.856 76.6339 -1.63388 107.856 -73.5998 21.4125 107.856 -46.7835 20.5574 107.856 -17.6777 18.4479 107.856 0.544627 25.5446 107.856 18.4479 17.6777 107.856 47.6172 18.5447 107.856 74.4455 18.2561 107.856 -65.5499 39.7319 107.856 -35.3553 36.8958 107.856 -18.5447 47.6172 107.856 1.08925 51.0893 107.856 20.5574 46.7835 107.856 36.8958 35.3553 107.856 67.1838 36.902 107.856 -53.033 55.3437 107.856 -36.902 67.1838 107.856 -18.2561 74.4455 107.856 1.63388 76.6339 107.856 21.4125 73.5998 107.856 39.7319 65.5499 107.856 55.3437 53.033 107.856 -55.3437 -53.033 143.808 -39.7319 -65.5499 143.808 -21.4125 -73.5998 143.808 -1.63388 -76.6339 143.808 18.2561 -74.4455 143.808 36.902 -67.1838 143.808 53.033 -55.3437 143.808 -67.1838 -36.902 143.808 -36.8958 -35.3553 143.808 -20.5574 -46.7835 143.808 -1.08925 -51.0893 143.808 18.5447 -47.6172 143.808 35.3553 -36.8958 143.808 65.5499 -39.7319 143.808 -74.4455 -18.2561 143.808 -47.6172 -18.5447 143.808 -18.4479 -17.6777 143.808 -0.544627 -25.5446 143.808 17.6777 -18.4479 143.808 46.7835 -20.5574 143.808 73.5998 -21.4125 143.808 -76.6339 1.63388 143.808 -51.0893 1.08925 143.808 -25.5446 0.544627 143.808 -5.16862e-16 -9.90525e-16 143.808 25.5446 -0.544627 143.808 51.0893 -1.08925 143.808 76.6339 -1.63388 143.808 -73.5998 21.4125 143.808 -46.7835 20.5574 143.808 -17.6777 18.4479 143.808 0.544627 25.5446 143.808 18.4479 17.6777 143.808 47.6172 18.5447 143.808 74.4455 18.2561 143.808 -65.5499 39.7319 143.808 -35.3553 36.8958 143.808 -18.5447 47.6172 143.808 1.08925 51.0893 143.808 20.5574 46.7835 143.808 36.8958 35.3553 143.808 67.1838 36.902 143.808 -53.033 55.3437 143.808 -36.902 67.1838 143.808 -18.2561 74.4455 143.808 1.63388 76.6339 143.808 21.4125 73.5998 143.808 39.7319 65.5499 143.808 55.3437 53.033 143.808 -55.3437 -53.033 179.76 -39.7319 -65.5499 179.76 -21.4125 -73.5998 179.76 -1.63388 -76.6339 179.76 18.2561 -74.4455 179.76 36.902 -67.1838 179.76 53.033 -55.3437 179.76 -67.1838 -36.902 179.76 -36.8958 -35.3553 179.76 -20.5574 -46.7835 179.76 -1.08925 -51.0893 179.76 18.5447 -47.6172 179.76 35.3553 -36.8958 179.76 65.5499 -39.7319 179.76 -74.4455 -18.2561 179.76 -47.6172 -18.5447 179.76 -18.4479 -17.6777 179.76 -0.544627 -25.5446 179.76 17.6777 -18.4479 179.76 46.7835 -20.5574 179.76 73.5998 -21.4125 179.76 -76.6339 1.63388 179.76 -51.0893 1.08925 179.76 -25.5446 0.544627 179.76 -6.38985e-16 -1.45261e-15 179.76 25.5446 -0.544627 179.76 51.0893 -1.08925 179.76 76.6339 -1.63388 179.76 -73.5998 21.4125 179.76 -46.7835 20.5574 179.76 -17.6777 18.4479 179.76 0.544627 25.5446 179.76 18.4479 17.6777 179.76 47.6172 18.5447 179.76 74.4455 18.2561 179.76 -65.5499 39.7319 179.76 -35.3553 36.8958 179.76 -18.5447 47.6172 179.76 1.08925 51.0893 179.76 20.5574 46.7835 179.76 36.8958 35.3553 179.76 67.1838 36.902 179.76 -53.033 55.3437 179.76 -36.902 67.1838 179.76 -18.2561 74.4455 179.76 1.63388 76.6339 179.76 21.4125 73.5998 179.76 39.7319 65.5499 179.76 55.3437 53.033 179.76 -55.3437 -53.033 215.712 -39.7319 -65.5499 215.712 -21.4125 -73.5998 215.712 -1.63388 -76.6339 215.712 18.2561 -74.4455 215.712 36.902 -67.1838 215.712 53.033 -55.3437 215.712 -67.1838 -36.902 215.712 -36.8958 -35.3553 215.712 -20.5574 -46.7835 215.712 -1.08925 -51.0893 215.712 18.5447 -47.6172 215.712 35.3553 -36.8958 215.712 65.5499 -39.7319 215.712 -74.4455 -18.2561 215.712 -47.6172 -18.5447 215.712 -18.4479 -17.6777 215.712 -0.544627 -25.5446 215.712 17.6777 -18.4479 215.712 46.7835 -20.5574 215.712 73.5998 -21.4125 215.712 -76.6339 1.63388 215.712 -51.0893 1.08925 215.712 -25.5446 0.544627 215.712 -9.69688e-16 -1.70432e-15 215.712 25.5446 -0.544627 215.712 51.0893 -1.08925 215.712 76.6339 -1.63388 215.712 -73.5998 21.4125 215.712 -46.7835 20.5574 215.712 -17.6777 18.4479 215.712 0.544627 25.5446 215.712 18.4479 17.6777 215.712 47.6172 18.5447 215.712 74.4455 18.2561 215.712 -65.5499 39.7319 215.712 -35.3553 36.8958 215.712 -18.5447 47.6172 215.712 1.08925 51.0893 215.712 20.5574 46.7835 215.712 36.8958 35.3553 215.712 67.1838 36.902 215.712 -53.033 55.3437 215.712 -36.902 67.1838 215.712 -18.2561 74.4455 215.712 1.63388 76.6339 215.712 21.4125 73.5998 215.712 39.7319 65.5499 215.712 55.3437 53.033 215.712 -55.3437 -53.033 251.664 -39.7319 -65.5499 251.664 -21.4125 -73.5998 251.664 -1.63388 -76.6339 251.664 18.2561 -74.4455 251.664 36.902 -67.1838 251.664 53.033 -55.3437 251.664 -67.1838 -36.902 251.664 -36.8958 -35.3553 251.664 -20.5574 -46.7835 251.664 -1.08925 -51.0893 251.664 18.5447 -47.6172 251.664 35.3553 -36.8958 251.664 65.5499 -39.7319 251.664 -74.4455 -18.2561 251.664 -47.6172 -18.5447 251.664 -18.4479 -17.6777 251.664 -0.544627 -25.5446 251.664 17.6777 -18.4479 251.664 46.7835 -20.5574 251.664 73.5998 -21.4125 251.664 -76.6339 1.63388 251.664 -51.0893 1.08925 251.664 -25.5446 0.544627 251.664 -8.28537e-16 -1.96827e-15 251.664 25.5446 -0.544627 251.664 51.0893 -1.08925 251.664 76.6339 -1.63388 251.664 -73.5998 21.4125 251.664 -46.7835 20.5574 251.664 -17.6777 18.4479 251.664 0.544627 25.5446 251.664 18.4479 17.6777 251.664 47.6172 18.5447 251.664 74.4455 18.2561 251.664 -65.5499 39.7319 251.664 -35.3553 36.8958 251.664 -18.5447 47.6172 251.664 1.08925 51.0893 251.664 20.5574 46.7835 251.664 36.8958 35.3553 251.664 67.1838 36.902 251.664 -53.033 55.3437 251.664 -36.902 67.1838 251.664 -18.2561 74.4455 251.664 1.63388 76.6339 251.664 21.4125 73.5998 251.664 39.7319 65.5499 251.664 55.3437 53.033 251.664 -55.3437 -53.033 287.616 -39.7319 -65.5499 287.616 -21.4125 -73.5998 287.616 -1.63388 -76.6339 287.616 18.2561 -74.4455 287.616 36.902 -67.1838 287.616 53.033 -55.3437 287.616 -67.1838 -36.902 287.616 -36.8958 -35.3553 287.616 -20.5574 -46.7835 287.616 -1.08925 -51.0893 287.616 18.5447 -47.6172 287.616 35.3553 -36.8958 287.616 65.5499 -39.7319 287.616 -74.4455 -18.2561 287.616 -47.6172 -18.5447 287.616 -18.4479 -17.6777 287.616 -0.544627 -25.5446 287.616 17.6777 -18.4479 287.616 46.7835 -20.5574 287.616 73.5998 -21.4125 287.616 -76.6339 1.63388 287.616 -51.0893 1.08925 287.616 -25.5446 0.544627 287.616 -9.54624e-16 -1.91242e-15 287.616 25.5446 -0.544627 287.616 51.0893 -1.08925 287.616 76.6339 -1.63388 287.616 -73.5998 21.4125 287.616 -46.7835 20.5574 287.616 -17.6777 18.4479 287.616 0.544627 25.5446 287.616 18.4479 17.6777 287.616 47.6172 18.5447 287.616 74.4455 18.2561 287.616 -65.5499 39.7319 287.616 -35.3553 36.8958 287.616 -18.5447 47.6172 287.616 1.08925 51.0893 287.616 20.5574 46.7835 287.616 36.8958 35.3553 287.616 67.1838 36.902 287.616 -53.033 55.3437 287.616 -36.902 67.1838 287.616 -18.2561 74.4455 287.616 1.63388 76.6339 287.616 21.4125 73.5998 287.616 39.7319 65.5499 287.616 55.3437 53.033 287.616
        </DataArray>
      </Points>
      <Cells>
        <DataArray type="Int32" Name="connectivity" format="ascii">
          0 1 8 7 49 50 57 56 1 2 9 8 50 51 58 57 2 3 10 9 51 52 59 58 3 4 11 10 52 53 60 59 4 5 12 11 53 54 61 60 5 6 13 12 54 55 62 61 7 8 15 14 56 57 64 63 8 9 16 15 57 58 65 64 9 10 17 16 58 59 66 65 10 11 18 17 59 60 67 66 11 12 19 18 60 61 68 67 12 13 20 19 61 62 69 68 14 15 22 21 63 64 71 70 15 16 23 22 64 65 72 71 16 17 24 23 65 66 73 72 17 18 25 24 66 67 74 73 18 19 26 25 67 68 75 74 19 20 27 26 68 69 76 75 21 22 29 28 70 71 78 77 22 23 30 29 71 72 79 78 23 24 31 30 72 73 80 79 24 25 32 31 73 74 81 80 25 26 33 32 74 75 82 81 26 27 34 33 75 76 83 82 28 29 36 35 77 78 85 84 29 30 37 36 78 79 86 85 30 31 38 37 79 80 87 86 31 32 39 38 80 81 88 87 32 33 40 39 81 82 89 88 33 34 41 40 82 83 90 89 35 36 43 42 84 85 92 91 36 37 44 43 85 86 93 92 37 38 45 44 86 87 94 93 38 39 46 45 87 88 95 94 39 40 47 46 88 89 96 95 40 41 48 47 89 90 97 96 49 50 57 56 98 99 106 105 50 51 58 57 99 100 107 106 51 52 59 58 100 101 108 107 52 53 60 59 101 102 109 108 53 54 61 60 102 103 110 109 54 55 62 61 103 104 111 110 56 57 64 63 105 106 113 112 57 58 65 64 106 107 114 113 58 59 66 65 107 108 115 114 59 60 67 66 108 109 116 115 60 61 68 67 109 110 117 116 61 62 69 68 110 111 118 117 63 64 71 70 112 113 120 119 64 65 72 71 113 114 121 120 65 66 73 72 114 115 122 121 66 67 74 73 115 116 123 122 67 68 75 74 116 117 124 123 68 69 76 75 117 118 125 124 70 71 78 77 119 120 127 126 71 72 79 78 120 121 128 127 72 73 80 79 121 122 129 128 73 74 81 80 122 123 130 129 74 75 82 81 123 124 131 130 75 76 83 82 124 125 132 131 77 78 85 84 126 127 134 133 78 79 86 85 127 128 135 134 79 80 87 86 128 129 136 135 80 81 88 87 129 130 137 136 81 82 89 88 130 131 138 137 82 83 90 89 131 132 139 138 84 85 92 91 133 134 141 140 85 86 93 92 134 135 142 141 86 87 94 93 135 136 143 142 87 88 95 94 136 137 144 143 88 89 96 95 137 138 145 144 89 90 97 96 138 139 146 145 98 99 106 105 147 148 155 154 99 100 107 106 148 149 156 155 100 101 108 107 149 150 157 156 101 102 109 108 150 151 158 157 102 103 110 109 151 152 159 158 103 104 111 110 152 153 160 159 105 106 113 112 154 155 162 161 106 107 114 113 155 156 163 162 107 108 115 114 156 157 164 163 108 109 116 115 157 158 165 164 109 110 117 116 158 159 166 165 110 111 118 117 159 160 167 166 112 113 120 119 161 162 169 168 113 114 121 120 162 163 170 169 114 115 122 121 163 164 171 170 115 116 123 122 164 165 172 171 116 117 124 123 165 166 173 172 117 118 125 124 166 167 174 173 119 120 127 126 168 169 176 175 120 121 128 127 169 170 177 176 121 122 129 128 170 171 178 177 122 123 130 129 171 172 179 178 123 124 131 130 172 173 180 179 124 125 132 131 173 174 181 180 126 127 134 133 175 176 183 182 127 128 135 134 176 177 184 183 128 129 136 135 177 178 185 184 129 130 137 136 178 179 186 185 130 131 138 137 179 180 187 186 131 132 139 138 180 181 188 187 133 134 141 140 182 183 190 189 134 135 142 141 183 184 191 190 135 136 143 142 184 185 192 191 136 137 144 143 185 186 193 192 137 138 145 144 186 187 194 193 138 139 146 145 187 188 195 194 147 148 155 154 196 197 204 203 148 149 156 155 197 198 205 204 149 150 157 156 198 199 206 205 150 151 158 157 199 200 207 206 151 152 159 158 200 201 208 207 152 153 160 159 201 202 209 208 154 155 162 161 203 204 211 210 155 156 163 162 204 205 212 211 156 157 164 163 205 206 213 212 157 158 165 164 206 207 214 213 158 159 166 165 207 208 215 214 159 160 167 166 208 209 216 215 161 162 169 168 210 211 218 217 162 163 170 169 211 212 219 218 163 164 171 170 212 213 220 219 164 165 172 171 213 214 221 220 165 166 173 172 214 215 222 221 166 167 174 173 215 216 223 222 168 169 176 175 217 218 225 224 169 170 177 176 218 219 226 225 170 171 178 177 219 220 227 226 171 172 179 178 220 221 228 227 172 173 180 179 221 222 229 228 173 174 181 180 222 223 230 229 175 176 183 182 224 225 232 231 176 177 184 183 225 226 233 232 177 178 185 184 226 227 234 233 178 179 186 185 227 228 235 234 179 180 187 186 228 229 236 235 180 181 188 187 229 230 237 236 182 183 190 189 231 232 239 238 183 184 191 190 232 233 240 239 184 185 192 191 233 234 241 240 185 186 193 192 234 235 242 241 186 187 194 193 235 236 243 242 187 188 195 194 236 237 244 243 196 197 204 203 245 246 253 252 197 198 205 204 246 247 254 253 198 199 206 205 247 248 255 254 199 200 207 206 248 249 256 255 200 201 208 207 249 250 257 256 201 202 209 208 250 251 258 257 203 204 211 210 252 253 260 259 204 205 212 211 253 254 261 260 205 206 213 212 254 255 262 261 206 207 214 213 255 256 263 262 207 208 215 214 256 257 264 263 208 209 216 215 257 258 265 264 210 211 218 217 259 260 267 266 211 212 219 218 260 261 268 267 212 213 220 219 261 262 269 268 213 214 221 220 262 263 270 269 214 215 222 221 263 264 271 270 215 216 223 222 264 265 272 271 217 218 225 224 266 267 274 273 218 219 226 225 267 268 275 274 219 220 227 226 268 269 276 275 220 221 228 227 269 270 277 276 221 222 229 228 270 271 278 277 222 223 230 229 271 272 279 278 224 225 232 231 273 274 281 280 225 226 233 232 274 275 282 281 226 227 234 233 275 276 283 282 227 228 235 234 276 277 284 283 228 229 236 235 277 278 285 284 229 230 237 236 278 279 286 285 231 232 239 238 280 281 288 287 232 233 240 239 281 282 289 288 233 234 241 240 282 283 290 289 234 235 242 241 283 284 291 290 235 236 243 242 284 285 292 291 236 237 244 243 285 286 293 292 245 246 253 252 294 295 302 301 246 247 254 253 295 296 303 302 247 248 255 254 296 297 304 303 248 249 256 255 297 298 305 304 249 250 257 256 298 299 306 305 250 251 258 257 299 300 307 306 252 253 260 259 301 302 309 308 253 254 261 260 302 303 310 309 254 255 262 261 303 304 311 310 255 256 263 262 304 305 312 311 256 257 264 263 305 306 313 312 257 258 265 264 306 307 314 313 259 260 267 266 308 309 316 315 260 261 268 267 309 310 317 316 261 262 269 268 310 311 318 317 262 263 270 269 311 312 319 318 263 264 271 270 312 313 320 319 264 265 272 271 313 314 321 320 266 267 274 273 315 316 323 322 267 268 275 274 316 317 324 323 268 269 276 275 317 318 325 324 269 270 277 276 318 319 326 325 270 271 278 277 319 320 327 326 271 272 279 278 320 321 328 327 273 274 281 280 322 323 330 329 274 275 282 281 323 324 331 330 275 276 283 282 324 325 332 331 276 277 284 283 325 326 333 332 277 278 285 284 326 327 334 333 278 279 286 285 327 328 335 334 280 281 288 287 329 330 337 336 281 282 289 288 330 331 338 337 282 283 290 289 331 332 339 338 283 284 291 290 332 333 340 339 284 285 292 291 333 334 341 340 285 286 293 292 334 335 342 341 294 295 302 301 343 344 351 350 295 296 303 302 344 345 352 351 296 297 304 303 345 346 353 352 297 298 305 304 346 347 354 353 298 299 306 305 347 348 355 354 299 300 307 306 348 349 356 355 301 302 309 308 350 351 358 357 302 303 310 309 351 352 359 358 303 304 311 310 352 353 360 359 304 305 312 311 353 354 361 360 305 306 313 312 354 355 362 361 306 307 314 313 355 356 363 362 308 309 316 315 357 358 365 364 309 310 317 316 358 359 366 365 310 311 318 317 359 360 367 366 311 312 319 318 360 361 368 367 312 313 320 319 361 362 369 368 313 314 321 320 362 363 370 369 315 316 323 322 364 365 372 371 316 317 324 323 365 366 373 372 317 318 325 324 366 367 374 373 318 319 326 325 367 368 375 374 319 320 327 326 368 369 376 375 320 321 328 327 369 370 377 376 322 323 330 329 371 372 379 378 323 324 331 330 372 373 380 379 324 325 332 331 373 374 381 380 325 326 333 332 374 375 382 381 326 327 334 333 375 376 383 382 327 328 335 334 376 377 384 383 329 330 337 336 378 379 386 385 330 331 338 337 379 380 387 386 331 332 339 338 380 381 388 387 332 333 340 339 381 382 389 388 333 334 341 340 382 383 390 389 334 335 342 341 383 384 391 390 343 344 351 350 392 393 400 399 344 345 352 351 393 394 401 400 345 346 353 352 394 395 402 401 346 347 354 353 395 396 403 402 347 348 355 354 396 397 404 403 348 349 356 355 397 398 405 404 350 351 358 357 399 400 407 406 351 352 359 358 400 401 408 407 352 353 360 359 401 402 409 408 353 354 361 360 402 403 410 409 354 355 362 361 403 404 411 410 355 356 363 362 404 405 412 411 357 358 365 364 406 407 414 413 358 359 366 365 407 408 415 414 359 360 367 366 408 409 416 415 360 361 368 367 409 410 417 416 361 362 369 368 410 411 418 417 362 363 370 369 411 412 419 418 364 365 372 371 413 414 421 420 365 366 373 372 414 415 422 421 366 367 374 373 415 416 423 422 367 368 375 374 416 417 424 423 368 369 376 375 417 418 425 424 369 370 377 376 418 419 426 425 371 372 379 378 420 421 428 427 372 373 380 379 421 422 429 428 373 374 381 380 422 423 430 429 374 375 382 381 423 424 431 430 375 376 383 382 424 425 432 431 376 377 384 383 425 426 433 432 378 379 386 385 427 428 435 434 379 380 387 386 428 429 436 435 380 381 388 387 429 430 437 436 381 382 389 388 430 431 438 437 382 383 390 389 431 432 439 438 383 384 391 390 432 433 440 439
        </DataArray>
        <DataArray type="Int32" Name="offsets" format="ascii">
          8 16 24 32 40 48 56 64 72 80 88 96 104 112 120 128 136 144 152 160 168 176 184 192 200 208 216 224 232 240 248 256 264 272 280 288 296 304 312 320 328 336 344 352 360 368 376 384 392 400 408 416 424 432 440 448 456 464 472 480 488 496 504 512 520 528 536 544 552 560 568 576 584 592 600 608 616 624 632 640 648 656 664 672 680 688 696 704 712 720 728 736 744 752 760 768 776 784 792 800 808 816 824 832 840 848 856 864 872 880 888 896 904 912 920 928 936 944 952 960 968 976 984 992 1000 1008 1016 1024 1032 1040 1048 1056 1064 1072 1080 1088 1096 1104 1112 1120 1128 1136 1144 1152 1160 1168 1176 1184 1192 1200 1208 1216 1224 1232 1240 1248 1256 1264 1272 1280 1288 1296 1304 1312 1320 1328 1336 1344 1352 1360 1368 1376 1384 1392 1400 1408 1416 1424 1432 1440 1448 1456 1464 1472 1480 1488 1496 1504 1512 1520 1528 1536 1544 1552 1560 1568 1576 1584 1592 1600 1608 1616 1624 1632 1640 1648 1656 1664 1672 1680 1688 1696 1704 1712 1720 1728 1736 1744 1752 1760 1768 1776 1784 1792 1800 1808 1816 1824 1832 1840 1848 1856 1864 1872 1880 1888 1896 1904 1912 1920 1928 1936 1944 1952 1960 1968 1976 1984 1992 2000 2008 2016 2024 2032 2040 2048 2056 2064 2072 2080 2088 2096 2104 2112 2120 2128 2136 2144 2152 2160 2168 2176 2184 2192 2200 2208 2216 2224 2232 2240 2248 2256 2264 2272 2280 2288 2296 2304
        </DataArray>
        <DataArray type="UInt8" Name="types" format="ascii">
          12 12 12 12 12 12 12 12 12 12 12 12 12 12 12 12 12 12 12 12 12 12 12 12 12 12 12 12 12 12 12 12 12 12 12 12 12 12 12 12 12 12 12 12 12 12 12 12 12 12 12 12 12 12 12 12 12 12 12 12 12 12 12 12 12 12 12 12 12 12 12 12 12 12 12 12 12 12 12 12 12 12 12 12 12 12 12 12 12 12 12 12 12 12 12 12 12 12 12 12 12 12 12 12 12 12 12 12 12 12 12 12 12 12 12 12 12 12 12 12 12 12 12 12 12 12 12 12 12 12 12 12 12 12 12 12 12 12 12 12 12 12 12 12 12 12 12 12 12 12 12 12 12 12 12 12 12 12 12 12 12 12 12 12 12 12 12 12 12 12 12 12 12 12 12 12 12 12 12 12 12 12 12 12 12 12 12 12 12 12 12 12 12 12 12 12 12 12 12 12 12 12 12 12 12 12 12 12 12 12 12 12 12 12 12 12 12 12 12 12 12 12 12 12 12 12 12 12 12 12 12 12 12 12 12 12 12 12 12 12 12 12 12 12 12 12 12 12 12 12 12 12 12 12 12 12 12 12 12 12 12 12 12 12 12 12 12 12 12 12 12 12 12 12 12 12 12 12 12 12 12 12 12 12 12 12 12 12
        </DataArray>
      </Cells>
      <PointData>
        <DataArray type="Float32" Name="displacement" NumberOfComponents="3" format="ascii">
          -0.288832 0 0 -0.27899 -0.0747553 0 -0.250136 -0.144416 0 -0.204235 -0.204235 0 -0.144416 -0.250136 0 -0.0747553 -0.27899 0 -5.71279e-18 -0.288832 0 -0.27899 0.0747553 0 -0.192555 -9.35694e-18 0 -0.177897 -0.0736875 0 -0.136157 -0.136157 0 -0.0736875 -0.177897 0 -2.4592e-17 -0.192555 0 0.0747553 -0.27899 0 -0.250136 0.144416 0 -0.177897 0.0736875 0 -0.0962774 -6.30879e-18 0 -0.0680784 -0.0680784 0 -2.25662e-17 -0.0962774 0 0.0736875 -0.177897 0 0.144416 -0.250136 0 -0.204235 0.204235 0 -0.136157 0.136157 0 -0.0680784 0.0680784 0 0 0 0 0.0680784 -0.0680784 0 0.136157 -0.136157 0 0.204235 -0.204235 0 -0.144416 0.250136 0 -0.0736875 0.177897 0 -6.27741e-18 0.0962774 0 0.0680784 0.0680784 0 0.0962774 -1.71979e-17 0 0.177897 -0.0736875 0 0.250136 -0.144416 0 -0.0747553 0.27899 0 3.03633e-17 0.192555 0 0.0736875 0.177897 0 0.136157 0.136157 0 0.177897 0.0736875 0 0.192555 -2.48615e-17 0 0.27899 -0.0747553 0 2.6144e-17 0.288832 0 0.0747553 0.27899 0 0.144416 0.250136 0 0.204235 0.204235 0 0.250136 0.144416 0 0.27899 0.0747553 0 0.288832 -2.80682e-17 0 -0.288832 -4.47003e-18 -0.1935 -0.27899 -0.0747553 -0.1935 -0.250136 -0.144416 -0.1935 -0.204235 -0.204235 -0.1935 -0.144416 -0.250136 -0.1935 -0.0747553 -0.27899 -0.1935 -1.88949e-17 -0.288832 -0.1935 -0.27899 0.0747553 -0.1935 -0.192555 5.53165e-18 -0.1935 -0.177897 -0.0736875 -0.1935 -0.136157 -0.136157 -0.1935 -0.0736875 -0.177897 -0.1935 -3.57523e-17 -0.192555 -0.1935 0.0747553 -0.27899 -0.1935 -0.250136 0.144416 -0.1935 -0.177897 0.0736875 -0.1935 -0.0962774 2.35111e-18 -0.1935 -0.0680784 -0.0680784 -0.1935 -2.56952e-17 -0.0962774 -0.1935 0.0736875 -0.177897 -0.1935 0.144416 -0.250136 -0.1935 -0.204235 0.204235 -0.1935 -0.136157 0.136157 -0.1935 -0.0680784 0.0680784 -0.1935 -1.22195e-17 -1.62526e-17 -0.1935 0.0680784 -0.0680784 -0.1935 0.136157 -0.136157 -0.1935 0.204235 -0.204235 -0.1935 -0.144416 0.250136 -0.1935 -0.0736875 0.177897 -0.1935 -3.08524e-17 0.0962774 -0.1935 0.0680784 0.0680784 -0.1935 0.0962774 -4.51595e-17 -0.1935 0.177897 -0.0736875 -0.1935 0.250136 -0.144416 -0.1935 -0.0747553 0.27899 -0.1935 1.34302e-17 0.192555 -0.1935 0.0736875 0.177897 -0.1935 0.136157 0.136157 -0.1935 0.177897 0.0736875 -0.1935 0.192555 -4.35359e-17 -0.1935 0.27899 -0.0747553 -0.1935 2.92444e-17 0.288832 -0.1935 0.0747553 0.27899 -0.1935 0.144416 0.250136 -0.1935 0.204235 0.204235 -0.1935 0.250136 0.144416 -0.1935 0.27899 0.0747553 -0.1935 0.288832 -5.45725e-17 -0.1935 -0.288832 -4.27228e-18 -0.387 -0.27899 -0.0747553 -0.387 -0.250136 -0.144416 -0.387 -0.204235 -0.204235 -0.387 -0.144416 -0.250136 -0.387 -0.0747553 -0.27899 -0.387 -7.24139e-17 -0.288832 -0.387 -0.27899 0.0747553 -0.387 -0.192555 -3.48085e-17 -0.387 -0.177897 -0.0736875 -0.387 -0.136157 -0.136157 -0.387 -0.0736875 -0.177897 -0.387 -5.46717e-17 -0.192555 -0.387 0.0747553 -0.27899 -0.387 -0.250136 0.144416 -0.387 -0.177897 0.0736875 -0.387 -0.0962774 -4.4467e-17 -0.387 -0.0680784 -0.0680784 -0.387 -6.05253e-17 -0.0962774 -0.387 0.0736875 -0.177897 -0.387 0.144416 -0.250136 -0.387 -0.204235 0.204235 -0.387 -0.136157 0.136157 -0.387 -0.0680784 0.0680784 -0.387 -3.49278e-17 -5.87029e-17 -0.387 0.0680784 -0.0680784 -0.387 0.136157 -0.136157 -0.387 0.204235 -0.204235 -0.387 -0.144416 0.250136 -0.387 -0.0736875 0.177897 -0.387 -3.55681e-17 0.0962774 -0.387 0.0680784 0.0680784 -0.387 0.0962774 -6.42201e-17 -0.387 0.177897 -0.0736875 -0.387 0.250136 -0.144416 -0.387 -0.0747553 0.27899 -0.387 1.10275e-17 0.192555 -0.387 0.0736875 0.177897 -0.387 0.136157 0.136157 -0.387 0.177897 0.0736875 -0.387 0.192555 -7.01597e-17 -0.387 0.27899 -0.0747553 -0.387 4.01689e-17 0.288832 -0.387 0.0747553 0.27899 -0.387 0.144416 0.250136 -0.387 0.204235 0.204235 -0.387 0.250136 0.144416 -0.387 0.27899 0.0747553 -0.387 0.288832 -9.36986e-17 -0.387 -0.288832 -1.67142e-18 -0.5805 -0.27899 -0.0747553 -0.5805 -0.250136 -0.144416 -0.5805 -0.204235 -0.204235 -0.5805 -0.144416 -0.250136 -0.5805 -0.0747553 -0.27899 -0.5805 -1.21767e-16 -0.288832 -0.5805 -0.27899 0.0747553 -0.5805 -0.192555 -3.62213e-17 -0.5805 -0.177897 -0.0736875 -0.5805 -0.136157 -0.136157 -0.5805 -0.0736875 -0.177897 -0.5805 -1.04171e-16 -0.192555 -0.5805 0.0747553 -0.27899 -0.5805 -0.250136 0.144416 -0.5805 -0.177897 0.0736875 -0.5805 -0.0962774 -4.54575e-17 -0.5805 -0.0680784 -0.0680784 -0.5805 -8.3596e-17 -0.0962774 -0.5805 0.0736875 -0.177897 -0.5805 0.144416 -0.250136 -0.5805 -0.204235 0.204235 -0.5805 -0.136157 0.136157 -0.5805 -0.0680784 0.0680784 -0.5805 -4.6607e-17 -8.07379e-17 -0.5805 0.0680784 -0.0680784 -0.5805 0.136157 -0.136157 -0.5805 0.204235 -0.204235 -0.5805 -0.144416 0.250136 -0.5805 -0.0736875 0.177897 -0.5805 -5.09539e-17 0.0962774 -0.5805 0.0680784 0.0680784 -0.5805 0.0962774 -1.02088e-16 -0.5805 0.177897 -0.0736875 -0.5805 0.250136 -0.144416 -0.5805 -0.0747553 0.27899 -0.5805 -4.51609e-18 0.192555 -0.5805 0.0736875 0.177897 -0.5805 0.136157 0.136157 -0.5805 0.177897 0.0736875 -0.5805 0.192555 -1.34379e-16 -0.5805 0.27899 -0.0747553 -0.5805 3.52927e-17 0.288832 -0.5805 0.0747553 0.27899 -0.5805 0.144416 0.250136 -0.5805 0.204235 0.204235 -0.5805 0.250136 0.144416 -0.5805 0.27899 0.0747553 -0.5805 0.288832 -1.82399e-16 -0.5805 -0.288832 3.34427e-17 -0.774 -0.27899 -0.0747553 -0.774 -0.250136 -0.144416 -0.774 -0.204235 -0.204235 -0.774 -0.144416 -0.250136 -0.774 -0.0747553 -0.27899 -0.774 -2.05896e-16 -0.288832 -0.774 -0.27899 0.0747553 -0.774 -0.192555 -5.7205e-17 -0.774 -0.177897 -0.0736875 -0.774 -0.136157 -0.136157 -0.774 -0.0736875 -0.177897 -0.774 -1.81728e-16 -0.192555 -0.774 0.0747553 -0.27899 -0.774 -0.250136 0.144416 -0.774 -0.177897 0.0736875 -0.774 -0.0962774 -8.58539e-17 -0.774 -0.0680784 -0.0680784 -0.774 -1.49108e-16 -0.0962774 -0.774 0.0736875 -0.177897 -0.774 0.144416 -0.250136 -0.774 -0.204235 0.204235 -0.774 -0.136157 0.136157 -0.774 -0.0680784 0.0680784 -0.774 -6.46077e-17 -1.23816e-16 -0.774 0.0680784 -0.0680784 -0.774 0.136157 -0.136157 -0.774 0.204235 -0.204235 -0.774 -0.144416 0.250136 -0.774 -0.0736875 0.177897 -0.774 -2.11963e-17 0.0962774 -0.774 0.0680784 0.0680784 -0.774 0.0962774 -1.54375e-16 -0.774 0.177897 -0.0736875 -0.774 0.250136 -0.144416 -0.774 -0.0747553 0.27899 -0.774 4.64101e-17 0.192555 -0.774 0.0736875 0.177897 -0.774 0.136157 0.136157 -0.774 0.177897 0.0736875 -0.774 0.192555 -2.00491e-16 -0.774 0.27899 -0.0747553 -0.774 8.16706e-17 0.288832 -0.774 0.0747553 0.27899 -0.774 0.144416 0.250136 -0.774 0.204235 0.204235 -0.774 0.250136 0.144416 -0.774 0.27899 0.0747553 -0.774 0.288832 -2.62098e-16 -0.774 -0.288832 7.21212e-17 -0.9675 -0.27899 -0.0747553 -0.9675 -0.250136 -0.144416 -0.9675 -0.204235 -0.204235 -0.9675 -0.144416 -0.250136 -0.9675 -0.0747553 -0.27899 -0.9675 -2.63258e-16 -0.288832 -0.9675 -0.27899 0.0747553 -0.9675 -0.192555 -1.62741e-17 -0.9675 -0.177897 -0.0736875 -0.9675 -0.136157 -0.136157 -0.9675 -0.0736875 -0.177897 -0.9675 -2.13161e-16 -0.192555 -0.9675 0.0747553 -0.27899 -0.9675 -0.250136 0.144416 -0.9675 -0.177897 0.0736875 -0.9675 -0.0962774 -8.36498e-17 -0.9675 -0.0680784 -0.0680784 -0.9675 -1.48342e-16 -0.0962774 -0.9675 0.0736875 -0.177897 -0.9675 0.144416 -0.250136 -0.9675 -0.204235 0.204235 -0.9675 -0.136157 0.136157 -0.9675 -0.0680784 0.0680784 -0.9675 -7.98731e-17 -1.81576e-16 -0.9675 0.0680784 -0.0680784 -0.9675 0.136157 -0.136157 -0.9675 0.204235 -0.204235 -0.9675 -0.144416 0.250136 -0.9675 -0.0736875 0.177897 -0.9675 -1.39708e-17 0.0962774 -0.9675 0.0680784 0.0680784 -0.9675 0.0962774 -2.69442e-16 -0.9675 0.177897 -0.0736875 -0.9675 0.250136 -0.144416 -0.9675 -0.0747553 0.27899 -0.9675 1.18984e-16 0.192555 -0.9675 0.0736875 0.177897 -0.9675 0.136157 0.136157 -0.9675 0.177897 0.0736875 -0.9675 0.192555 -3.30222e-16 -0.9675 0.27899 -0.0747553 -0.9675 1.84957e-16 0.288832 -0.9675 0.0747553 0.27899 -0.9675 0.144416 0.250136 -0.9675 0.204235 0.204235 -0.9675 0.250136 0.144416 -0.9675 0.27899 0.0747553 -0.9675 0.288832 -4.31297e-16 -0.9675 -0.288832 1.30526e-16 -1.161 -0.27899 -0.0747553 -1.161 -0.250136 -0.144416 -1.161 -0.204235 -0.204235 -1.161 -0.144416 -0.250136 -1.161 -0.0747553 -0.27899 -1.161 -4.20749e-16 -0.288832 -1.161 -0.27899 0.0747553 -1.161 -0.192555 1.33767e-17 -1.161 -0.177897 -0.0736875 -1.161 -0.136157 -0.136157 -1.161 -0.0736875 -0.177897 -1.161 -2.83838e-16 -0.192555 -1.161 0.0747553 -0.27899 -1.161 -0.250136 0.144416 -1.161 -0.177897 0.0736875 -1.161 -0.0962774 -1.04901e-16 -1.161 -0.0680784 -0.0680784 -1.161 -2.10509e-16 -0.0962774 -1.161 0.0736875 -0.177897 -1.161 0.144416 -0.250136 -1.161 -0.204235 0.204235 -1.161 -0.136157 0.136157 -1.161 -0.0680784 0.0680784 -1.161 -1.21211e-16 -2.1304e-16 -1.161 0.0680784 -0.0680784 -1.161 0.136157 -0.136157 -1.161 0.204235 -0.204235 -1.161 -0.144416 0.250136 -1.161 -0.0736875 0.177897 -1.161 -1.55284e-17 0.0962774 -1.161 0.0680784 0.0680784 -1.161 0.0962774 -3.21037e-16 -1.161 0.177897 -0.0736875 -1.161 0.250136 -0.144416 -1.161 -0.0747553 0.27899 -1.161 1.07069e-16 0.192555 -1.161 0.0736875 0.177897 -1.161 0.136157 0.136157 -1.161 0.177897 0.0736875 -1.161 0.192555 -3.97935e-16 -1.161 0.27899 -0.0747553 -1.161 2.3644e-16 0.288832 -1.161 0.0747553 0.27899 -1.161 0.144416 0.250136 -1.161 0.204235 0.204235 -1.161 0.250136 0.144416 -1.161 0.27899 0.0747553 -1.161 0.288832 -5.07029e-16 -1.161 -0.288832 2.26935e-16 -1.3545 -0.27899 -0.0747553 -1.3545 -0.250136 -0.144416 -1.3545 -0.204235 -0.204235 -1.3545 -0.144416 -0.250136 -1.3545 -0.0747553 -0.27899 -1.3545 -4.54839e-16 -0.288832 -1.3545 -0.27899 0.0747553 -1.3545 -0.192555 1.83091e-17 -1.3545 -0.177897 -0.0736875 -1.3545 -0.136157 -0.136157 -1.3545 -0.0736875 -0.177897 -1.3545 -3.48675e-16 -0.192555 -1.3545 0.0747553 -0.27899 -1.3545 -0.250136 0.144416 -1.3545 -0.177897 0.0736875 -1.3545 -0.0962774 -1.0016e-16 -1.3545 -0.0680784 -0.0680784 -1.3545 -2.41712e-16 -0.0962774 -1.3545 0.0736875 -0.177897 -1.3545 0.144416 -0.250136 -1.3545 -0.204235 0.204235 -1.3545 -0.136157 0.136157 -1.3545 -0.0680784 0.0680784 -1.3545 -1.03567e-16 -2.46034e-16 -1.3545 0.0680784 -0.0680784 -1.3545 0.136157 -0.136157 -1.3545 0.204235 -0.204235 -1.3545 -0.144416 0.250136 -1.3545 -0.0736875 0.177897 -1.3545 -5.55727e-18 0.0962774 -1.3545 0.0680784 0.0680784 -1.3545 0.0962774 -3.85554e-16 -1.3545 0.177897 -0.0736875 -1.3545 0.250136 -0.144416 -1.3545 -0.0747553 0.27899 -1.3545 1.29347e-16 0.192555 -1.3545 0.0736875 0.177897 -1.3545 0.136157 0.136157 -1.3545 0.177897 0.0736875 -1.3545 0.192555 -4.8362e-16 -1.3545 0.27899 -0.0747553 -1.3545 2.07619e-16 0.288832 -1.3545 0.0747553 0.27899 -1.3545 0.144416 0.250136 -1.3545 0.204235 0.204235 -1.3545 0.250136 0.144416 -1.3545 0.27899 0.0747553 -1.3545 0.288832 -6.23571e-16 -1.3545 -0.288832 6.43007e-17 -1.548 -0.27899 -0.0747553 -1.548 -0.250136 -0.144416 -1.548 -0.204235 -0.204235 -1.548 -0.144416 -0.250136 -1.548 -0.0747553 -0.27899 -1.548 -4.74017e-16 -0.288832 -1.548 -0.27899 0.0747553 -1.548 -0.192555 -1.9531e-17 -1.548 -0.177897 -0.0736875 -1.548 -0.136157 -0.136157 -1.548 -0.0736875 -0.177897 -1.548 -3.7481e-16 -0.192555 -1.548 0.0747553 -0.27899 -1.548 -0.250136 0.144416 -1.548 -0.177897 0.0736875 -1.548 -0.0962774 -1.55993e-16 -1.548 -0.0680784 -0.0680784 -1.548 -2.65235e-16 -0.0962774 -1.548 0.0736875 -0.177897 -1.548 0.144416 -0.250136 -1.548 -0.204235 0.204235 -1.548 -0.136157 0.136157 -1.548 -0.0680784 0.0680784 -1.548 -1.19328e-16 -2.39053e-16 -1.548 0.0680784 -0.0680784 -1.548 0.136157 -0.136157 -1.548 0.204235 -0.204235 -1.548 -0.144416 0.250136 -1.548 -0.0736875 0.177897 -1.548 -2.52563e-17 0.0962774 -1.548 0.0680784 0.0680784 -1.548 0.0962774 -3.95778e-16 -1.548 0.177897 -0.0736875 -1.548 0.250136 -0.144416 -1.548 -0.0747553 0.27899 -1.548 1.19459e-16 0.192555 -1.548 0.0736875 0.177897 -1.548 0.136157 0.136157 -1.548 0.177897 0.0736875 -1.548 0.192555 -5.21269e-16 -1.548 0.27899 -0.0747553 -1.548 1.9734e-16 0.288832 -1.548 0.0747553 0.27899 -1.548 0.144416 0.250136 -1.548 0.204235 0.204235 -1.548 0.250136 0.144416 -1.548 0.27899 0.0747553 -1.548 0.288832 -6.33039e-16 -1.548
        </DataArray>
      </PointData>
      <CellData>
        <DataArray type="Float32" Name="stress_zz" NumberOfComponents="1" format="ascii">
          27.2787 27.2787 27.2787 27.2787 27.2787 27.2787 27.2787 27.2787 27.2787 27.2787 27.2787 27.2787 27.2787 27.2787 27.2787 27.2787 27.2787 27.2787 27.2787 27.2787 27.2787 27.2787 27.2787 27.2787 27.2787 27.2787 27.2787 27.2787 27.2787 27.2787 27.2787 27.2787 27.2787 27.2787 27.2787 27.2787 27.2787 27.2787 27.2787 27.2787 27.2787 27.2787 27.2787 27.2787 27.2787 27.2787 27.2787 27.2787 27.2787 27.2787 27.2787 27.2787 27.2787 27.2787 27.2787 27.2787 27.2787 27.2787 27.2787 27.2787 27.2787 27.2787 27.2787 27.2787 27.2787 27.2787 27.2787 27.2787 27.2787 27.2787 27.2787 27.2787 27.2787 27.2787 27.2787 27.2787 27.2787 27.2787 27.2787 27.2787 27.2787 27.2787 27.2787 27.2787 27.2787 27.2787 27.2787 27.2787 27.2787 27.2787 27.2787 27.2787 27.2787 27.2787 27.2787 27.2787 27.2787 27.2787 27.2787 27.2787 27.2787 27.2787 27.2787 27.2787 27.2787 27.2787 27.2787 27.2787 27.2787 27.2787 27.2787 27.2787 27.2787 27.2787 27.2787 27.2787 27.2787 27.2787 27.2787 27.2787 27.2787 27.2787 27.2787 27.2787 27.2787 27.2787 27.2787 27.2787 27.2787 27.2787 27.2787 27.2787 27.2787 27.2787 27.2787 27.2787 27.2787 27.2787 27.2787 27.2787 27.2787 27.2787 27.2787 27.2787 27.2787 27.2787 27.2787 27.2787 27.2787 27.2787 27.2787 27.2787 27.2787 27.2787 27.2787 27.2787 27.2787 27.2787 27.2787 27.2787 27.2787 27.2787 27.2787 27.2787 27.2787 27.2787 27.2787 27.2787 27.2787 27.2787 27.2787 27.2787 27.2787 27.2787 27.2787 27.2787 27.2787 27.2787 27.2787 27.2787 27.2787 27.2787 27.2787 27.2787 27.2787 27.2787 27.2787 27.2787 27.2787 27.2787 27.2787 27.2787 27.2787 27.2787 27.2787 27.2787 27.2787 27.2787 27.2787 27.2787 27.2787 27.2787 27.2787 27.2787 27.2787 27.2787 27.2787 27.2787 27.2787 27.2787 27.2787 27.2787 27.2787 27.2787 27.2787 27.2787 27.2787 27.2787 27.2787 27.2787 27.2787 27.2787 27.2787 27.2787 27.2787 27.2787 27.2787 27.2787 27.2787 27.2787 27.2787 27.2787 27.2787 27.2787 27.2787 27.2787 27.2787 27.2787 27.2787 27.2787 27.2787 27.2787 27.2787 27.2787 27.2787 27.2787 27.2787 27.2787 27.2787 27.2787 27.2787 27.2787 27.2787 27.2787 27.2787 27.2787 27.2787 27.2787 27.2787 27.2787 27.2787 27.2787 27.2787 27.2787 27.2787 27.2787 27.2787 27.2787 27.2787 27.2787 27.2787 27.2787 27.2787 27.2787 27.2787 27.2787 27.2787 27.2787 27.2787 27.2787 27.2787 27.2787 27.2787 27.2787 27.2787 27.2787 27.2787 27.2787
        </DataArray>
        <DataArray type="Float32" Name="deviatoric_strain" NumberOfComponents="1" format="ascii">
          0.00525542 0.00525542 0.00525542 0.00525542 0.00525542 0.00525542 0.00525542 0.00525542 0.00525542 0.00525542 0.00525542 0.00525542 0.00525542 0.00525542 0.00525542 0.00525542 0.00525542 0.00525542 0.00525542 0.00525542 0.00525542 0.00525542 0.00525542 0.00525542 0.00525542 0.00525542 0.00525542 0.00525542 0.00525542 0.00525542 0.00525542 0.00525542 0.00525542 0.00525542 0.00525542 0.00525542 0.00525542 0.00525542 0.00525542 0.00525542 0.00525542 0.00525542 0.00525542 0.00525542 0.00525542 0.00525542 0.00525542 0.00525542 0.00525542 0.00525542 0.00525542 0.00525542 0.00525542 0.00525542 0.00525542 0.00525542 0.00525542 0.00525542 0.00525542 0.00525542 0.00525542 0.00525542 0.00525542 0.00525542 0.00525542 0.00525542 0.00525542 0.00525542 0.00525542 0.00525542 0.00525542 0.00525542 0.00525542 0.00525542 0.00525542 0.00525542 0.00525542 0.00525542 0.00525542 0.00525542 0.00525542 0.00525542 0.00525542 0.00525542 0.00525542 0.00525542 0.00525542 0.00525542 0.00525542 0.00525542 0.00525542 0.00525542 0.00525542 0.00525542 0.00525542 0.00525542 0.00525542 0.00525542 0.00525542 0.00525542 0.00525542 0.00525542 0.00525542 0.00525542 0.00525542 0.00525542 0.00525542 0.00525542 0.00525542 0.00525542 0.00525542 0.00525542 0.00525542 0.00525542 0.00525542 0.00525542 0.00525542 0.00525542 0.00525542 0.00525542 0.00525542 0.00525542 0.00525542 0.00525542 0.00525542 0.00525542 0.00525542 0.00525542 0.00525542 0.00525542 0.00525542 0.00525542 0.00525542 0.00525542 0.00525542 0.00525542 0.00525542 0.00525542 0.00525542 0.00525542 0.00525542 0.00525542 0.00525542 0.00525542 0.00525542 0.00525542 0.00525542 0.00525542 0.00525542 0.00525542 0.00525542 0.00525542 0.00525542 0.00525542 0.00525542 0.00525542 0.00525542 0.00525542 0.00525542 0.00525542 0.00525542 0.00525542 0.00525542 0.00525542 0.00525542 0.00525542 0.00525542 0.00525542 0.00525542 0.00525542 0.00525542 0.00525542 0.00525542 0.00525542 0.00525542 0.00525542 0.00525542 0.00525542 0.00525542 0.00525542 0.00525542 0.00525542 0.00525542 0.00525542 0.00525542 0.00525542 0.00525542 0.00525542 0.00525542 0.00525542 0.00525542 0.00525542 0.00525542 0.00525542 0.00525542 0.00525542 0.00525542 0.00525542 0.00525542 0.00525542 0.00525542 0.00525542 0.00525542 0.00525542 0.00525542 0.00525542 0.00525542 0.00525542 0.00525542 0.00525542 0.00525542 0.00525542 0.00525542 0.00525542 0.00525542 0.00525542 0.00525542 0.00525542 0.00525542 0.00525542 0.00525542 0.00525542 0.00525542 0.00525542 0.00525542 0.00525542 0.00525542 0.00525542 0.00525542 0.00525542 0.00525542 0.00525542 0.00525542 0.00525542 0.00525542 0.00525542 0.00525542 0.00525542 0.00525542 0.00525542 0.00525542 0.00525542 0.00525542 0.00525542 0.00525542 0.00525542 0.00525542 0.00525542 0.00525542 0.00525542 0.00525542 0.00525542 0.00525542 0.00525542 0.00525542 0.00525542 0.00525542 0.00525542 0.00525542 0.00525542 0.00525542 0.00525542 0.00525542 0.00525542 0.00525542 0.00525542 0.00525542 0.00525542 0.00525542 0.00525542 0.00525542 0.00525542 0.00525542 0.00525542 0.00525542 0.00525542 0.00525542 0.00525542 0.00525542 0.00525542 0.00525542 0.00525542 0.00525542 0.00525542 0.00525542 0.00525542 0.00525542 0.00525542
        </DataArray>
      </CellData>
    </Piece>
  </UnstructuredGrid>
</VTKFile>
