<?xml version="1.0"?>
<VTKFile type="UnstructuredGrid" version="0.1" byte_order="LittleEndian">
  <UnstructuredGrid>
    <Piece NumberOfPoints="441" NumberOfCells="288">
      <Points>
        <DataArray type="Float32" NumberOfComponents="3" format="ascii">
          -56.085 -53.033 0 -40.448 -65.7418 0 -22.0545 -73.9704 0 -2.15806 -77.1581 0 17.8854 -75.0875 0 36.7101 -67.8999 0 53.033 -56.085 0 -67.8999 -36.7101 0 -37.39 -35.3553 0 -21.0139 -46.9726 0 -1.43871 -51.4387 0 18.3555 -48.0737 0 35.3553 -37.39 0 65.7418 -40.448 0 -75.0875 -17.8854 0 -48.0737 -18.3555 0 -18.695 -17.6777 0 -0.719355 -25.7194 0 17.6777 -18.695 0 46.9726 -21.0139 0 73.9704 -22.0545 0 -77.1581 2.15806 0 -51.4387 1.43871 0 -25.7194 0.719355 0 0 0 0 25.7194 -0.719355 0 51.4387 -1.43871 0 77.1581 -2.15806 0 -73.9704 22.0545 0 -46.9726 21.0139 0 -17.6777 18.695 0 0.719355 25.7194 0 18.695 17.6777 0 48.0737 18.3555 0 75.0875 17.8854 0 -65.7418 40.448 0 -35.3553 37.39 0 -18.3555 48.0737 0 1.43871 51.4387 0 21.0139 46.9726 0 37.39 35.3553 0 67.8999 36.7101 0 -53.033 56.085 0 -36.7101 67.8999 0 -17.8854 75.0875 0 2.15806 77.1581 0 22.0545 73.9704 0 40.448 65.7418 0 56.085 53.033 0 -56.085 -53.033 35.52 -40.448 -65.7418 35.52 -22.0545 -73.9704 35.52 -2.15806 -77.1581 35.52 17.8854 -75.0875 35.52 36.7101 -67.8999 35.52 53.033 -56.085 35.52 -67.8999 -36.7101 35.52 -37.39 -35.3553 35.52 -21.0139 -46.9726 35.52 -1.43871 -51.4387 35.52 18.3555 -48.0737 35.52 35.3553 -37.39 35.52 65.7418 -40.448 35.52 -75.0875 -17.8854 35.52 -48.0737 -18.3555 35.52 -18.695 -17.6777 35.52 -0.719355 -25.7194 35.52 17.6777 -18.695 35.52 46.9726 -21.0139 35.52 73.9704 -22.0545 35.52 -77.1581 2.15806 35.52 -51.4387 1.43871 35.52 -25.7194 0.719355 35.52 -2.4678e-16 -3.94342e-16 35.52 25.7194 -0.719355 35.52 51.4387 -1.43871 35.52 77.1581 -2.15806 35.52 -73.9704 22.0545 35.52 -46.9726 21.0139 35.52 -17.6777 18.695 35.52 0.719355 25.7194 35.52 18.695 17.6777 35.52 48.0737 18.3555 35.52 75.0875 17.8854 35.52 -65.7418 40.448 35.52 -35.3553 37.39 35.52 -18.3555 48.0737 35.52 1.43871 51.4387 35.52 21.0139 46.9726 35.52 37.39 35.3553 35.52 67.8999 36.7101 35.52 -53.033 56.085 35.52 -36.7101 67.8999 35.52 -17.8854 75.0875 35.52 2.15806 77.1581 35.52 22.0545 73.9704 35.52 40.448 65.7418 35.52 56.085 53.033 35.52 -56.085 -53.033 71.04 -40.448 -65.7418 71.04 -22.0545 -73.9704 71.04 -2.15806 -77.1581 71.04 17.8854 -75.0875 71.04 36.7101 -67.8999 71.04 53.033 -56.085 71.04 -67.8999 -36.7101 71.04 -37.39 -35.3553 71.04 -21.0139 -46.9726 71.04 -1.43871 -51.4387 71.04 18.3555 -48.0737 71.04 35.3553 -37.39 71.04 65.7418 -40.448 71.04 -75.0875 -17.8854 71.04 -48.0737 -18.3555 71.04 -18.695 -17.6777 71.04 -0.719355 -25.7194 71.04 17.6777 -18.695 71.04 46.9726 -21.0139 71.04 73.9704 -22.0545 71.04 -77.1581 2.15806 71.04 -51.4387 1.43871 71.04 -25.7194 0.719355 71.04 -9.55415e-16 -8.14588e-16 71.04 25.7194 -0.719355 71.04 51.4387 -1.43871 71.04 77.1581 -2.15806 71.04 -73.9704 22.0545 71.04 -46.9726 21.0139 71.04 -17.6777 18.695 71.04 0.719355 25.7194 71.04 18.695 17.6777 71.04 48.0737 18.3555 71.04 75.0875 17.8854 71.04 -65.7418 40.448 71.04 -35.3553 37.39 71.04 -18.3555 48.0737 71.04 1.43871 51.4387 71.04 21.0139 46.9726 71.04 37.39 35.3553 71.04 67.8999 36.7101 71.04 -53.033 56.085 71.04 -36.7101 67.8999 71.04 -17.8854 75.0875 71.04 2.15806 77.1581 71.04 22.0545 73.9704 71.04 40.448 65.7418 71.04 56.085 53.033 71.04 -56.085 -53.033 106.56 -40.448 -65.7418 106.56 -22.0545 -73.9704 106.56 -2.15806 -77.1581 106.56 17.8854 -75.0875 106.56 36.7101 -67.8999 106.56 53.033 -56.085 106.56 -67.8999 -36.7101 106.56 -37.39 -35.3553 106.56 -21.0139 -46.9726 106.56 -1.43871 -51.4387 106.56 18.3555 -48.0737 106.56 35.3553 -37.39 106.56 65.7418 -40.448 106.56 -75.0875 -17.8854 106.56 -48.0737 -18.3555 106.56 -18.695 -17.6777 106.56 -0.719355 -25.7194 106.56 17.6777 -18.695 106.56 46.9726 -21.0139 106.56 73.9704 -22.0545 106.56 -77.1581 2.15806 106.56 -51.4387 1.43871 106.56 -25.7194 0.719355 106.56 -2.02269e-15 -1.58571e-15 106.56 25.7194 -0.719355 106.56 51.4387 -1.43871 106.56 77.1581 -2.15806 106.56 -73.9704 22.0545 106.56 -46.9726 21.0139 106.56 -17.6777 18.695 106.56 0.719355 25.7194 106.56 18.695 17.6777 106.56 48.0737 18.3555 106.56 75.0875 17.8854 106.56 -65.7418 40.448 106.56 -35.3553 37.39 106.56 -18.3555 48.0737 106.56 1.43871 51.4387 106.56 21.0139 46.9726 106.56 37.39 35.3553 106.56 67.8999 36.7101 106.56 -53.033 56.085 106.56 -36.7101 67.8999 106.56 -17.8854 75.0875 106.56 2.15806 77.1581 106.56 22.0545 73.9704 106.56 40.448 65.7418 106.56 56.085 53.033 106.56 -56.085 -53.033 142.08 -40.448 -65.7418 142.08 -22.0545 -73.9704 142.08 -2.15806 -77.1581 142.08 17.8854 -75.0875 142.08 36.7101 -67.8999 142.08 53.033 -56.085 142.08 -67.8999 -36.7101 142.08 -37.39 -35.3553 142.08 -21.0139 -46.9726 142.08 -1.43871 -51.4387 142.08 18.3555 -48.0737 142.08 35.3553 -37.39 142.08 65.7418 -40.448 142.08 -75.0875 -17.8854 142.08 -48.0737 -18.3555 142.08 -18.695 -17.6777 142.08 -0.719355 -25.7194 142.08 17.6777 -18.695 142.08 46.9726 -21.0139 142.08 73.9704 -22.0545 142.08 -77.1581 2.15806 142.08 -51.4387 1.43871 142.08 -25.7194 0.719355 142.08 -3.28853e-15 -2.32788e-15 142.08 25.7194 -0.719355 142.08 51.4387 -1.43871 142.08 77.1581 -2.15806 142.08 -73.9704 22.0545 142.08 -46.9726 21.0139 142.08 -17.6777 18.695 142.08 0.719355 25.7194 142.08 18.695 17.6777 142.08 48.0737 18.3555 142.08 75.0875 17.8854 142.08 -65.7418 40.448 142.08 -35.3553 37.39 142.08 -18.3555 48.0737 142.08 1.43871 51.4387 142.08 21.0139 46.9726 142.08 37.39 35.3553 142.08 67.8999 36.7101 142.08 -53.033 56.085 142.08 -36.7101 67.8999 142.08 -17.8854 75.0875 142.08 2.15806 77.1581 142.08 22.0545 73.9704 142.08 40.448 65.7418 142.08 56.085 53.033 142.08 -56.085 -53.033 177.6 -40.448 -65.7418 177.6 -22.0545 -73.9704 177.6 -2.15806 -77.1581 177.6 17.8854 -75.0875 177.6 36.7101 -67.8999 177.6 53.033 -56.085 177.6 -67.8999 -36.7101 177.6 -37.39 -35.3553 177.6 -21.0139 -46.9726 177.6 -1.43871 -51.4387 177.6 18.3555 -48.0737 177.6 35.3553 -37.39 177.6 65.7418 -40.448 177.6 -75.0875 -17.8854 177.6 -48.0737 -18.3555 177.6 -18.695 -17.6777 177.6 -0.719355 -25.7194 177.6 17.6777 -18.695 177.6 46.9726 -21.0139 177.6 73.9704 -22.0545 177.6 -77.1581 2.15806 177.6 -51.4387 1.43871 177.6 -25.7194 0.719355 177.6 -4.78138e-15 -2.9534e-15 177.6 25.7194 -0.719355 177.6 51.4387 -1.43871 177.6 77.1581 -2.15806 177.6 -73.9704 22.0545 177.6 -46.9726 21.0139 177.6 -17.6777 18.695 177.6 0.719355 25.7194 177.6 18.695 17.6777 177.6 48.0737 18.3555 177.6 75.0875 17.8854 177.6 -65.7418 40.448 177.6 -35.3553 37.39 177.6 -18.3555 48.0737 177.6 1.43871 51.4387 177.6 21.0139 46.9726 177.6 37.39 35.3553 177.6 67.8999 36.7101 177.6 -53.033 56.085 177.6 -36.7101 67.8999 177.6 -17.8854 75.0875 177.6 2.15806 77.1581 177.6 22.0545 73.9704 177.6 40.448 65.7418 177.6 56.085 53.033 177.6 -56.085 -53.033 213.12 -40.448 -65.7418 213.12 -22.0545 -73.9704 213.12 -2.15806 -77.1581 213.12 17.8854 -75.0875 213.12 36.7101 -67.8999 213.12 53.033 -56.085 213.12 -67.8999 -36.7101 213.12 -37.39 -35.3553 213.12 -21.0139 -46.9726 213.12 -1.43871 -51.4387 213.12 18.3555 -48.0737 213.12 35.3553 -37.39 213.12 65.7418 -40.448 213.12 -75.0875 -17.8854 213.12 -48.0737 -18.3555 213.12 -18.695 -17.6777 213.12 -0.719355 -25.7194 213.12 17.6777 -18.695 213.12 46.9726 -21.0139 213.12 73.9704 -22.0545 213.12 -77.1581 2.15806 213.12 -51.4387 1.43871 213.12 -25.7194 0.719355 213.12 -5.93114e-15 -4.11916e-15 213.12 25.7194 -0.719355 213.12 51.4387 -1.43871 213.12 77.1581 -2.15806 213.12 -73.9704 22.0545 213.12 -46.9726 21.0139 213.12 -17.6777 18.695 213.12 0.719355 25.7194 213.12 18.695 17.6777 213.12 48.0737 18.3555 213.12 75.0875 17.8854 213.12 -65.7418 40.448 213.12 -35.3553 37.39 213.12 -18.3555 48.0737 213.12 1.43871 51.4387 213.12 21.0139 46.9726 213.12 37.39 35.3553 213.12 67.8999 36.7101 213.12 -53.033 56.085 213.12 -36.7101 67.8999 213.12 -17.8854 75.0875 213.12 2.15806 77.1581 213.12 22.0545 73.9704 213.12 40.448 65.7418 213.12 56.085 53.033 213.12 -56.085 -53.033 248.64 -40.448 -65.7418 248.64 -22.0545 -73.9704 248.64 -2.15806 -77.1581 248.64 17.8854 -75.0875 248.64 36.7101 -67.8999 248.64 53.033 -56.085 248.64 -67.8999 -36.7101 248.64 -37.39 -35.3553 248.64 -21.0139 -46.9726 248.64 -1.43871 -51.4387 248.64 18.3555 -48.0737 248.64 35.3553 -37.39 248.64 65.7418 -40.448 248.64 -75.0875 -17.8854 248.64 -48.0737 -18.3555 248.64 -18.695 -17.6777 248.64 -0.719355 -25.7194 248.64 17.6777 -18.695 248.64 46.9726 -21.0139 248.64 73.9704 -22.0545 248.64 -77.1581 2.15806 248.64 -51.4387 1.43871 248.64 -25.7194 0.719355 248.64 -6.37142e-15 -4.48935e-15 248.64 25.7194 -0.719355 248.64 51.4387 -1.43871 248.64 77.1581 -2.15806 248.64 -73.9704 22.0545 248.64 -46.9726 21.0139 248.64 -17.6777 18.695 248.64 0.719355 25.7194 248.64 18.695 17.6777 248.64 48.0737 18.3555 248.64 75.0875 17.8854 248.64 -65.7418 40.448 248.64 -35.3553 37.39 248.64 -18.3555 48.0737 248.64 1.43871 51.4387 248.64 21.0139 46.9726 248.64 37.39 35.3553 248.64 67.8999 36.7101 248.64 -53.033 56.085 248.64 -36.7101 67.8999 248.64 -17.8854 75.0875 248.64 2.15806 77.1581 248.64 22.0545 73.9704 248.64 40.448 65.7418 248.64 56.085 53.033 248.64 -56.085 -53.033 284.16 -40.448 -65.7418 284.16 -22.0545 -73.9704 284.16 -2.15806 -77.1581 284.16 17.8854 -75.0875 284.16 36.7101 -67.8999 284.16 53.033 -56.085 284.16 -67.8999 -36.7101 284.16 -37.39 -35.3553 284.16 -21.0139 -46.9726 284.16 -1.43871 -51.4387 284.16 18.3555 -48.0737 284.16 35.3553 -37.39 284.16 65.7418 -40.448 284.16 -75.0875 -17.8854 284.16 -48.0737 -18.3555 284.16 -18.695 -17.6777 284.16 -0.719355 -25.7194 284.16 17.6777 -18.695 284.16 46.9726 -21.0139 284.16 73.9704 -22.0545 284.16 -77.1581 2.15806 284.16 -51.4387 1.43871 284.16 -25.7194 0.719355 284.16 -6.78716e-15 -5.18346e-15 284.16 25.7194 -0.719355 284.16 51.4387 -1.43871 284.16 77.1581 -2.15806 284.16 -73.9704 22.0545 284.16 -46.9726 21.0139 284.16 -17.6777 18.695 284.16 0.719355 25.7194 284.16 18.695 17.6777 284.16 48.0737 18.3555 284.16 75.0875 17.8854 284.16 -65.7418 40.448 284.16 -35.3553 37.39 284.16 -18.3555 48.0737 284.16 1.43871 51.4387 284.16 21.0139 46.9726 284.16 37.39 35.3553 284.16 67.8999 36.7101 284.16 -53.033 56.085 284.16 -36.7101 67.8999 284.16 -17.8854 75.0875 284.16 2.15806 77.1581 284.16 22.0545 73.9704 284.16 40.448 65.7418 284.16 56.085 53.033 284.16
        </DataArray>
      </Points>
      <Cells>
        <DataArray type="Int32" Name="connectivity" format="ascii">
          0 1 8 7 49 50 57 56 1 2 9 8 50 51 58 57 2 3 10 9 51 52 59 58 3 4 11 10 52 53 60 59 4 5 12 11 53 54 61 60 5 6 13 12 54 55 62 61 7 8 15 14 56 57 64 63 8 9 16 15 57 58 65 64 9 10 17 16 58 59 66 65 10 11 18 17 59 60 67 66 11 12 19 18 60 61 68 67 12 13 20 19 61 62 69 68 14 15 22 21 63 64 71 70 15 16 23 22 64 65 72 71 16 17 24 23 65 66 73 72 17 18 25 24 66 67 74 73 18 19 26 25 67 68 75 74 19 20 27 26 68 69 76 75 21 22 29 28 70 71 78 77 22 23 30 29 71 72 79 78 23 24 31 30 72 73 80 79 24 25 32 31 73 74 81 80 25 26 33 32 74 75 82 81 26 27 34 33 75 76 83 82 28 29 36 35 77 78 85 84 29 30 37 36 78 79 86 85 30 31 38 37 79 80 87 86 31 32 39 38 80 81 88 87 32 33 40 39 81 82 89 88 33 34 41 40 82 83 90 89 35 36 43 42 84 85 92 91 36 37 44 43 85 86 93 92 37 38 45 44 86 87 94 93 38 39 46 45 87 88 95 94 39 40 47 46 88 89 96 95 40 41 48 47 89 90 97 96 49 50 57 56 98 99 106 105 50 51 58 57 99 100 107 106 51 52 59 58 100 101 108 107 52 53 60 59 101 102 109 108 53 54 61 60 102 103 110 109 54 55 62 61 103 104 111 110 56 57 64 63 105 106 113 112 57 58 65 64 106 107 114 113 58 59 66 65 107 108 115 114 59 60 67 66 108 109 116 115 60 61 68 67 109 110 117 116 61 62 69 68 110 111 118 117 63 64 71 70 112 113 120 119 64 65 72 71 113 114 121 120 65 66 73 72 114 115 122 121 66 67 74 73 115 116 123 122 67 68 75 74 116 117 124 123 68 69 76 75 117 118 125 124 70 71 78 77 119 120 127 126 71 72 79 78 120 121 128 127 72 73 80 79 121 122 129 128 73 74 81 80 122 123 130 129 74 75 82 81 123 124 131 130 75 76 83 82 124 125 132 131 77 78 85 84 126 127 134 133 78 79 86 85 127 128 135 134 79 80 87 86 128 129 136 135 80 81 88 87 129 130 137 136 81 82 89 88 130 131 138 137 82 83 90 89 131 132 139 138 84 85 92 91 133 134 141 140 85 86 93 92 134 135 142 141 86 87 94 93 135 136 143 142 87 88 95 94 136 137 144 143 88 89 96 95 137 138 145 144 89 90 97 96 138 139 146 145 98 99 106 105 147 148 155 154 99 100 107 106 148 149 156 155 100 101 108 107 149 150 157 156 101 102 109 108 150 151 158 157 102 103 110 109 151 152 159 158 103 104 111 110 152 153 160 159 105 106 113 112 154 155 162 161 106 107 114 113 155 156 163 162 107 108 115 114 156 157 164 163 108 109 116 115 157 158 165 164 109 110 117 116 158 159 166 165 110 111 118 117 159 160 167 166 112 113 120 119 161 162 169 168 113 114 121 120 162 163 170 169 114 115 122 121 163 164 171 170 115 116 123 122 164 165 172 171 116 117 124 123 165 166 173 172 117 118 125 124 166 167 174 173 119 120 127 126 168 169 176 175 120 121 128 127 169 170 177 176 121 122 129 128 170 171 178 177 122 123 130 129 171 172 179 178 123 124 131 130 172 173 180 179 124 125 132 131 173 174 181 180 126 127 134 133 175 176 183 182 127 128 135 134 176 177 184 183 128 129 136 135 177 178 185 184 129 130 137 136 178 179 186 185 130 131 138 137 179 180 187 186 131 132 139 138 180 181 188 187 133 134 141 140 182 183 190 189 134 135 142 141 183 184 191 190 135 136 143 142 184 185 192 191 136 137 144 143 185 186 193 192 137 138 145 144 186 187 194 193 138 139 146 145 187 188 195 194 147 148 155 154 196 197 204 203 148 149 156 155 197 198 205 204 149 150 157 156 198 199 206 205 150 151 158 157 199 200 207 206 151 152 159 158 200 201 208 207 152 153 160 159 201 202 209 208 154 155 162 161 203 204 211 210 155 156 163 162 204 205 212 211 156 157 164 163 205 206 213 212 157 158 165 164 206 207 214 213 158 159 166 165 207 208 215 214 159 160 167 166 208 209 216 215 161 162 169 168 210 211 218 217 162 163 170 169 211 212 219 218 163 164 171 170 212 213 220 219 164 165 172 171 213 214 221 220 165 166 173 172 214 215 222 221 166 167 174 173 215 216 223 222 168 169 176 175 217 218 225 224 169 170 177 176 218 219 226 225 170 171 178 177 219 220 227 226 171 172 179 178 220 221 228 227 172 173 180 179 221 222 229 228 173 174 181 180 222 223 230 229 175 176 183 182 224 225 232 231 176 177 184 183 225 226 233 232 177 178 185 184 226 227 234 233 178 179 186 185 227 228 235 234 179 180 187 186 228 229 236 235 180 181 188 187 229 230 237 236 182 183 190 189 231 232 239 238 183 184 191 190 232 233 240 239 184 185 192 191 233 234 241 240 185 186 193 192 234 235 242 241 186 187 194 193 235 236 243 242 187 188 195 194 236 237 244 243 196 197 204 203 245 246 253 252 197 198 205 204 246 247 254 253 198 199 206 205 247 248 255 254 199 200 207 206 248 249 256 255 200 201 208 207 249 250 257 256 201 202 209 208 250 251 258 257 203 204 211 210 252 253 260 259 204 205 212 211 253 254 261 260 205 206 213 212 254 255 262 261 206 207 214 213 255 256 263 262 207 208 215 214 256 257 264 263 208 209 216 215 257 258 265 264 210 211 218 217 259 260 267 266 211 212 219 218 260 261 268 267 212 213 220 219 261 262 269 268 213 214 221 220 262 263 270 269 214 215 222 221 263 264 271 270 215 216 223 222 264 265 272 271 217 218 225 224 266 267 274 273 218 219 226 225 267 268 275 274 219 220 227 226 268 269 276 275 220 221 228 227 269 270 277 276 221 222 229 228 270 271 278 277 222 223 230 229 271 272 279 278 224 225 232 231 273 274 281 280 225 226 233 232 274 275 282 281 226 227 234 233 275 276 283 282 227 228 235 234 276 277 284 283 228 229 236 235 277 278 285 284 229 230 237 236 278 279 286 285 231 232 239 238 280 281 288 287 232 233 240 239 281 282 289 288 233 234 241 240 282 283 290 289 234 235 242 241 283 284 291 290 235 236 243 242 284 285 292 291 236 237 244 243 285 286 293 292 245 246 253 252 294 295 302 301 246 247 254 253 295 296 303 302 247 248 255 254 296 297 304 303 248 249 256 255 297 298 305 304 249 250 257 256 298 299 306 305 250 251 258 257 299 300 307 306 252 253 260 259 301 302 309 308 253 254 261 260 302 303 310 309 254 255 262 261 303 304 311 310 255 256 263 262 304 305 312 311 256 257 264 263 305 306 313 312 257 258 265 264 306 307 314 313 259 260 267 266 308 309 316 315 260 261 268 267 309 310 317 316 261 262 269 268 310 311 318 317 262 263 270 269 311 312 319 318 263 264 271 270 312 313 320 319 264 265 272 271 313 314 321 320 266 267 274 273 315 316 323 322 267 268 275 274 316 317 324 323 268 269 276 275 317 318 325 324 269 270 277 276 318 319 326 325 270 271 278 277 319 320 327 326 271 272 279 278 320 321 328 327 273 274 281 280 322 323 330 329 274 275 282 281 323 324 331 330 275 276 283 282 324 325 332 331 276 277 284 283 325 326 333 332 277 278 285 284 326 327 334 333 278 279 286 285 327 328 335 334 280 281 288 287 329 330 337 336 281 282 289 288 330 331 338 337 282 283 290 289 331 332 339 338 283 284 291 290 332 333 340 339 284 285 292 291 333 334 341 340 285 286 293 292 334 335 342 341 294 295 302 301 343 344 351 350 295 296 303 302 344 345 352 351 296 297 304 303 345 346 353 352 297 298 305 304 346 347 354 353 298 299 306 305 347 348 355 354 299 300 307 306 348 349 356 355 301 302 309 308 350 351 358 357 302 303 310 309 351 352 359 358 303 304 311 310 352 353 360 359 304 305 312 311 353 354 361 360 305 306 313 312 354 355 362 361 306 307 314 313 355 356 363 362 308 309 316 315 357 358 365 364 309 310 317 316 358 359 366 365 310 311 318 317 359 360 367 366 311 312 319 318 360 361 368 367 312 313 320 319 361 362 369 368 313 314 321 320 362 363 370 369 315 316 323 322 364 365 372 371 316 317 324 323 365 366 373 372 317 318 325 324 366 367 374 373 318 319 326 325 367 368 375 374 319 320 327 326 368 369 376 375 320 321 328 327 369 370 377 376 322 323 330 329 371 372 379 378 323 324 331 330 372 373 380 379 324 325 332 331 373 374 381 380 325 326 333 332 374 375 382 381 326 327 334 333 375 376 383 382 327 328 335 334 376 377 384 383 329 330 337 336 378 379 386 385 330 331 338 337 379 380 387 386 331 332 339 338 380 381 388 387 332 333 340 339 381 382 389 388 333 334 341 340 382 383 390 389 334 335 342 341 383 384 391 390 343 344 351 350 392 393 400 399 344 345 352 351 393 394 401 400 345 346 353 352 394 395 402 401 346 347 354 353 395 396 403 402 347 348 355 354 396 397 404 403 348 349 356 355 397 398 405 404 350 351 358 357 399 400 407 406 351 352 359 358 400 401 408 407 352 353 360 359 401 402 409 408 353 354 361 360 402 403 410 409 354 355 362 361 403 404 411 410 355 356 363 362 404 405 412 411 357 358 365 364 406 407 414 413 358 359 366 365 407 408 415 414 359 360 367 366 408 409 416 415 360 361 368 367 409 410 417 416 361 362 369 368 410 411 418 417 362 363 370 369 411 412 419 418 364 365 372 371 413 414 421 420 365 366 373 372 414 415 422 421 366 367 374 373 415 416 423 422 367 368 375 374 416 417 424 423 368 369 376 375 417 418 425 424 369 370 377 376 418 419 426 425 371 372 379 378 420 421 428 427 372 373 380 379 421 422 429 428 373 374 381 380 422 423 430 429 374 375 382 381 423 424 431 430 375 376 383 382 424 425 432 431 376 377 384 383 425 426 433 432 378 379 386 385 427 428 435 434 379 380 387 386 428 429 436 435 380 381 388 387 429 430 437 436 381 382 389 388 430 431 438 437 382 383 390 389 431 432 439 438 383 384 391 390 432 433 440 439
        </DataArray>
        <DataArray type="Int32" Name="offsets" format="ascii">
          8 16 24 32 40 48 56 64 72 80 88 96 104 112 120 128 136 144 152 160 168 176 184 192 200 208 216 224 232 240 248 256 264 272 280 288 296 304 312 320 328 336 344 352 360 368 376 384 392 400 408 416 424 432 440 448 456 464 472 480 488 496 504 512 520 528 536 544 552 560 568 576 584 592 600 608 616 624 632 640 648 656 664 672 680 688 696 704 712 720 728 736 744 752 760 768 776 784 792 800 808 816 824 832 840 848 856 864 872 880 888 896 904 912 920 928 936 944 952 960 968 976 984 992 1000 1008 1016 1024 1032 1040 1048 1056 1064 1072 1080 1088 1096 1104 1112 1120 1128 1136 1144 1152 1160 1168 1176 1184 1192 1200 1208 1216 1224 1232 1240 1248 1256 1264 1272 1280 1288 1296 1304 1312 1320 1328 1336 1344 1352 1360 1368 1376 1384 1392 1400 1408 1416 1424 1432 1440 1448 1456 1464 1472 1480 1488 1496 1504 1512 1520 1528 1536 1544 1552 1560 1568 1576 1584 1592 1600 1608 1616 1624 1632 1640 1648 1656 1664 1672 1680 1688 1696 1704 1712 1720 1728 1736 1744 1752 1760 1768 1776 1784 1792 1800 1808 1816 1824 1832 1840 1848 1856 1864 1872 1880 1888 1896 1904 1912 1920 1928 1936 1944 1952 1960 1968 1976 1984 1992 2000 2008 2016 2024 2032 2040 2048 2056 2064 2072 2080 2088 2096 2104 2112 2120 2128 2136 2144 2152 2160 2168 2176 2184 2192 2200 2208 2216 2224 2232 2240 2248 2256 2264 2272 2280 2288 2296 2304
        </DataArray>
        <DataArray type="UInt8" Name="types" format="ascii">
          12 12 12 12 12 12 12 12 12 12 12 12 12 12 12 12 12 12 12 12 12 12 12 12 12 12 12 12 12 12 12 12 12 12 12 12 12 12 12 12 12 12 12 12 12 12 12 12 12 12 12 12 12 12 12 12 12 12 12 12 12 12 12 12 12 12 12 12 12 12 12 12 12 12 12 12 12 12 12 12 12 12 12 12 12 12 12 12 12 12 12 12 12 12 12 12 12 12 12 12 12 12 12 12 12 12 12 12 12 12 12 12 12 12 12 12 12 12 12 12 12 12 12 12 12 12 12 12 12 12 12 12 12 12 12 12 12 12 12 12 12 12 12 12 12 12 12 12 12 12 12 12 12 12 12 12 12 12 12 12 12 12 12 12 12 12 12 12 12 12 12 12 12 12 12 12 12 12 12 12 12 12 12 12 12 12 12 12 12 12 12 12 12 12 12 12 12 12 12 12 12 12 12 12 12 12 12 12 12 12 12 12 12 12 12 12 12 12 12 12 12 12 12 12 12 12 12 12 12 12 12 12 12 12 12 12 12 12 12 12 12 12 12 12 12 12 12 12 12 12 12 12 12 12 12 12 12 12 12 12 12 12 12 12 12 12 12 12 12 12 12 12 12 12 12 12 12 12 12 12 12 12 12 12 12 12 12 12
        </DataArray>
      </Cells>
      <PointData>
        <DataArray type="Float32" Name="displacement" NumberOfComponents="3" format="ascii">
          -0.381496 0 0 -0.368496 -0.0987383 0 -0.330385 -0.190748 0 -0.269758 -0.269758 0 -0.190748 -0.330385 0 -0.0987383 -0.368496 0 -5.81734e-17 -0.381496 0 -0.368496 0.0987383 0 -0.25433 1.35943e-17 0 -0.234971 -0.097328 0 -0.179839 -0.179839 0 -0.097328 -0.234971 0 -6.02434e-17 -0.25433 0 0.0987383 -0.368496 0 -0.330385 0.190748 0 -0.234971 0.097328 0 -0.127165 2.90422e-17 0 -0.0899194 -0.0899194 0 -4.19778e-17 -0.127165 0 0.097328 -0.234971 0 0.190748 -0.330385 0 -0.269758 0.269758 0 -0.179839 0.179839 0 -0.0899194 0.0899194 0 0 0 0 0.0899194 -0.0899194 0 0.179839 -0.179839 0 0.269758 -0.269758 0 -0.190748 0.330385 0 -0.097328 0.234971 0 1.24119e-17 0.127165 0 0.0899194 0.0899194 0 0.127165 -3.56459e-17 0 0.234971 -0.097328 0 0.330385 -0.190748 0 -0.0987383 0.368496 0 8.06927e-17 0.25433 0 0.097328 0.234971 0 0.179839 0.179839 0 0.234971 0.097328 0 0.25433 -1.05135e-16 0 0.368496 -0.0987383 0 1.27264e-16 0.381496 0 0.0987383 0.368496 0 0.190748 0.330385 0 0.269758 0.269758 0 0.330385 0.190748 0 0.368496 0.0987383 0 0.381496 -1.91303e-16 0 -0.381496 -1.69549e-17 -0.2475 -0.368496 -0.0987383 -0.2475 -0.330385 -0.190748 -0.2475 -0.269758 -0.269758 -0.2475 -0.190748 -0.330385 -0.2475 -0.0987383 -0.368496 -0.2475 -9.6176e-17 -0.381496 -0.2475 -0.368496 0.0987383 -0.2475 -0.25433 8.8962e-18 -0.2475 -0.234971 -0.097328 -0.2475 -0.179839 -0.179839 -0.2475 -0.097328 -0.234971 -0.2475 -8.55961e-17 -0.25433 -0.2475 0.0987383 -0.368496 -0.2475 -0.330385 0.190748 -0.2475 -0.234971 0.097328 -0.2475 -0.127165 -5.70893e-18 -0.2475 -0.0899194 -0.0899194 -0.2475 -6.47183e-17 -0.127165 -0.2475 0.097328 -0.234971 -0.2475 0.190748 -0.330385 -0.2475 -0.269758 0.269758 -0.2475 -0.179839 0.179839 -0.2475 -0.0899194 0.0899194 -0.2475 -3.08475e-17 -4.92928e-17 -0.2475 0.0899194 -0.0899194 -0.2475 0.179839 -0.179839 -0.2475 0.269758 -0.269758 -0.2475 -0.190748 0.330385 -0.2475 -0.097328 0.234971 -0.2475 -4.19038e-17 0.127165 -0.2475 0.0899194 0.0899194 -0.2475 0.127165 -1.05769e-16 -0.2475 0.234971 -0.097328 -0.2475 0.330385 -0.190748 -0.2475 -0.0987383 0.368496 -0.2475 3.94823e-17 0.25433 -0.2475 0.097328 0.234971 -0.2475 0.179839 0.179839 -0.2475 0.234971 0.097328 -0.2475 0.25433 -1.32895e-16 -0.2475 0.368496 -0.0987383 -0.2475 9.12794e-17 0.381496 -0.2475 0.0987383 0.368496 -0.2475 0.190748 0.330385 -0.2475 0.269758 0.269758 -0.2475 0.330385 0.190748 -0.2475 0.368496 0.0987383 -0.2475 0.381496 -1.80494e-16 -0.2475 -0.381496 -4.05377e-17 -0.495 -0.368496 -0.0987383 -0.495 -0.330385 -0.190748 -0.495 -0.269758 -0.269758 -0.495 -0.190748 -0.330385 -0.495 -0.0987383 -0.368496 -0.495 -1.79551e-16 -0.381496 -0.495 -0.368496 0.0987383 -0.495 -0.25433 -8.43859e-17 -0.495 -0.234971 -0.097328 -0.495 -0.179839 -0.179839 -0.495 -0.097328 -0.234971 -0.495 -1.77412e-16 -0.25433 -0.495 0.0987383 -0.368496 -0.495 -0.330385 0.190748 -0.495 -0.234971 0.097328 -0.495 -0.127165 -1.01368e-16 -0.495 -0.0899194 -0.0899194 -0.495 -1.48001e-16 -0.127165 -0.495 0.097328 -0.234971 -0.495 0.190748 -0.330385 -0.495 -0.269758 0.269758 -0.495 -0.179839 0.179839 -0.495 -0.0899194 0.0899194 -0.495 -1.19427e-16 -1.01824e-16 -0.495 0.0899194 -0.0899194 -0.495 0.179839 -0.179839 -0.495 0.269758 -0.269758 -0.495 -0.190748 0.330385 -0.495 -0.097328 0.234971 -0.495 -1.10395e-16 0.127165 -0.495 0.0899194 0.0899194 -0.495 0.127165 -1.35288e-16 -0.495 0.234971 -0.097328 -0.495 0.330385 -0.190748 -0.495 -0.0987383 0.368496 -0.495 -3.6794e-17 0.25433 -0.495 0.097328 0.234971 -0.495 0.179839 0.179839 -0.495 0.234971 0.097328 -0.495 0.25433 -1.53485e-16 -0.495 0.368496 -0.0987383 -0.495 2.89506e-17 0.381496 -0.495 0.0987383 0.368496 -0.495 0.190748 0.330385 -0.495 0.269758 0.269758 -0.495 0.330385 0.190748 -0.495 0.368496 0.0987383 -0.495 0.381496 -2.23054e-16 -0.495 -0.381496 -1.43538e-16 -0.7425 -0.368496 -0.0987383 -0.7425 -0.330385 -0.190748 -0.7425 -0.269758 -0.269758 -0.7425 -0.190748 -0.330385 -0.7425 -0.0987383 -0.368496 -0.7425 -2.80019e-16 -0.381496 -0.7425 -0.368496 0.0987383 -0.7425 -0.25433 -1.46105e-16 -0.7425 -0.234971 -0.097328 -0.7425 -0.179839 -0.179839 -0.7425 -0.097328 -0.234971 -0.7425 -2.63854e-16 -0.25433 -0.7425 0.0987383 -0.368496 -0.7425 -0.330385 0.190748 -0.7425 -0.234971 0.097328 -0.7425 -0.127165 -1.52638e-16 -0.7425 -0.0899194 -0.0899194 -0.7425 -2.90285e-16 -0.127165 -0.7425 0.097328 -0.234971 -0.7425 0.190748 -0.330385 -0.7425 -0.269758 0.269758 -0.7425 -0.179839 0.179839 -0.7425 -0.0899194 0.0899194 -0.7425 -2.52837e-16 -1.98213e-16 -0.7425 0.0899194 -0.0899194 -0.7425 0.179839 -0.179839 -0.7425 0.269758 -0.269758 -0.7425 -0.190748 0.330385 -0.7425 -0.097328 0.234971 -0.7425 -2.23313e-16 0.127165 -0.7425 0.0899194 0.0899194 -0.7425 0.127165 -2.16392e-16 -0.7425 0.234971 -0.097328 -0.7425 0.330385 -0.190748 -0.7425 -0.0987383 0.368496 -0.7425 -1.61532e-16 0.25433 -0.7425 0.097328 0.234971 -0.7425 0.179839 0.179839 -0.7425 0.234971 0.097328 -0.7425 0.25433 -2.5953e-16 -0.7425 0.368496 -0.0987383 -0.7425 -1.21811e-16 0.381496 -0.7425 0.0987383 0.368496 -0.7425 0.190748 0.330385 -0.7425 0.269758 0.269758 -0.7425 0.330385 0.190748 -0.7425 0.368496 0.0987383 -0.7425 0.381496 -3.12914e-16 -0.7425 -0.381496 -2.32448e-16 -0.99 -0.368496 -0.0987383 -0.99 -0.330385 -0.190748 -0.99 -0.269758 -0.269758 -0.99 -0.190748 -0.330385 -0.99 -0.0987383 -0.368496 -0.99 -5.16799e-16 -0.381496 -0.99 -0.368496 0.0987383 -0.99 -0.25433 -2.50129e-16 -0.99 -0.234971 -0.097328 -0.99 -0.179839 -0.179839 -0.99 -0.097328 -0.234971 -0.99 -4.97805e-16 -0.25433 -0.99 0.0987383 -0.368496 -0.99 -0.330385 0.190748 -0.99 -0.234971 0.097328 -0.99 -0.127165 -2.65408e-16 -0.99 -0.0899194 -0.0899194 -0.99 -4.62586e-16 -0.127165 -0.99 0.097328 -0.234971 -0.99 0.190748 -0.330385 -0.99 -0.269758 0.269758 -0.99 -0.179839 0.179839 -0.99 -0.0899194 0.0899194 -0.99 -4.11066e-16 -2.90985e-16 -0.99 0.0899194 -0.0899194 -0.99 0.179839 -0.179839 -0.99 0.269758 -0.269758 -0.99 -0.190748 0.330385 -0.99 -0.097328 0.234971 -0.99 -4.10976e-16 0.127165 -0.99 0.0899194 0.0899194 -0.99 0.127165 -3.13895e-16 -0.99 0.234971 -0.097328 -0.99 0.330385 -0.190748 -0.99 -0.0987383 0.368496 -0.99 -3.13764e-16 0.25433 -0.99 0.097328 0.234971 -0.99 0.179839 0.179839 -0.99 0.234971 0.097328 -0.99 0.25433 -3.53329e-16 -0.99 0.368496 -0.0987383 -0.99 -2.59735e-16 0.381496 -0.99 0.0987383 0.368496 -0.99 0.190748 0.330385 -0.99 0.269758 0.269758 -0.99 0.330385 0.190748 -0.99 0.368496 0.0987383 -0.99 0.381496 -3.72126e-16 -0.99 -0.381496 -2.07828e-16 -1.2375 -0.368496 -0.0987383 -1.2375 -0.330385 -0.190748 -1.2375 -0.269758 -0.269758 -1.2375 -0.190748 -0.330385 -1.2375 -0.0987383 -0.368496 -1.2375 -6.6961e-16 -0.381496 -1.2375 -0.368496 0.0987383 -1.2375 -0.25433 -2.68358e-16 -1.2375 -0.234971 -0.097328 -1.2375 -0.179839 -0.179839 -1.2375 -0.097328 -0.234971 -1.2375 -6.58641e-16 -0.25433 -1.2375 0.0987383 -0.368496 -1.2375 -0.330385 0.190748 -1.2375 -0.234971 0.097328 -1.2375 -0.127165 -3.37426e-16 -1.2375 -0.0899194 -0.0899194 -1.2375 -6.48201e-16 -0.127165 -1.2375 0.097328 -0.234971 -1.2375 0.190748 -0.330385 -1.2375 -0.269758 0.269758 -1.2375 -0.179839 0.179839 -1.2375 -0.0899194 0.0899194 -1.2375 -5.97672e-16 -3.69176e-16 -1.2375 0.0899194 -0.0899194 -1.2375 0.179839 -0.179839 -1.2375 0.269758 -0.269758 -1.2375 -0.190748 0.330385 -1.2375 -0.097328 0.234971 -1.2375 -5.31873e-16 0.127165 -1.2375 0.0899194 0.0899194 -1.2375 0.127165 -4.73017e-16 -1.2375 0.234971 -0.097328 -1.2375 0.330385 -0.190748 -1.2375 -0.0987383 0.368496 -1.2375 -3.94974e-16 0.25433 -1.2375 0.097328 0.234971 -1.2375 0.179839 0.179839 -1.2375 0.234971 0.097328 -1.2375 0.25433 -4.78152e-16 -1.2375 0.368496 -0.0987383 -1.2375 -4.07233e-16 0.381496 -1.2375 0.0987383 0.368496 -1.2375 0.190748 0.330385 -1.2375 0.269758 0.269758 -1.2375 0.330385 0.190748 -1.2375 0.368496 0.0987383 -1.2375 0.381496 -5.87916e-16 -1.2375 -0.381496 -1.64988e-16 -1.485 -0.368496 -0.0987383 -1.485 -0.330385 -0.190748 -1.485 -0.269758 -0.269758 -1.485 -0.190748 -0.330385 -1.485 -0.0987383 -0.368496 -1.485 -8.80217e-16 -0.381496 -1.485 -0.368496 0.0987383 -1.485 -0.25433 -3.25889e-16 -1.485 -0.234971 -0.097328 -1.485 -0.179839 -0.179839 -1.485 -0.097328 -0.234971 -1.485 -8.20832e-16 -0.25433 -1.485 0.0987383 -0.368496 -1.485 -0.330385 0.190748 -1.485 -0.234971 0.097328 -1.485 -0.127165 -4.00269e-16 -1.485 -0.0899194 -0.0899194 -1.485 -7.65688e-16 -0.127165 -1.485 0.097328 -0.234971 -1.485 0.190748 -0.330385 -1.485 -0.269758 0.269758 -1.485 -0.179839 0.179839 -1.485 -0.0899194 0.0899194 -1.485 -7.41393e-16 -5.14895e-16 -1.485 0.0899194 -0.0899194 -1.485 0.179839 -0.179839 -1.485 0.269758 -0.269758 -1.485 -0.190748 0.330385 -1.485 -0.097328 0.234971 -1.485 -6.56346e-16 0.127165 -1.485 0.0899194 0.0899194 -1.485 0.127165 -5.33137e-16 -1.485 0.234971 -0.097328 -1.485 0.330385 -0.190748 -1.485 -0.0987383 0.368496 -1.485 -6.25269e-16 0.25433 -1.485 0.097328 0.234971 -1.485 0.179839 0.179839 -1.485 0.234971 0.097328 -1.485 0.25433 -5.82028e-16 -1.485 0.368496 -0.0987383 -1.485 -6.13975e-16 0.381496 -1.485 0.0987383 0.368496 -1.485 0.190748 0.330385 -1.485 0.269758 0.269758 -1.485 0.330385 0.190748 -1.485 0.368496 0.0987383 -1.485 0.381496 -6.1724e-16 -1.485 -0.381496 -2.34263e-16 -1.7325 -0.368496 -0.0987383 -1.7325 -0.330385 -0.190748 -1.7325 -0.269758 -0.269758 -1.7325 -0.190748 -0.330385 -1.7325 -0.0987383 -0.368496 -1.7325 -1.03254e-15 -0.381496 -1.7325 -0.368496 0.0987383 -1.7325 -0.25433 -4.23778e-16 -1.7325 -0.234971 -0.097328 -1.7325 -0.179839 -0.179839 -1.7325 -0.097328 -0.234971 -1.7325 -9.67284e-16 -0.25433 -1.7325 0.0987383 -0.368496 -1.7325 -0.330385 0.190748 -1.7325 -0.234971 0.097328 -1.7325 -0.127165 -5.05577e-16 -1.7325 -0.0899194 -0.0899194 -1.7325 -8.65947e-16 -0.127165 -1.7325 0.097328 -0.234971 -1.7325 0.190748 -0.330385 -1.7325 -0.269758 0.269758 -1.7325 -0.179839 0.179839 -1.7325 -0.0899194 0.0899194 -1.7325 -7.96428e-16 -5.61169e-16 -1.7325 0.0899194 -0.0899194 -1.7325 0.179839 -0.179839 -1.7325 0.269758 -0.269758 -1.7325 -0.190748 0.330385 -1.7325 -0.097328 0.234971 -1.7325 -7.57419e-16 0.127165 -1.7325 0.0899194 0.0899194 -1.7325 0.127165 -6.36325e-16 -1.7325 0.234971 -0.097328 -1.7325 0.330385 -0.190748 -1.7325 -0.0987383 0.368496 -1.7325 -6.67955e-16 0.25433 -1.7325 0.097328 0.234971 -1.7325 0.179839 0.179839 -1.7325 0.234971 0.097328 -1.7325 0.25433 -6.76747e-16 -1.7325 0.368496 -0.0987383 -1.7325 -6.85301e-16 0.381496 -1.7325 0.0987383 0.368496 -1.7325 0.190748 0.330385 -1.7325 0.269758 0.269758 -1.7325 0.330385 0.190748 -1.7325 0.368496 0.0987383 -1.7325 0.381496 -7.662e-16 -1.7325 -0.381496 -4.14384e-16 -1.98 -0.368496 -0.0987383 -1.98 -0.330385 -0.190748 -1.98 -0.269758 -0.269758 -1.98 -0.190748 -0.330385 -1.98 -0.0987383 -0.368496 -1.98 -1.16117e-15 -0.381496 -1.98 -0.368496 0.0987383 -1.98 -0.25433 -4.50801e-16 -1.98 -0.234971 -0.097328 -1.98 -0.179839 -0.179839 -1.98 -0.097328 -0.234971 -1.98 -1.0003e-15 -0.25433 -1.98 0.0987383 -0.368496 -1.98 -0.330385 0.190748 -1.98 -0.234971 0.097328 -1.98 -0.127165 -5.54378e-16 -1.98 -0.0899194 -0.0899194 -1.98 -9.17084e-16 -0.127165 -1.98 0.097328 -0.234971 -1.98 0.190748 -0.330385 -1.98 -0.269758 0.269758 -1.98 -0.179839 0.179839 -1.98 -0.0899194 0.0899194 -1.98 -8.48395e-16 -6.47932e-16 -1.98 0.0899194 -0.0899194 -1.98 0.179839 -0.179839 -1.98 0.269758 -0.269758 -1.98 -0.190748 0.330385 -1.98 -0.097328 0.234971 -1.98 -8.55118e-16 0.127165 -1.98 0.0899194 0.0899194 -1.98 0.127165 -7.04646e-16 -1.98 0.234971 -0.097328 -1.98 0.330385 -0.190748 -1.98 -0.0987383 0.368496 -1.98 -7.72876e-16 0.25433 -1.98 0.097328 0.234971 -1.98 0.179839 0.179839 -1.98 0.234971 0.097328 -1.98 0.25433 -7.052e-16 -1.98 0.368496 -0.0987383 -1.98 -6.90878e-16 0.381496 -1.98 0.0987383 0.368496 -1.98 0.190748 0.330385 -1.98 0.269758 0.269758 -1.98 0.330385 0.190748 -1.98 0.368496 0.0987383 -1.98 0.381496 -7.22178e-16 -1.98
        </DataArray>
      </PointData>
      <CellData>
        <DataArray type="Float32" Name="stress_zz" NumberOfComponents="1" format="ascii">
          26.3182 26.3182 26.3182 26.3182 26.3182 26.3182 26.3182 26.3182 26.3182 26.3182 26.3182 26.3182 26.3182 26.3182 26.3182 26.3182 26.3182 26.3182 26.3182 26.3182 26.3182 26.3182 26.3182 26.3182 26.3182 26.3182 26.3182 26.3182 26.3182 26.3182 26.3182 26.3182 26.3182 26.3182 26.3182 26.3182 26.3182 26.3182 26.3182 26.3182 26.3182 26.3182 26.3182 26.3182 26.3182 26.3182 26.3182 26.3182 26.3182 26.3182 26.3182 26.3182 26.3182 26.3182 26.3182 26.3182 26.3182 26.3182 26.3182 26.3182 26.3182 26.3182 26.3182 26.3182 26.3182 26.3182 26.3182 26.3182 26.3182 26.3182 26.3182 26.3182 26.3182 26.3182 26.3182 26.3182 26.3182 26.3182 26.3182 26.3182 26.3182 26.3182 26.3182 26.3182 26.3182 26.3182 26.3182 26.3182 26.3182 26.3182 26.3182 26.3182 26.3182 26.3182 26.3182 26.3182 26.3182 26.3182 26.3182 26.3182 26.3182 26.3182 26.3182 26.3182 26.3182 26.3182 26.3182 26.3182 26.3182 26.3182 26.3182 26.3182 26.3182 26.3182 26.3182 26.3182 26.3182 26.3182 26.3182 26.3182 26.3182 26.3182 26.3182 26.3182 26.3182 26.3182 26.3182 26.3182 26.3182 26.3182 26.3182 26.3182 26.3182 26.3182 26.3182 26.3182 26.3182 26.3182 26.3182 26.3182 26.3182 26.3182 26.3182 26.3182 26.3182 26.3182 26.3182 26.3182 26.3182 26.3182 26.3182 26.3182 26.3182 26.3182 26.3182 26.3182 26.3182 26.3182 26.3182 26.3182 26.3182 26.3182 26.3182 26.3182 26.3182 26.3182 26.3182 26.3182 26.3182 26.3182 26.3182 26.3182 26.3182 26.3182 26.3182 26.3182 26.3182 26.3182 26.3182 26.3182 26.3182 26.3182 26.3182 26.3182 26.3182 26.3182 26.3182 26.3182 26.3182 26.3182 26.3182 26.3182 26.3182 26.3182 26.3182 26.3182 26.3182 26.3182 26.3182 26.3182 26.3182 26.3182 26.3182 26.3182 26.3182 26.3182 26.3182 26.3182 26.3182 26.3182 26.3182 26.3182 26.3182 26.3182 26.3182 26.3182 26.3182 26.3182 26.3182 26.3182 26.3182 26.3182 26.3182 26.3182 26.3182 26.3182 26.3182 26.3182 26.3182 26.3182 26.3182 26.3182 26.3182 26.3182 26.3182 26.3182 26.3182 26.3182 26.3182 26.3182 26.3182 26.3182 26.3182 26.3182 26.3182 26.3182 26.3182 26.3182 26.3182 26.3182 26.3182 26.3182 26.3182 26.3182 26.3182 26.3182 26.3182 26.3182 26.3182 26.3182 26.3182 26.3182 26.3182 26.3182 26.3182 26.3182 26.3182 26.3182 26.3182 26.3182 26.3182 26.3182 26.3182 26.3182 26.3182 26.3182 26.3182 26.3182 26.3182 26.3182 26.3182 26.3182 26.3182 26.3182 26.3182 26.3182 26.3182 26.3182
        </DataArray>
        <DataArray type="Float32" Name="deviatoric_strain" NumberOfComponents="1" format="ascii">
          0.00679785 0.00679785 0.00679785 0.00679785 0.00679785 0.00679785 0.00679785 0.00679785 0.00679785 0.00679785 0.00679785 0.00679785 0.00679785 0.00679785 0.00679785 0.00679785 0.00679785 0.00679785 0.00679785 0.00679785 0.00679785 0.00679785 0.00679785 0.00679785 0.00679785 0.00679785 0.00679785 0.00679785 0.00679785 0.00679785 0.00679785 0.00679785 0.00679785 0.00679785 0.00679785 0.00679785 0.00679785 0.00679785 0.00679785 0.00679785 0.00679785 0.00679785 0.00679785 0.00679785 0.00679785 0.00679785 0.00679785 0.00679785 0.00679785 0.00679785 0.00679785 0.00679785 0.00679785 0.00679785 0.00679785 0.00679785 0.00679785 0.00679785 0.00679785 0.00679785 0.00679785 0.00679785 0.00679785 0.00679785 0.00679785 0.00679785 0.00679785 0.00679785 0.00679785 0.00679785 0.00679785 0.00679785 0.00679785 0.00679785 0.00679785 0.00679785 0.00679785 0.00679785 0.00679785 0.00679785 0.00679785 0.00679785 0.00679785 0.00679785 0.00679785 0.00679785 0.00679785 0.00679785 0.00679785 0.00679785 0.00679785 0.00679785 0.00679785 0.00679785 0.00679785 0.00679785 0.00679785 0.00679785 0.00679785 0.00679785 0.00679785 0.00679785 0.00679785 0.00679785 0.00679785 0.00679785 0.00679785 0.00679785 0.00679785 0.00679785 0.00679785 0.00679785 0.00679785 0.00679785 0.00679785 0.00679785 0.00679785 0.00679785 0.00679785 0.00679785 0.00679785 0.00679785 0.00679785 0.00679785 0.00679785 0.00679785 0.00679785 0.00679785 0.00679785 0.00679785 0.00679785 0.00679785 0.00679785 0.00679785 0.00679785 0.00679785 0.00679785 0.00679785 0.00679785 0.00679785 0.00679785 0.00679785 0.00679785 0.00679785 0.00679785 0.00679785 0.00679785 0.00679785 0.00679785 0.00679785 0.00679785 0.00679785 0.00679785 0.00679785 0.00679785 0.00679785 0.00679785 0.00679785 0.00679785 0.00679785 0.00679785 0.00679785 0.00679785 0.00679785 0.00679785 0.00679785 0.00679785 0.00679785 0.00679785 0.00679785 0.00679785 0.00679785 0.00679785 0.00679785 0.00679785 0.00679785 0.00679785 0.00679785 0.00679785 0.00679785 0.00679785 0.00679785 0.00679785 0.00679785 0.00679785 0.00679785 0.00679785 0.00679785 0.00679785 0.00679785 0.00679785 0.00679785 0.00679785 0.00679785 0.00679785 0.00679785 0.00679785 0.00679785 0.00679785 0.00679785 0.00679785 0.00679785 0.00679785 0.00679785 0.00679785 0.00679785 0.00679785 0.00679785 0.00679785 0.00679785 0.00679785 0.00679785 0.00679785 0.00679785 0.00679785 0.00679785 0.00679785 0.00679785 0.00679785 0.00679785 0.00679785 0.00679785 0.00679785 0.00679785 0.00679785 0.00679785 0.00679785 0.00679785 0.00679785 0.00679785 0.00679785 0.00679785 0.00679785 0.00679785 0.00679785 0.00679785 0.00679785 0.00679785 0.00679785 0.00679785 0.00679785 0.00679785 0.00679785 0.00679785 0.00679785 0.00679785 0.00679785 0.00679785 0.00679785 0.00679785 0.00679785 0.00679785 0.00679785 0.00679785 0.00679785 0.00679785 0.00679785 0.00679785 0.00679785 0.00679785 0.00679785 0.00679785 0.00679785 0.00679785 0.00679785 0.00679785 0.00679785 0.00679785 0.00679785 0.00679785 0.00679785 0.00679785 0.00679785 0.00679785 0.00679785 0.00679785 0.00679785 0.00679785 0.00679785 0.00679785 0.00679785 0.00679785 0.00679785 0.00679785 0.00679785 0.00679785 0.00679785 0.00679785
        </DataArray>
      </CellData>
    </Piece>
  </UnstructuredGrid>
</VTKFile>
