<?xml version="1.0"?>
<VTKFile type="UnstructuredGrid" version="0.1" byte_order="LittleEndian">
  <UnstructuredGrid>
    <Piece NumberOfPoints="441" NumberOfCells="288">
      <Points>
        <DataArray type="Float32" NumberOfComponents="3" format="ascii">
          -54.973 -53.033 0 -39.3739 -65.454 0 -21.0915 -73.4144 0 -1.37179 -76.3718 0 18.4414 -74.1245 0 36.9979 -66.8258 0 53.033 -54.973 0 -66.8258 -36.9979 0 -36.6487 -35.3553 0 -20.3291 -46.6889 0 -0.914527 -50.9145 0 18.6392 -47.3889 0 35.3553 -36.6487 0 65.454 -39.3739 0 -74.1245 -18.4414 0 -47.3889 -18.6392 0 -18.3243 -17.6777 0 -0.457263 -25.4573 0 17.6777 -18.3243 0 46.6889 -20.3291 0 73.4144 -21.0915 0 -76.3718 1.37179 0 -50.9145 0.914527 0 -25.4573 0.457263 0 0 0 0 25.4573 -0.457263 0 50.9145 -0.914527 0 76.3718 -1.37179 0 -73.4144 21.0915 0 -46.6889 20.3291 0 -17.6777 18.3243 0 0.457263 25.4573 0 18.3243 17.6777 0 47.3889 18.6392 0 74.1245 18.4414 0 -65.454 39.3739 0 -35.3553 36.6487 0 -18.6392 47.3889 0 0.914527 50.9145 0 20.3291 46.6889 0 36.6487 35.3553 0 66.8258 36.9979 0 -53.033 54.973 0 -36.9979 66.8258 0 -18.4414 74.1245 0 1.37179 76.3718 0 21.0915 73.4144 0 39.3739 65.454 0 54.973 53.033 0 -54.973 -53.033 36.168 -39.3739 -65.454 36.168 -21.0915 -73.4144 36.168 -1.37179 -76.3718 36.168 18.4414 -74.1245 36.168 36.9979 -66.8258 36.168 53.033 -54.973 36.168 -66.8258 -36.9979 36.168 -36.6487 -35.3553 36.168 -20.3291 -46.6889 36.168 -0.914527 -50.9145 36.168 18.6392 -47.3889 36.168 35.3553 -36.6487 36.168 65.454 -39.3739 36.168 -74.1245 -18.4414 36.168 -47.3889 -18.6392 36.168 -18.3243 -17.6777 36.168 -0.457263 -25.4573 36.168 17.6777 -18.3243 36.168 46.6889 -20.3291 36.168 73.4144 -21.0915 36.168 -76.3718 1.37179 36.168 -50.9145 0.914527 36.168 -25.4573 0.457263 36.168 6.65169e-17 -1.49634e-16 36.168 25.4573 -0.457263 36.168 50.9145 -0.914527 36.168 76.3718 -1.37179 36.168 -73.4144 21.0915 36.168 -46.6889 20.3291 36.168 -17.6777 18.3243 36.168 0.457263 25.4573 36.168 18.3243 17.6777 36.168 47.3889 18.6392 36.168 74.1245 18.4414 36.168 -65.454 39.3739 36.168 -35.3553 36.6487 36.168 -18.6392 47.3889 36.168 0.914527 50.9145 36.168 20.3291 46.6889 36.168 36.6487 35.3553 36.168 66.8258 36.9979 36.168 -53.033 54.973 36.168 -36.9979 66.8258 36.168 -18.4414 74.1245 36.168 1.37179 76.3718 36.168 21.0915 73.4144 36.168 39.3739 65.454 36.168 54.973 53.033 36.168 -54.973 -53.033 72.336 -39.3739 -65.454 72.336 -21.0915 -73.4144 72.336 -1.37179 -76.3718 72.336 18.4414 -74.1245 72.336 36.9979 -66.8258 72.336 53.033 -54.973 72.336 -66.8258 -36.9979 72.336 -36.6487 -35.3553 72.336 -20.3291 -46.6889 72.336 -0.914527 -50.9145 72.336 18.6392 -47.3889 72.336 35.3553 -36.6487 72.336 65.454 -39.3739 72.336 -74.1245 -18.4414 72.336 -47.3889 -18.6392 72.336 -18.3243 -17.6777 72.336 -0.457263 -25.4573 72.336 17.6777 -18.3243 72.336 46.6889 -20.3291 72.336 73.4144 -21.0915 72.336 -76.3718 1.37179 72.336 -50.9145 0.914527 72.336 -25.4573 0.457263 72.336 3.86877e-16 -6.06834e-16 72.336 25.4573 -0.457263 72.336 50.9145 -0.914527 72.336 76.3718 -1.37179 72.336 -73.4144 21.0915 72.336 -46.6889 20.3291 72.336 -17.6777 18.3243 72.336 0.457263 25.4573 72.336 18.3243 17.6777 72.336 47.3889 18.6392 72.336 74.1245 18.4414 72.336 -65.454 39.3739 72.336 -35.3553 36.6487 72.336 -18.6392 47.3889 72.336 0.914527 50.9145 72.336 20.3291 46.6889 72.336 36.6487 35.3553 72.336 66.8258 36.9979 72.336 -53.033 54.973 72.336 -36.9979 66.8258 72.336 -18.4414 74.1245 72.336 1.37179 76.3718 72.336 21.0915 73.4144 72.336 39.3739 65.454 72.336 54.973 53.033 72.336 -54.973 -53.033 108.504 -39.3739 -65.454 108.504 -21.0915 -73.4144 108.504 -1.37179 -76.3718 108.504 18.4414 -74.1245 108.504 36.9979 -66.8258 108.504 53.033 -54.973 108.504 -66.8258 -36.9979 108.504 -36.6487 -35.3553 108.504 -20.3291 -46.6889 108.504 -0.914527 -50.9145 108.504 18.6392 -47.3889 108.504 35.3553 -36.6487 108.504 65.454 -39.3739 108.504 -74.1245 -18.4414 108.504 -47.3889 -18.6392 108.504 -18.3243 -17.6777 108.504 -0.457263 -25.4573 108.504 17.6777 -18.3243 108.504 46.6889 -20.3291 108.504 73.4144 -21.0915 108.504 -76.3718 1.37179 108.504 -50.9145 0.914527 108.504 -25.4573 0.457263 108.504 8.64975e-16 -1.26084e-15 108.504 25.4573 -0.457263 108.504 50.9145 -0.914527 108.504 76.3718 -1.37179 108.504 -73.4144 21.0915 108.504 -46.6889 20.3291 108.504 -17.6777 18.3243 108.504 0.457263 25.4573 108.504 18.3243 17.6777 108.504 47.3889 18.6392 108.504 74.1245 18.4414 108.504 -65.454 39.3739 108.504 -35.3553 36.6487 108.504 -18.6392 47.3889 108.504 0.914527 50.9145 108.504 20.3291 46.6889 108.504 36.6487 35.3553 108.504 66.8258 36.9979 108.504 -53.033 54.973 108.504 -36.9979 66.8258 108.504 -18.4414 74.1245 108.504 1.37179 76.3718 108.504 21.0915 73.4144 108.504 39.3739 65.454 108.504 54.973 53.033 108.504 -54.973 -53.033 144.672 -39.3739 -65.454 144.672 -21.0915 -73.4144 144.672 -1.37179 -76.3718 144.672 18.4414 -74.1245 144.672 36.9979 -66.8258 144.672 53.033 -54.973 144.672 -66.8258 -36.9979 144.672 -36.6487 -35.3553 144.672 -20.3291 -46.6889 144.672 -0.914527 -50.9145 144.672 18.6392 -47.3889 144.672 35.3553 -36.6487 144.672 65.454 -39.3739 144.672 -74.1245 -18.4414 144.672 -47.3889 -18.6392 144.672 -18.3243 -17.6777 144.672 -0.457263 -25.4573 144.672 17.6777 -18.3243 144.672 46.6889 -20.3291 144.672 73.4144 -21.0915 144.672 -76.3718 1.37179 144.672 -50.9145 0.914527 144.672 -25.4573 0.457263 144.672 1.45503e-15 -1.86642e-15 144.672 25.4573 -0.457263 144.672 50.9145 -0.914527 144.672 76.3718 -1.37179 144.672 -73.4144 21.0915 144.672 -46.6889 20.3291 144.672 -17.6777 18.3243 144.672 0.457263 25.4573 144.672 18.3243 17.6777 144.672 47.3889 18.6392 144.672 74.1245 18.4414 144.672 -65.454 39.3739 144.672 -35.3553 36.6487 144.672 -18.6392 47.3889 144.672 0.914527 50.9145 144.672 20.3291 46.6889 144.672 36.6487 35.3553 144.672 66.8258 36.9979 144.672 -53.033 54.973 144.672 -36.9979 66.8258 144.672 -18.4414 74.1245 144.672 1.37179 76.3718 144.672 21.0915 73.4144 144.672 39.3739 65.454 144.672 54.973 53.033 144.672 -54.973 -53.033 180.84 -39.3739 -65.454 180.84 -21.0915 -73.4144 180.84 -1.37179 -76.3718 180.84 18.4414 -74.1245 180.84 36.9979 -66.8258 180.84 53.033 -54.973 180.84 -66.8258 -36.9979 180.84 -36.6487 -35.3553 180.84 -20.3291 -46.6889 180.84 -0.914527 -50.9145 180.84 18.6392 -47.3889 180.84 35.3553 -36.6487 180.84 65.454 -39.3739 180.84 -74.1245 -18.4414 180.84 -47.3889 -18.6392 180.84 -18.3243 -17.6777 180.84 -0.457263 -25.4573 180.84 17.6777 -18.3243 180.84 46.6889 -20.3291 180.84 73.4144 -21.0915 180.84 -76.3718 1.37179 180.84 -50.9145 0.914527 180.84 -25.4573 0.457263 180.84 2.17489e-15 -2.55455e-15 180.84 25.4573 -0.457263 180.84 50.9145 -0.914527 180.84 76.3718 -1.37179 180.84 -73.4144 21.0915 180.84 -46.6889 20.3291 180.84 -17.6777 18.3243 180.84 0.457263 25.4573 180.84 18.3243 17.6777 180.84 47.3889 18.6392 180.84 74.1245 18.4414 180.84 -65.454 39.3739 180.84 -35.3553 36.6487 180.84 -18.6392 47.3889 180.84 0.914527 50.9145 180.84 20.3291 46.6889 180.84 36.6487 35.3553 180.84 66.8258 36.9979 180.84 -53.033 54.973 180.84 -36.9979 66.8258 180.84 -18.4414 74.1245 180.84 1.37179 76.3718 180.84 21.0915 73.4144 180.84 39.3739 65.454 180.84 54.973 53.033 180.84 -54.973 -53.033 217.008 -39.3739 -65.454 217.008 -21.0915 -73.4144 217.008 -1.37179 -76.3718 217.008 18.4414 -74.1245 217.008 36.9979 -66.8258 217.008 53.033 -54.973 217.008 -66.8258 -36.9979 217.008 -36.6487 -35.3553 217.008 -20.3291 -46.6889 217.008 -0.914527 -50.9145 217.008 18.6392 -47.3889 217.008 35.3553 -36.6487 217.008 65.454 -39.3739 217.008 -74.1245 -18.4414 217.008 -47.3889 -18.6392 217.008 -18.3243 -17.6777 217.008 -0.457263 -25.4573 217.008 17.6777 -18.3243 217.008 46.6889 -20.3291 217.008 73.4144 -21.0915 217.008 -76.3718 1.37179 217.008 -50.9145 0.914527 217.008 -25.4573 0.457263 217.008 2.90999e-15 -3.08367e-15 217.008 25.4573 -0.457263 217.008 50.9145 -0.914527 217.008 76.3718 -1.37179 217.008 -73.4144 21.0915 217.008 -46.6889 20.3291 217.008 -17.6777 18.3243 217.008 0.457263 25.4573 217.008 18.3243 17.6777 217.008 47.3889 18.6392 217.008 74.1245 18.4414 217.008 -65.454 39.3739 217.008 -35.3553 36.6487 217.008 -18.6392 47.3889 217.008 0.914527 50.9145 217.008 20.3291 46.6889 217.008 36.6487 35.3553 217.008 66.8258 36.9979 217.008 -53.033 54.973 217.008 -36.9979 66.8258 217.008 -18.4414 74.1245 217.008 1.37179 76.3718 217.008 21.0915 73.4144 217.008 39.3739 65.454 217.008 54.973 53.033 217.008 -54.973 -53.033 253.176 -39.3739 -65.454 253.176 -21.0915 -73.4144 253.176 -1.37179 -76.3718 253.176 18.4414 -74.1245 253.176 36.9979 -66.8258 253.176 53.033 -54.973 253.176 -66.8258 -36.9979 253.176 -36.6487 -35.3553 253.176 -20.3291 -46.6889 253.176 -0.914527 -50.9145 253.176 18.6392 -47.3889 253.176 35.3553 -36.6487 253.176 65.454 -39.3739 253.176 -74.1245 -18.4414 253.176 -47.3889 -18.6392 253.176 -18.3243 -17.6777 253.176 -0.457263 -25.4573 253.176 17.6777 -18.3243 253.176 46.6889 -20.3291 253.176 73.4144 -21.0915 253.176 -76.3718 1.37179 253.176 -50.9145 0.914527 253.176 -25.4573 0.457263 253.176 3.1676e-15 -3.54166e-15 253.176 25.4573 -0.457263 253.176 50.9145 -0.914527 253.176 76.3718 -1.37179 253.176 -73.4144 21.0915 253.176 -46.6889 20.3291 253.176 -17.6777 18.3243 253.176 0.457263 25.4573 253.176 18.3243 17.6777 253.176 47.3889 18.6392 253.176 74.1245 18.4414 253.176 -65.454 39.3739 253.176 -35.3553 36.6487 253.176 -18.6392 47.3889 253.176 0.914527 50.9145 253.176 20.3291 46.6889 253.176 36.6487 35.3553 253.176 66.8258 36.9979 253.176 -53.033 54.973 253.176 -36.9979 66.8258 253.176 -18.4414 74.1245 253.176 1.37179 76.3718 253.176 21.0915 73.4144 253.176 39.3739 65.454 253.176 54.973 53.033 253.176 -54.973 -53.033 289.344 -39.3739 -65.454 289.344 -21.0915 -73.4144 289.344 -1.37179 -76.3718 289.344 18.4414 -74.1245 289.344 36.9979 -66.8258 289.344 53.033 -54.973 289.344 -66.8258 -36.9979 289.344 -36.6487 -35.3553 289.344 -20.3291 -46.6889 289.344 -0.914527 -50.9145 289.344 18.6392 -47.3889 289.344 35.3553 -36.6487 289.344 65.454 -39.3739 289.344 -74.1245 -18.4414 289.344 -47.3889 -18.6392 289.344 -18.3243 -17.6777 289.344 -0.457263 -25.4573 289.344 17.6777 -18.3243 289.344 46.6889 -20.3291 289.344 73.4144 -21.0915 289.344 -76.3718 1.37179 289.344 -50.9145 0.914527 289.344 -25.4573 0.457263 289.344 3.67171e-15 -3.64736e-15 289.344 25.4573 -0.457263 289.344 50.9145 -0.914527 289.344 76.3718 -1.37179 289.344 -73.4144 21.0915 289.344 -46.6889 20.3291 289.344 -17.6777 18.3243 289.344 0.457263 25.4573 289.344 18.3243 17.6777 289.344 47.3889 18.6392 289.344 74.1245 18.4414 289.344 -65.454 39.3739 289.344 -35.3553 36.6487 289.344 -18.6392 47.3889 289.344 0.914527 50.9145 289.344 20.3291 46.6889 289.344 36.6487 35.3553 289.344 66.8258 36.9979 289.344 -53.033 54.973 289.344 -36.9979 66.8258 289.344 -18.4414 74.1245 289.344 1.37179 76.3718 289.344 21.0915 73.4144 289.344 39.3739 65.454 289.344 54.973 53.033 289.344
        </DataArray>
      </Points>
      <Cells>
        <DataArray type="Int32" Name="connectivity" format="ascii">
          0 1 8 7 49 50 57 56 1 2 9 8 50 51 58 57 2 3 10 9 51 52 59 58 3 4 11 10 52 53 60 59 4 5 12 11 53 54 61 60 5 6 13 12 54 55 62 61 7 8 15 14 56 57 64 63 8 9 16 15 57 58 65 64 9 10 17 16 58 59 66 65 10 11 18 17 59 60 67 66 11 12 19 18 60 61 68 67 12 13 20 19 61 62 69 68 14 15 22 21 63 64 71 70 15 16 23 22 64 65 72 71 16 17 24 23 65 66 73 72 17 18 25 24 66 67 74 73 18 19 26 25 67 68 75 74 19 20 27 26 68 69 76 75 21 22 29 28 70 71 78 77 22 23 30 29 71 72 79 78 23 24 31 30 72 73 80 79 24 25 32 31 73 74 81 80 25 26 33 32 74 75 82 81 26 27 34 33 75 76 83 82 28 29 36 35 77 78 85 84 29 30 37 36 78 79 86 85 30 31 38 37 79 80 87 86 31 32 39 38 80 81 88 87 32 33 40 39 81 82 89 88 33 34 41 40 82 83 90 89 35 36 43 42 84 85 92 91 36 37 44 43 85 86 93 92 37 38 45 44 86 87 94 93 38 39 46 45 87 88 95 94 39 40 47 46 88 89 96 95 40 41 48 47 89 90 97 96 49 50 57 56 98 99 106 105 50 51 58 57 99 100 107 106 51 52 59 58 100 101 108 107 52 53 60 59 101 102 109 108 53 54 61 60 102 103 110 109 54 55 62 61 103 104 111 110 56 57 64 63 105 106 113 112 57 58 65 64 106 107 114 113 58 59 66 65 107 108 115 114 59 60 67 66 108 109 116 115 60 61 68 67 109 110 117 116 61 62 69 68 110 111 118 117 63 64 71 70 112 113 120 119 64 65 72 71 113 114 121 120 65 66 73 72 114 115 122 121 66 67 74 73 115 116 123 122 67 68 75 74 116 117 124 123 68 69 76 75 117 118 125 124 70 71 78 77 119 120 127 126 71 72 79 78 120 121 128 127 72 73 80 79 121 122 129 128 73 74 81 80 122 123 130 129 74 75 82 81 123 124 131 130 75 76 83 82 124 125 132 131 77 78 85 84 126 127 134 133 78 79 86 85 127 128 135 134 79 80 87 86 128 129 136 135 80 81 88 87 129 130 137 136 81 82 89 88 130 131 138 137 82 83 90 89 131 132 139 138 84 85 92 91 133 134 141 140 85 86 93 92 134 135 142 141 86 87 94 93 135 136 143 142 87 88 95 94 136 137 144 143 88 89 96 95 137 138 145 144 89 90 97 96 138 139 146 145 98 99 106 105 147 148 155 154 99 100 107 106 148 149 156 155 100 101 108 107 149 150 157 156 101 102 109 108 150 151 158 157 102 103 110 109 151 152 159 158 103 104 111 110 152 153 160 159 105 106 113 112 154 155 162 161 106 107 114 113 155 156 163 162 107 108 115 114 156 157 164 163 108 109 116 115 157 158 165 164 109 110 117 116 158 159 166 165 110 111 118 117 159 160 167 166 112 113 120 119 161 162 169 168 113 114 121 120 162 163 170 169 114 115 122 121 163 164 171 170 115 116 123 122 164 165 172 171 116 117 124 123 165 166 173 172 117 118 125 124 166 167 174 173 119 120 127 126 168 169 176 175 120 121 128 127 169 170 177 176 121 122 129 128 170 171 178 177 122 123 130 129 171 172 179 178 123 124 131 130 172 173 180 179 124 125 132 131 173 174 181 180 126 127 134 133 175 176 183 182 127 128 135 134 176 177 184 183 128 129 136 135 177 178 185 184 129 130 137 136 178 179 186 185 130 131 138 137 179 180 187 186 131 132 139 138 180 181 188 187 133 134 141 140 182 183 190 189 134 135 142 141 183 184 191 190 135 136 143 142 184 185 192 191 136 137 144 143 185 186 193 192 137 138 145 144 186 187 194 193 138 139 146 145 187 188 195 194 147 148 155 154 196 197 204 203 148 149 156 155 197 198 205 204 149 150 157 156 198 199 206 205 150 151 158 157 199 200 207 206 151 152 159 158 200 201 208 207 152 153 160 159 201 202 209 208 154 155 162 161 203 204 211 210 155 156 163 162 204 205 212 211 156 157 164 163 205 206 213 212 157 158 165 164 206 207 214 213 158 159 166 165 207 208 215 214 159 160 167 166 208 209 216 215 161 162 169 168 210 211 218 217 162 163 170 169 211 212 219 218 163 164 171 170 212 213 220 219 164 165 172 171 213 214 221 220 165 166 173 172 214 215 222 221 166 167 174 173 215 216 223 222 168 169 176 175 217 218 225 224 169 170 177 176 218 219 226 225 170 171 178 177 219 220 227 226 171 172 179 178 220 221 228 227 172 173 180 179 221 222 229 228 173 174 181 180 222 223 230 229 175 176 183 182 224 225 232 231 176 177 184 183 225 226 233 232 177 178 185 184 226 227 234 233 178 179 186 185 227 228 235 234 179 180 187 186 228 229 236 235 180 181 188 187 229 230 237 236 182 183 190 189 231 232 239 238 183 184 191 190 232 233 240 239 184 185 192 191 233 234 241 240 185 186 193 192 234 235 242 241 186 187 194 193 235 236 243 242 187 188 195 194 236 237 244 243 196 197 204 203 245 246 253 252 197 198 205 204 246 247 254 253 198 199 206 205 247 248 255 254 199 200 207 206 248 249 256 255 200 201 208 207 249 250 257 256 201 202 209 208 250 251 258 257 203 204 211 210 252 253 260 259 204 205 212 211 253 254 261 260 205 206 213 212 254 255 262 261 206 207 214 213 255 256 263 262 207 208 215 214 256 257 264 263 208 209 216 215 257 258 265 264 210 211 218 217 259 260 267 266 211 212 219 218 260 261 268 267 212 213 220 219 261 262 269 268 213 214 221 220 262 263 270 269 214 215 222 221 263 264 271 270 215 216 223 222 264 265 272 271 217 218 225 224 266 267 274 273 218 219 226 225 267 268 275 274 219 220 227 226 268 269 276 275 220 221 228 227 269 270 277 276 221 222 229 228 270 271 278 277 222 223 230 229 271 272 279 278 224 225 232 231 273 274 281 280 225 226 233 232 274 275 282 281 226 227 234 233 275 276 283 282 227 228 235 234 276 277 284 283 228 229 236 235 277 278 285 284 229 230 237 236 278 279 286 285 231 232 239 238 280 281 288 287 232 233 240 239 281 282 289 288 233 234 241 240 282 283 290 289 234 235 242 241 283 284 291 290 235 236 243 242 284 285 292 291 236 237 244 243 285 286 293 292 245 246 253 252 294 295 302 301 246 247 254 253 295 296 303 302 247 248 255 254 296 297 304 303 248 249 256 255 297 298 305 304 249 250 257 256 298 299 306 305 250 251 258 257 299 300 307 306 252 253 260 259 301 302 309 308 253 254 261 260 302 303 310 309 254 255 262 261 303 304 311 310 255 256 263 262 304 305 312 311 256 257 264 263 305 306 313 312 257 258 265 264 306 307 314 313 259 260 267 266 308 309 316 315 260 261 268 267 309 310 317 316 261 262 269 268 310 311 318 317 262 263 270 269 311 312 319 318 263 264 271 270 312 313 320 319 264 265 272 271 313 314 321 320 266 267 274 273 315 316 323 322 267 268 275 274 316 317 324 323 268 269 276 275 317 318 325 324 269 270 277 276 318 319 326 325 270 271 278 277 319 320 327 326 271 272 279 278 320 321 328 327 273 274 281 280 322 323 330 329 274 275 282 281 323 324 331 330 275 276 283 282 324 325 332 331 276 277 284 283 325 326 333 332 277 278 285 284 326 327 334 333 278 279 286 285 327 328 335 334 280 281 288 287 329 330 337 336 281 282 289 288 330 331 338 337 282 283 290 289 331 332 339 338 283 284 291 290 332 333 340 339 284 285 292 291 333 334 341 340 285 286 293 292 334 335 342 341 294 295 302 301 343 344 351 350 295 296 303 302 344 345 352 351 296 297 304 303 345 346 353 352 297 298 305 304 346 347 354 353 298 299 306 305 347 348 355 354 299 300 307 306 348 349 356 355 301 302 309 308 350 351 358 357 302 303 310 309 351 352 359 358 303 304 311 310 352 353 360 359 304 305 312 311 353 354 361 360 305 306 313 312 354 355 362 361 306 307 314 313 355 356 363 362 308 309 316 315 357 358 365 364 309 310 317 316 358 359 366 365 310 311 318 317 359 360 367 366 311 312 319 318 360 361 368 367 312 313 320 319 361 362 369 368 313 314 321 320 362 363 370 369 315 316 323 322 364 365 372 371 316 317 324 323 365 366 373 372 317 318 325 324 366 367 374 373 318 319 326 325 367 368 375 374 319 320 327 326 368 369 376 375 320 321 328 327 369 370 377 376 322 323 330 329 371 372 379 378 323 324 331 330 372 373 380 379 324 325 332 331 373 374 381 380 325 326 333 332 374 375 382 381 326 327 334 333 375 376 383 382 327 328 335 334 376 377 384 383 329 330 337 336 378 379 386 385 330 331 338 337 379 380 387 386 331 332 339 338 380 381 388 387 332 333 340 339 381 382 389 388 333 334 341 340 382 383 390 389 334 335 342 341 383 384 391 390 343 344 351 350 392 393 400 399 344 345 352 351 393 394 401 400 345 346 353 352 394 395 402 401 346 347 354 353 395 396 403 402 347 348 355 354 396 397 404 403 348 349 356 355 397 398 405 404 350 351 358 357 399 400 407 406 351 352 359 358 400 401 408 407 352 353 360 359 401 402 409 408 353 354 361 360 402 403 410 409 354 355 362 361 403 404 411 410 355 356 363 362 404 405 412 411 357 358 365 364 406 407 414 413 358 359 366 365 407 408 415 414 359 360 367 366 408 409 416 415 360 361 368 367 409 410 417 416 361 362 369 368 410 411 418 417 362 363 370 369 411 412 419 418 364 365 372 371 413 414 421 420 365 366 373 372 414 415 422 421 366 367 374 373 415 416 423 422 367 368 375 374 416 417 424 423 368 369 376 375 417 418 425 424 369 370 377 376 418 419 426 425 371 372 379 378 420 421 428 427 372 373 380 379 421 422 429 428 373 374 381 380 422 423 430 429 374 375 382 381 423 424 431 430 375 376 383 382 424 425 432 431 376 377 384 383 425 426 433 432 378 379 386 385 427 428 435 434 379 380 387 386 428 429 436 435 380 381 388 387 429 430 437 436 381 382 389 388 430 431 438 437 382 383 390 389 431 432 439 438 383 384 391 390 432 433 440 439
        </DataArray>
        <DataArray type="Int32" Name="offsets" format="ascii">
          8 16 24 32 40 48 56 64 72 80 88 96 104 112 120 128 136 144 152 160 168 176 184 192 200 208 216 224 232 240 248 256 264 272 280 288 296 304 312 320 328 336 344 352 360 368 376 384 392 400 408 416 424 432 440 448 456 464 472 480 488 496 504 512 520 528 536 544 552 560 568 576 584 592 600 608 616 624 632 640 648 656 664 672 680 688 696 704 712 720 728 736 744 752 760 768 776 784 792 800 808 816 824 832 840 848 856 864 872 880 888 896 904 912 920 928 936 944 952 960 968 976 984 992 1000 1008 1016 1024 1032 1040 1048 1056 1064 1072 1080 1088 1096 1104 1112 1120 1128 1136 1144 1152 1160 1168 1176 1184 1192 1200 1208 1216 1224 1232 1240 1248 1256 1264 1272 1280 1288 1296 1304 1312 1320 1328 1336 1344 1352 1360 1368 1376 1384 1392 1400 1408 1416 1424 1432 1440 1448 1456 1464 1472 1480 1488 1496 1504 1512 1520 1528 1536 1544 1552 1560 1568 1576 1584 1592 1600 1608 1616 1624 1632 1640 1648 1656 1664 1672 1680 1688 1696 1704 1712 1720 1728 1736 1744 1752 1760 1768 1776 1784 1792 1800 1808 1816 1824 1832 1840 1848 1856 1864 1872 1880 1888 1896 1904 1912 1920 1928 1936 1944 1952 1960 1968 1976 1984 1992 2000 2008 2016 2024 2032 2040 2048 2056 2064 2072 2080 2088 2096 2104 2112 2120 2128 2136 2144 2152 2160 2168 2176 2184 2192 2200 2208 2216 2224 2232 2240 2248 2256 2264 2272 2280 2288 2296 2304
        </DataArray>
        <DataArray type="UInt8" Name="types" format="ascii">
          12 12 12 12 12 12 12 12 12 12 12 12 12 12 12 12 12 12 12 12 12 12 12 12 12 12 12 12 12 12 12 12 12 12 12 12 12 12 12 12 12 12 12 12 12 12 12 12 12 12 12 12 12 12 12 12 12 12 12 12 12 12 12 12 12 12 12 12 12 12 12 12 12 12 12 12 12 12 12 12 12 12 12 12 12 12 12 12 12 12 12 12 12 12 12 12 12 12 12 12 12 12 12 12 12 12 12 12 12 12 12 12 12 12 12 12 12 12 12 12 12 12 12 12 12 12 12 12 12 12 12 12 12 12 12 12 12 12 12 12 12 12 12 12 12 12 12 12 12 12 12 12 12 12 12 12 12 12 12 12 12 12 12 12 12 12 12 12 12 12 12 12 12 12 12 12 12 12 12 12 12 12 12 12 12 12 12 12 12 12 12 12 12 12 12 12 12 12 12 12 12 12 12 12 12 12 12 12 12 12 12 12 12 12 12 12 12 12 12 12 12 12 12 12 12 12 12 12 12 12 12 12 12 12 12 12 12 12 12 12 12 12 12 12 12 12 12 12 12 12 12 12 12 12 12 12 12 12 12 12 12 12 12 12 12 12 12 12 12 12 12 12 12 12 12 12 12 12 12 12 12 12 12 12 12 12 12 12
        </DataArray>
      </Cells>
      <PointData>
        <DataArray type="Float32" Name="displacement" NumberOfComponents="3" format="ascii">
          -0.242501 0 0 -0.234238 -0.0627638 0 -0.210012 -0.12125 0 -0.171474 -0.171474 0 -0.12125 -0.210012 0 -0.0627638 -0.234238 0 6.55406e-17 -0.242501 0 -0.234238 0.0627638 0 -0.161667 -1.96446e-17 0 -0.149361 -0.0618673 0 -0.114316 -0.114316 0 -0.0618673 -0.149361 0 2.32914e-17 -0.161667 0 0.0627638 -0.234238 0 -0.210012 0.12125 0 -0.149361 0.0618673 0 -0.0808335 -8.8368e-18 0 -0.0571579 -0.0571579 0 3.39897e-18 -0.0808335 0 0.0618673 -0.149361 0 0.12125 -0.210012 0 -0.171474 0.171474 0 -0.114316 0.114316 0 -0.0571579 0.0571579 0 0 0 0 0.0571579 -0.0571579 0 0.114316 -0.114316 0 0.171474 -0.171474 0 -0.12125 0.210012 0 -0.0618673 0.149361 0 -8.66986e-18 0.0808335 0 0.0571579 0.0571579 0 0.0808335 -7.70851e-19 0 0.149361 -0.0618673 0 0.210012 -0.12125 0 -0.0627638 0.234238 0 2.32765e-17 0.161667 0 0.0618673 0.149361 0 0.114316 0.114316 0 0.149361 0.0618673 0 0.161667 1.72236e-17 0 0.234238 -0.0627638 0 3.70808e-17 0.242501 0 0.0627638 0.234238 0 0.12125 0.210012 0 0.171474 0.171474 0 0.210012 0.12125 0 0.234238 0.0627638 0 0.242501 6.14525e-17 0 -0.242501 -4.28194e-17 -0.1665 -0.234238 -0.0627638 -0.1665 -0.210012 -0.12125 -0.1665 -0.171474 -0.171474 -0.1665 -0.12125 -0.210012 -0.1665 -0.0627638 -0.234238 -0.1665 8.22582e-17 -0.242501 -0.1665 -0.234238 0.0627638 -0.1665 -0.161667 -3.88076e-17 -0.1665 -0.149361 -0.0618673 -0.1665 -0.114316 -0.114316 -0.1665 -0.0618673 -0.149361 -0.1665 4.32371e-17 -0.161667 -0.1665 0.0627638 -0.234238 -0.1665 -0.210012 0.12125 -0.1665 -0.149361 0.0618673 -0.1665 -0.0808335 -2.3805e-17 -0.1665 -0.0571579 -0.0571579 -0.1665 2.17507e-17 -0.0808335 -0.1665 0.0618673 -0.149361 -0.1665 0.12125 -0.210012 -0.1665 -0.171474 0.171474 -0.1665 -0.114316 0.114316 -0.1665 -0.0571579 0.0571579 -0.1665 8.31461e-18 -1.87043e-17 -0.1665 0.0571579 -0.0571579 -0.1665 0.114316 -0.114316 -0.1665 0.171474 -0.171474 -0.1665 -0.12125 0.210012 -0.1665 -0.0618673 0.149361 -0.1665 -1.52083e-17 0.0808335 -0.1665 0.0571579 0.0571579 -0.1665 0.0808335 -1.94486e-17 -0.1665 0.149361 -0.0618673 -0.1665 0.210012 -0.12125 -0.1665 -0.0627638 0.234238 -0.1665 6.20431e-18 0.161667 -0.1665 0.0618673 0.149361 -0.1665 0.114316 0.114316 -0.1665 0.149361 0.0618673 -0.1665 0.161667 1.03371e-17 -0.1665 0.234238 -0.0627638 -0.1665 1.61382e-17 0.242501 -0.1665 0.0627638 0.234238 -0.1665 0.12125 0.210012 -0.1665 0.171474 0.171474 -0.1665 0.210012 0.12125 -0.1665 0.234238 0.0627638 -0.1665 0.242501 5.08157e-17 -0.1665 -0.242501 -1.54313e-16 -0.333 -0.234238 -0.0627638 -0.333 -0.210012 -0.12125 -0.333 -0.171474 -0.171474 -0.333 -0.12125 -0.210012 -0.333 -0.0627638 -0.234238 -0.333 1.98862e-16 -0.242501 -0.333 -0.234238 0.0627638 -0.333 -0.161667 -1.35389e-16 -0.333 -0.149361 -0.0618673 -0.333 -0.114316 -0.114316 -0.333 -0.0618673 -0.149361 -0.333 1.34085e-16 -0.161667 -0.333 0.0627638 -0.234238 -0.333 -0.210012 0.12125 -0.333 -0.149361 0.0618673 -0.333 -0.0808335 -1.09157e-16 -0.333 -0.0571579 -0.0571579 -0.333 7.50173e-17 -0.0808335 -0.333 0.0618673 -0.149361 -0.333 0.12125 -0.210012 -0.333 -0.171474 0.171474 -0.333 -0.114316 0.114316 -0.333 -0.0571579 0.0571579 -0.333 4.83596e-17 -7.58542e-17 -0.333 0.0571579 -0.0571579 -0.333 0.114316 -0.114316 -0.333 0.171474 -0.171474 -0.333 -0.12125 0.210012 -0.333 -0.0618673 0.149361 -0.333 3.41805e-18 0.0808335 -0.333 0.0571579 0.0571579 -0.333 0.0808335 -3.74629e-17 -0.333 0.149361 -0.0618673 -0.333 0.210012 -0.12125 -0.333 -0.0627638 0.234238 -0.333 -1.78847e-18 0.161667 -0.333 0.0618673 0.149361 -0.333 0.114316 0.114316 -0.333 0.149361 0.0618673 -0.333 0.161667 1.32815e-17 -0.333 0.234238 -0.0627638 -0.333 -2.29271e-17 0.242501 -0.333 0.0627638 0.234238 -0.333 0.12125 0.210012 -0.333 0.171474 0.171474 -0.333 0.210012 0.12125 -0.333 0.234238 0.0627638 -0.333 0.242501 4.93735e-17 -0.333 -0.242501 -3.2252e-16 -0.4995 -0.234238 -0.0627638 -0.4995 -0.210012 -0.12125 -0.4995 -0.171474 -0.171474 -0.4995 -0.12125 -0.210012 -0.4995 -0.0627638 -0.234238 -0.4995 3.20953e-16 -0.242501 -0.4995 -0.234238 0.0627638 -0.4995 -0.161667 -2.78822e-16 -0.4995 -0.149361 -0.0618673 -0.4995 -0.114316 -0.114316 -0.4995 -0.0618673 -0.149361 -0.4995 2.35355e-16 -0.161667 -0.4995 0.0627638 -0.234238 -0.4995 -0.210012 0.12125 -0.4995 -0.149361 0.0618673 -0.4995 -0.0808335 -2.12436e-16 -0.4995 -0.0571579 -0.0571579 -0.4995 1.58172e-16 -0.0808335 -0.4995 0.0618673 -0.149361 -0.4995 0.12125 -0.210012 -0.4995 -0.171474 0.171474 -0.4995 -0.114316 0.114316 -0.4995 -0.0571579 0.0571579 -0.4995 1.08122e-16 -1.57604e-16 -0.4995 0.0571579 -0.0571579 -0.4995 0.114316 -0.114316 -0.4995 0.171474 -0.171474 -0.4995 -0.12125 0.210012 -0.4995 -0.0618673 0.149361 -0.4995 4.59961e-17 0.0808335 -0.4995 0.0571579 0.0571579 -0.4995 0.0808335 -8.84885e-17 -0.4995 0.149361 -0.0618673 -0.4995 0.210012 -0.12125 -0.4995 -0.0627638 0.234238 -0.4995 1.40451e-17 0.161667 -0.4995 0.0618673 0.149361 -0.4995 0.114316 0.114316 -0.4995 0.149361 0.0618673 -0.4995 0.161667 -1.28581e-17 -0.4995 0.234238 -0.0627638 -0.4995 -5.20535e-17 0.242501 -0.4995 0.0627638 0.234238 -0.4995 0.12125 0.210012 -0.4995 0.171474 0.171474 -0.4995 0.210012 0.12125 -0.4995 0.234238 0.0627638 -0.4995 0.242501 4.67734e-17 -0.4995 -0.242501 -4.82685e-16 -0.666 -0.234238 -0.0627638 -0.666 -0.210012 -0.12125 -0.666 -0.171474 -0.171474 -0.666 -0.12125 -0.210012 -0.666 -0.0627638 -0.234238 -0.666 4.59421e-16 -0.242501 -0.666 -0.234238 0.0627638 -0.666 -0.161667 -4.15371e-16 -0.666 -0.149361 -0.0618673 -0.666 -0.114316 -0.114316 -0.666 -0.0618673 -0.149361 -0.666 3.66092e-16 -0.161667 -0.666 0.0627638 -0.234238 -0.666 -0.210012 0.12125 -0.666 -0.149361 0.0618673 -0.666 -0.0808335 -3.23531e-16 -0.666 -0.0571579 -0.0571579 -0.666 2.54691e-16 -0.0808335 -0.666 0.0618673 -0.149361 -0.666 0.12125 -0.210012 -0.666 -0.171474 0.171474 -0.666 -0.114316 0.114316 -0.666 -0.0571579 0.0571579 -0.666 1.81879e-16 -2.33302e-16 -0.666 0.0571579 -0.0571579 -0.666 0.114316 -0.114316 -0.666 0.171474 -0.171474 -0.666 -0.12125 0.210012 -0.666 -0.0618673 0.149361 -0.666 9.05211e-17 0.0808335 -0.666 0.0571579 0.0571579 -0.666 0.0808335 -1.42981e-16 -0.666 0.149361 -0.0618673 -0.666 0.210012 -0.12125 -0.666 -0.0627638 0.234238 -0.666 3.27632e-17 0.161667 -0.666 0.0618673 0.149361 -0.666 0.114316 0.114316 -0.666 0.149361 0.0618673 -0.666 0.161667 -4.92952e-17 -0.666 0.234238 -0.0627638 -0.666 -4.33283e-17 0.242501 -0.666 0.0627638 0.234238 -0.666 0.12125 0.210012 -0.666 0.171474 0.171474 -0.666 0.210012 0.12125 -0.666 0.234238 0.0627638 -0.666 0.242501 4.17954e-17 -0.666 -0.242501 -7.32705e-16 -0.8325 -0.234238 -0.0627638 -0.8325 -0.210012 -0.12125 -0.8325 -0.171474 -0.171474 -0.8325 -0.12125 -0.210012 -0.8325 -0.0627638 -0.234238 -0.8325 6.37006e-16 -0.242501 -0.8325 -0.234238 0.0627638 -0.8325 -0.161667 -5.74545e-16 -0.8325 -0.149361 -0.0618673 -0.8325 -0.114316 -0.114316 -0.8325 -0.0618673 -0.149361 -0.8325 4.9946e-16 -0.161667 -0.8325 0.0627638 -0.234238 -0.8325 -0.210012 0.12125 -0.8325 -0.149361 0.0618673 -0.8325 -0.0808335 -4.30366e-16 -0.8325 -0.0571579 -0.0571579 -0.8325 3.95662e-16 -0.0808335 -0.8325 0.0618673 -0.149361 -0.8325 0.12125 -0.210012 -0.8325 -0.171474 0.171474 -0.8325 -0.114316 0.114316 -0.8325 -0.0571579 0.0571579 -0.8325 2.71862e-16 -3.19319e-16 -0.8325 0.0571579 -0.0571579 -0.8325 0.114316 -0.114316 -0.8325 0.171474 -0.171474 -0.8325 -0.12125 0.210012 -0.8325 -0.0618673 0.149361 -0.8325 1.38551e-16 0.0808335 -0.8325 0.0571579 0.0571579 -0.8325 0.0808335 -2.25438e-16 -0.8325 0.149361 -0.0618673 -0.8325 0.210012 -0.12125 -0.8325 -0.0627638 0.234238 -0.8325 4.80759e-17 0.161667 -0.8325 0.0618673 0.149361 -0.8325 0.114316 0.114316 -0.8325 0.149361 0.0618673 -0.8325 0.161667 -8.26121e-17 -0.8325 0.234238 -0.0627638 -0.8325 -6.26365e-17 0.242501 -0.8325 0.0627638 0.234238 -0.8325 0.12125 0.210012 -0.8325 0.171474 0.171474 -0.8325 0.210012 0.12125 -0.8325 0.234238 0.0627638 -0.8325 0.242501 -8.29605e-19 -0.8325 -0.242501 -8.0742e-16 -0.999 -0.234238 -0.0627638 -0.999 -0.210012 -0.12125 -0.999 -0.171474 -0.171474 -0.999 -0.12125 -0.210012 -0.999 -0.0627638 -0.234238 -0.999 7.20624e-16 -0.242501 -0.999 -0.234238 0.0627638 -0.999 -0.161667 -6.7352e-16 -0.999 -0.149361 -0.0618673 -0.999 -0.114316 -0.114316 -0.999 -0.0618673 -0.149361 -0.999 6.07652e-16 -0.161667 -0.999 0.0627638 -0.234238 -0.999 -0.210012 0.12125 -0.999 -0.149361 0.0618673 -0.999 -0.0808335 -5.36808e-16 -0.999 -0.0571579 -0.0571579 -0.999 4.72801e-16 -0.0808335 -0.999 0.0618673 -0.149361 -0.999 0.12125 -0.210012 -0.999 -0.171474 0.171474 -0.999 -0.114316 0.114316 -0.999 -0.0571579 0.0571579 -0.999 3.63749e-16 -3.85458e-16 -0.999 0.0571579 -0.0571579 -0.999 0.114316 -0.114316 -0.999 0.171474 -0.171474 -0.999 -0.12125 0.210012 -0.999 -0.0618673 0.149361 -0.999 2.03735e-16 0.0808335 -0.999 0.0571579 0.0571579 -0.999 0.0808335 -2.91645e-16 -0.999 0.149361 -0.0618673 -0.999 0.210012 -0.12125 -0.999 -0.0627638 0.234238 -0.999 8.34774e-17 0.161667 -0.999 0.0618673 0.149361 -0.999 0.114316 0.114316 -0.999 0.149361 0.0618673 -0.999 0.161667 -1.502e-16 -0.999 0.234238 -0.0627638 -0.999 -2.55551e-17 0.242501 -0.999 0.0627638 0.234238 -0.999 0.12125 0.210012 -0.999 0.171474 0.171474 -0.999 0.210012 0.12125 -0.999 0.234238 0.0627638 -0.999 0.242501 -3.84688e-17 -0.999 -0.242501 -8.45316e-16 -1.1655 -0.234238 -0.0627638 -1.1655 -0.210012 -0.12125 -1.1655 -0.171474 -0.171474 -1.1655 -0.12125 -0.210012 -1.1655 -0.0627638 -0.234238 -1.1655 7.96985e-16 -0.242501 -1.1655 -0.234238 0.0627638 -1.1655 -0.161667 -7.33924e-16 -1.1655 -0.149361 -0.0618673 -1.1655 -0.114316 -0.114316 -1.1655 -0.0618673 -0.149361 -1.1655 6.53938e-16 -0.161667 -1.1655 0.0627638 -0.234238 -1.1655 -0.210012 0.12125 -1.1655 -0.149361 0.0618673 -1.1655 -0.0808335 -5.79203e-16 -1.1655 -0.0571579 -0.0571579 -1.1655 5.34634e-16 -0.0808335 -1.1655 0.0618673 -0.149361 -1.1655 0.12125 -0.210012 -1.1655 -0.171474 0.171474 -1.1655 -0.114316 0.114316 -1.1655 -0.0571579 0.0571579 -1.1655 3.9595e-16 -4.42707e-16 -1.1655 0.0571579 -0.0571579 -1.1655 0.114316 -0.114316 -1.1655 0.171474 -0.171474 -1.1655 -0.12125 0.210012 -1.1655 -0.0618673 0.149361 -1.1655 2.53594e-16 0.0808335 -1.1655 0.0571579 0.0571579 -1.1655 0.0808335 -3.11922e-16 -1.1655 0.149361 -0.0618673 -1.1655 0.210012 -0.12125 -1.1655 -0.0627638 0.234238 -1.1655 1.29004e-16 0.161667 -1.1655 0.0618673 0.149361 -1.1655 0.114316 0.114316 -1.1655 0.149361 0.0618673 -1.1655 0.161667 -1.80558e-16 -1.1655 0.234238 -0.0627638 -1.1655 -6.73828e-17 0.242501 -1.1655 0.0627638 0.234238 -1.1655 0.12125 0.210012 -1.1655 0.171474 0.171474 -1.1655 0.210012 0.12125 -1.1655 0.234238 0.0627638 -1.1655 0.242501 -7.15148e-17 -1.1655 -0.242501 -9.86278e-16 -1.332 -0.234238 -0.0627638 -1.332 -0.210012 -0.12125 -1.332 -0.171474 -0.171474 -1.332 -0.12125 -0.210012 -1.332 -0.0627638 -0.234238 -1.332 7.95479e-16 -0.242501 -1.332 -0.234238 0.0627638 -1.332 -0.161667 -7.69478e-16 -1.332 -0.149361 -0.0618673 -1.332 -0.114316 -0.114316 -1.332 -0.0618673 -0.149361 -1.332 7.01367e-16 -0.161667 -1.332 0.0627638 -0.234238 -1.332 -0.210012 0.12125 -1.332 -0.149361 0.0618673 -1.332 -0.0808335 -6.16908e-16 -1.332 -0.0571579 -0.0571579 -1.332 5.61431e-16 -0.0808335 -1.332 0.0618673 -0.149361 -1.332 0.12125 -0.210012 -1.332 -0.171474 0.171474 -1.332 -0.114316 0.114316 -1.332 -0.0571579 0.0571579 -1.332 4.58964e-16 -4.5592e-16 -1.332 0.0571579 -0.0571579 -1.332 0.114316 -0.114316 -1.332 0.171474 -0.171474 -1.332 -0.12125 0.210012 -1.332 -0.0618673 0.149361 -1.332 2.31382e-16 0.0808335 -1.332 0.0571579 0.0571579 -1.332 0.0808335 -3.19725e-16 -1.332 0.149361 -0.0618673 -1.332 0.210012 -0.12125 -1.332 -0.0627638 0.234238 -1.332 9.76337e-17 0.161667 -1.332 0.0618673 0.149361 -1.332 0.114316 0.114316 -1.332 0.149361 0.0618673 -1.332 0.161667 -1.61291e-16 -1.332 0.234238 -0.0627638 -1.332 -9.57577e-17 0.242501 -1.332 0.0627638 0.234238 -1.332 0.12125 0.210012 -1.332 0.171474 0.171474 -1.332 0.210012 0.12125 -1.332 0.234238 0.0627638 -1.332 0.242501 -1.30057e-17 -1.332
        </DataArray>
      </PointData>
      <CellData>
        <DataArray type="Float32" Name="stress_zz" NumberOfComponents="1" format="ascii">
          27.7589 27.7589 27.7589 27.7589 27.7589 27.7589 27.7589 27.7589 27.7589 27.7589 27.7589 27.7589 27.7589 27.7589 27.7589 27.7589 27.7589 27.7589 27.7589 27.7589 27.7589 27.7589 27.7589 27.7589 27.7589 27.7589 27.7589 27.7589 27.7589 27.7589 27.7589 27.7589 27.7589 27.7589 27.7589 27.7589 27.7589 27.7589 27.7589 27.7589 27.7589 27.7589 27.7589 27.7589 27.7589 27.7589 27.7589 27.7589 27.7589 27.7589 27.7589 27.7589 27.7589 27.7589 27.7589 27.7589 27.7589 27.7589 27.7589 27.7589 27.7589 27.7589 27.7589 27.7589 27.7589 27.7589 27.7589 27.7589 27.7589 27.7589 27.7589 27.7589 27.7589 27.7589 27.7589 27.7589 27.7589 27.7589 27.7589 27.7589 27.7589 27.7589 27.7589 27.7589 27.7589 27.7589 27.7589 27.7589 27.7589 27.7589 27.7589 27.7589 27.7589 27.7589 27.7589 27.7589 27.7589 27.7589 27.7589 27.7589 27.7589 27.7589 27.7589 27.7589 27.7589 27.7589 27.7589 27.7589 27.7589 27.7589 27.7589 27.7589 27.7589 27.7589 27.7589 27.7589 27.7589 27.7589 27.7589 27.7589 27.7589 27.7589 27.7589 27.7589 27.7589 27.7589 27.7589 27.7589 27.7589 27.7589 27.7589 27.7589 27.7589 27.7589 27.7589 27.7589 27.7589 27.7589 27.7589 27.7589 27.7589 27.7589 27.7589 27.7589 27.7589 27.7589 27.7589 27.7589 27.7589 27.7589 27.7589 27.7589 27.7589 27.7589 27.7589 27.7589 27.7589 27.7589 27.7589 27.7589 27.7589 27.7589 27.7589 27.7589 27.7589 27.7589 27.7589 27.7589 27.7589 27.7589 27.7589 27.7589 27.7589 27.7589 27.7589 27.7589 27.7589 27.7589 27.7589 27.7589 27.7589 27.7589 27.7589 27.7589 27.7589 27.7589 27.7589 27.7589 27.7589 27.7589 27.7589 27.7589 27.7589 27.7589 27.7589 27.7589 27.7589 27.7589 27.7589 27.7589 27.7589 27.7589 27.7589 27.7589 27.7589 27.7589 27.7589 27.7589 27.7589 27.7589 27.7589 27.7589 27.7589 27.7589 27.7589 27.7589 27.7589 27.7589 27.7589 27.7589 27.7589 27.7589 27.7589 27.7589 27.7589 27.7589 27.7589 27.7589 27.7589 27.7589 27.7589 27.7589 27.7589 27.7589 27.7589 27.7589 27.7589 27.7589 27.7589 27.7589 27.7589 27.7589 27.7589 27.7589 27.7589 27.7589 27.7589 27.7589 27.7589 27.7589 27.7589 27.7589 27.7589 27.7589 27.7589 27.7589 27.7589 27.7589 27.7589 27.7589 27.7589 27.7589 27.7589 27.7589 27.7589 27.7589 27.7589 27.7589 27.7589 27.7589 27.7589 27.7589 27.7589 27.7589 27.7589 27.7589 27.7589 27.7589 27.7589 27.7589 27.7589 27.7589 27.7589 27.7589 27.7589 27.7589 27.7589 27.7589
        </DataArray>
        <DataArray type="Float32" Name="deviatoric_strain" NumberOfComponents="1" format="ascii">
          0.00448421 0.00448421 0.00448421 0.00448421 0.00448421 0.00448421 0.00448421 0.00448421 0.00448421 0.00448421 0.00448421 0.00448421 0.00448421 0.00448421 0.00448421 0.00448421 0.00448421 0.00448421 0.00448421 0.00448421 0.00448421 0.00448421 0.00448421 0.00448421 0.00448421 0.00448421 0.00448421 0.00448421 0.00448421 0.00448421 0.00448421 0.00448421 0.00448421 0.00448421 0.00448421 0.00448421 0.00448421 0.00448421 0.00448421 0.00448421 0.00448421 0.00448421 0.00448421 0.00448421 0.00448421 0.00448421 0.00448421 0.00448421 0.00448421 0.00448421 0.00448421 0.00448421 0.00448421 0.00448421 0.00448421 0.00448421 0.00448421 0.00448421 0.00448421 0.00448421 0.00448421 0.00448421 0.00448421 0.00448421 0.00448421 0.00448421 0.00448421 0.00448421 0.00448421 0.00448421 0.00448421 0.00448421 0.00448421 0.00448421 0.00448421 0.00448421 0.00448421 0.00448421 0.00448421 0.00448421 0.00448421 0.00448421 0.00448421 0.00448421 0.00448421 0.00448421 0.00448421 0.00448421 0.00448421 0.00448421 0.00448421 0.00448421 0.00448421 0.00448421 0.00448421 0.00448421 0.00448421 0.00448421 0.00448421 0.00448421 0.00448421 0.00448421 0.00448421 0.00448421 0.00448421 0.00448421 0.00448421 0.00448421 0.00448421 0.00448421 0.00448421 0.00448421 0.00448421 0.00448421 0.00448421 0.00448421 0.00448421 0.00448421 0.00448421 0.00448421 0.00448421 0.00448421 0.00448421 0.00448421 0.00448421 0.00448421 0.00448421 0.00448421 0.00448421 0.00448421 0.00448421 0.00448421 0.00448421 0.00448421 0.00448421 0.00448421 0.00448421 0.00448421 0.00448421 0.00448421 0.00448421 0.00448421 0.00448421 0.00448421 0.00448421 0.00448421 0.00448421 0.00448421 0.00448421 0.00448421 0.00448421 0.00448421 0.00448421 0.00448421 0.00448421 0.00448421 0.00448421 0.00448421 0.00448421 0.00448421 0.00448421 0.00448421 0.00448421 0.00448421 0.00448421 0.00448421 0.00448421 0.00448421 0.00448421 0.00448421 0.00448421 0.00448421 0.00448421 0.00448421 0.00448421 0.00448421 0.00448421 0.00448421 0.00448421 0.00448421 0.00448421 0.00448421 0.00448421 0.00448421 0.00448421 0.00448421 0.00448421 0.00448421 0.00448421 0.00448421 0.00448421 0.00448421 0.00448421 0.00448421 0.00448421 0.00448421 0.00448421 0.00448421 0.00448421 0.00448421 0.00448421 0.00448421 0.00448421 0.00448421 0.00448421 0.00448421 0.00448421 0.00448421 0.00448421 0.00448421 0.00448421 0.00448421 0.00448421 0.00448421 0.00448421 0.00448421 0.00448421 0.00448421 0.00448421 0.00448421 0.00448421 0.00448421 0.00448421 0.00448421 0.00448421 0.00448421 0.00448421 0.00448421 0.00448421 0.00448421 0.00448421 0.00448421 0.00448421 0.00448421 0.00448421 0.00448421 0.00448421 0.00448421 0.00448421 0.00448421 0.00448421 0.00448421 0.00448421 0.00448421 0.00448421 0.00448421 0.00448421 0.00448421 0.00448421 0.00448421 0.00448421 0.00448421 0.00448421 0.00448421 0.00448421 0.00448421 0.00448421 0.00448421 0.00448421 0.00448421 0.00448421 0.00448421 0.00448421 0.00448421 0.00448421 0.00448421 0.00448421 0.00448421 0.00448421 0.00448421 0.00448421 0.00448421 0.00448421 0.00448421 0.00448421 0.00448421 0.00448421 0.00448421 0.00448421 0.00448421 0.00448421 0.00448421 0.00448421 0.00448421 0.00448421 0.00448421 0.00448421 0.00448421
        </DataArray>
      </CellData>
    </Piece>
  </UnstructuredGrid>
</VTKFile>
