<?xml version="1.0"?>
<VTKFile type="UnstructuredGrid" version="0.1" byte_order="LittleEndian">
  <UnstructuredGrid>
    <Piece NumberOfPoints="441" NumberOfCells="288">
      <Points>
        <DataArray type="Float32" NumberOfComponents="3" format="ascii">
          -53.8611 -53.033 0 -38.2998 -65.1662 0 -20.1285 -72.8585 0 -0.585516 -75.5855 0 18.9974 -73.1615 0 37.2857 -65.7517 0 53.033 -53.8611 0 -65.7517 -37.2857 0 -35.9074 -35.3553 0 -19.6442 -46.4052 0 -0.390344 -50.3903 0 18.9229 -46.704 0 35.3553 -35.9074 0 65.1662 -38.2998 0 -73.1615 -18.9974 0 -46.704 -18.9229 0 -17.9537 -17.6777 0 -0.195172 -25.1952 0 17.6777 -17.9537 0 46.4052 -19.6442 0 72.8585 -20.1285 0 -75.5855 0.585516 0 -50.3903 0.390344 0 -25.1952 0.195172 0 0 0 0 25.1952 -0.195172 0 50.3903 -0.390344 0 75.5855 -0.585516 0 -72.8585 20.1285 0 -46.4052 19.6442 0 -17.6777 17.9537 0 0.195172 25.1952 0 17.9537 17.6777 0 46.704 18.9229 0 73.1615 18.9974 0 -65.1662 38.2998 0 -35.3553 35.9074 0 -18.9229 46.704 0 0.390344 50.3903 0 19.6442 46.4052 0 35.9074 35.3553 0 65.7517 37.2857 0 -53.033 53.8611 0 -37.2857 65.7517 0 -18.9974 73.1615 0 0.585516 75.5855 0 20.1285 72.8585 0 38.2998 65.1662 0 53.8611 53.033 0 -53.8611 -53.033 36.816 -38.2998 -65.1662 36.816 -20.1285 -72.8585 36.816 -0.585516 -75.5855 36.816 18.9974 -73.1615 36.816 37.2857 -65.7517 36.816 53.033 -53.8611 36.816 -65.7517 -37.2857 36.816 -35.9074 -35.3553 36.816 -19.6442 -46.4052 36.816 -0.390344 -50.3903 36.816 18.9229 -46.704 36.816 35.3553 -35.9074 36.816 65.1662 -38.2998 36.816 -73.1615 -18.9974 36.816 -46.704 -18.9229 36.816 -17.9537 -17.6777 36.816 -0.195172 -25.1952 36.816 17.6777 -17.9537 36.816 46.4052 -19.6442 36.816 72.8585 -20.1285 36.816 -75.5855 0.585516 36.816 -50.3903 0.390344 36.816 -25.1952 0.195172 36.816 -1.17328e-16 -1.08486e-17 36.816 25.1952 -0.195172 36.816 50.3903 -0.390344 36.816 75.5855 -0.585516 36.816 -72.8585 20.1285 36.816 -46.4052 19.6442 36.816 -17.6777 17.9537 36.816 0.195172 25.1952 36.816 17.9537 17.6777 36.816 46.704 18.9229 36.816 73.1615 18.9974 36.816 -65.1662 38.2998 36.816 -35.3553 35.9074 36.816 -18.9229 46.704 36.816 0.390344 50.3903 36.816 19.6442 46.4052 36.816 35.9074 35.3553 36.816 65.7517 37.2857 36.816 -53.033 53.8611 36.816 -37.2857 65.7517 36.816 -18.9974 73.1615 36.816 0.585516 75.5855 36.816 20.1285 72.8585 36.816 38.2998 65.1662 36.816 53.8611 53.033 36.816 -53.8611 -53.033 73.632 -38.2998 -65.1662 73.632 -20.1285 -72.8585 73.632 -0.585516 -75.5855 73.632 18.9974 -73.1615 73.632 37.2857 -65.7517 73.632 53.033 -53.8611 73.632 -65.7517 -37.2857 73.632 -35.9074 -35.3553 73.632 -19.6442 -46.4052 73.632 -0.390344 -50.3903 73.632 18.9229 -46.704 73.632 35.3553 -35.9074 73.632 65.1662 -38.2998 73.632 -73.1615 -18.9974 73.632 -46.704 -18.9229 73.632 -17.9537 -17.6777 73.632 -0.195172 -25.1952 73.632 17.6777 -17.9537 73.632 46.4052 -19.6442 73.632 72.8585 -20.1285 73.632 -75.5855 0.585516 73.632 -50.3903 0.390344 73.632 -25.1952 0.195172 73.632 -3.88679e-16 3.33846e-17 73.632 25.1952 -0.195172 73.632 50.3903 -0.390344 73.632 75.5855 -0.585516 73.632 -72.8585 20.1285 73.632 -46.4052 19.6442 73.632 -17.6777 17.9537 73.632 0.195172 25.1952 73.632 17.9537 17.6777 73.632 46.704 18.9229 73.632 73.1615 18.9974 73.632 -65.1662 38.2998 73.632 -35.3553 35.9074 73.632 -18.9229 46.704 73.632 0.390344 50.3903 73.632 19.6442 46.4052 73.632 35.9074 35.3553 73.632 65.7517 37.2857 73.632 -53.033 53.8611 73.632 -37.2857 65.7517 73.632 -18.9974 73.1615 73.632 0.585516 75.5855 73.632 20.1285 72.8585 73.632 38.2998 65.1662 73.632 53.8611 53.033 73.632 -53.8611 -53.033 110.448 -38.2998 -65.1662 110.448 -20.1285 -72.8585 110.448 -0.585516 -75.5855 110.448 18.9974 -73.1615 110.448 37.2857 -65.7517 110.448 53.033 -53.8611 110.448 -65.7517 -37.2857 110.448 -35.9074 -35.3553 110.448 -19.6442 -46.4052 110.448 -0.390344 -50.3903 110.448 18.9229 -46.704 110.448 35.3553 -35.9074 110.448 65.1662 -38.2998 110.448 -73.1615 -18.9974 110.448 -46.704 -18.9229 110.448 -17.9537 -17.6777 110.448 -0.195172 -25.1952 110.448 17.6777 -17.9537 110.448 46.4052 -19.6442 110.448 72.8585 -20.1285 110.448 -75.5855 0.585516 110.448 -50.3903 0.390344 110.448 -25.1952 0.195172 110.448 -8.37085e-16 1.03875e-17 110.448 25.1952 -0.195172 110.448 50.3903 -0.390344 110.448 75.5855 -0.585516 110.448 -72.8585 20.1285 110.448 -46.4052 19.6442 110.448 -17.6777 17.9537 110.448 0.195172 25.1952 110.448 17.9537 17.6777 110.448 46.704 18.9229 110.448 73.1615 18.9974 110.448 -65.1662 38.2998 110.448 -35.3553 35.9074 110.448 -18.9229 46.704 110.448 0.390344 50.3903 110.448 19.6442 46.4052 110.448 35.9074 35.3553 110.448 65.7517 37.2857 110.448 -53.033 53.8611 110.448 -37.2857 65.7517 110.448 -18.9974 73.1615 110.448 0.585516 75.5855 110.448 20.1285 72.8585 110.448 38.2998 65.1662 110.448 53.8611 53.033 110.448 -53.8611 -53.033 147.264 -38.2998 -65.1662 147.264 -20.1285 -72.8585 147.264 -0.585516 -75.5855 147.264 18.9974 -73.1615 147.264 37.2857 -65.7517 147.264 53.033 -53.8611 147.264 -65.7517 -37.2857 147.264 -35.9074 -35.3553 147.264 -19.6442 -46.4052 147.264 -0.390344 -50.3903 147.264 18.9229 -46.704 147.264 35.3553 -35.9074 147.264 65.1662 -38.2998 147.264 -73.1615 -18.9974 147.264 -46.704 -18.9229 147.264 -17.9537 -17.6777 147.264 -0.195172 -25.1952 147.264 17.6777 -17.9537 147.264 46.4052 -19.6442 147.264 72.8585 -20.1285 147.264 -75.5855 0.585516 147.264 -50.3903 0.390344 147.264 -25.1952 0.195172 147.264 -1.22263e-15 -3.2899e-17 147.264 25.1952 -0.195172 147.264 50.3903 -0.390344 147.264 75.5855 -0.585516 147.264 -72.8585 20.1285 147.264 -46.4052 19.6442 147.264 -17.6777 17.9537 147.264 0.195172 25.1952 147.264 17.9537 17.6777 147.264 46.704 18.9229 147.264 73.1615 18.9974 147.264 -65.1662 38.2998 147.264 -35.3553 35.9074 147.264 -18.9229 46.704 147.264 0.390344 50.3903 147.264 19.6442 46.4052 147.264 35.9074 35.3553 147.264 65.7517 37.2857 147.264 -53.033 53.8611 147.264 -37.2857 65.7517 147.264 -18.9974 73.1615 147.264 0.585516 75.5855 147.264 20.1285 72.8585 147.264 38.2998 65.1662 147.264 53.8611 53.033 147.264 -53.8611 -53.033 184.08 -38.2998 -65.1662 184.08 -20.1285 -72.8585 184.08 -0.585516 -75.5855 184.08 18.9974 -73.1615 184.08 37.2857 -65.7517 184.08 53.033 -53.8611 184.08 -65.7517 -37.2857 184.08 -35.9074 -35.3553 184.08 -19.6442 -46.4052 184.08 -0.390344 -50.3903 184.08 18.9229 -46.704 184.08 35.3553 -35.9074 184.08 65.1662 -38.2998 184.08 -73.1615 -18.9974 184.08 -46.704 -18.9229 184.08 -17.9537 -17.6777 184.08 -0.195172 -25.1952 184.08 17.6777 -17.9537 184.08 46.4052 -19.6442 184.08 72.8585 -20.1285 184.08 -75.5855 0.585516 184.08 -50.3903 0.390344 184.08 -25.1952 0.195172 184.08 -1.68186e-15 -1.10879e-16 184.08 25.1952 -0.195172 184.08 50.3903 -0.390344 184.08 75.5855 -0.585516 184.08 -72.8585 20.1285 184.08 -46.4052 19.6442 184.08 -17.6777 17.9537 184.08 0.195172 25.1952 184.08 17.9537 17.6777 184.08 46.704 18.9229 184.08 73.1615 18.9974 184.08 -65.1662 38.2998 184.08 -35.3553 35.9074 184.08 -18.9229 46.704 184.08 0.390344 50.3903 184.08 19.6442 46.4052 184.08 35.9074 35.3553 184.08 65.7517 37.2857 184.08 -53.033 53.8611 184.08 -37.2857 65.7517 184.08 -18.9974 73.1615 184.08 0.585516 75.5855 184.08 20.1285 72.8585 184.08 38.2998 65.1662 184.08 53.8611 53.033 184.08 -53.8611 -53.033 220.896 -38.2998 -65.1662 220.896 -20.1285 -72.8585 220.896 -0.585516 -75.5855 220.896 18.9974 -73.1615 220.896 37.2857 -65.7517 220.896 53.033 -53.8611 220.896 -65.7517 -37.2857 220.896 -35.9074 -35.3553 220.896 -19.6442 -46.4052 220.896 -0.390344 -50.3903 220.896 18.9229 -46.704 220.896 35.3553 -35.9074 220.896 65.1662 -38.2998 220.896 -73.1615 -18.9974 220.896 -46.704 -18.9229 220.896 -17.9537 -17.6777 220.896 -0.195172 -25.1952 220.896 17.6777 -17.9537 220.896 46.4052 -19.6442 220.896 72.8585 -20.1285 220.896 -75.5855 0.585516 220.896 -50.3903 0.390344 220.896 -25.1952 0.195172 220.896 -1.76927e-15 -2.57928e-16 220.896 25.1952 -0.195172 220.896 50.3903 -0.390344 220.896 75.5855 -0.585516 220.896 -72.8585 20.1285 220.896 -46.4052 19.6442 220.896 -17.6777 17.9537 220.896 0.195172 25.1952 220.896 17.9537 17.6777 220.896 46.704 18.9229 220.896 73.1615 18.9974 220.896 -65.1662 38.2998 220.896 -35.3553 35.9074 220.896 -18.9229 46.704 220.896 0.390344 50.3903 220.896 19.6442 46.4052 220.896 35.9074 35.3553 220.896 65.7517 37.2857 220.896 -53.033 53.8611 220.896 -37.2857 65.7517 220.896 -18.9974 73.1615 220.896 0.585516 75.5855 220.896 20.1285 72.8585 220.896 38.2998 65.1662 220.896 53.8611 53.033 220.896 -53.8611 -53.033 257.712 -38.2998 -65.1662 257.712 -20.1285 -72.8585 257.712 -0.585516 -75.5855 257.712 18.9974 -73.1615 257.712 37.2857 -65.7517 257.712 53.033 -53.8611 257.712 -65.7517 -37.2857 257.712 -35.9074 -35.3553 257.712 -19.6442 -46.4052 257.712 -0.390344 -50.3903 257.712 18.9229 -46.704 257.712 35.3553 -35.9074 257.712 65.1662 -38.2998 257.712 -73.1615 -18.9974 257.712 -46.704 -18.9229 257.712 -17.9537 -17.6777 257.712 -0.195172 -25.1952 257.712 17.6777 -17.9537 257.712 46.4052 -19.6442 257.712 72.8585 -20.1285 257.712 -75.5855 0.585516 257.712 -50.3903 0.390344 257.712 -25.1952 0.195172 257.712 -1.9771e-15 -4.90939e-16 257.712 25.1952 -0.195172 257.712 50.3903 -0.390344 257.712 75.5855 -0.585516 257.712 -72.8585 20.1285 257.712 -46.4052 19.6442 257.712 -17.6777 17.9537 257.712 0.195172 25.1952 257.712 17.9537 17.6777 257.712 46.704 18.9229 257.712 73.1615 18.9974 257.712 -65.1662 38.2998 257.712 -35.3553 35.9074 257.712 -18.9229 46.704 257.712 0.390344 50.3903 257.712 19.6442 46.4052 257.712 35.9074 35.3553 257.712 65.7517 37.2857 257.712 -53.033 53.8611 257.712 -37.2857 65.7517 257.712 -18.9974 73.1615 257.712 0.585516 75.5855 257.712 20.1285 72.8585 257.712 38.2998 65.1662 257.712 53.8611 53.033 257.712 -53.8611 -53.033 294.528 -38.2998 -65.1662 294.528 -20.1285 -72.8585 294.528 -0.585516 -75.5855 294.528 18.9974 -73.1615 294.528 37.2857 -65.7517 294.528 53.033 -53.8611 294.528 -65.7517 -37.2857 294.528 -35.9074 -35.3553 294.528 -19.6442 -46.4052 294.528 -0.390344 -50.3903 294.528 18.9229 -46.704 294.528 35.3553 -35.9074 294.528 65.1662 -38.2998 294.528 -73.1615 -18.9974 294.528 -46.704 -18.9229 294.528 -17.9537 -17.6777 294.528 -0.195172 -25.1952 294.528 17.6777 -17.9537 294.528 46.4052 -19.6442 294.528 72.8585 -20.1285 294.528 -75.5855 0.585516 294.528 -50.3903 0.390344 294.528 -25.1952 0.195172 294.528 -1.94487e-15 -2.6408e-16 294.528 25.1952 -0.195172 294.528 50.3903 -0.390344 294.528 75.5855 -0.585516 294.528 -72.8585 20.1285 294.528 -46.4052 19.6442 294.528 -17.6777 17.9537 294.528 0.195172 25.1952 294.528 17.9537 17.6777 294.528 46.704 18.9229 294.528 73.1615 18.9974 294.528 -65.1662 38.2998 294.528 -35.3553 35.9074 294.528 -18.9229 46.704 294.528 0.390344 50.3903 294.528 19.6442 46.4052 294.528 35.9074 35.3553 294.528 65.7517 37.2857 294.528 -53.033 53.8611 294.528 -37.2857 65.7517 294.528 -18.9974 73.1615 294.528 0.585516 75.5855 294.528 20.1285 72.8585 294.528 38.2998 65.1662 294.528 53.8611 53.033 294.528
        </DataArray>
      </Points>
      <Cells>
        <DataArray type="Int32" Name="connectivity" format="ascii">
          0 1 8 7 49 50 57 56 1 2 9 8 50 51 58 57 2 3 10 9 51 52 59 58 3 4 11 10 52 53 60 59 4 5 12 11 53 54 61 60 5 6 13 12 54 55 62 61 7 8 15 14 56 57 64 63 8 9 16 15 57 58 65 64 9 10 17 16 58 59 66 65 10 11 18 17 59 60 67 66 11 12 19 18 60 61 68 67 12 13 20 19 61 62 69 68 14 15 22 21 63 64 71 70 15 16 23 22 64 65 72 71 16 17 24 23 65 66 73 72 17 18 25 24 66 67 74 73 18 19 26 25 67 68 75 74 19 20 27 26 68 69 76 75 21 22 29 28 70 71 78 77 22 23 30 29 71 72 79 78 23 24 31 30 72 73 80 79 24 25 32 31 73 74 81 80 25 26 33 32 74 75 82 81 26 27 34 33 75 76 83 82 28 29 36 35 77 78 85 84 29 30 37 36 78 79 86 85 30 31 38 37 79 80 87 86 31 32 39 38 80 81 88 87 32 33 40 39 81 82 89 88 33 34 41 40 82 83 90 89 35 36 43 42 84 85 92 91 36 37 44 43 85 86 93 92 37 38 45 44 86 87 94 93 38 39 46 45 87 88 95 94 39 40 47 46 88 89 96 95 40 41 48 47 89 90 97 96 49 50 57 56 98 99 106 105 50 51 58 57 99 100 107 106 51 52 59 58 100 101 108 107 52 53 60 59 101 102 109 108 53 54 61 60 102 103 110 109 54 55 62 61 103 104 111 110 56 57 64 63 105 106 113 112 57 58 65 64 106 107 114 113 58 59 66 65 107 108 115 114 59 60 67 66 108 109 116 115 60 61 68 67 109 110 117 116 61 62 69 68 110 111 118 117 63 64 71 70 112 113 120 119 64 65 72 71 113 114 121 120 65 66 73 72 114 115 122 121 66 67 74 73 115 116 123 122 67 68 75 74 116 117 124 123 68 69 76 75 117 118 125 124 70 71 78 77 119 120 127 126 71 72 79 78 120 121 128 127 72 73 80 79 121 122 129 128 73 74 81 80 122 123 130 129 74 75 82 81 123 124 131 130 75 76 83 82 124 125 132 131 77 78 85 84 126 127 134 133 78 79 86 85 127 128 135 134 79 80 87 86 128 129 136 135 80 81 88 87 129 130 137 136 81 82 89 88 130 131 138 137 82 83 90 89 131 132 139 138 84 85 92 91 133 134 141 140 85 86 93 92 134 135 142 141 86 87 94 93 135 136 143 142 87 88 95 94 136 137 144 143 88 89 96 95 137 138 145 144 89 90 97 96 138 139 146 145 98 99 106 105 147 148 155 154 99 100 107 106 148 149 156 155 100 101 108 107 149 150 157 156 101 102 109 108 150 151 158 157 102 103 110 109 151 152 159 158 103 104 111 110 152 153 160 159 105 106 113 112 154 155 162 161 106 107 114 113 155 156 163 162 107 108 115 114 156 157 164 163 108 109 116 115 157 158 165 164 109 110 117 116 158 159 166 165 110 111 118 117 159 160 167 166 112 113 120 119 161 162 169 168 113 114 121 120 162 163 170 169 114 115 122 121 163 164 171 170 115 116 123 122 164 165 172 171 116 117 124 123 165 166 173 172 117 118 125 124 166 167 174 173 119 120 127 126 168 169 176 175 120 121 128 127 169 170 177 176 121 122 129 128 170 171 178 177 122 123 130 129 171 172 179 178 123 124 131 130 172 173 180 179 124 125 132 131 173 174 181 180 126 127 134 133 175 176 183 182 127 128 135 134 176 177 184 183 128 129 136 135 177 178 185 184 129 130 137 136 178 179 186 185 130 131 138 137 179 180 187 186 131 132 139 138 180 181 188 187 133 134 141 140 182 183 190 189 134 135 142 141 183 184 191 190 135 136 143 142 184 185 192 191 136 137 144 143 185 186 193 192 137 138 145 144 186 187 194 193 138 139 146 145 187 188 195 194 147 148 155 154 196 197 204 203 148 149 156 155 197 198 205 204 149 150 157 156 198 199 206 205 150 151 158 157 199 200 207 206 151 152 159 158 200 201 208 207 152 153 160 159 201 202 209 208 154 155 162 161 203 204 211 210 155 156 163 162 204 205 212 211 156 157 164 163 205 206 213 212 157 158 165 164 206 207 214 213 158 159 166 165 207 208 215 214 159 160 167 166 208 209 216 215 161 162 169 168 210 211 218 217 162 163 170 169 211 212 219 218 163 164 171 170 212 213 220 219 164 165 172 171 213 214 221 220 165 166 173 172 214 215 222 221 166 167 174 173 215 216 223 222 168 169 176 175 217 218 225 224 169 170 177 176 218 219 226 225 170 171 178 177 219 220 227 226 171 172 179 178 220 221 228 227 172 173 180 179 221 222 229 228 173 174 181 180 222 223 230 229 175 176 183 182 224 225 232 231 176 177 184 183 225 226 233 232 177 178 185 184 226 227 234 233 178 179 186 185 227 228 235 234 179 180 187 186 228 229 236 235 180 181 188 187 229 230 237 236 182 183 190 189 231 232 239 238 183 184 191 190 232 233 240 239 184 185 192 191 233 234 241 240 185 186 193 192 234 235 242 241 186 187 194 193 235 236 243 242 187 188 195 194 236 237 244 243 196 197 204 203 245 246 253 252 197 198 205 204 246 247 254 253 198 199 206 205 247 248 255 254 199 200 207 206 248 249 256 255 200 201 208 207 249 250 257 256 201 202 209 208 250 251 258 257 203 204 211 210 252 253 260 259 204 205 212 211 253 254 261 260 205 206 213 212 254 255 262 261 206 207 214 213 255 256 263 262 207 208 215 214 256 257 264 263 208 209 216 215 257 258 265 264 210 211 218 217 259 260 267 266 211 212 219 218 260 261 268 267 212 213 220 219 261 262 269 268 213 214 221 220 262 263 270 269 214 215 222 221 263 264 271 270 215 216 223 222 264 265 272 271 217 218 225 224 266 267 274 273 218 219 226 225 267 268 275 274 219 220 227 226 268 269 276 275 220 221 228 227 269 270 277 276 221 222 229 228 270 271 278 277 222 223 230 229 271 272 279 278 224 225 232 231 273 274 281 280 225 226 233 232 274 275 282 281 226 227 234 233 275 276 283 282 227 228 235 234 276 277 284 283 228 229 236 235 277 278 285 284 229 230 237 236 278 279 286 285 231 232 239 238 280 281 288 287 232 233 240 239 281 282 289 288 233 234 241 240 282 283 290 289 234 235 242 241 283 284 291 290 235 236 243 242 284 285 292 291 236 237 244 243 285 286 293 292 245 246 253 252 294 295 302 301 246 247 254 253 295 296 303 302 247 248 255 254 296 297 304 303 248 249 256 255 297 298 305 304 249 250 257 256 298 299 306 305 250 251 258 257 299 300 307 306 252 253 260 259 301 302 309 308 253 254 261 260 302 303 310 309 254 255 262 261 303 304 311 310 255 256 263 262 304 305 312 311 256 257 264 263 305 306 313 312 257 258 265 264 306 307 314 313 259 260 267 266 308 309 316 315 260 261 268 267 309 310 317 316 261 262 269 268 310 311 318 317 262 263 270 269 311 312 319 318 263 264 271 270 312 313 320 319 264 265 272 271 313 314 321 320 266 267 274 273 315 316 323 322 267 268 275 274 316 317 324 323 268 269 276 275 317 318 325 324 269 270 277 276 318 319 326 325 270 271 278 277 319 320 327 326 271 272 279 278 320 321 328 327 273 274 281 280 322 323 330 329 274 275 282 281 323 324 331 330 275 276 283 282 324 325 332 331 276 277 284 283 325 326 333 332 277 278 285 284 326 327 334 333 278 279 286 285 327 328 335 334 280 281 288 287 329 330 337 336 281 282 289 288 330 331 338 337 282 283 290 289 331 332 339 338 283 284 291 290 332 333 340 339 284 285 292 291 333 334 341 340 285 286 293 292 334 335 342 341 294 295 302 301 343 344 351 350 295 296 303 302 344 345 352 351 296 297 304 303 345 346 353 352 297 298 305 304 346 347 354 353 298 299 306 305 347 348 355 354 299 300 307 306 348 349 356 355 301 302 309 308 350 351 358 357 302 303 310 309 351 352 359 358 303 304 311 310 352 353 360 359 304 305 312 311 353 354 361 360 305 306 313 312 354 355 362 361 306 307 314 313 355 356 363 362 308 309 316 315 357 358 365 364 309 310 317 316 358 359 366 365 310 311 318 317 359 360 367 366 311 312 319 318 360 361 368 367 312 313 320 319 361 362 369 368 313 314 321 320 362 363 370 369 315 316 323 322 364 365 372 371 316 317 324 323 365 366 373 372 317 318 325 324 366 367 374 373 318 319 326 325 367 368 375 374 319 320 327 326 368 369 376 375 320 321 328 327 369 370 377 376 322 323 330 329 371 372 379 378 323 324 331 330 372 373 380 379 324 325 332 331 373 374 381 380 325 326 333 332 374 375 382 381 326 327 334 333 375 376 383 382 327 328 335 334 376 377 384 383 329 330 337 336 378 379 386 385 330 331 338 337 379 380 387 386 331 332 339 338 380 381 388 387 332 333 340 339 381 382 389 388 333 334 341 340 382 383 390 389 334 335 342 341 383 384 391 390 343 344 351 350 392 393 400 399 344 345 352 351 393 394 401 400 345 346 353 352 394 395 402 401 346 347 354 353 395 396 403 402 347 348 355 354 396 397 404 403 348 349 356 355 397 398 405 404 350 351 358 357 399 400 407 406 351 352 359 358 400 401 408 407 352 353 360 359 401 402 409 408 353 354 361 360 402 403 410 409 354 355 362 361 403 404 411 410 355 356 363 362 404 405 412 411 357 358 365 364 406 407 414 413 358 359 366 365 407 408 415 414 359 360 367 366 408 409 416 415 360 361 368 367 409 410 417 416 361 362 369 368 410 411 418 417 362 363 370 369 411 412 419 418 364 365 372 371 413 414 421 420 365 366 373 372 414 415 422 421 366 367 374 373 415 416 423 422 367 368 375 374 416 417 424 423 368 369 376 375 417 418 425 424 369 370 377 376 418 419 426 425 371 372 379 378 420 421 428 427 372 373 380 379 421 422 429 428 373 374 381 380 422 423 430 429 374 375 382 381 423 424 431 430 375 376 383 382 424 425 432 431 376 377 384 383 425 426 433 432 378 379 386 385 427 428 435 434 379 380 387 386 428 429 436 435 380 381 388 387 429 430 437 436 381 382 389 388 430 431 438 437 382 383 390 389 431 432 439 438 383 384 391 390 432 433 440 439
        </DataArray>
        <DataArray type="Int32" Name="offsets" format="ascii">
          8 16 24 32 40 48 56 64 72 80 88 96 104 112 120 128 136 144 152 160 168 176 184 192 200 208 216 224 232 240 248 256 264 272 280 288 296 304 312 320 328 336 344 352 360 368 376 384 392 400 408 416 424 432 440 448 456 464 472 480 488 496 504 512 520 528 536 544 552 560 568 576 584 592 600 608 616 624 632 640 648 656 664 672 680 688 696 704 712 720 728 736 744 752 760 768 776 784 792 800 808 816 824 832 840 848 856 864 872 880 888 896 904 912 920 928 936 944 952 960 968 976 984 992 1000 1008 1016 1024 1032 1040 1048 1056 1064 1072 1080 1088 1096 1104 1112 1120 1128 1136 1144 1152 1160 1168 1176 1184 1192 1200 1208 1216 1224 1232 1240 1248 1256 1264 1272 1280 1288 1296 1304 1312 1320 1328 1336 1344 1352 1360 1368 1376 1384 1392 1400 1408 1416 1424 1432 1440 1448 1456 1464 1472 1480 1488 1496 1504 1512 1520 1528 1536 1544 1552 1560 1568 1576 1584 1592 1600 1608 1616 1624 1632 1640 1648 1656 1664 1672 1680 1688 1696 1704 1712 1720 1728 1736 1744 1752 1760 1768 1776 1784 1792 1800 1808 1816 1824 1832 1840 1848 1856 1864 1872 1880 1888 1896 1904 1912 1920 1928 1936 1944 1952 1960 1968 1976 1984 1992 2000 2008 2016 2024 2032 2040 2048 2056 2064 2072 2080 2088 2096 2104 2112 2120 2128 2136 2144 2152 2160 2168 2176 2184 2192 2200 2208 2216 2224 2232 2240 2248 2256 2264 2272 2280 2288 2296 2304
        </DataArray>
        <DataArray type="UInt8" Name="types" format="ascii">
          12 12 12 12 12 12 12 12 12 12 12 12 12 12 12 12 12 12 12 12 12 12 12 12 12 12 12 12 12 12 12 12 12 12 12 12 12 12 12 12 12 12 12 12 12 12 12 12 12 12 12 12 12 12 12 12 12 12 12 12 12 12 12 12 12 12 12 12 12 12 12 12 12 12 12 12 12 12 12 12 12 12 12 12 12 12 12 12 12 12 12 12 12 12 12 12 12 12 12 12 12 12 12 12 12 12 12 12 12 12 12 12 12 12 12 12 12 12 12 12 12 12 12 12 12 12 12 12 12 12 12 12 12 12 12 12 12 12 12 12 12 12 12 12 12 12 12 12 12 12 12 12 12 12 12 12 12 12 12 12 12 12 12 12 12 12 12 12 12 12 12 12 12 12 12 12 12 12 12 12 12 12 12 12 12 12 12 12 12 12 12 12 12 12 12 12 12 12 12 12 12 12 12 12 12 12 12 12 12 12 12 12 12 12 12 12 12 12 12 12 12 12 12 12 12 12 12 12 12 12 12 12 12 12 12 12 12 12 12 12 12 12 12 12 12 12 12 12 12 12 12 12 12 12 12 12 12 12 12 12 12 12 12 12 12 12 12 12 12 12 12 12 12 12 12 12 12 12 12 12 12 12 12 12 12 12 12 12
        </DataArray>
      </Cells>
      <PointData>
        <DataArray type="Float32" Name="displacement" NumberOfComponents="3" format="ascii">
          -0.103506 0 0 -0.0999787 -0.0267892 0 -0.0896384 -0.0517528 0 -0.0731895 -0.0731895 0 -0.0517528 -0.0896384 0 -0.0267892 -0.0999787 0 -3.81287e-17 -0.103506 0 -0.0999787 0.0267892 0 -0.0690037 8.44882e-18 0 -0.0637511 -0.0264066 0 -0.048793 -0.048793 0 -0.0264066 -0.0637511 0 -3.4455e-17 -0.0690037 0 0.0267892 -0.0999787 0 -0.0896384 0.0517528 0 -0.0637511 0.0264066 0 -0.0345019 1.06373e-17 0 -0.0243965 -0.0243965 0 -2.26279e-17 -0.0345019 0 0.0264066 -0.0637511 0 0.0517528 -0.0896384 0 -0.0731895 0.0731895 0 -0.048793 0.048793 0 -0.0243965 0.0243965 0 0 0 0 0.0243965 -0.0243965 0 0.048793 -0.048793 0 0.0731895 -0.0731895 0 -0.0517528 0.0896384 0 -0.0264066 0.0637511 0 5.98584e-18 0.0345019 0 0.0243965 0.0243965 0 0.0345019 -2.34646e-17 0 0.0637511 -0.0264066 0 0.0896384 -0.0517528 0 -0.0267892 0.0999787 0 2.58084e-17 0.0690037 0 0.0264066 0.0637511 0 0.048793 0.048793 0 0.0637511 0.0264066 0 0.0690037 -4.39055e-17 0 0.0999787 -0.0267892 0 2.90852e-17 0.103506 0 0.0267892 0.0999787 0 0.0517528 0.0896384 0 0.0731895 0.0731895 0 0.0896384 0.0517528 0 0.0999787 0.0267892 0 0.103506 -7.12716e-17 0 -0.103506 -1.02525e-17 -0.0855 -0.0999787 -0.0267892 -0.0855 -0.0896384 -0.0517528 -0.0855 -0.0731895 -0.0731895 -0.0855 -0.0517528 -0.0896384 -0.0855 -0.0267892 -0.0999787 -0.0855 -3.03991e-17 -0.103506 -0.0855 -0.0999787 0.0267892 -0.0855 -0.0690037 2.96655e-18 -0.0855 -0.0637511 -0.0264066 -0.0855 -0.048793 -0.048793 -0.0855 -0.0264066 -0.0637511 -0.0855 -3.42765e-17 -0.0690037 -0.0855 0.0267892 -0.0999787 -0.0855 -0.0896384 0.0517528 -0.0855 -0.0637511 0.0264066 -0.0855 -0.0345019 3.34753e-18 -0.0855 -0.0243965 -0.0243965 -0.0855 -2.83506e-17 -0.0345019 -0.0855 0.0264066 -0.0637511 -0.0855 0.0517528 -0.0896384 -0.0855 -0.0731895 0.0731895 -0.0855 -0.048793 0.048793 -0.0855 -0.0243965 0.0243965 -0.0855 -1.46661e-17 -1.35607e-18 -0.0855 0.0243965 -0.0243965 -0.0855 0.048793 -0.048793 -0.0855 0.0731895 -0.0731895 -0.0855 -0.0517528 0.0896384 -0.0855 -0.0264066 0.0637511 -0.0855 -1.40894e-17 0.0345019 -0.0855 0.0243965 0.0243965 -0.0855 0.0345019 -1.22481e-17 -0.0855 0.0637511 -0.0264066 -0.0855 0.0896384 -0.0517528 -0.0855 -0.0267892 0.0999787 -0.0855 3.28733e-18 0.0690037 -0.0855 0.0264066 0.0637511 -0.0855 0.048793 0.048793 -0.0855 0.0637511 0.0264066 -0.0855 0.0690037 -2.55793e-17 -0.0855 0.0999787 -0.0267892 -0.0855 -2.32729e-18 0.103506 -0.0855 0.0267892 0.0999787 -0.0855 0.0517528 0.0896384 -0.0855 0.0731895 0.0731895 -0.0855 0.0896384 0.0517528 -0.0855 0.0999787 0.0267892 -0.0855 0.103506 -4.58091e-17 -0.0855 -0.103506 -6.30979e-17 -0.171 -0.0999787 -0.0267892 -0.171 -0.0896384 -0.0517528 -0.171 -0.0731895 -0.0731895 -0.171 -0.0517528 -0.0896384 -0.171 -0.0267892 -0.0999787 -0.171 -4.61643e-18 -0.103506 -0.171 -0.0999787 0.0267892 -0.171 -0.0690037 -3.59138e-17 -0.171 -0.0637511 -0.0264066 -0.171 -0.048793 -0.048793 -0.171 -0.0264066 -0.0637511 -0.171 -2.23771e-17 -0.0690037 -0.171 0.0267892 -0.0999787 -0.171 -0.0896384 0.0517528 -0.171 -0.0637511 0.0264066 -0.171 -0.0345019 -1.15132e-17 -0.171 -0.0243965 -0.0243965 -0.171 -3.84097e-17 -0.0345019 -0.171 0.0264066 -0.0637511 -0.171 0.0517528 -0.0896384 -0.171 -0.0731895 0.0731895 -0.171 -0.048793 0.048793 -0.171 -0.0243965 0.0243965 -0.171 -4.85849e-17 4.17307e-18 -0.171 0.0243965 -0.0243965 -0.171 0.048793 -0.048793 -0.171 0.0731895 -0.0731895 -0.171 -0.0517528 0.0896384 -0.171 -0.0264066 0.0637511 -0.171 -6.54868e-17 0.0345019 -0.171 0.0243965 0.0243965 -0.171 0.0345019 1.1454e-17 -0.171 0.0637511 -0.0264066 -0.171 0.0896384 -0.0517528 -0.171 -0.0267892 0.0999787 -0.171 -7.35564e-17 0.0690037 -0.171 0.0264066 0.0637511 -0.171 0.048793 0.048793 -0.171 0.0637511 0.0264066 -0.171 0.0690037 2.16237e-17 -0.171 0.0999787 -0.0267892 -0.171 -8.60318e-17 0.103506 -0.171 0.0267892 0.0999787 -0.171 0.0517528 0.0896384 -0.171 0.0731895 0.0731895 -0.171 0.0896384 0.0517528 -0.171 0.0999787 0.0267892 -0.171 0.103506 2.83719e-17 -0.171 -0.103506 -1.38094e-16 -0.2565 -0.0999787 -0.0267892 -0.2565 -0.0896384 -0.0517528 -0.2565 -0.0731895 -0.0731895 -0.2565 -0.0517528 -0.0896384 -0.2565 -0.0267892 -0.0999787 -0.2565 5.96229e-17 -0.103506 -0.2565 -0.0999787 0.0267892 -0.2565 -0.0690037 -9.11528e-17 -0.2565 -0.0637511 -0.0264066 -0.2565 -0.048793 -0.048793 -0.2565 -0.0264066 -0.0637511 -0.2565 -3.77068e-18 -0.0690037 -0.2565 0.0267892 -0.0999787 -0.2565 -0.0896384 0.0517528 -0.2565 -0.0637511 0.0264066 -0.2565 -0.0345019 -4.47922e-17 -0.2565 -0.0243965 -0.0243965 -0.2565 -5.34439e-17 -0.0345019 -0.2565 0.0264066 -0.0637511 -0.2565 0.0517528 -0.0896384 -0.2565 -0.0731895 0.0731895 -0.2565 -0.048793 0.048793 -0.2565 -0.0243965 0.0243965 -0.2565 -1.04636e-16 1.29844e-18 -0.2565 0.0243965 -0.0243965 -0.2565 0.048793 -0.048793 -0.2565 0.0731895 -0.0731895 -0.2565 -0.0517528 0.0896384 -0.2565 -0.0264066 0.0637511 -0.2565 -1.53345e-16 0.0345019 -0.2565 0.0243965 0.0243965 -0.2565 0.0345019 4.3429e-17 -0.2565 0.0637511 -0.0264066 -0.2565 0.0896384 -0.0517528 -0.2565 -0.0267892 0.0999787 -0.2565 -1.83848e-16 0.0690037 -0.2565 0.0264066 0.0637511 -0.2565 0.048793 0.048793 -0.2565 0.0637511 0.0264066 -0.2565 0.0690037 9.75625e-17 -0.2565 0.0999787 -0.0267892 -0.2565 -2.33247e-16 0.103506 -0.2565 0.0267892 0.0999787 -0.2565 0.0517528 0.0896384 -0.2565 0.0731895 0.0731895 -0.2565 0.0896384 0.0517528 -0.2565 0.0999787 0.0267892 -0.2565 0.103506 1.38549e-16 -0.2565 -0.103506 -2.59518e-16 -0.342 -0.0999787 -0.0267892 -0.342 -0.0896384 -0.0517528 -0.342 -0.0731895 -0.0731895 -0.342 -0.0517528 -0.0896384 -0.342 -0.0267892 -0.0999787 -0.342 1.13598e-16 -0.103506 -0.342 -0.0999787 0.0267892 -0.342 -0.0690037 -1.71191e-16 -0.342 -0.0637511 -0.0264066 -0.342 -0.048793 -0.048793 -0.342 -0.0264066 -0.0637511 -0.342 2.06726e-17 -0.0690037 -0.342 0.0267892 -0.0999787 -0.342 -0.0896384 0.0517528 -0.342 -0.0637511 0.0264066 -0.342 -0.0345019 -8.21079e-17 -0.342 -0.0243965 -0.0243965 -0.342 -7.82857e-17 -0.0345019 -0.342 0.0264066 -0.0637511 -0.342 0.0517528 -0.0896384 -0.342 -0.0731895 0.0731895 -0.342 -0.048793 0.048793 -0.342 -0.0243965 0.0243965 -0.342 -1.52829e-16 -4.11238e-18 -0.342 0.0243965 -0.0243965 -0.342 0.048793 -0.048793 -0.342 0.0731895 -0.0731895 -0.342 -0.0517528 0.0896384 -0.342 -0.0264066 0.0637511 -0.342 -2.41114e-16 0.0345019 -0.342 0.0243965 0.0243965 -0.342 0.0345019 7.97357e-17 -0.342 0.0637511 -0.0264066 -0.342 0.0896384 -0.0517528 -0.342 -0.0267892 0.0999787 -0.342 -3.20632e-16 0.0690037 -0.342 0.0264066 0.0637511 -0.342 0.048793 0.048793 -0.342 0.0637511 0.0264066 -0.342 0.0690037 1.65888e-16 -0.342 0.0999787 -0.0267892 -0.342 -3.94087e-16 0.103506 -0.342 0.0267892 0.0999787 -0.342 0.0517528 0.0896384 -0.342 0.0731895 0.0731895 -0.342 0.0896384 0.0517528 -0.342 0.0999787 0.0267892 -0.342 0.103506 2.5426e-16 -0.342 -0.103506 -3.79753e-16 -0.4275 -0.0999787 -0.0267892 -0.4275 -0.0896384 -0.0517528 -0.4275 -0.0731895 -0.0731895 -0.4275 -0.0517528 -0.0896384 -0.4275 -0.0267892 -0.0999787 -0.4275 1.71847e-16 -0.103506 -0.4275 -0.0999787 0.0267892 -0.4275 -0.0690037 -2.60722e-16 -0.4275 -0.0637511 -0.0264066 -0.4275 -0.048793 -0.048793 -0.4275 -0.0264066 -0.0637511 -0.4275 4.3799e-17 -0.0690037 -0.4275 0.0267892 -0.0999787 -0.4275 -0.0896384 0.0517528 -0.4275 -0.0637511 0.0264066 -0.4275 -0.0345019 -1.4452e-16 -0.4275 -0.0243965 -0.0243965 -0.4275 -8.07808e-17 -0.0345019 -0.4275 0.0264066 -0.0637511 -0.4275 0.0517528 -0.0896384 -0.4275 -0.0731895 0.0731895 -0.4275 -0.048793 0.048793 -0.4275 -0.0243965 0.0243965 -0.4275 -2.10232e-16 -1.38599e-17 -0.4275 0.0243965 -0.0243965 -0.4275 0.048793 -0.048793 -0.4275 0.0731895 -0.0731895 -0.4275 -0.0517528 0.0896384 -0.4275 -0.0264066 0.0637511 -0.4275 -3.35913e-16 0.0345019 -0.4275 0.0243965 0.0243965 -0.4275 0.0345019 1.09016e-16 -0.4275 0.0637511 -0.0264066 -0.4275 0.0896384 -0.0517528 -0.4275 -0.0267892 0.0999787 -0.4275 -4.51785e-16 0.0690037 -0.4275 0.0264066 0.0637511 -0.4275 0.048793 0.048793 -0.4275 0.0637511 0.0264066 -0.4275 0.0690037 2.42328e-16 -0.4275 0.0999787 -0.0267892 -0.4275 -5.81164e-16 0.103506 -0.4275 0.0267892 0.0999787 -0.4275 0.0517528 0.0896384 -0.4275 0.0731895 0.0731895 -0.4275 0.0896384 0.0517528 -0.4275 0.0999787 0.0267892 -0.4275 0.103506 3.60051e-16 -0.4275 -0.103506 -5.10803e-16 -0.513 -0.0999787 -0.0267892 -0.513 -0.0896384 -0.0517528 -0.513 -0.0731895 -0.0731895 -0.513 -0.0517528 -0.0896384 -0.513 -0.0267892 -0.0999787 -0.513 2.40848e-16 -0.103506 -0.513 -0.0999787 0.0267892 -0.513 -0.0690037 -3.61052e-16 -0.513 -0.0637511 -0.0264066 -0.513 -0.048793 -0.048793 -0.513 -0.0264066 -0.0637511 -0.513 8.76954e-17 -0.0690037 -0.513 0.0267892 -0.0999787 -0.513 -0.0896384 0.0517528 -0.513 -0.0637511 0.0264066 -0.513 -0.0345019 -1.90981e-16 -0.513 -0.0243965 -0.0243965 -0.513 -6.42732e-17 -0.0345019 -0.513 0.0264066 -0.0637511 -0.513 0.0517528 -0.0896384 -0.513 -0.0731895 0.0731895 -0.513 -0.048793 0.048793 -0.513 -0.0243965 0.0243965 -0.513 -2.21158e-16 -3.2241e-17 -0.513 0.0243965 -0.0243965 -0.513 0.048793 -0.048793 -0.513 0.0731895 -0.0731895 -0.513 -0.0517528 0.0896384 -0.513 -0.0264066 0.0637511 -0.513 -3.89021e-16 0.0345019 -0.513 0.0243965 0.0243965 -0.513 0.0345019 1.28509e-16 -0.513 0.0637511 -0.0264066 -0.513 0.0896384 -0.0517528 -0.513 -0.0267892 0.0999787 -0.513 -5.32271e-16 0.0690037 -0.513 0.0264066 0.0637511 -0.513 0.048793 0.048793 -0.513 0.0637511 0.0264066 -0.513 0.0690037 2.94495e-16 -0.513 0.0999787 -0.0267892 -0.513 -6.7701e-16 0.103506 -0.513 0.0267892 0.0999787 -0.513 0.0517528 0.0896384 -0.513 0.0731895 0.0731895 -0.513 0.0896384 0.0517528 -0.513 0.0999787 0.0267892 -0.513 0.103506 4.77817e-16 -0.513 -0.103506 -5.65181e-16 -0.5985 -0.0999787 -0.0267892 -0.5985 -0.0896384 -0.0517528 -0.5985 -0.0731895 -0.0731895 -0.5985 -0.0517528 -0.0896384 -0.5985 -0.0267892 -0.0999787 -0.5985 3.05924e-16 -0.103506 -0.5985 -0.0999787 0.0267892 -0.5985 -0.0690037 -4.10661e-16 -0.5985 -0.0637511 -0.0264066 -0.5985 -0.048793 -0.048793 -0.5985 -0.0264066 -0.0637511 -0.5985 1.43487e-16 -0.0690037 -0.5985 0.0267892 -0.0999787 -0.5985 -0.0896384 0.0517528 -0.5985 -0.0637511 0.0264066 -0.5985 -0.0345019 -2.42683e-16 -0.5985 -0.0243965 -0.0243965 -0.5985 -5.85865e-17 -0.0345019 -0.5985 0.0264066 -0.0637511 -0.5985 0.0517528 -0.0896384 -0.5985 -0.0731895 0.0731895 -0.5985 -0.048793 0.048793 -0.5985 -0.0243965 0.0243965 -0.5985 -2.47138e-16 -6.13674e-17 -0.5985 0.0243965 -0.0243965 -0.5985 0.048793 -0.048793 -0.5985 0.0731895 -0.0731895 -0.5985 -0.0517528 0.0896384 -0.5985 -0.0264066 0.0637511 -0.5985 -4.34896e-16 0.0345019 -0.5985 0.0243965 0.0243965 -0.5985 0.0345019 1.4083e-16 -0.5985 0.0637511 -0.0264066 -0.5985 0.0896384 -0.0517528 -0.5985 -0.0267892 0.0999787 -0.5985 -6.04268e-16 0.0690037 -0.5985 0.0264066 0.0637511 -0.5985 0.048793 0.048793 -0.5985 0.0637511 0.0264066 -0.5985 0.0690037 3.32407e-16 -0.5985 0.0999787 -0.0267892 -0.5985 -7.81555e-16 0.103506 -0.5985 0.0267892 0.0999787 -0.5985 0.0517528 0.0896384 -0.5985 0.0731895 0.0731895 -0.5985 0.0896384 0.0517528 -0.5985 0.0999787 0.0267892 -0.5985 0.103506 5.0817e-16 -0.5985 -0.103506 -6.10318e-16 -0.684 -0.0999787 -0.0267892 -0.684 -0.0896384 -0.0517528 -0.684 -0.0731895 -0.0731895 -0.684 -0.0517528 -0.0896384 -0.684 -0.0267892 -0.0999787 -0.684 3.36129e-16 -0.103506 -0.684 -0.0999787 0.0267892 -0.684 -0.0690037 -3.97798e-16 -0.684 -0.0637511 -0.0264066 -0.684 -0.048793 -0.048793 -0.684 -0.0264066 -0.0637511 -0.684 1.55951e-16 -0.0690037 -0.684 0.0267892 -0.0999787 -0.684 -0.0896384 0.0517528 -0.684 -0.0637511 0.0264066 -0.684 -0.0345019 -2.26591e-16 -0.684 -0.0243965 -0.0243965 -0.684 -3.95644e-17 -0.0345019 -0.684 0.0264066 -0.0637511 -0.684 0.0517528 -0.0896384 -0.684 -0.0731895 0.0731895 -0.684 -0.048793 0.048793 -0.684 -0.0243965 0.0243965 -0.684 -2.43109e-16 -3.301e-17 -0.684 0.0243965 -0.0243965 -0.684 0.048793 -0.048793 -0.684 0.0731895 -0.0731895 -0.684 -0.0517528 0.0896384 -0.684 -0.0264066 0.0637511 -0.684 -4.63636e-16 0.0345019 -0.684 0.0243965 0.0243965 -0.684 0.0345019 1.59871e-16 -0.684 0.0637511 -0.0264066 -0.684 0.0896384 -0.0517528 -0.684 -0.0267892 0.0999787 -0.684 -6.56818e-16 0.0690037 -0.684 0.0264066 0.0637511 -0.684 0.048793 0.048793 -0.684 0.0637511 0.0264066 -0.684 0.0690037 3.66819e-16 -0.684 0.0999787 -0.0267892 -0.684 -8.65937e-16 0.103506 -0.684 0.0267892 0.0999787 -0.684 0.0517528 0.0896384 -0.684 0.0731895 0.0731895 -0.684 0.0896384 0.0517528 -0.684 0.0999787 0.0267892 -0.684 0.103506 5.66029e-16 -0.684
        </DataArray>
      </PointData>
      <CellData>
        <DataArray type="Float32" Name="stress_zz" NumberOfComponents="1" format="ascii">
          29.1996 29.1996 29.1996 29.1996 29.1996 29.1996 29.1996 29.1996 29.1996 29.1996 29.1996 29.1996 29.1996 29.1996 29.1996 29.1996 29.1996 29.1996 29.1996 29.1996 29.1996 29.1996 29.1996 29.1996 29.1996 29.1996 29.1996 29.1996 29.1996 29.1996 29.1996 29.1996 29.1996 29.1996 29.1996 29.1996 29.1996 29.1996 29.1996 29.1996 29.1996 29.1996 29.1996 29.1996 29.1996 29.1996 29.1996 29.1996 29.1996 29.1996 29.1996 29.1996 29.1996 29.1996 29.1996 29.1996 29.1996 29.1996 29.1996 29.1996 29.1996 29.1996 29.1996 29.1996 29.1996 29.1996 29.1996 29.1996 29.1996 29.1996 29.1996 29.1996 29.1996 29.1996 29.1996 29.1996 29.1996 29.1996 29.1996 29.1996 29.1996 29.1996 29.1996 29.1996 29.1996 29.1996 29.1996 29.1996 29.1996 29.1996 29.1996 29.1996 29.1996 29.1996 29.1996 29.1996 29.1996 29.1996 29.1996 29.1996 29.1996 29.1996 29.1996 29.1996 29.1996 29.1996 29.1996 29.1996 29.1996 29.1996 29.1996 29.1996 29.1996 29.1996 29.1996 29.1996 29.1996 29.1996 29.1996 29.1996 29.1996 29.1996 29.1996 29.1996 29.1996 29.1996 29.1996 29.1996 29.1996 29.1996 29.1996 29.1996 29.1996 29.1996 29.1996 29.1996 29.1996 29.1996 29.1996 29.1996 29.1996 29.1996 29.1996 29.1996 29.1996 29.1996 29.1996 29.1996 29.1996 29.1996 29.1996 29.1996 29.1996 29.1996 29.1996 29.1996 29.1996 29.1996 29.1996 29.1996 29.1996 29.1996 29.1996 29.1996 29.1996 29.1996 29.1996 29.1996 29.1996 29.1996 29.1996 29.1996 29.1996 29.1996 29.1996 29.1996 29.1996 29.1996 29.1996 29.1996 29.1996 29.1996 29.1996 29.1996 29.1996 29.1996 29.1996 29.1996 29.1996 29.1996 29.1996 29.1996 29.1996 29.1996 29.1996 29.1996 29.1996 29.1996 29.1996 29.1996 29.1996 29.1996 29.1996 29.1996 29.1996 29.1996 29.1996 29.1996 29.1996 29.1996 29.1996 29.1996 29.1996 29.1996 29.1996 29.1996 29.1996 29.1996 29.1996 29.1996 29.1996 29.1996 29.1996 29.1996 29.1996 29.1996 29.1996 29.1996 29.1996 29.1996 29.1996 29.1996 29.1996 29.1996 29.1996 29.1996 29.1996 29.1996 29.1996 29.1996 29.1996 29.1996 29.1996 29.1996 29.1996 29.1996 29.1996 29.1996 29.1996 29.1996 29.1996 29.1996 29.1996 29.1996 29.1996 29.1996 29.1996 29.1996 29.1996 29.1996 29.1996 29.1996 29.1996 29.1996 29.1996 29.1996 29.1996 29.1996 29.1996 29.1996 29.1996 29.1996 29.1996 29.1996 29.1996 29.1996 29.1996 29.1996 29.1996 29.1996 29.1996 29.1996 29.1996 29.1996 29.1996 29.1996 29.1996 29.1996
        </DataArray>
        <DataArray type="Float32" Name="deviatoric_strain" NumberOfComponents="1" format="ascii">
          0.00217057 0.00217057 0.00217057 0.00217057 0.00217057 0.00217057 0.00217057 0.00217057 0.00217057 0.00217057 0.00217057 0.00217057 0.00217057 0.00217057 0.00217057 0.00217057 0.00217057 0.00217057 0.00217057 0.00217057 0.00217057 0.00217057 0.00217057 0.00217057 0.00217057 0.00217057 0.00217057 0.00217057 0.00217057 0.00217057 0.00217057 0.00217057 0.00217057 0.00217057 0.00217057 0.00217057 0.00217057 0.00217057 0.00217057 0.00217057 0.00217057 0.00217057 0.00217057 0.00217057 0.00217057 0.00217057 0.00217057 0.00217057 0.00217057 0.00217057 0.00217057 0.00217057 0.00217057 0.00217057 0.00217057 0.00217057 0.00217057 0.00217057 0.00217057 0.00217057 0.00217057 0.00217057 0.00217057 0.00217057 0.00217057 0.00217057 0.00217057 0.00217057 0.00217057 0.00217057 0.00217057 0.00217057 0.00217057 0.00217057 0.00217057 0.00217057 0.00217057 0.00217057 0.00217057 0.00217057 0.00217057 0.00217057 0.00217057 0.00217057 0.00217057 0.00217057 0.00217057 0.00217057 0.00217057 0.00217057 0.00217057 0.00217057 0.00217057 0.00217057 0.00217057 0.00217057 0.00217057 0.00217057 0.00217057 0.00217057 0.00217057 0.00217057 0.00217057 0.00217057 0.00217057 0.00217057 0.00217057 0.00217057 0.00217057 0.00217057 0.00217057 0.00217057 0.00217057 0.00217057 0.00217057 0.00217057 0.00217057 0.00217057 0.00217057 0.00217057 0.00217057 0.00217057 0.00217057 0.00217057 0.00217057 0.00217057 0.00217057 0.00217057 0.00217057 0.00217057 0.00217057 0.00217057 0.00217057 0.00217057 0.00217057 0.00217057 0.00217057 0.00217057 0.00217057 0.00217057 0.00217057 0.00217057 0.00217057 0.00217057 0.00217057 0.00217057 0.00217057 0.00217057 0.00217057 0.00217057 0.00217057 0.00217057 0.00217057 0.00217057 0.00217057 0.00217057 0.00217057 0.00217057 0.00217057 0.00217057 0.00217057 0.00217057 0.00217057 0.00217057 0.00217057 0.00217057 0.00217057 0.00217057 0.00217057 0.00217057 0.00217057 0.00217057 0.00217057 0.00217057 0.00217057 0.00217057 0.00217057 0.00217057 0.00217057 0.00217057 0.00217057 0.00217057 0.00217057 0.00217057 0.00217057 0.00217057 0.00217057 0.00217057 0.00217057 0.00217057 0.00217057 0.00217057 0.00217057 0.00217057 0.00217057 0.00217057 0.00217057 0.00217057 0.00217057 0.00217057 0.00217057 0.00217057 0.00217057 0.00217057 0.00217057 0.00217057 0.00217057 0.00217057 0.00217057 0.00217057 0.00217057 0.00217057 0.00217057 0.00217057 0.00217057 0.00217057 0.00217057 0.00217057 0.00217057 0.00217057 0.00217057 0.00217057 0.00217057 0.00217057 0.00217057 0.00217057 0.00217057 0.00217057 0.00217057 0.00217057 0.00217057 0.00217057 0.00217057 0.00217057 0.00217057 0.00217057 0.00217057 0.00217057 0.00217057 0.00217057 0.00217057 0.00217057 0.00217057 0.00217057 0.00217057 0.00217057 0.00217057 0.00217057 0.00217057 0.00217057 0.00217057 0.00217057 0.00217057 0.00217057 0.00217057 0.00217057 0.00217057 0.00217057 0.00217057 0.00217057 0.00217057 0.00217057 0.00217057 0.00217057 0.00217057 0.00217057 0.00217057 0.00217057 0.00217057 0.00217057 0.00217057 0.00217057 0.00217057 0.00217057 0.00217057 0.00217057 0.00217057 0.00217057 0.00217057 0.00217057 0.00217057 0.00217057 0.00217057 0.00217057 0.00217057 0.00217057 0.00217057 0.00217057
        </DataArray>
      </CellData>
    </Piece>
  </UnstructuredGrid>
</VTKFile>
