<?xml version="1.0"?>
<VTKFile type="UnstructuredGrid" version="0.1" byte_order="LittleEndian">
  <UnstructuredGrid>
    <Piece NumberOfPoints="441" NumberOfCells="288">
      <Points>
        <DataArray type="Float32" NumberOfComponents="3" format="ascii">
          -57.9382 -53.033 0 -42.2381 -66.2215 0 -23.6595 -74.8971 0 -3.46852 -78.4685 0 16.9588 -76.6925 0 36.2304 -69.69 0 53.033 -57.9382 0 -69.69 -36.2304 0 -38.6255 -35.3553 0 -22.1554 -47.4454 0 -2.31235 -52.3123 0 17.8827 -49.2152 0 35.3553 -38.6255 0 66.2215 -42.2381 0 -76.6925 -16.9588 0 -49.2152 -17.8827 0 -19.3127 -17.6777 0 -1.15617 -26.1562 0 17.6777 -19.3127 0 47.4454 -22.1554 0 74.8971 -23.6595 0 -78.4685 3.46852 0 -52.3123 2.31235 0 -26.1562 1.15617 0 0 0 0 26.1562 -1.15617 0 52.3123 -2.31235 0 78.4685 -3.46852 0 -74.8971 23.6595 0 -47.4454 22.1554 0 -17.6777 19.3127 0 1.15617 26.1562 0 19.3127 17.6777 0 49.2152 17.8827 0 76.6925 16.9588 0 -66.2215 42.2381 0 -35.3553 38.6255 0 -17.8827 49.2152 0 2.31235 52.3123 0 22.1554 47.4454 0 38.6255 35.3553 0 69.69 36.2304 0 -53.033 57.9382 0 -36.2304 69.69 0 -16.9588 76.6925 0 3.46852 78.4685 0 23.6595 74.8971 0 42.2381 66.2215 0 57.9382 53.033 0 -57.9382 -53.033 34.44 -42.2381 -66.2215 34.44 -23.6595 -74.8971 34.44 -3.46852 -78.4685 34.44 16.9588 -76.6925 34.44 36.2304 -69.69 34.44 53.033 -57.9382 34.44 -69.69 -36.2304 34.44 -38.6255 -35.3553 34.44 -22.1554 -47.4454 34.44 -2.31235 -52.3123 34.44 17.8827 -49.2152 34.44 35.3553 -38.6255 34.44 66.2215 -42.2381 34.44 -76.6925 -16.9588 34.44 -49.2152 -17.8827 34.44 -19.3127 -17.6777 34.44 -1.15617 -26.1562 34.44 17.6777 -19.3127 34.44 47.4454 -22.1554 34.44 74.8971 -23.6595 34.44 -78.4685 3.46852 34.44 -52.3123 2.31235 34.44 -26.1562 1.15617 34.44 -1.59114e-16 3.37219e-18 34.44 26.1562 -1.15617 34.44 52.3123 -2.31235 34.44 78.4685 -3.46852 34.44 -74.8971 23.6595 34.44 -47.4454 22.1554 34.44 -17.6777 19.3127 34.44 1.15617 26.1562 34.44 19.3127 17.6777 34.44 49.2152 17.8827 34.44 76.6925 16.9588 34.44 -66.2215 42.2381 34.44 -35.3553 38.6255 34.44 -17.8827 49.2152 34.44 2.31235 52.3123 34.44 22.1554 47.4454 34.44 38.6255 35.3553 34.44 69.69 36.2304 34.44 -53.033 57.9382 34.44 -36.2304 69.69 34.44 -16.9588 76.6925 34.44 3.46852 78.4685 34.44 23.6595 74.8971 34.44 42.2381 66.2215 34.44 57.9382 53.033 34.44 -57.9382 -53.033 68.88 -42.2381 -66.2215 68.88 -23.6595 -74.8971 68.88 -3.46852 -78.4685 68.88 16.9588 -76.6925 68.88 36.2304 -69.69 68.88 53.033 -57.9382 68.88 -69.69 -36.2304 68.88 -38.6255 -35.3553 68.88 -22.1554 -47.4454 68.88 -2.31235 -52.3123 68.88 17.8827 -49.2152 68.88 35.3553 -38.6255 68.88 66.2215 -42.2381 68.88 -76.6925 -16.9588 68.88 -49.2152 -17.8827 68.88 -19.3127 -17.6777 68.88 -1.15617 -26.1562 68.88 17.6777 -19.3127 68.88 47.4454 -22.1554 68.88 74.8971 -23.6595 68.88 -78.4685 3.46852 68.88 -52.3123 2.31235 68.88 -26.1562 1.15617 68.88 -7.00762e-16 -7.47905e-16 68.88 26.1562 -1.15617 68.88 52.3123 -2.31235 68.88 78.4685 -3.46852 68.88 -74.8971 23.6595 68.88 -47.4454 22.1554 68.88 -17.6777 19.3127 68.88 1.15617 26.1562 68.88 19.3127 17.6777 68.88 49.2152 17.8827 68.88 76.6925 16.9588 68.88 -66.2215 42.2381 68.88 -35.3553 38.6255 68.88 -17.8827 49.2152 68.88 2.31235 52.3123 68.88 22.1554 47.4454 68.88 38.6255 35.3553 68.88 69.69 36.2304 68.88 -53.033 57.9382 68.88 -36.2304 69.69 68.88 -16.9588 76.6925 68.88 3.46852 78.4685 68.88 23.6595 74.8971 68.88 42.2381 66.2215 68.88 57.9382 53.033 68.88 -57.9382 -53.033 103.32 -42.2381 -66.2215 103.32 -23.6595 -74.8971 103.32 -3.46852 -78.4685 103.32 16.9588 -76.6925 103.32 36.2304 -69.69 103.32 53.033 -57.9382 103.32 -69.69 -36.2304 103.32 -38.6255 -35.3553 103.32 -22.1554 -47.4454 103.32 -2.31235 -52.3123 103.32 17.8827 -49.2152 103.32 35.3553 -38.6255 103.32 66.2215 -42.2381 103.32 -76.6925 -16.9588 103.32 -49.2152 -17.8827 103.32 -19.3127 -17.6777 103.32 -1.15617 -26.1562 103.32 17.6777 -19.3127 103.32 47.4454 -22.1554 103.32 74.8971 -23.6595 103.32 -78.4685 3.46852 103.32 -52.3123 2.31235 103.32 -26.1562 1.15617 103.32 -1.48076e-15 -6.33833e-17 103.32 26.1562 -1.15617 103.32 52.3123 -2.31235 103.32 78.4685 -3.46852 103.32 -74.8971 23.6595 103.32 -47.4454 22.1554 103.32 -17.6777 19.3127 103.32 1.15617 26.1562 103.32 19.3127 17.6777 103.32 49.2152 17.8827 103.32 76.6925 16.9588 103.32 -66.2215 42.2381 103.32 -35.3553 38.6255 103.32 -17.8827 49.2152 103.32 2.31235 52.3123 103.32 22.1554 47.4454 103.32 38.6255 35.3553 103.32 69.69 36.2304 103.32 -53.033 57.9382 103.32 -36.2304 69.69 103.32 -16.9588 76.6925 103.32 3.46852 78.4685 103.32 23.6595 74.8971 103.32 42.2381 66.2215 103.32 57.9382 53.033 103.32 -57.9382 -53.033 137.76 -42.2381 -66.2215 137.76 -23.6595 -74.8971 137.76 -3.46852 -78.4685 137.76 16.9588 -76.6925 137.76 36.2304 -69.69 137.76 53.033 -57.9382 137.76 -69.69 -36.2304 137.76 -38.6255 -35.3553 137.76 -22.1554 -47.4454 137.76 -2.31235 -52.3123 137.76 17.8827 -49.2152 137.76 35.3553 -38.6255 137.76 66.2215 -42.2381 137.76 -76.6925 -16.9588 137.76 -49.2152 -17.8827 137.76 -19.3127 -17.6777 137.76 -1.15617 -26.1562 137.76 17.6777 -19.3127 137.76 47.4454 -22.1554 137.76 74.8971 -23.6595 137.76 -78.4685 3.46852 137.76 -52.3123 2.31235 137.76 -26.1562 1.15617 137.76 -2.04094e-15 -2.35947e-16 137.76 26.1562 -1.15617 137.76 52.3123 -2.31235 137.76 78.4685 -3.46852 137.76 -74.8971 23.6595 137.76 -47.4454 22.1554 137.76 -17.6777 19.3127 137.76 1.15617 26.1562 137.76 19.3127 17.6777 137.76 49.2152 17.8827 137.76 76.6925 16.9588 137.76 -66.2215 42.2381 137.76 -35.3553 38.6255 137.76 -17.8827 49.2152 137.76 2.31235 52.3123 137.76 22.1554 47.4454 137.76 38.6255 35.3553 137.76 69.69 36.2304 137.76 -53.033 57.9382 137.76 -36.2304 69.69 137.76 -16.9588 76.6925 137.76 3.46852 78.4685 137.76 23.6595 74.8971 137.76 42.2381 66.2215 137.76 57.9382 53.033 137.76 -57.9382 -53.033 172.2 -42.2381 -66.2215 172.2 -23.6595 -74.8971 172.2 -3.46852 -78.4685 172.2 16.9588 -76.6925 172.2 36.2304 -69.69 172.2 53.033 -57.9382 172.2 -69.69 -36.2304 172.2 -38.6255 -35.3553 172.2 -22.1554 -47.4454 172.2 -2.31235 -52.3123 172.2 17.8827 -49.2152 172.2 35.3553 -38.6255 172.2 66.2215 -42.2381 172.2 -76.6925 -16.9588 172.2 -49.2152 -17.8827 172.2 -19.3127 -17.6777 172.2 -1.15617 -26.1562 172.2 17.6777 -19.3127 172.2 47.4454 -22.1554 172.2 74.8971 -23.6595 172.2 -78.4685 3.46852 172.2 -52.3123 2.31235 172.2 -26.1562 1.15617 172.2 -3.16276e-15 -5.17276e-17 172.2 26.1562 -1.15617 172.2 52.3123 -2.31235 172.2 78.4685 -3.46852 172.2 -74.8971 23.6595 172.2 -47.4454 22.1554 172.2 -17.6777 19.3127 172.2 1.15617 26.1562 172.2 19.3127 17.6777 172.2 49.2152 17.8827 172.2 76.6925 16.9588 172.2 -66.2215 42.2381 172.2 -35.3553 38.6255 172.2 -17.8827 49.2152 172.2 2.31235 52.3123 172.2 22.1554 47.4454 172.2 38.6255 35.3553 172.2 69.69 36.2304 172.2 -53.033 57.9382 172.2 -36.2304 69.69 172.2 -16.9588 76.6925 172.2 3.46852 78.4685 172.2 23.6595 74.8971 172.2 42.2381 66.2215 172.2 57.9382 53.033 172.2 -57.9382 -53.033 206.64 -42.2381 -66.2215 206.64 -23.6595 -74.8971 206.64 -3.46852 -78.4685 206.64 16.9588 -76.6925 206.64 36.2304 -69.69 206.64 53.033 -57.9382 206.64 -69.69 -36.2304 206.64 -38.6255 -35.3553 206.64 -22.1554 -47.4454 206.64 -2.31235 -52.3123 206.64 17.8827 -49.2152 206.64 35.3553 -38.6255 206.64 66.2215 -42.2381 206.64 -76.6925 -16.9588 206.64 -49.2152 -17.8827 206.64 -19.3127 -17.6777 206.64 -1.15617 -26.1562 206.64 17.6777 -19.3127 206.64 47.4454 -22.1554 206.64 74.8971 -23.6595 206.64 -78.4685 3.46852 206.64 -52.3123 2.31235 206.64 -26.1562 1.15617 206.64 -3.91135e-15 -3.57477e-17 206.64 26.1562 -1.15617 206.64 52.3123 -2.31235 206.64 78.4685 -3.46852 206.64 -74.8971 23.6595 206.64 -47.4454 22.1554 206.64 -17.6777 19.3127 206.64 1.15617 26.1562 206.64 19.3127 17.6777 206.64 49.2152 17.8827 206.64 76.6925 16.9588 206.64 -66.2215 42.2381 206.64 -35.3553 38.6255 206.64 -17.8827 49.2152 206.64 2.31235 52.3123 206.64 22.1554 47.4454 206.64 38.6255 35.3553 206.64 69.69 36.2304 206.64 -53.033 57.9382 206.64 -36.2304 69.69 206.64 -16.9588 76.6925 206.64 3.46852 78.4685 206.64 23.6595 74.8971 206.64 42.2381 66.2215 206.64 57.9382 53.033 206.64 -57.9382 -53.033 241.08 -42.2381 -66.2215 241.08 -23.6595 -74.8971 241.08 -3.46852 -78.4685 241.08 16.9588 -76.6925 241.08 36.2304 -69.69 241.08 53.033 -57.9382 241.08 -69.69 -36.2304 241.08 -38.6255 -35.3553 241.08 -22.1554 -47.4454 241.08 -2.31235 -52.3123 241.08 17.8827 -49.2152 241.08 35.3553 -38.6255 241.08 66.2215 -42.2381 241.08 -76.6925 -16.9588 241.08 -49.2152 -17.8827 241.08 -19.3127 -17.6777 241.08 -1.15617 -26.1562 241.08 17.6777 -19.3127 241.08 47.4454 -22.1554 241.08 74.8971 -23.6595 241.08 -78.4685 3.46852 241.08 -52.3123 2.31235 241.08 -26.1562 1.15617 241.08 -4.19051e-15 1.39319e-15 241.08 26.1562 -1.15617 241.08 52.3123 -2.31235 241.08 78.4685 -3.46852 241.08 -74.8971 23.6595 241.08 -47.4454 22.1554 241.08 -17.6777 19.3127 241.08 1.15617 26.1562 241.08 19.3127 17.6777 241.08 49.2152 17.8827 241.08 76.6925 16.9588 241.08 -66.2215 42.2381 241.08 -35.3553 38.6255 241.08 -17.8827 49.2152 241.08 2.31235 52.3123 241.08 22.1554 47.4454 241.08 38.6255 35.3553 241.08 69.69 36.2304 241.08 -53.033 57.9382 241.08 -36.2304 69.69 241.08 -16.9588 76.6925 241.08 3.46852 78.4685 241.08 23.6595 74.8971 241.08 42.2381 66.2215 241.08 57.9382 53.033 241.08 -57.9382 -53.033 275.52 -42.2381 -66.2215 275.52 -23.6595 -74.8971 275.52 -3.46852 -78.4685 275.52 16.9588 -76.6925 275.52 36.2304 -69.69 275.52 53.033 -57.9382 275.52 -69.69 -36.2304 275.52 -38.6255 -35.3553 275.52 -22.1554 -47.4454 275.52 -2.31235 -52.3123 275.52 17.8827 -49.2152 275.52 35.3553 -38.6255 275.52 66.2215 -42.2381 275.52 -76.6925 -16.9588 275.52 -49.2152 -17.8827 275.52 -19.3127 -17.6777 275.52 -1.15617 -26.1562 275.52 17.6777 -19.3127 275.52 47.4454 -22.1554 275.52 74.8971 -23.6595 275.52 -78.4685 3.46852 275.52 -52.3123 2.31235 275.52 -26.1562 1.15617 275.52 -3.56386e-15 2.01139e-15 275.52 26.1562 -1.15617 275.52 52.3123 -2.31235 275.52 78.4685 -3.46852 275.52 -74.8971 23.6595 275.52 -47.4454 22.1554 275.52 -17.6777 19.3127 275.52 1.15617 26.1562 275.52 19.3127 17.6777 275.52 49.2152 17.8827 275.52 76.6925 16.9588 275.52 -66.2215 42.2381 275.52 -35.3553 38.6255 275.52 -17.8827 49.2152 275.52 2.31235 52.3123 275.52 22.1554 47.4454 275.52 38.6255 35.3553 275.52 69.69 36.2304 275.52 -53.033 57.9382 275.52 -36.2304 69.69 275.52 -16.9588 76.6925 275.52 3.46852 78.4685 275.52 23.6595 74.8971 275.52 42.2381 66.2215 275.52 57.9382 53.033 275.52
        </DataArray>
      </Points>
      <Cells>
        <DataArray type="Int32" Name="connectivity" format="ascii">
          0 1 8 7 49 50 57 56 1 2 9 8 50 51 58 57 2 3 10 9 51 52 59 58 3 4 11 10 52 53 60 59 4 5 12 11 53 54 61 60 5 6 13 12 54 55 62 61 7 8 15 14 56 57 64 63 8 9 16 15 57 58 65 64 9 10 17 16 58 59 66 65 10 11 18 17 59 60 67 66 11 12 19 18 60 61 68 67 12 13 20 19 61 62 69 68 14 15 22 21 63 64 71 70 15 16 23 22 64 65 72 71 16 17 24 23 65 66 73 72 17 18 25 24 66 67 74 73 18 19 26 25 67 68 75 74 19 20 27 26 68 69 76 75 21 22 29 28 70 71 78 77 22 23 30 29 71 72 79 78 23 24 31 30 72 73 80 79 24 25 32 31 73 74 81 80 25 26 33 32 74 75 82 81 26 27 34 33 75 76 83 82 28 29 36 35 77 78 85 84 29 30 37 36 78 79 86 85 30 31 38 37 79 80 87 86 31 32 39 38 80 81 88 87 32 33 40 39 81 82 89 88 33 34 41 40 82 83 90 89 35 36 43 42 84 85 92 91 36 37 44 43 85 86 93 92 37 38 45 44 86 87 94 93 38 39 46 45 87 88 95 94 39 40 47 46 88 89 96 95 40 41 48 47 89 90 97 96 49 50 57 56 98 99 106 105 50 51 58 57 99 100 107 106 51 52 59 58 100 101 108 107 52 53 60 59 101 102 109 108 53 54 61 60 102 103 110 109 54 55 62 61 103 104 111 110 56 57 64 63 105 106 113 112 57 58 65 64 106 107 114 113 58 59 66 65 107 108 115 114 59 60 67 66 108 109 116 115 60 61 68 67 109 110 117 116 61 62 69 68 110 111 118 117 63 64 71 70 112 113 120 119 64 65 72 71 113 114 121 120 65 66 73 72 114 115 122 121 66 67 74 73 115 116 123 122 67 68 75 74 116 117 124 123 68 69 76 75 117 118 125 124 70 71 78 77 119 120 127 126 71 72 79 78 120 121 128 127 72 73 80 79 121 122 129 128 73 74 81 80 122 123 130 129 74 75 82 81 123 124 131 130 75 76 83 82 124 125 132 131 77 78 85 84 126 127 134 133 78 79 86 85 127 128 135 134 79 80 87 86 128 129 136 135 80 81 88 87 129 130 137 136 81 82 89 88 130 131 138 137 82 83 90 89 131 132 139 138 84 85 92 91 133 134 141 140 85 86 93 92 134 135 142 141 86 87 94 93 135 136 143 142 87 88 95 94 136 137 144 143 88 89 96 95 137 138 145 144 89 90 97 96 138 139 146 145 98 99 106 105 147 148 155 154 99 100 107 106 148 149 156 155 100 101 108 107 149 150 157 156 101 102 109 108 150 151 158 157 102 103 110 109 151 152 159 158 103 104 111 110 152 153 160 159 105 106 113 112 154 155 162 161 106 107 114 113 155 156 163 162 107 108 115 114 156 157 164 163 108 109 116 115 157 158 165 164 109 110 117 116 158 159 166 165 110 111 118 117 159 160 167 166 112 113 120 119 161 162 169 168 113 114 121 120 162 163 170 169 114 115 122 121 163 164 171 170 115 116 123 122 164 165 172 171 116 117 124 123 165 166 173 172 117 118 125 124 166 167 174 173 119 120 127 126 168 169 176 175 120 121 128 127 169 170 177 176 121 122 129 128 170 171 178 177 122 123 130 129 171 172 179 178 123 124 131 130 172 173 180 179 124 125 132 131 173 174 181 180 126 127 134 133 175 176 183 182 127 128 135 134 176 177 184 183 128 129 136 135 177 178 185 184 129 130 137 136 178 179 186 185 130 131 138 137 179 180 187 186 131 132 139 138 180 181 188 187 133 134 141 140 182 183 190 189 134 135 142 141 183 184 191 190 135 136 143 142 184 185 192 191 136 137 144 143 185 186 193 192 137 138 145 144 186 187 194 193 138 139 146 145 187 188 195 194 147 148 155 154 196 197 204 203 148 149 156 155 197 198 205 204 149 150 157 156 198 199 206 205 150 151 158 157 199 200 207 206 151 152 159 158 200 201 208 207 152 153 160 159 201 202 209 208 154 155 162 161 203 204 211 210 155 156 163 162 204 205 212 211 156 157 164 163 205 206 213 212 157 158 165 164 206 207 214 213 158 159 166 165 207 208 215 214 159 160 167 166 208 209 216 215 161 162 169 168 210 211 218 217 162 163 170 169 211 212 219 218 163 164 171 170 212 213 220 219 164 165 172 171 213 214 221 220 165 166 173 172 214 215 222 221 166 167 174 173 215 216 223 222 168 169 176 175 217 218 225 224 169 170 177 176 218 219 226 225 170 171 178 177 219 220 227 226 171 172 179 178 220 221 228 227 172 173 180 179 221 222 229 228 173 174 181 180 222 223 230 229 175 176 183 182 224 225 232 231 176 177 184 183 225 226 233 232 177 178 185 184 226 227 234 233 178 179 186 185 227 228 235 234 179 180 187 186 228 229 236 235 180 181 188 187 229 230 237 236 182 183 190 189 231 232 239 238 183 184 191 190 232 233 240 239 184 185 192 191 233 234 241 240 185 186 193 192 234 235 242 241 186 187 194 193 235 236 243 242 187 188 195 194 236 237 244 243 196 197 204 203 245 246 253 252 197 198 205 204 246 247 254 253 198 199 206 205 247 248 255 254 199 200 207 206 248 249 256 255 200 201 208 207 249 250 257 256 201 202 209 208 250 251 258 257 203 204 211 210 252 253 260 259 204 205 212 211 253 254 261 260 205 206 213 212 254 255 262 261 206 207 214 213 255 256 263 262 207 208 215 214 256 257 264 263 208 209 216 215 257 258 265 264 210 211 218 217 259 260 267 266 211 212 219 218 260 261 268 267 212 213 220 219 261 262 269 268 213 214 221 220 262 263 270 269 214 215 222 221 263 264 271 270 215 216 223 222 264 265 272 271 217 218 225 224 266 267 274 273 218 219 226 225 267 268 275 274 219 220 227 226 268 269 276 275 220 221 228 227 269 270 277 276 221 222 229 228 270 271 278 277 222 223 230 229 271 272 279 278 224 225 232 231 273 274 281 280 225 226 233 232 274 275 282 281 226 227 234 233 275 276 283 282 227 228 235 234 276 277 284 283 228 229 236 235 277 278 285 284 229 230 237 236 278 279 286 285 231 232 239 238 280 281 288 287 232 233 240 239 281 282 289 288 233 234 241 240 282 283 290 289 234 235 242 241 283 284 291 290 235 236 243 242 284 285 292 291 236 237 244 243 285 286 293 292 245 246 253 252 294 295 302 301 246 247 254 253 295 296 303 302 247 248 255 254 296 297 304 303 248 249 256 255 297 298 305 304 249 250 257 256 298 299 306 305 250 251 258 257 299 300 307 306 252 253 260 259 301 302 309 308 253 254 261 260 302 303 310 309 254 255 262 261 303 304 311 310 255 256 263 262 304 305 312 311 256 257 264 263 305 306 313 312 257 258 265 264 306 307 314 313 259 260 267 266 308 309 316 315 260 261 268 267 309 310 317 316 261 262 269 268 310 311 318 317 262 263 270 269 311 312 319 318 263 264 271 270 312 313 320 319 264 265 272 271 313 314 321 320 266 267 274 273 315 316 323 322 267 268 275 274 316 317 324 323 268 269 276 275 317 318 325 324 269 270 277 276 318 319 326 325 270 271 278 277 319 320 327 326 271 272 279 278 320 321 328 327 273 274 281 280 322 323 330 329 274 275 282 281 323 324 331 330 275 276 283 282 324 325 332 331 276 277 284 283 325 326 333 332 277 278 285 284 326 327 334 333 278 279 286 285 327 328 335 334 280 281 288 287 329 330 337 336 281 282 289 288 330 331 338 337 282 283 290 289 331 332 339 338 283 284 291 290 332 333 340 339 284 285 292 291 333 334 341 340 285 286 293 292 334 335 342 341 294 295 302 301 343 344 351 350 295 296 303 302 344 345 352 351 296 297 304 303 345 346 353 352 297 298 305 304 346 347 354 353 298 299 306 305 347 348 355 354 299 300 307 306 348 349 356 355 301 302 309 308 350 351 358 357 302 303 310 309 351 352 359 358 303 304 311 310 352 353 360 359 304 305 312 311 353 354 361 360 305 306 313 312 354 355 362 361 306 307 314 313 355 356 363 362 308 309 316 315 357 358 365 364 309 310 317 316 358 359 366 365 310 311 318 317 359 360 367 366 311 312 319 318 360 361 368 367 312 313 320 319 361 362 369 368 313 314 321 320 362 363 370 369 315 316 323 322 364 365 372 371 316 317 324 323 365 366 373 372 317 318 325 324 366 367 374 373 318 319 326 325 367 368 375 374 319 320 327 326 368 369 376 375 320 321 328 327 369 370 377 376 322 323 330 329 371 372 379 378 323 324 331 330 372 373 380 379 324 325 332 331 373 374 381 380 325 326 333 332 374 375 382 381 326 327 334 333 375 376 383 382 327 328 335 334 376 377 384 383 329 330 337 336 378 379 386 385 330 331 338 337 379 380 387 386 331 332 339 338 380 381 388 387 332 333 340 339 381 382 389 388 333 334 341 340 382 383 390 389 334 335 342 341 383 384 391 390 343 344 351 350 392 393 400 399 344 345 352 351 393 394 401 400 345 346 353 352 394 395 402 401 346 347 354 353 395 396 403 402 347 348 355 354 396 397 404 403 348 349 356 355 397 398 405 404 350 351 358 357 399 400 407 406 351 352 359 358 400 401 408 407 352 353 360 359 401 402 409 408 353 354 361 360 402 403 410 409 354 355 362 361 403 404 411 410 355 356 363 362 404 405 412 411 357 358 365 364 406 407 414 413 358 359 366 365 407 408 415 414 359 360 367 366 408 409 416 415 360 361 368 367 409 410 417 416 361 362 369 368 410 411 418 417 362 363 370 369 411 412 419 418 364 365 372 371 413 414 421 420 365 366 373 372 414 415 422 421 366 367 374 373 415 416 423 422 367 368 375 374 416 417 424 423 368 369 376 375 417 418 425 424 369 370 377 376 418 419 426 425 371 372 379 378 420 421 428 427 372 373 380 379 421 422 429 428 373 374 381 380 422 423 430 429 374 375 382 381 423 424 431 430 375 376 383 382 424 425 432 431 376 377 384 383 425 426 433 432 378 379 386 385 427 428 435 434 379 380 387 386 428 429 436 435 380 381 388 387 429 430 437 436 381 382 389 388 430 431 438 437 382 383 390 389 431 432 439 438 383 384 391 390 432 433 440 439
        </DataArray>
        <DataArray type="Int32" Name="offsets" format="ascii">
          8 16 24 32 40 48 56 64 72 80 88 96 104 112 120 128 136 144 152 160 168 176 184 192 200 208 216 224 232 240 248 256 264 272 280 288 296 304 312 320 328 336 344 352 360 368 376 384 392 400 408 416 424 432 440 448 456 464 472 480 488 496 504 512 520 528 536 544 552 560 568 576 584 592 600 608 616 624 632 640 648 656 664 672 680 688 696 704 712 720 728 736 744 752 760 768 776 784 792 800 808 816 824 832 840 848 856 864 872 880 888 896 904 912 920 928 936 944 952 960 968 976 984 992 1000 1008 1016 1024 1032 1040 1048 1056 1064 1072 1080 1088 1096 1104 1112 1120 1128 1136 1144 1152 1160 1168 1176 1184 1192 1200 1208 1216 1224 1232 1240 1248 1256 1264 1272 1280 1288 1296 1304 1312 1320 1328 1336 1344 1352 1360 1368 1376 1384 1392 1400 1408 1416 1424 1432 1440 1448 1456 1464 1472 1480 1488 1496 1504 1512 1520 1528 1536 1544 1552 1560 1568 1576 1584 1592 1600 1608 1616 1624 1632 1640 1648 1656 1664 1672 1680 1688 1696 1704 1712 1720 1728 1736 1744 1752 1760 1768 1776 1784 1792 1800 1808 1816 1824 1832 1840 1848 1856 1864 1872 1880 1888 1896 1904 1912 1920 1928 1936 1944 1952 1960 1968 1976 1984 1992 2000 2008 2016 2024 2032 2040 2048 2056 2064 2072 2080 2088 2096 2104 2112 2120 2128 2136 2144 2152 2160 2168 2176 2184 2192 2200 2208 2216 2224 2232 2240 2248 2256 2264 2272 2280 2288 2296 2304
        </DataArray>
        <DataArray type="UInt8" Name="types" format="ascii">
          12 12 12 12 12 12 12 12 12 12 12 12 12 12 12 12 12 12 12 12 12 12 12 12 12 12 12 12 12 12 12 12 12 12 12 12 12 12 12 12 12 12 12 12 12 12 12 12 12 12 12 12 12 12 12 12 12 12 12 12 12 12 12 12 12 12 12 12 12 12 12 12 12 12 12 12 12 12 12 12 12 12 12 12 12 12 12 12 12 12 12 12 12 12 12 12 12 12 12 12 12 12 12 12 12 12 12 12 12 12 12 12 12 12 12 12 12 12 12 12 12 12 12 12 12 12 12 12 12 12 12 12 12 12 12 12 12 12 12 12 12 12 12 12 12 12 12 12 12 12 12 12 12 12 12 12 12 12 12 12 12 12 12 12 12 12 12 12 12 12 12 12 12 12 12 12 12 12 12 12 12 12 12 12 12 12 12 12 12 12 12 12 12 12 12 12 12 12 12 12 12 12 12 12 12 12 12 12 12 12 12 12 12 12 12 12 12 12 12 12 12 12 12 12 12 12 12 12 12 12 12 12 12 12 12 12 12 12 12 12 12 12 12 12 12 12 12 12 12 12 12 12 12 12 12 12 12 12 12 12 12 12 12 12 12 12 12 12 12 12 12 12 12 12 12 12 12 12 12 12 12 12 12 12 12 12 12 12
        </DataArray>
      </Cells>
      <PointData>
        <DataArray type="Float32" Name="displacement" NumberOfComponents="3" format="ascii">
          -0.613154 0 0 -0.592261 -0.158696 0 -0.531007 -0.306577 0 -0.433565 -0.433565 0 -0.306577 -0.531007 0 -0.158696 -0.592261 0 7.50092e-19 -0.613154 0 -0.592261 0.158696 0 -0.408769 3.57458e-17 0 -0.377654 -0.156429 0 -0.289043 -0.289043 0 -0.156429 -0.377654 0 -7.82813e-17 -0.408769 0 0.158696 -0.592261 0 -0.531007 0.306577 0 -0.377654 0.156429 0 -0.204385 1.2643e-17 0 -0.144522 -0.144522 0 -5.29544e-17 -0.204385 0 0.156429 -0.377654 0 0.306577 -0.531007 0 -0.433565 0.433565 0 -0.289043 0.289043 0 -0.144522 0.144522 0 0 0 0 0.144522 -0.144522 0 0.289043 -0.289043 0 0.433565 -0.433565 0 -0.306577 0.531007 0 -0.156429 0.377654 0 2.52304e-17 0.204385 0 0.144522 0.144522 0 0.204385 -2.25977e-17 0 0.377654 -0.156429 0 0.531007 -0.306577 0 -0.158696 0.592261 0 3.59666e-17 0.408769 0 0.156429 0.377654 0 0.289043 0.289043 0 0.377654 0.156429 0 0.408769 -5.85492e-17 0 0.592261 -0.158696 0 9.86484e-17 0.613154 0 0.158696 0.592261 0 0.306577 0.531007 0 0.433565 0.433565 0 0.531007 0.306577 0 0.592261 0.158696 0 0.613154 -6.98674e-17 0 -0.613154 1.27072e-17 -0.3825 -0.592261 -0.158696 -0.3825 -0.531007 -0.306577 -0.3825 -0.433565 -0.433565 -0.3825 -0.306577 -0.531007 -0.3825 -0.158696 -0.592261 -0.3825 -4.42369e-17 -0.613154 -0.3825 -0.592261 0.158696 -0.3825 -0.408769 -1.28161e-17 -0.3825 -0.377654 -0.156429 -0.3825 -0.289043 -0.289043 -0.3825 -0.156429 -0.377654 -0.3825 -5.39574e-17 -0.408769 -0.3825 0.158696 -0.592261 -0.3825 -0.531007 0.306577 -0.3825 -0.377654 0.156429 -0.3825 -0.204385 5.38049e-18 -0.3825 -0.144522 -0.144522 -0.3825 -7.74328e-17 -0.204385 -0.3825 0.156429 -0.377654 -0.3825 0.306577 -0.531007 -0.3825 -0.433565 0.433565 -0.3825 -0.289043 0.289043 -0.3825 -0.144522 0.144522 -0.3825 -1.98892e-17 4.21524e-19 -0.3825 0.144522 -0.144522 -0.3825 0.289043 -0.289043 -0.3825 0.433565 -0.433565 -0.3825 -0.306577 0.531007 -0.3825 -0.156429 0.377654 -0.3825 -9.16533e-17 0.204385 -0.3825 0.144522 0.144522 -0.3825 0.204385 -3.97816e-17 -0.3825 0.377654 -0.156429 -0.3825 0.531007 -0.306577 -0.3825 -0.158696 0.592261 -0.3825 1.58794e-17 0.408769 -0.3825 0.156429 0.377654 -0.3825 0.289043 0.289043 -0.3825 0.377654 0.156429 -0.3825 0.408769 -4.24989e-17 -0.3825 0.592261 -0.158696 -0.3825 1.30261e-17 0.613154 -0.3825 0.158696 0.592261 -0.3825 0.306577 0.531007 -0.3825 0.433565 0.433565 -0.3825 0.531007 0.306577 -0.3825 0.592261 0.158696 -0.3825 0.613154 -4.81776e-17 -0.3825 -0.613154 -5.17804e-17 -0.765 -0.592261 -0.158696 -0.765 -0.531007 -0.306577 -0.765 -0.433565 -0.433565 -0.765 -0.306577 -0.531007 -0.765 -0.158696 -0.592261 -0.765 -9.49631e-17 -0.613154 -0.765 -0.592261 0.158696 -0.765 -0.408769 -4.09605e-17 -0.765 -0.377654 -0.156429 -0.765 -0.289043 -0.289043 -0.765 -0.156429 -0.377654 -0.765 -1.10061e-16 -0.408769 -0.765 0.158696 -0.592261 -0.765 -0.531007 0.306577 -0.765 -0.377654 0.156429 -0.765 -0.204385 -5.86499e-17 -0.765 -0.144522 -0.144522 -0.765 -7.58223e-17 -0.204385 -0.765 0.156429 -0.377654 -0.765 0.306577 -0.531007 -0.765 -0.433565 0.433565 -0.765 -0.289043 0.289043 -0.765 -0.144522 0.144522 -0.765 -8.75953e-17 -9.34881e-17 -0.765 0.144522 -0.144522 -0.765 0.289043 -0.289043 -0.765 0.433565 -0.433565 -0.765 -0.306577 0.531007 -0.765 -0.156429 0.377654 -0.765 -1.01484e-16 0.204385 -0.765 0.144522 0.144522 -0.765 0.204385 -3.52497e-17 -0.765 0.377654 -0.156429 -0.765 0.531007 -0.306577 -0.765 -0.158696 0.592261 -0.765 -8.31755e-18 0.408769 -0.765 0.156429 0.377654 -0.765 0.289043 0.289043 -0.765 0.377654 0.156429 -0.765 0.408769 -5.34386e-17 -0.765 0.592261 -0.158696 -0.765 5.31362e-17 0.613154 -0.765 0.158696 0.592261 -0.765 0.306577 0.531007 -0.765 0.433565 0.433565 -0.765 0.531007 0.306577 -0.765 0.592261 0.158696 -0.765 0.613154 -5.17472e-17 -0.765 -0.613154 -3.48271e-18 -1.1475 -0.592261 -0.158696 -1.1475 -0.531007 -0.306577 -1.1475 -0.433565 -0.433565 -1.1475 -0.306577 -0.531007 -1.1475 -0.158696 -0.592261 -1.1475 -1.70832e-16 -0.613154 -1.1475 -0.592261 0.158696 -1.1475 -0.408769 -1.11933e-19 -1.1475 -0.377654 -0.156429 -1.1475 -0.289043 -0.289043 -1.1475 -0.156429 -0.377654 -1.1475 -1.40709e-16 -0.408769 -1.1475 0.158696 -0.592261 -1.1475 -0.531007 0.306577 -1.1475 -0.377654 0.156429 -1.1475 -0.204385 -1.16562e-18 -1.1475 -0.144522 -0.144522 -1.1475 -1.86546e-16 -0.204385 -1.1475 0.156429 -0.377654 -1.1475 0.306577 -0.531007 -1.1475 -0.433565 0.433565 -1.1475 -0.289043 0.289043 -1.1475 -0.144522 0.144522 -1.1475 -1.85095e-16 -7.92291e-18 -1.1475 0.144522 -0.144522 -1.1475 0.289043 -0.289043 -1.1475 0.433565 -0.433565 -1.1475 -0.306577 0.531007 -1.1475 -0.156429 0.377654 -1.1475 -1.51039e-16 0.204385 -1.1475 0.144522 0.144522 -1.1475 0.204385 -2.99847e-17 -1.1475 0.377654 -0.156429 -1.1475 0.531007 -0.306577 -1.1475 -0.158696 0.592261 -1.1475 -8.91603e-17 0.408769 -1.1475 0.156429 0.377654 -1.1475 0.289043 0.289043 -1.1475 0.377654 0.156429 -1.1475 0.408769 -4.07153e-17 -1.1475 0.592261 -0.158696 -1.1475 -5.62126e-17 0.613154 -1.1475 0.158696 0.592261 -1.1475 0.306577 0.531007 -1.1475 0.433565 0.433565 -1.1475 0.531007 0.306577 -1.1475 0.592261 0.158696 -1.1475 0.613154 -9.80547e-17 -1.1475 -0.613154 -1.39164e-17 -1.53 -0.592261 -0.158696 -1.53 -0.531007 -0.306577 -1.53 -0.433565 -0.433565 -1.53 -0.306577 -0.531007 -1.53 -0.158696 -0.592261 -1.53 -1.74885e-16 -0.613154 -1.53 -0.592261 0.158696 -1.53 -0.408769 -2.31826e-17 -1.53 -0.377654 -0.156429 -1.53 -0.289043 -0.289043 -1.53 -0.156429 -0.377654 -1.53 -2.73765e-16 -0.408769 -1.53 0.158696 -0.592261 -1.53 -0.531007 0.306577 -1.53 -0.377654 0.156429 -1.53 -0.204385 -3.8777e-17 -1.53 -0.144522 -0.144522 -1.53 -2.87931e-16 -0.204385 -1.53 0.156429 -0.377654 -1.53 0.306577 -0.531007 -1.53 -0.433565 0.433565 -1.53 -0.289043 0.289043 -1.53 -0.144522 0.144522 -1.53 -2.55118e-16 -2.94934e-17 -1.53 0.144522 -0.144522 -1.53 0.289043 -0.289043 -1.53 0.433565 -0.433565 -1.53 -0.306577 0.531007 -1.53 -0.156429 0.377654 -1.53 -3.19458e-16 0.204385 -1.53 0.144522 0.144522 -1.53 0.204385 -3.58594e-17 -1.53 0.377654 -0.156429 -1.53 0.531007 -0.306577 -1.53 -0.158696 0.592261 -1.53 -2.0878e-16 0.408769 -1.53 0.156429 0.377654 -1.53 0.289043 0.289043 -1.53 0.377654 0.156429 -1.53 0.408769 -4.87539e-17 -1.53 0.592261 -0.158696 -1.53 -2.41579e-16 0.613154 -1.53 0.158696 0.592261 -1.53 0.306577 0.531007 -1.53 0.433565 0.433565 -1.53 0.531007 0.306577 -1.53 0.592261 0.158696 -1.53 0.613154 -8.60511e-17 -1.53 -0.613154 7.79166e-17 -1.9125 -0.592261 -0.158696 -1.9125 -0.531007 -0.306577 -1.9125 -0.433565 -0.433565 -1.9125 -0.306577 -0.531007 -1.9125 -0.158696 -0.592261 -1.9125 -3.47089e-16 -0.613154 -1.9125 -0.592261 0.158696 -1.9125 -0.408769 -9.78776e-18 -1.9125 -0.377654 -0.156429 -1.9125 -0.289043 -0.289043 -1.9125 -0.156429 -0.377654 -1.9125 -3.42721e-16 -0.408769 -1.9125 0.158696 -0.592261 -1.9125 -0.531007 0.306577 -1.9125 -0.377654 0.156429 -1.9125 -0.204385 2.5913e-17 -1.9125 -0.144522 -0.144522 -1.9125 -3.34298e-16 -0.204385 -1.9125 0.156429 -0.377654 -1.9125 0.306577 -0.531007 -1.9125 -0.433565 0.433565 -1.9125 -0.289043 0.289043 -1.9125 -0.144522 0.144522 -1.9125 -3.95345e-16 -6.46595e-18 -1.9125 0.144522 -0.144522 -1.9125 0.289043 -0.289043 -1.9125 0.433565 -0.433565 -1.9125 -0.306577 0.531007 -1.9125 -0.156429 0.377654 -1.9125 -4.01053e-16 0.204385 -1.9125 0.144522 0.144522 -1.9125 0.204385 2.66111e-17 -1.9125 0.377654 -0.156429 -1.9125 0.531007 -0.306577 -1.9125 -0.158696 0.592261 -1.9125 -2.79903e-16 0.408769 -1.9125 0.156429 0.377654 -1.9125 0.289043 0.289043 -1.9125 0.377654 0.156429 -1.9125 0.408769 1.23486e-17 -1.9125 0.592261 -0.158696 -1.9125 -3.11864e-16 0.613154 -1.9125 0.158696 0.592261 -1.9125 0.306577 0.531007 -1.9125 0.433565 0.433565 -1.9125 0.531007 0.306577 -1.9125 0.592261 0.158696 -1.9125 0.613154 -2.27291e-17 -1.9125 -0.613154 1.38245e-17 -2.295 -0.592261 -0.158696 -2.295 -0.531007 -0.306577 -2.295 -0.433565 -0.433565 -2.295 -0.306577 -0.531007 -2.295 -0.158696 -0.592261 -2.295 -4.12615e-16 -0.613154 -2.295 -0.592261 0.158696 -2.295 -0.408769 1.17227e-18 -2.295 -0.377654 -0.156429 -2.295 -0.289043 -0.289043 -2.295 -0.156429 -0.377654 -2.295 -4.40989e-16 -0.408769 -2.295 0.158696 -0.592261 -2.295 -0.531007 0.306577 -2.295 -0.377654 0.156429 -2.295 -0.204385 7.18679e-18 -2.295 -0.144522 -0.144522 -2.295 -4.64355e-16 -0.204385 -2.295 0.156429 -0.377654 -2.295 0.306577 -0.531007 -2.295 -0.433565 0.433565 -2.295 -0.289043 0.289043 -2.295 -0.144522 0.144522 -2.295 -4.88919e-16 -4.46847e-18 -2.295 0.144522 -0.144522 -2.295 0.289043 -0.289043 -2.295 0.433565 -0.433565 -2.295 -0.306577 0.531007 -2.295 -0.156429 0.377654 -2.295 -4.38359e-16 0.204385 -2.295 0.144522 0.144522 -2.295 0.204385 -1.78959e-18 -2.295 0.377654 -0.156429 -2.295 0.531007 -0.306577 -2.295 -0.158696 0.592261 -2.295 -5.66429e-16 0.408769 -2.295 0.156429 0.377654 -2.295 0.289043 0.289043 -2.295 0.377654 0.156429 -2.295 0.408769 3.53211e-17 -2.295 0.592261 -0.158696 -2.295 -7.0442e-16 0.613154 -2.295 0.158696 0.592261 -2.295 0.306577 0.531007 -2.295 0.433565 0.433565 -2.295 0.531007 0.306577 -2.295 0.592261 0.158696 -2.295 0.613154 1.02246e-16 -2.295 -0.613154 6.36833e-17 -2.6775 -0.592261 -0.158696 -2.6775 -0.531007 -0.306577 -2.6775 -0.433565 -0.433565 -2.6775 -0.306577 -0.531007 -2.6775 -0.158696 -0.592261 -2.6775 -2.02119e-16 -0.613154 -2.6775 -0.592261 0.158696 -2.6775 -0.408769 3.90402e-18 -2.6775 -0.377654 -0.156429 -2.6775 -0.289043 -0.289043 -2.6775 -0.156429 -0.377654 -2.6775 -3.87283e-16 -0.408769 -2.6775 0.158696 -0.592261 -2.6775 -0.531007 0.306577 -2.6775 -0.377654 0.156429 -2.6775 -0.204385 1.12969e-16 -2.6775 -0.144522 -0.144522 -2.6775 -4.382e-16 -0.204385 -2.6775 0.156429 -0.377654 -2.6775 0.306577 -0.531007 -2.6775 -0.433565 0.433565 -2.6775 -0.289043 0.289043 -2.6775 -0.144522 0.144522 -2.6775 -5.23813e-16 1.74149e-16 -2.6775 0.144522 -0.144522 -2.6775 0.289043 -0.289043 -2.6775 0.433565 -0.433565 -2.6775 -0.306577 0.531007 -2.6775 -0.156429 0.377654 -2.6775 -6.07422e-16 0.204385 -2.6775 0.144522 0.144522 -2.6775 0.204385 2.1286e-16 -2.6775 0.377654 -0.156429 -2.6775 0.531007 -0.306577 -2.6775 -0.158696 0.592261 -2.6775 -5.44655e-16 0.408769 -2.6775 0.156429 0.377654 -2.6775 0.289043 0.289043 -2.6775 0.377654 0.156429 -2.6775 0.408769 2.49259e-16 -2.6775 0.592261 -0.158696 -2.6775 -5.89594e-16 0.613154 -2.6775 0.158696 0.592261 -2.6775 0.306577 0.531007 -2.6775 0.433565 0.433565 -2.6775 0.531007 0.306577 -2.6775 0.592261 0.158696 -2.6775 0.613154 2.96332e-16 -2.6775 -0.613154 -1.31577e-16 -3.06 -0.592261 -0.158696 -3.06 -0.531007 -0.306577 -3.06 -0.433565 -0.433565 -3.06 -0.306577 -0.531007 -3.06 -0.158696 -0.592261 -3.06 -4.64784e-16 -0.613154 -3.06 -0.592261 0.158696 -3.06 -0.408769 -1.62116e-17 -3.06 -0.377654 -0.156429 -3.06 -0.289043 -0.289043 -3.06 -0.156429 -0.377654 -3.06 -4.04418e-16 -0.408769 -3.06 0.158696 -0.592261 -3.06 -0.531007 0.306577 -3.06 -0.377654 0.156429 -3.06 -0.204385 1.93848e-16 -3.06 -0.144522 -0.144522 -3.06 -4.17474e-16 -0.204385 -3.06 0.156429 -0.377654 -3.06 0.306577 -0.531007 -3.06 -0.433565 0.433565 -3.06 -0.289043 0.289043 -3.06 -0.144522 0.144522 -3.06 -4.45482e-16 2.51424e-16 -3.06 0.144522 -0.144522 -3.06 0.289043 -0.289043 -3.06 0.433565 -0.433565 -3.06 -0.306577 0.531007 -3.06 -0.156429 0.377654 -3.06 -5.74894e-16 0.204385 -3.06 0.144522 0.144522 -3.06 0.204385 2.29903e-16 -3.06 0.377654 -0.156429 -3.06 0.531007 -0.306577 -3.06 -0.158696 0.592261 -3.06 -6.25134e-16 0.408769 -3.06 0.156429 0.377654 -3.06 0.289043 0.289043 -3.06 0.377654 0.156429 -3.06 0.408769 3.98098e-16 -3.06 0.592261 -0.158696 -3.06 -5.71907e-16 0.613154 -3.06 0.158696 0.592261 -3.06 0.306577 0.531007 -3.06 0.433565 0.433565 -3.06 0.531007 0.306577 -3.06 0.592261 0.158696 -3.06 0.613154 2.41454e-16 -3.06
        </DataArray>
      </PointData>
      <CellData>
        <DataArray type="Float32" Name="stress_zz" NumberOfComponents="1" format="ascii">
          23.917 23.917 23.917 23.917 23.917 23.917 23.917 23.917 23.917 23.917 23.917 23.917 23.917 23.917 23.917 23.917 23.917 23.917 23.917 23.917 23.917 23.917 23.917 23.917 23.917 23.917 23.917 23.917 23.917 23.917 23.917 23.917 23.917 23.917 23.917 23.917 23.917 23.917 23.917 23.917 23.917 23.917 23.917 23.917 23.917 23.917 23.917 23.917 23.917 23.917 23.917 23.917 23.917 23.917 23.917 23.917 23.917 23.917 23.917 23.917 23.917 23.917 23.917 23.917 23.917 23.917 23.917 23.917 23.917 23.917 23.917 23.917 23.917 23.917 23.917 23.917 23.917 23.917 23.917 23.917 23.917 23.917 23.917 23.917 23.917 23.917 23.917 23.917 23.917 23.917 23.917 23.917 23.917 23.917 23.917 23.917 23.917 23.917 23.917 23.917 23.917 23.917 23.917 23.917 23.917 23.917 23.917 23.917 23.917 23.917 23.917 23.917 23.917 23.917 23.917 23.917 23.917 23.917 23.917 23.917 23.917 23.917 23.917 23.917 23.917 23.917 23.917 23.917 23.917 23.917 23.917 23.917 23.917 23.917 23.917 23.917 23.917 23.917 23.917 23.917 23.917 23.917 23.917 23.917 23.917 23.917 23.917 23.917 23.917 23.917 23.917 23.917 23.917 23.917 23.917 23.917 23.917 23.917 23.917 23.917 23.917 23.917 23.917 23.917 23.917 23.917 23.917 23.917 23.917 23.917 23.917 23.917 23.917 23.917 23.917 23.917 23.917 23.917 23.917 23.917 23.917 23.917 23.917 23.917 23.917 23.917 23.917 23.917 23.917 23.917 23.917 23.917 23.917 23.917 23.917 23.917 23.917 23.917 23.917 23.917 23.917 23.917 23.917 23.917 23.917 23.917 23.917 23.917 23.917 23.917 23.917 23.917 23.917 23.917 23.917 23.917 23.917 23.917 23.917 23.917 23.917 23.917 23.917 23.917 23.917 23.917 23.917 23.917 23.917 23.917 23.917 23.917 23.917 23.917 23.917 23.917 23.917 23.917 23.917 23.917 23.917 23.917 23.917 23.917 23.917 23.917 23.917 23.917 23.917 23.917 23.917 23.917 23.917 23.917 23.917 23.917 23.917 23.917 23.917 23.917 23.917 23.917 23.917 23.917 23.917 23.917 23.917 23.917 23.917 23.917 23.917 23.917 23.917 23.917 23.917 23.917 23.917 23.917 23.917 23.917 23.917 23.917 23.917 23.917 23.917 23.917 23.917 23.917
        </DataArray>
        <DataArray type="Float32" Name="deviatoric_strain" NumberOfComponents="1" format="ascii">
          0.0106539 0.0106539 0.0106539 0.0106539 0.0106539 0.0106539 0.0106539 0.0106539 0.0106539 0.0106539 0.0106539 0.0106539 0.0106539 0.0106539 0.0106539 0.0106539 0.0106539 0.0106539 0.0106539 0.0106539 0.0106539 0.0106539 0.0106539 0.0106539 0.0106539 0.0106539 0.0106539 0.0106539 0.0106539 0.0106539 0.0106539 0.0106539 0.0106539 0.0106539 0.0106539 0.0106539 0.0106539 0.0106539 0.0106539 0.0106539 0.0106539 0.0106539 0.0106539 0.0106539 0.0106539 0.0106539 0.0106539 0.0106539 0.0106539 0.0106539 0.0106539 0.0106539 0.0106539 0.0106539 0.0106539 0.0106539 0.0106539 0.0106539 0.0106539 0.0106539 0.0106539 0.0106539 0.0106539 0.0106539 0.0106539 0.0106539 0.0106539 0.0106539 0.0106539 0.0106539 0.0106539 0.0106539 0.0106539 0.0106539 0.0106539 0.0106539 0.0106539 0.0106539 0.0106539 0.0106539 0.0106539 0.0106539 0.0106539 0.0106539 0.0106539 0.0106539 0.0106539 0.0106539 0.0106539 0.0106539 0.0106539 0.0106539 0.0106539 0.0106539 0.0106539 0.0106539 0.0106539 0.0106539 0.0106539 0.0106539 0.0106539 0.0106539 0.0106539 0.0106539 0.0106539 0.0106539 0.0106539 0.0106539 0.0106539 0.0106539 0.0106539 0.0106539 0.0106539 0.0106539 0.0106539 0.0106539 0.0106539 0.0106539 0.0106539 0.0106539 0.0106539 0.0106539 0.0106539 0.0106539 0.0106539 0.0106539 0.0106539 0.0106539 0.0106539 0.0106539 0.0106539 0.0106539 0.0106539 0.0106539 0.0106539 0.0106539 0.0106539 0.0106539 0.0106539 0.0106539 0.0106539 0.0106539 0.0106539 0.0106539 0.0106539 0.0106539 0.0106539 0.0106539 0.0106539 0.0106539 0.0106539 0.0106539 0.0106539 0.0106539 0.0106539 0.0106539 0.0106539 0.0106539 0.0106539 0.0106539 0.0106539 0.0106539 0.0106539 0.0106539 0.0106539 0.0106539 0.0106539 0.0106539 0.0106539 0.0106539 0.0106539 0.0106539 0.0106539 0.0106539 0.0106539 0.0106539 0.0106539 0.0106539 0.0106539 0.0106539 0.0106539 0.0106539 0.0106539 0.0106539 0.0106539 0.0106539 0.0106539 0.0106539 0.0106539 0.0106539 0.0106539 0.0106539 0.0106539 0.0106539 0.0106539 0.0106539 0.0106539 0.0106539 0.0106539 0.0106539 0.0106539 0.0106539 0.0106539 0.0106539 0.0106539 0.0106539 0.0106539 0.0106539 0.0106539 0.0106539 0.0106539 0.0106539 0.0106539 0.0106539 0.0106539 0.0106539 0.0106539 0.0106539 0.0106539 0.0106539 0.0106539 0.0106539 0.0106539 0.0106539 0.0106539 0.0106539 0.0106539 0.0106539 0.0106539 0.0106539 0.0106539 0.0106539 0.0106539 0.0106539 0.0106539 0.0106539 0.0106539 0.0106539 0.0106539 0.0106539 0.0106539 0.0106539 0.0106539 0.0106539 0.0106539 0.0106539 0.0106539 0.0106539 0.0106539 0.0106539 0.0106539 0.0106539 0.0106539 0.0106539 0.0106539 0.0106539 0.0106539 0.0106539 0.0106539 0.0106539 0.0106539 0.0106539 0.0106539 0.0106539 0.0106539 0.0106539 0.0106539 0.0106539 0.0106539 0.0106539 0.0106539 0.0106539 0.0106539 0.0106539 0.0106539 0.0106539 0.0106539 0.0106539 0.0106539 0.0106539 0.0106539 0.0106539 0.0106539 0.0106539 0.0106539 0.0106539 0.0106539 0.0106539
        </DataArray>
      </CellData>
    </Piece>
  </UnstructuredGrid>
</VTKFile>
