<?xml version="1.0"?>
<VTKFile type="UnstructuredGrid" version="0.1" byte_order="LittleEndian">
  <UnstructuredGrid>
    <Piece NumberOfPoints="441" NumberOfCells="288">
      <Points>
        <DataArray type="Float32" NumberOfComponents="3" format="ascii">
          -53.4904 -53.033 0 -37.9418 -65.0703 0 -19.8075 -72.6731 0 -0.323424 -75.3234 0 19.1827 -72.8405 0 37.3816 -65.3937 0 53.033 -53.4904 0 -65.3937 -37.3816 0 -35.6603 -35.3553 0 -19.4159 -46.3107 0 -0.215616 -50.2156 0 19.0175 -46.4757 0 35.3553 -35.6603 0 65.0703 -37.9418 0 -72.8405 -19.1827 0 -46.4757 -19.0175 0 -17.8301 -17.6777 0 -0.107808 -25.1078 0 17.6777 -17.8301 0 46.3107 -19.4159 0 72.6731 -19.8075 0 -75.3234 0.323424 0 -50.2156 0.215616 0 -25.1078 0.107808 0 0 0 0 25.1078 -0.107808 0 50.2156 -0.215616 0 75.3234 -0.323424 0 -72.6731 19.8075 0 -46.3107 19.4159 0 -17.6777 17.8301 0 0.107808 25.1078 0 17.8301 17.6777 0 46.4757 19.0175 0 72.8405 19.1827 0 -65.0703 37.9418 0 -35.3553 35.6603 0 -19.0175 46.4757 0 0.215616 50.2156 0 19.4159 46.3107 0 35.6603 35.3553 0 65.3937 37.3816 0 -53.033 53.4904 0 -37.3816 65.3937 0 -19.1827 72.8405 0 0.323424 75.3234 0 19.8075 72.6731 0 37.9418 65.0703 0 53.4904 53.033 0 -53.4904 -53.033 37.032 -37.9418 -65.0703 37.032 -19.8075 -72.6731 37.032 -0.323424 -75.3234 37.032 19.1827 -72.8405 37.032 37.3816 -65.3937 37.032 53.033 -53.4904 37.032 -65.3937 -37.3816 37.032 -35.6603 -35.3553 37.032 -19.4159 -46.3107 37.032 -0.215616 -50.2156 37.032 19.0175 -46.4757 37.032 35.3553 -35.6603 37.032 65.0703 -37.9418 37.032 -72.8405 -19.1827 37.032 -46.4757 -19.0175 37.032 -17.8301 -17.6777 37.032 -0.107808 -25.1078 37.032 17.6777 -17.8301 37.032 46.3107 -19.4159 37.032 72.6731 -19.8075 37.032 -75.3234 0.323424 37.032 -50.2156 0.215616 37.032 -25.1078 0.107808 37.032 2.08967e-17 -2.76602e-17 37.032 25.1078 -0.107808 37.032 50.2156 -0.215616 37.032 75.3234 -0.323424 37.032 -72.6731 19.8075 37.032 -46.3107 19.4159 37.032 -17.6777 17.8301 37.032 0.107808 25.1078 37.032 17.8301 17.6777 37.032 46.4757 19.0175 37.032 72.8405 19.1827 37.032 -65.0703 37.9418 37.032 -35.3553 35.6603 37.032 -19.0175 46.4757 37.032 0.215616 50.2156 37.032 19.4159 46.3107 37.032 35.6603 35.3553 37.032 65.3937 37.3816 37.032 -53.033 53.4904 37.032 -37.3816 65.3937 37.032 -19.1827 72.8405 37.032 0.323424 75.3234 37.032 19.8075 72.6731 37.032 37.9418 65.0703 37.032 53.4904 53.033 37.032 -53.4904 -53.033 74.064 -37.9418 -65.0703 74.064 -19.8075 -72.6731 74.064 -0.323424 -75.3234 74.064 19.1827 -72.8405 74.064 37.3816 -65.3937 74.064 53.033 -53.4904 74.064 -65.3937 -37.3816 74.064 -35.6603 -35.3553 74.064 -19.4159 -46.3107 74.064 -0.215616 -50.2156 74.064 19.0175 -46.4757 74.064 35.3553 -35.6603 74.064 65.0703 -37.9418 74.064 -72.8405 -19.1827 74.064 -46.4757 -19.0175 74.064 -17.8301 -17.6777 74.064 -0.107808 -25.1078 74.064 17.6777 -17.8301 74.064 46.3107 -19.4159 74.064 72.6731 -19.8075 74.064 -75.3234 0.323424 74.064 -50.2156 0.215616 74.064 -25.1078 0.107808 74.064 -3.15717e-17 -1.29193e-16 74.064 25.1078 -0.107808 74.064 50.2156 -0.215616 74.064 75.3234 -0.323424 74.064 -72.6731 19.8075 74.064 -46.3107 19.4159 74.064 -17.6777 17.8301 74.064 0.107808 25.1078 74.064 17.8301 17.6777 74.064 46.4757 19.0175 74.064 72.8405 19.1827 74.064 -65.0703 37.9418 74.064 -35.3553 35.6603 74.064 -19.0175 46.4757 74.064 0.215616 50.2156 74.064 19.4159 46.3107 74.064 35.6603 35.3553 74.064 65.3937 37.3816 74.064 -53.033 53.4904 74.064 -37.3816 65.3937 74.064 -19.1827 72.8405 74.064 0.323424 75.3234 74.064 19.8075 72.6731 74.064 37.9418 65.0703 74.064 53.4904 53.033 74.064 -53.4904 -53.033 111.096 -37.9418 -65.0703 111.096 -19.8075 -72.6731 111.096 -0.323424 -75.3234 111.096 19.1827 -72.8405 111.096 37.3816 -65.3937 111.096 53.033 -53.4904 111.096 -65.3937 -37.3816 111.096 -35.6603 -35.3553 111.096 -19.4159 -46.3107 111.096 -0.215616 -50.2156 111.096 19.0175 -46.4757 111.096 35.3553 -35.6603 111.096 65.0703 -37.9418 111.096 -72.8405 -19.1827 111.096 -46.4757 -19.0175 111.096 -17.8301 -17.6777 111.096 -0.107808 -25.1078 111.096 17.6777 -17.8301 111.096 46.3107 -19.4159 111.096 72.6731 -19.8075 111.096 -75.3234 0.323424 111.096 -50.2156 0.215616 111.096 -25.1078 0.107808 111.096 -7.83181e-17 -3.67529e-16 111.096 25.1078 -0.107808 111.096 50.2156 -0.215616 111.096 75.3234 -0.323424 111.096 -72.6731 19.8075 111.096 -46.3107 19.4159 111.096 -17.6777 17.8301 111.096 0.107808 25.1078 111.096 17.8301 17.6777 111.096 46.4757 19.0175 111.096 72.8405 19.1827 111.096 -65.0703 37.9418 111.096 -35.3553 35.6603 111.096 -19.0175 46.4757 111.096 0.215616 50.2156 111.096 19.4159 46.3107 111.096 35.6603 35.3553 111.096 65.3937 37.3816 111.096 -53.033 53.4904 111.096 -37.3816 65.3937 111.096 -19.1827 72.8405 111.096 0.323424 75.3234 111.096 19.8075 72.6731 111.096 37.9418 65.0703 111.096 53.4904 53.033 111.096 -53.4904 -53.033 148.128 -37.9418 -65.0703 148.128 -19.8075 -72.6731 148.128 -0.323424 -75.3234 148.128 19.1827 -72.8405 148.128 37.3816 -65.3937 148.128 53.033 -53.4904 148.128 -65.3937 -37.3816 148.128 -35.6603 -35.3553 148.128 -19.4159 -46.3107 148.128 -0.215616 -50.2156 148.128 19.0175 -46.4757 148.128 35.3553 -35.6603 148.128 65.0703 -37.9418 148.128 -72.8405 -19.1827 148.128 -46.4757 -19.0175 148.128 -17.8301 -17.6777 148.128 -0.107808 -25.1078 148.128 17.6777 -17.8301 148.128 46.3107 -19.4159 148.128 72.6731 -19.8075 148.128 -75.3234 0.323424 148.128 -50.2156 0.215616 148.128 -25.1078 0.107808 148.128 -3.0544e-17 -6.30867e-16 148.128 25.1078 -0.107808 148.128 50.2156 -0.215616 148.128 75.3234 -0.323424 148.128 -72.6731 19.8075 148.128 -46.3107 19.4159 148.128 -17.6777 17.8301 148.128 0.107808 25.1078 148.128 17.8301 17.6777 148.128 46.4757 19.0175 148.128 72.8405 19.1827 148.128 -65.0703 37.9418 148.128 -35.3553 35.6603 148.128 -19.0175 46.4757 148.128 0.215616 50.2156 148.128 19.4159 46.3107 148.128 35.6603 35.3553 148.128 65.3937 37.3816 148.128 -53.033 53.4904 148.128 -37.3816 65.3937 148.128 -19.1827 72.8405 148.128 0.323424 75.3234 148.128 19.8075 72.6731 148.128 37.9418 65.0703 148.128 53.4904 53.033 148.128 -53.4904 -53.033 185.16 -37.9418 -65.0703 185.16 -19.8075 -72.6731 185.16 -0.323424 -75.3234 185.16 19.1827 -72.8405 185.16 37.3816 -65.3937 185.16 53.033 -53.4904 185.16 -65.3937 -37.3816 185.16 -35.6603 -35.3553 185.16 -19.4159 -46.3107 185.16 -0.215616 -50.2156 185.16 19.0175 -46.4757 185.16 35.3553 -35.6603 185.16 65.0703 -37.9418 185.16 -72.8405 -19.1827 185.16 -46.4757 -19.0175 185.16 -17.8301 -17.6777 185.16 -0.107808 -25.1078 185.16 17.6777 -17.8301 185.16 46.3107 -19.4159 185.16 72.6731 -19.8075 185.16 -75.3234 0.323424 185.16 -50.2156 0.215616 185.16 -25.1078 0.107808 185.16 -3.38724e-17 -9.09669e-16 185.16 25.1078 -0.107808 185.16 50.2156 -0.215616 185.16 75.3234 -0.323424 185.16 -72.6731 19.8075 185.16 -46.3107 19.4159 185.16 -17.6777 17.8301 185.16 0.107808 25.1078 185.16 17.8301 17.6777 185.16 46.4757 19.0175 185.16 72.8405 19.1827 185.16 -65.0703 37.9418 185.16 -35.3553 35.6603 185.16 -19.0175 46.4757 185.16 0.215616 50.2156 185.16 19.4159 46.3107 185.16 35.6603 35.3553 185.16 65.3937 37.3816 185.16 -53.033 53.4904 185.16 -37.3816 65.3937 185.16 -19.1827 72.8405 185.16 0.323424 75.3234 185.16 19.8075 72.6731 185.16 37.9418 65.0703 185.16 53.4904 53.033 185.16 -53.4904 -53.033 222.192 -37.9418 -65.0703 222.192 -19.8075 -72.6731 222.192 -0.323424 -75.3234 222.192 19.1827 -72.8405 222.192 37.3816 -65.3937 222.192 53.033 -53.4904 222.192 -65.3937 -37.3816 222.192 -35.6603 -35.3553 222.192 -19.4159 -46.3107 222.192 -0.215616 -50.2156 222.192 19.0175 -46.4757 222.192 35.3553 -35.6603 222.192 65.0703 -37.9418 222.192 -72.8405 -19.1827 222.192 -46.4757 -19.0175 222.192 -17.8301 -17.6777 222.192 -0.107808 -25.1078 222.192 17.6777 -17.8301 222.192 46.3107 -19.4159 222.192 72.6731 -19.8075 222.192 -75.3234 0.323424 222.192 -50.2156 0.215616 222.192 -25.1078 0.107808 222.192 -5.33718e-17 -1.28531e-15 222.192 25.1078 -0.107808 222.192 50.2156 -0.215616 222.192 75.3234 -0.323424 222.192 -72.6731 19.8075 222.192 -46.3107 19.4159 222.192 -17.6777 17.8301 222.192 0.107808 25.1078 222.192 17.8301 17.6777 222.192 46.4757 19.0175 222.192 72.8405 19.1827 222.192 -65.0703 37.9418 222.192 -35.3553 35.6603 222.192 -19.0175 46.4757 222.192 0.215616 50.2156 222.192 19.4159 46.3107 222.192 35.6603 35.3553 222.192 65.3937 37.3816 222.192 -53.033 53.4904 222.192 -37.3816 65.3937 222.192 -19.1827 72.8405 222.192 0.323424 75.3234 222.192 19.8075 72.6731 222.192 37.9418 65.0703 222.192 53.4904 53.033 222.192 -53.4904 -53.033 259.224 -37.9418 -65.0703 259.224 -19.8075 -72.6731 259.224 -0.323424 -75.3234 259.224 19.1827 -72.8405 259.224 37.3816 -65.3937 259.224 53.033 -53.4904 259.224 -65.3937 -37.3816 259.224 -35.6603 -35.3553 259.224 -19.4159 -46.3107 259.224 -0.215616 -50.2156 259.224 19.0175 -46.4757 259.224 35.3553 -35.6603 259.224 65.0703 -37.9418 259.224 -72.8405 -19.1827 259.224 -46.4757 -19.0175 259.224 -17.8301 -17.6777 259.224 -0.107808 -25.1078 259.224 17.6777 -17.8301 259.224 46.3107 -19.4159 259.224 72.6731 -19.8075 259.224 -75.3234 0.323424 259.224 -50.2156 0.215616 259.224 -25.1078 0.107808 259.224 1.68488e-18 -1.39409e-15 259.224 25.1078 -0.107808 259.224 50.2156 -0.215616 259.224 75.3234 -0.323424 259.224 -72.6731 19.8075 259.224 -46.3107 19.4159 259.224 -17.6777 17.8301 259.224 0.107808 25.1078 259.224 17.8301 17.6777 259.224 46.4757 19.0175 259.224 72.8405 19.1827 259.224 -65.0703 37.9418 259.224 -35.3553 35.6603 259.224 -19.0175 46.4757 259.224 0.215616 50.2156 259.224 19.4159 46.3107 259.224 35.6603 35.3553 259.224 65.3937 37.3816 259.224 -53.033 53.4904 259.224 -37.3816 65.3937 259.224 -19.1827 72.8405 259.224 0.323424 75.3234 259.224 19.8075 72.6731 259.224 37.9418 65.0703 259.224 53.4904 53.033 259.224 -53.4904 -53.033 296.256 -37.9418 -65.0703 296.256 -19.8075 -72.6731 296.256 -0.323424 -75.3234 296.256 19.1827 -72.8405 296.256 37.3816 -65.3937 296.256 53.033 -53.4904 296.256 -65.3937 -37.3816 296.256 -35.6603 -35.3553 296.256 -19.4159 -46.3107 296.256 -0.215616 -50.2156 296.256 19.0175 -46.4757 296.256 35.3553 -35.6603 296.256 65.0703 -37.9418 296.256 -72.8405 -19.1827 296.256 -46.4757 -19.0175 296.256 -17.8301 -17.6777 296.256 -0.107808 -25.1078 296.256 17.6777 -17.8301 296.256 46.3107 -19.4159 296.256 72.6731 -19.8075 296.256 -75.3234 0.323424 296.256 -50.2156 0.215616 296.256 -25.1078 0.107808 296.256 -3.44986e-17 -1.52058e-15 296.256 25.1078 -0.107808 296.256 50.2156 -0.215616 296.256 75.3234 -0.323424 296.256 -72.6731 19.8075 296.256 -46.3107 19.4159 296.256 -17.6777 17.8301 296.256 0.107808 25.1078 296.256 17.8301 17.6777 296.256 46.4757 19.0175 296.256 72.8405 19.1827 296.256 -65.0703 37.9418 296.256 -35.3553 35.6603 296.256 -19.0175 46.4757 296.256 0.215616 50.2156 296.256 19.4159 46.3107 296.256 35.6603 35.3553 296.256 65.3937 37.3816 296.256 -53.033 53.4904 296.256 -37.3816 65.3937 296.256 -19.1827 72.8405 296.256 0.323424 75.3234 296.256 19.8075 72.6731 296.256 37.9418 65.0703 296.256 53.4904 53.033 296.256
        </DataArray>
      </Points>
      <Cells>
        <DataArray type="Int32" Name="connectivity" format="ascii">
          0 1 8 7 49 50 57 56 1 2 9 8 50 51 58 57 2 3 10 9 51 52 59 58 3 4 11 10 52 53 60 59 4 5 12 11 53 54 61 60 5 6 13 12 54 55 62 61 7 8 15 14 56 57 64 63 8 9 16 15 57 58 65 64 9 10 17 16 58 59 66 65 10 11 18 17 59 60 67 66 11 12 19 18 60 61 68 67 12 13 20 19 61 62 69 68 14 15 22 21 63 64 71 70 15 16 23 22 64 65 72 71 16 17 24 23 65 66 73 72 17 18 25 24 66 67 74 73 18 19 26 25 67 68 75 74 19 20 27 26 68 69 76 75 21 22 29 28 70 71 78 77 22 23 30 29 71 72 79 78 23 24 31 30 72 73 80 79 24 25 32 31 73 74 81 80 25 26 33 32 74 75 82 81 26 27 34 33 75 76 83 82 28 29 36 35 77 78 85 84 29 30 37 36 78 79 86 85 30 31 38 37 79 80 87 86 31 32 39 38 80 81 88 87 32 33 40 39 81 82 89 88 33 34 41 40 82 83 90 89 35 36 43 42 84 85 92 91 36 37 44 43 85 86 93 92 37 38 45 44 86 87 94 93 38 39 46 45 87 88 95 94 39 40 47 46 88 89 96 95 40 41 48 47 89 90 97 96 49 50 57 56 98 99 106 105 50 51 58 57 99 100 107 106 51 52 59 58 100 101 108 107 52 53 60 59 101 102 109 108 53 54 61 60 102 103 110 109 54 55 62 61 103 104 111 110 56 57 64 63 105 106 113 112 57 58 65 64 106 107 114 113 58 59 66 65 107 108 115 114 59 60 67 66 108 109 116 115 60 61 68 67 109 110 117 116 61 62 69 68 110 111 118 117 63 64 71 70 112 113 120 119 64 65 72 71 113 114 121 120 65 66 73 72 114 115 122 121 66 67 74 73 115 116 123 122 67 68 75 74 116 117 124 123 68 69 76 75 117 118 125 124 70 71 78 77 119 120 127 126 71 72 79 78 120 121 128 127 72 73 80 79 121 122 129 128 73 74 81 80 122 123 130 129 74 75 82 81 123 124 131 130 75 76 83 82 124 125 132 131 77 78 85 84 126 127 134 133 78 79 86 85 127 128 135 134 79 80 87 86 128 129 136 135 80 81 88 87 129 130 137 136 81 82 89 88 130 131 138 137 82 83 90 89 131 132 139 138 84 85 92 91 133 134 141 140 85 86 93 92 134 135 142 141 86 87 94 93 135 136 143 142 87 88 95 94 136 137 144 143 88 89 96 95 137 138 145 144 89 90 97 96 138 139 146 145 98 99 106 105 147 148 155 154 99 100 107 106 148 149 156 155 100 101 108 107 149 150 157 156 101 102 109 108 150 151 158 157 102 103 110 109 151 152 159 158 103 104 111 110 152 153 160 159 105 106 113 112 154 155 162 161 106 107 114 113 155 156 163 162 107 108 115 114 156 157 164 163 108 109 116 115 157 158 165 164 109 110 117 116 158 159 166 165 110 111 118 117 159 160 167 166 112 113 120 119 161 162 169 168 113 114 121 120 162 163 170 169 114 115 122 121 163 164 171 170 115 116 123 122 164 165 172 171 116 117 124 123 165 166 173 172 117 118 125 124 166 167 174 173 119 120 127 126 168 169 176 175 120 121 128 127 169 170 177 176 121 122 129 128 170 171 178 177 122 123 130 129 171 172 179 178 123 124 131 130 172 173 180 179 124 125 132 131 173 174 181 180 126 127 134 133 175 176 183 182 127 128 135 134 176 177 184 183 128 129 136 135 177 178 185 184 129 130 137 136 178 179 186 185 130 131 138 137 179 180 187 186 131 132 139 138 180 181 188 187 133 134 141 140 182 183 190 189 134 135 142 141 183 184 191 190 135 136 143 142 184 185 192 191 136 137 144 143 185 186 193 192 137 138 145 144 186 187 194 193 138 139 146 145 187 188 195 194 147 148 155 154 196 197 204 203 148 149 156 155 197 198 205 204 149 150 157 156 198 199 206 205 150 151 158 157 199 200 207 206 151 152 159 158 200 201 208 207 152 153 160 159 201 202 209 208 154 155 162 161 203 204 211 210 155 156 163 162 204 205 212 211 156 157 164 163 205 206 213 212 157 158 165 164 206 207 214 213 158 159 166 165 207 208 215 214 159 160 167 166 208 209 216 215 161 162 169 168 210 211 218 217 162 163 170 169 211 212 219 218 163 164 171 170 212 213 220 219 164 165 172 171 213 214 221 220 165 166 173 172 214 215 222 221 166 167 174 173 215 216 223 222 168 169 176 175 217 218 225 224 169 170 177 176 218 219 226 225 170 171 178 177 219 220 227 226 171 172 179 178 220 221 228 227 172 173 180 179 221 222 229 228 173 174 181 180 222 223 230 229 175 176 183 182 224 225 232 231 176 177 184 183 225 226 233 232 177 178 185 184 226 227 234 233 178 179 186 185 227 228 235 234 179 180 187 186 228 229 236 235 180 181 188 187 229 230 237 236 182 183 190 189 231 232 239 238 183 184 191 190 232 233 240 239 184 185 192 191 233 234 241 240 185 186 193 192 234 235 242 241 186 187 194 193 235 236 243 242 187 188 195 194 236 237 244 243 196 197 204 203 245 246 253 252 197 198 205 204 246 247 254 253 198 199 206 205 247 248 255 254 199 200 207 206 248 249 256 255 200 201 208 207 249 250 257 256 201 202 209 208 250 251 258 257 203 204 211 210 252 253 260 259 204 205 212 211 253 254 261 260 205 206 213 212 254 255 262 261 206 207 214 213 255 256 263 262 207 208 215 214 256 257 264 263 208 209 216 215 257 258 265 264 210 211 218 217 259 260 267 266 211 212 219 218 260 261 268 267 212 213 220 219 261 262 269 268 213 214 221 220 262 263 270 269 214 215 222 221 263 264 271 270 215 216 223 222 264 265 272 271 217 218 225 224 266 267 274 273 218 219 226 225 267 268 275 274 219 220 227 226 268 269 276 275 220 221 228 227 269 270 277 276 221 222 229 228 270 271 278 277 222 223 230 229 271 272 279 278 224 225 232 231 273 274 281 280 225 226 233 232 274 275 282 281 226 227 234 233 275 276 283 282 227 228 235 234 276 277 284 283 228 229 236 235 277 278 285 284 229 230 237 236 278 279 286 285 231 232 239 238 280 281 288 287 232 233 240 239 281 282 289 288 233 234 241 240 282 283 290 289 234 235 242 241 283 284 291 290 235 236 243 242 284 285 292 291 236 237 244 243 285 286 293 292 245 246 253 252 294 295 302 301 246 247 254 253 295 296 303 302 247 248 255 254 296 297 304 303 248 249 256 255 297 298 305 304 249 250 257 256 298 299 306 305 250 251 258 257 299 300 307 306 252 253 260 259 301 302 309 308 253 254 261 260 302 303 310 309 254 255 262 261 303 304 311 310 255 256 263 262 304 305 312 311 256 257 264 263 305 306 313 312 257 258 265 264 306 307 314 313 259 260 267 266 308 309 316 315 260 261 268 267 309 310 317 316 261 262 269 268 310 311 318 317 262 263 270 269 311 312 319 318 263 264 271 270 312 313 320 319 264 265 272 271 313 314 321 320 266 267 274 273 315 316 323 322 267 268 275 274 316 317 324 323 268 269 276 275 317 318 325 324 269 270 277 276 318 319 326 325 270 271 278 277 319 320 327 326 271 272 279 278 320 321 328 327 273 274 281 280 322 323 330 329 274 275 282 281 323 324 331 330 275 276 283 282 324 325 332 331 276 277 284 283 325 326 333 332 277 278 285 284 326 327 334 333 278 279 286 285 327 328 335 334 280 281 288 287 329 330 337 336 281 282 289 288 330 331 338 337 282 283 290 289 331 332 339 338 283 284 291 290 332 333 340 339 284 285 292 291 333 334 341 340 285 286 293 292 334 335 342 341 294 295 302 301 343 344 351 350 295 296 303 302 344 345 352 351 296 297 304 303 345 346 353 352 297 298 305 304 346 347 354 353 298 299 306 305 347 348 355 354 299 300 307 306 348 349 356 355 301 302 309 308 350 351 358 357 302 303 310 309 351 352 359 358 303 304 311 310 352 353 360 359 304 305 312 311 353 354 361 360 305 306 313 312 354 355 362 361 306 307 314 313 355 356 363 362 308 309 316 315 357 358 365 364 309 310 317 316 358 359 366 365 310 311 318 317 359 360 367 366 311 312 319 318 360 361 368 367 312 313 320 319 361 362 369 368 313 314 321 320 362 363 370 369 315 316 323 322 364 365 372 371 316 317 324 323 365 366 373 372 317 318 325 324 366 367 374 373 318 319 326 325 367 368 375 374 319 320 327 326 368 369 376 375 320 321 328 327 369 370 377 376 322 323 330 329 371 372 379 378 323 324 331 330 372 373 380 379 324 325 332 331 373 374 381 380 325 326 333 332 374 375 382 381 326 327 334 333 375 376 383 382 327 328 335 334 376 377 384 383 329 330 337 336 378 379 386 385 330 331 338 337 379 380 387 386 331 332 339 338 380 381 388 387 332 333 340 339 381 382 389 388 333 334 341 340 382 383 390 389 334 335 342 341 383 384 391 390 343 344 351 350 392 393 400 399 344 345 352 351 393 394 401 400 345 346 353 352 394 395 402 401 346 347 354 353 395 396 403 402 347 348 355 354 396 397 404 403 348 349 356 355 397 398 405 404 350 351 358 357 399 400 407 406 351 352 359 358 400 401 408 407 352 353 360 359 401 402 409 408 353 354 361 360 402 403 410 409 354 355 362 361 403 404 411 410 355 356 363 362 404 405 412 411 357 358 365 364 406 407 414 413 358 359 366 365 407 408 415 414 359 360 367 366 408 409 416 415 360 361 368 367 409 410 417 416 361 362 369 368 410 411 418 417 362 363 370 369 411 412 419 418 364 365 372 371 413 414 421 420 365 366 373 372 414 415 422 421 366 367 374 373 415 416 423 422 367 368 375 374 416 417 424 423 368 369 376 375 417 418 425 424 369 370 377 376 418 419 426 425 371 372 379 378 420 421 428 427 372 373 380 379 421 422 429 428 373 374 381 380 422 423 430 429 374 375 382 381 423 424 431 430 375 376 383 382 424 425 432 431 376 377 384 383 425 426 433 432 378 379 386 385 427 428 435 434 379 380 387 386 428 429 436 435 380 381 388 387 429 430 437 436 381 382 389 388 430 431 438 437 382 383 390 389 431 432 439 438 383 384 391 390 432 433 440 439
        </DataArray>
        <DataArray type="Int32" Name="offsets" format="ascii">
          8 16 24 32 40 48 56 64 72 80 88 96 104 112 120 128 136 144 152 160 168 176 184 192 200 208 216 224 232 240 248 256 264 272 280 288 296 304 312 320 328 336 344 352 360 368 376 384 392 400 408 416 424 432 440 448 456 464 472 480 488 496 504 512 520 528 536 544 552 560 568 576 584 592 600 608 616 624 632 640 648 656 664 672 680 688 696 704 712 720 728 736 744 752 760 768 776 784 792 800 808 816 824 832 840 848 856 864 872 880 888 896 904 912 920 928 936 944 952 960 968 976 984 992 1000 1008 1016 1024 1032 1040 1048 1056 1064 1072 1080 1088 1096 1104 1112 1120 1128 1136 1144 1152 1160 1168 1176 1184 1192 1200 1208 1216 1224 1232 1240 1248 1256 1264 1272 1280 1288 1296 1304 1312 1320 1328 1336 1344 1352 1360 1368 1376 1384 1392 1400 1408 1416 1424 1432 1440 1448 1456 1464 1472 1480 1488 1496 1504 1512 1520 1528 1536 1544 1552 1560 1568 1576 1584 1592 1600 1608 1616 1624 1632 1640 1648 1656 1664 1672 1680 1688 1696 1704 1712 1720 1728 1736 1744 1752 1760 1768 1776 1784 1792 1800 1808 1816 1824 1832 1840 1848 1856 1864 1872 1880 1888 1896 1904 1912 1920 1928 1936 1944 1952 1960 1968 1976 1984 1992 2000 2008 2016 2024 2032 2040 2048 2056 2064 2072 2080 2088 2096 2104 2112 2120 2128 2136 2144 2152 2160 2168 2176 2184 2192 2200 2208 2216 2224 2232 2240 2248 2256 2264 2272 2280 2288 2296 2304
        </DataArray>
        <DataArray type="UInt8" Name="types" format="ascii">
          12 12 12 12 12 12 12 12 12 12 12 12 12 12 12 12 12 12 12 12 12 12 12 12 12 12 12 12 12 12 12 12 12 12 12 12 12 12 12 12 12 12 12 12 12 12 12 12 12 12 12 12 12 12 12 12 12 12 12 12 12 12 12 12 12 12 12 12 12 12 12 12 12 12 12 12 12 12 12 12 12 12 12 12 12 12 12 12 12 12 12 12 12 12 12 12 12 12 12 12 12 12 12 12 12 12 12 12 12 12 12 12 12 12 12 12 12 12 12 12 12 12 12 12 12 12 12 12 12 12 12 12 12 12 12 12 12 12 12 12 12 12 12 12 12 12 12 12 12 12 12 12 12 12 12 12 12 12 12 12 12 12 12 12 12 12 12 12 12 12 12 12 12 12 12 12 12 12 12 12 12 12 12 12 12 12 12 12 12 12 12 12 12 12 12 12 12 12 12 12 12 12 12 12 12 12 12 12 12 12 12 12 12 12 12 12 12 12 12 12 12 12 12 12 12 12 12 12 12 12 12 12 12 12 12 12 12 12 12 12 12 12 12 12 12 12 12 12 12 12 12 12 12 12 12 12 12 12 12 12 12 12 12 12 12 12 12 12 12 12 12 12 12 12 12 12 12 12 12 12 12 12 12 12 12 12 12 12
        </DataArray>
      </Cells>
      <PointData>
        <DataArray type="Float32" Name="displacement" NumberOfComponents="3" format="ascii">
          -0.0571739 0 0 -0.0552257 -0.0147977 0 -0.049514 -0.0285869 0 -0.0404281 -0.0404281 0 -0.0285869 -0.049514 0 -0.0147977 -0.0552257 0 1.25792e-17 -0.0571739 0 -0.0552257 0.0147977 0 -0.0381159 2.19275e-18 0 -0.0352145 -0.0145863 0 -0.026952 -0.026952 0 -0.0145863 -0.0352145 0 -1.09917e-18 -0.0381159 0 0.0147977 -0.0552257 0 -0.049514 0.0285869 0 -0.0352145 0.0145863 0 -0.019058 7.08199e-18 0 -0.013476 -0.013476 0 -6.80365e-18 -0.019058 0 0.0145863 -0.0352145 0 0.0285869 -0.049514 0 -0.0404281 0.0404281 0 -0.026952 0.026952 0 -0.013476 0.013476 0 0 0 0 0.013476 -0.013476 0 0.026952 -0.026952 0 0.0404281 -0.0404281 0 -0.0285869 0.049514 0 -0.0145863 0.0352145 0 4.68276e-18 0.019058 0 0.013476 0.013476 0 0.019058 -7.53149e-18 0 0.0352145 -0.0145863 0 0.049514 -0.0285869 0 -0.0147977 0.0552257 0 1.17981e-17 0.0381159 0 0.0145863 0.0352145 0 0.026952 0.026952 0 0.0352145 0.0145863 0 0.0381159 -7.39751e-18 0 0.0552257 -0.0147977 0 1.30107e-17 0.0571739 0 0.0147977 0.0552257 0 0.0285869 0.049514 0 0.0404281 0.0404281 0 0.049514 0.0285869 0 0.0552257 0.0147977 0 0.0571739 -4.72708e-18 0 -0.0571739 -2.53454e-17 -0.0585 -0.0552257 -0.0147977 -0.0585 -0.049514 -0.0285869 -0.0585 -0.0404281 -0.0404281 -0.0585 -0.0285869 -0.049514 -0.0585 -0.0147977 -0.0552257 -0.0585 2.93779e-17 -0.0571739 -0.0585 -0.0552257 0.0147977 -0.0585 -0.0381159 -1.42397e-17 -0.0585 -0.0352145 -0.0145863 -0.0585 -0.026952 -0.026952 -0.0585 -0.0145863 -0.0352145 -0.0585 1.06312e-17 -0.0381159 -0.0585 0.0147977 -0.0552257 -0.0585 -0.049514 0.0285869 -0.0585 -0.0352145 0.0145863 -0.0585 -0.019058 -8.42541e-18 -0.0585 -0.013476 -0.013476 -0.0585 1.88863e-18 -0.019058 -0.0585 0.0145863 -0.0352145 -0.0585 0.0285869 -0.049514 -0.0585 -0.0404281 0.0404281 -0.0585 -0.026952 0.026952 -0.0585 -0.013476 0.013476 -0.0585 2.61208e-18 -3.45752e-18 -0.0585 0.013476 -0.013476 -0.0585 0.026952 -0.026952 -0.0585 0.0404281 -0.0404281 -0.0585 -0.0285869 0.049514 -0.0585 -0.0145863 0.0352145 -0.0585 -5.67726e-18 0.019058 -0.0585 0.013476 0.013476 -0.0585 0.019058 -3.58637e-18 -0.0585 0.0352145 -0.0145863 -0.0585 0.049514 -0.0285869 -0.0585 -0.0147977 0.0552257 -0.0585 -2.31662e-18 0.0381159 -0.0585 0.0145863 0.0352145 -0.0585 0.026952 0.026952 -0.0585 0.0352145 0.0145863 -0.0585 0.0381159 4.20481e-18 -0.0585 0.0552257 -0.0147977 -0.0585 -1.37734e-17 0.0571739 -0.0585 0.0147977 0.0552257 -0.0585 0.0285869 0.049514 -0.0585 0.0404281 0.0404281 -0.0585 0.049514 0.0285869 -0.0585 0.0552257 0.0147977 -0.0585 0.0571739 1.53875e-17 -0.0585 -0.0571739 -1.02509e-16 -0.117 -0.0552257 -0.0147977 -0.117 -0.049514 -0.0285869 -0.117 -0.0404281 -0.0404281 -0.117 -0.0285869 -0.049514 -0.117 -0.0147977 -0.0552257 -0.117 9.01285e-17 -0.0571739 -0.117 -0.0552257 0.0147977 -0.117 -0.0381159 -7.17719e-17 -0.117 -0.0352145 -0.0145863 -0.117 -0.026952 -0.026952 -0.117 -0.0145863 -0.0352145 -0.117 5.49761e-17 -0.0381159 -0.117 0.0147977 -0.0552257 -0.117 -0.049514 0.0285869 -0.117 -0.0352145 0.0145863 -0.117 -0.019058 -4.44975e-17 -0.117 -0.013476 -0.013476 -0.117 2.18282e-17 -0.019058 -0.117 0.0145863 -0.0352145 -0.117 0.0285869 -0.049514 -0.117 -0.0404281 0.0404281 -0.117 -0.026952 0.026952 -0.117 -0.013476 0.013476 -0.117 -3.94647e-18 -1.61492e-17 -0.117 0.013476 -0.013476 -0.117 0.026952 -0.026952 -0.117 0.0404281 -0.0404281 -0.117 -0.0285869 0.049514 -0.117 -0.0145863 0.0352145 -0.117 -3.03269e-17 0.019058 -0.117 0.013476 0.013476 -0.117 0.019058 7.28696e-18 -0.117 0.0352145 -0.0145863 -0.117 0.049514 -0.0285869 -0.117 -0.0147977 0.0552257 -0.117 -5.24513e-17 0.0381159 -0.117 0.0145863 0.0352145 -0.117 0.026952 0.026952 -0.117 0.0352145 0.0145863 -0.117 0.0381159 3.43447e-17 -0.117 0.0552257 -0.0147977 -0.117 -7.28437e-17 0.0571739 -0.117 0.0147977 0.0552257 -0.117 0.0285869 0.049514 -0.117 0.0404281 0.0404281 -0.117 0.049514 0.0285869 -0.117 0.0552257 0.0147977 -0.117 0.0571739 6.20769e-17 -0.117 -0.0571739 -2.1792e-16 -0.1755 -0.0552257 -0.0147977 -0.1755 -0.049514 -0.0285869 -0.1755 -0.0404281 -0.0404281 -0.1755 -0.0285869 -0.049514 -0.1755 -0.0147977 -0.0552257 -0.1755 1.81319e-16 -0.0571739 -0.1755 -0.0552257 0.0147977 -0.1755 -0.0381159 -1.60894e-16 -0.1755 -0.0352145 -0.0145863 -0.1755 -0.026952 -0.026952 -0.1755 -0.0145863 -0.0352145 -0.1755 1.1538e-16 -0.0381159 -0.1755 0.0147977 -0.0552257 -0.1755 -0.049514 0.0285869 -0.1755 -0.0352145 0.0145863 -0.1755 -0.019058 -1.01552e-16 -0.1755 -0.013476 -0.013476 -0.1755 5.12799e-17 -0.019058 -0.1755 0.0145863 -0.0352145 -0.1755 0.0285869 -0.049514 -0.1755 -0.0404281 0.0404281 -0.1755 -0.026952 0.026952 -0.1755 -0.013476 0.013476 -0.1755 -9.78976e-18 -4.59411e-17 -0.1755 0.013476 -0.013476 -0.1755 0.026952 -0.026952 -0.1755 0.0404281 -0.0404281 -0.1755 -0.0285869 0.049514 -0.1755 -0.0145863 0.0352145 -0.1755 -6.72523e-17 0.019058 -0.1755 0.013476 0.013476 -0.1755 0.019058 1.09036e-17 -0.1755 0.0352145 -0.0145863 -0.1755 0.049514 -0.0285869 -0.1755 -0.0147977 0.0552257 -0.1755 -1.12775e-16 0.0381159 -0.1755 0.0145863 0.0352145 -0.1755 0.026952 0.026952 -0.1755 0.0352145 0.0145863 -0.1755 0.0381159 7.09557e-17 -0.1755 0.0552257 -0.0147977 -0.1755 -1.70283e-16 0.0571739 -0.1755 0.0147977 0.0552257 -0.1755 0.0285869 0.049514 -0.1755 0.0404281 0.0404281 -0.1755 0.049514 0.0285869 -0.1755 0.0552257 0.0147977 -0.1755 0.0571739 1.30507e-16 -0.1755 -0.0571739 -3.77096e-16 -0.234 -0.0552257 -0.0147977 -0.234 -0.049514 -0.0285869 -0.234 -0.0404281 -0.0404281 -0.234 -0.0285869 -0.049514 -0.234 -0.0147977 -0.0552257 -0.234 2.96418e-16 -0.0571739 -0.234 -0.0552257 0.0147977 -0.234 -0.0381159 -2.75921e-16 -0.234 -0.0352145 -0.0145863 -0.234 -0.026952 -0.026952 -0.234 -0.0145863 -0.0352145 -0.234 1.9533e-16 -0.0381159 -0.234 0.0147977 -0.0552257 -0.234 -0.049514 0.0285869 -0.234 -0.0352145 0.0145863 -0.234 -0.019058 -1.74442e-16 -0.234 -0.013476 -0.013476 -0.234 8.98581e-17 -0.019058 -0.234 0.0145863 -0.0352145 -0.234 0.0285869 -0.049514 -0.234 -0.0404281 0.0404281 -0.234 -0.026952 0.026952 -0.234 -0.013476 0.013476 -0.234 -3.818e-18 -7.88583e-17 -0.234 0.013476 -0.013476 -0.234 0.026952 -0.026952 -0.234 0.0404281 -0.0404281 -0.234 -0.0285869 0.049514 -0.234 -0.0145863 0.0352145 -0.234 -1.01442e-16 0.019058 -0.234 0.013476 0.013476 -0.234 0.019058 1.89191e-17 -0.234 0.0352145 -0.0145863 -0.234 0.049514 -0.0285869 -0.234 -0.0147977 0.0552257 -0.234 -1.90719e-16 0.0381159 -0.234 0.0145863 0.0352145 -0.234 0.026952 0.026952 -0.234 0.0352145 0.0145863 -0.234 0.0381159 1.17564e-16 -0.234 0.0552257 -0.0147977 -0.234 -2.86264e-16 0.0571739 -0.234 0.0147977 0.0552257 -0.234 0.0285869 0.049514 -0.234 0.0404281 0.0404281 -0.234 0.049514 0.0285869 -0.234 0.0552257 0.0147977 -0.234 0.0571739 2.11621e-16 -0.234 -0.0571739 -5.18699e-16 -0.2925 -0.0552257 -0.0147977 -0.2925 -0.049514 -0.0285869 -0.2925 -0.0404281 -0.0404281 -0.2925 -0.0285869 -0.049514 -0.2925 -0.0147977 -0.0552257 -0.2925 3.97595e-16 -0.0571739 -0.2925 -0.0552257 0.0147977 -0.2925 -0.0381159 -3.88178e-16 -0.2925 -0.0352145 -0.0145863 -0.2925 -0.026952 -0.026952 -0.2925 -0.0145863 -0.0352145 -0.2925 2.61556e-16 -0.0381159 -0.2925 0.0147977 -0.0552257 -0.2925 -0.049514 0.0285869 -0.2925 -0.0352145 0.0145863 -0.2925 -0.019058 -2.53502e-16 -0.2925 -0.013476 -0.013476 -0.2925 1.29905e-16 -0.019058 -0.2925 0.0145863 -0.0352145 -0.2925 0.0285869 -0.049514 -0.2925 -0.0404281 0.0404281 -0.2925 -0.026952 0.026952 -0.2925 -0.013476 0.013476 -0.2925 -4.23405e-18 -1.13709e-16 -0.2925 0.013476 -0.013476 -0.2925 0.026952 -0.026952 -0.2925 0.0404281 -0.0404281 -0.2925 -0.0285869 0.049514 -0.2925 -0.0145863 0.0352145 -0.2925 -1.44029e-16 0.019058 -0.2925 0.013476 0.013476 -0.2925 0.019058 1.77682e-17 -0.2925 0.0352145 -0.0145863 -0.2925 0.049514 -0.0285869 -0.2925 -0.0147977 0.0552257 -0.2925 -2.70813e-16 0.0381159 -0.2925 0.0145863 0.0352145 -0.2925 0.026952 0.026952 -0.2925 0.0352145 0.0145863 -0.2925 0.0381159 1.56429e-16 -0.2925 0.0552257 -0.0147977 -0.2925 -4.08369e-16 0.0571739 -0.2925 0.0147977 0.0552257 -0.2925 0.0285869 0.049514 -0.2925 0.0404281 0.0404281 -0.2925 0.049514 0.0285869 -0.2925 0.0552257 0.0147977 -0.2925 0.0571739 2.87739e-16 -0.2925 -0.0571739 -6.54925e-16 -0.351 -0.0552257 -0.0147977 -0.351 -0.049514 -0.0285869 -0.351 -0.0404281 -0.0404281 -0.351 -0.0285869 -0.049514 -0.351 -0.0147977 -0.0552257 -0.351 4.80556e-16 -0.0571739 -0.351 -0.0552257 0.0147977 -0.351 -0.0381159 -4.94323e-16 -0.351 -0.0352145 -0.0145863 -0.351 -0.026952 -0.026952 -0.351 -0.0145863 -0.0352145 -0.351 3.24482e-16 -0.0381159 -0.351 0.0147977 -0.0552257 -0.351 -0.049514 0.0285869 -0.351 -0.0352145 0.0145863 -0.351 -0.019058 -3.29153e-16 -0.351 -0.013476 -0.013476 -0.351 1.60671e-16 -0.019058 -0.351 0.0145863 -0.0352145 -0.351 0.0285869 -0.049514 -0.351 -0.0404281 0.0404281 -0.351 -0.026952 0.026952 -0.351 -0.013476 0.013476 -0.351 -6.67147e-18 -1.60663e-16 -0.351 0.013476 -0.013476 -0.351 0.026952 -0.026952 -0.351 0.0404281 -0.0404281 -0.351 -0.0285869 0.049514 -0.351 -0.0145863 0.0352145 -0.351 -1.75501e-16 0.019058 -0.351 0.013476 0.013476 -0.351 0.019058 -1.61032e-18 -0.351 0.0352145 -0.0145863 -0.351 0.049514 -0.0285869 -0.351 -0.0147977 0.0552257 -0.351 -3.45333e-16 0.0381159 -0.351 0.0145863 0.0352145 -0.351 0.026952 0.026952 -0.351 0.0352145 0.0145863 -0.351 0.0381159 1.65615e-16 -0.351 0.0552257 -0.0147977 -0.351 -5.18913e-16 0.0571739 -0.351 0.0147977 0.0552257 -0.351 0.0285869 0.049514 -0.351 0.0404281 0.0404281 -0.351 0.049514 0.0285869 -0.351 0.0552257 0.0147977 -0.351 0.0571739 3.25612e-16 -0.351 -0.0571739 -7.22197e-16 -0.4095 -0.0552257 -0.0147977 -0.4095 -0.049514 -0.0285869 -0.4095 -0.0404281 -0.0404281 -0.4095 -0.0285869 -0.049514 -0.4095 -0.0147977 -0.0552257 -0.4095 5.23012e-16 -0.0571739 -0.4095 -0.0552257 0.0147977 -0.4095 -0.0381159 -5.48458e-16 -0.4095 -0.0352145 -0.0145863 -0.4095 -0.026952 -0.026952 -0.4095 -0.0145863 -0.0352145 -0.4095 3.49352e-16 -0.0381159 -0.4095 0.0147977 -0.0552257 -0.4095 -0.049514 0.0285869 -0.4095 -0.0352145 0.0145863 -0.4095 -0.019058 -3.62353e-16 -0.4095 -0.013476 -0.013476 -0.4095 1.73781e-16 -0.019058 -0.4095 0.0145863 -0.0352145 -0.4095 0.0285869 -0.049514 -0.4095 -0.0404281 0.0404281 -0.4095 -0.026952 0.026952 -0.4095 -0.013476 0.013476 -0.4095 2.1061e-19 -1.74261e-16 -0.4095 0.013476 -0.013476 -0.4095 0.026952 -0.026952 -0.4095 0.0404281 -0.0404281 -0.4095 -0.0285869 0.049514 -0.4095 -0.0145863 0.0352145 -0.4095 -1.93205e-16 0.019058 -0.4095 0.013476 0.013476 -0.4095 0.019058 7.42334e-18 -0.4095 0.0352145 -0.0145863 -0.4095 0.049514 -0.0285869 -0.4095 -0.0147977 0.0552257 -0.4095 -3.74339e-16 0.0381159 -0.4095 0.0145863 0.0352145 -0.4095 0.026952 0.026952 -0.4095 0.0352145 0.0145863 -0.4095 0.0381159 1.85602e-16 -0.4095 0.0552257 -0.0147977 -0.4095 -5.66163e-16 0.0571739 -0.4095 0.0147977 0.0552257 -0.4095 0.0285869 0.049514 -0.4095 0.0404281 0.0404281 -0.4095 0.049514 0.0285869 -0.4095 0.0552257 0.0147977 -0.4095 0.0571739 3.502e-16 -0.4095 -0.0571739 -7.43774e-16 -0.468 -0.0552257 -0.0147977 -0.468 -0.049514 -0.0285869 -0.468 -0.0404281 -0.0404281 -0.468 -0.0285869 -0.049514 -0.468 -0.0147977 -0.0552257 -0.468 5.40366e-16 -0.0571739 -0.468 -0.0552257 0.0147977 -0.468 -0.0381159 -5.5918e-16 -0.468 -0.0352145 -0.0145863 -0.468 -0.026952 -0.026952 -0.468 -0.0145863 -0.0352145 -0.468 3.77863e-16 -0.0381159 -0.468 0.0147977 -0.0552257 -0.468 -0.049514 0.0285869 -0.468 -0.0352145 0.0145863 -0.468 -0.019058 -3.78026e-16 -0.468 -0.013476 -0.013476 -0.468 1.86976e-16 -0.019058 -0.468 0.0145863 -0.0352145 -0.468 0.0285869 -0.049514 -0.468 -0.0404281 0.0404281 -0.468 -0.026952 0.026952 -0.468 -0.013476 0.013476 -0.468 -4.31232e-18 -1.90073e-16 -0.468 0.013476 -0.013476 -0.468 0.026952 -0.026952 -0.468 0.0404281 -0.0404281 -0.468 -0.0285869 0.049514 -0.468 -0.0145863 0.0352145 -0.468 -1.93893e-16 0.019058 -0.468 0.013476 0.013476 -0.468 0.019058 -1.02599e-17 -0.468 0.0352145 -0.0145863 -0.468 0.049514 -0.0285869 -0.468 -0.0147977 0.0552257 -0.468 -3.91673e-16 0.0381159 -0.468 0.0145863 0.0352145 -0.468 0.026952 0.026952 -0.468 0.0352145 0.0145863 -0.468 0.0381159 1.85328e-16 -0.468 0.0552257 -0.0147977 -0.468 -5.87825e-16 0.0571739 -0.468 0.0147977 0.0552257 -0.468 0.0285869 0.049514 -0.468 0.0404281 0.0404281 -0.468 0.049514 0.0285869 -0.468 0.0552257 0.0147977 -0.468 0.0571739 3.79597e-16 -0.468
        </DataArray>
      </PointData>
      <CellData>
        <DataArray type="Float32" Name="stress_zz" NumberOfComponents="1" format="ascii">
          29.6798 29.6798 29.6798 29.6798 29.6798 29.6798 29.6798 29.6798 29.6798 29.6798 29.6798 29.6798 29.6798 29.6798 29.6798 29.6798 29.6798 29.6798 29.6798 29.6798 29.6798 29.6798 29.6798 29.6798 29.6798 29.6798 29.6798 29.6798 29.6798 29.6798 29.6798 29.6798 29.6798 29.6798 29.6798 29.6798 29.6798 29.6798 29.6798 29.6798 29.6798 29.6798 29.6798 29.6798 29.6798 29.6798 29.6798 29.6798 29.6798 29.6798 29.6798 29.6798 29.6798 29.6798 29.6798 29.6798 29.6798 29.6798 29.6798 29.6798 29.6798 29.6798 29.6798 29.6798 29.6798 29.6798 29.6798 29.6798 29.6798 29.6798 29.6798 29.6798 29.6798 29.6798 29.6798 29.6798 29.6798 29.6798 29.6798 29.6798 29.6798 29.6798 29.6798 29.6798 29.6798 29.6798 29.6798 29.6798 29.6798 29.6798 29.6798 29.6798 29.6798 29.6798 29.6798 29.6798 29.6798 29.6798 29.6798 29.6798 29.6798 29.6798 29.6798 29.6798 29.6798 29.6798 29.6798 29.6798 29.6798 29.6798 29.6798 29.6798 29.6798 29.6798 29.6798 29.6798 29.6798 29.6798 29.6798 29.6798 29.6798 29.6798 29.6798 29.6798 29.6798 29.6798 29.6798 29.6798 29.6798 29.6798 29.6798 29.6798 29.6798 29.6798 29.6798 29.6798 29.6798 29.6798 29.6798 29.6798 29.6798 29.6798 29.6798 29.6798 29.6798 29.6798 29.6798 29.6798 29.6798 29.6798 29.6798 29.6798 29.6798 29.6798 29.6798 29.6798 29.6798 29.6798 29.6798 29.6798 29.6798 29.6798 29.6798 29.6798 29.6798 29.6798 29.6798 29.6798 29.6798 29.6798 29.6798 29.6798 29.6798 29.6798 29.6798 29.6798 29.6798 29.6798 29.6798 29.6798 29.6798 29.6798 29.6798 29.6798 29.6798 29.6798 29.6798 29.6798 29.6798 29.6798 29.6798 29.6798 29.6798 29.6798 29.6798 29.6798 29.6798 29.6798 29.6798 29.6798 29.6798 29.6798 29.6798 29.6798 29.6798 29.6798 29.6798 29.6798 29.6798 29.6798 29.6798 29.6798 29.6798 29.6798 29.6798 29.6798 29.6798 29.6798 29.6798 29.6798 29.6798 29.6798 29.6798 29.6798 29.6798 29.6798 29.6798 29.6798 29.6798 29.6798 29.6798 29.6798 29.6798 29.6798 29.6798 29.6798 29.6798 29.6798 29.6798 29.6798 29.6798 29.6798 29.6798 29.6798 29.6798 29.6798 29.6798 29.6798 29.6798 29.6798 29.6798 29.6798 29.6798 29.6798 29.6798 29.6798 29.6798 29.6798 29.6798 29.6798 29.6798 29.6798 29.6798 29.6798 29.6798 29.6798 29.6798 29.6798 29.6798 29.6798 29.6798 29.6798 29.6798 29.6798 29.6798 29.6798 29.6798 29.6798 29.6798 29.6798 29.6798 29.6798 29.6798 29.6798 29.6798 29.6798 29.6798 29.6798
        </DataArray>
        <DataArray type="Float32" Name="deviatoric_strain" NumberOfComponents="1" format="ascii">
          0.00139936 0.00139936 0.00139936 0.00139936 0.00139936 0.00139936 0.00139936 0.00139936 0.00139936 0.00139936 0.00139936 0.00139936 0.00139936 0.00139936 0.00139936 0.00139936 0.00139936 0.00139936 0.00139936 0.00139936 0.00139936 0.00139936 0.00139936 0.00139936 0.00139936 0.00139936 0.00139936 0.00139936 0.00139936 0.00139936 0.00139936 0.00139936 0.00139936 0.00139936 0.00139936 0.00139936 0.00139936 0.00139936 0.00139936 0.00139936 0.00139936 0.00139936 0.00139936 0.00139936 0.00139936 0.00139936 0.00139936 0.00139936 0.00139936 0.00139936 0.00139936 0.00139936 0.00139936 0.00139936 0.00139936 0.00139936 0.00139936 0.00139936 0.00139936 0.00139936 0.00139936 0.00139936 0.00139936 0.00139936 0.00139936 0.00139936 0.00139936 0.00139936 0.00139936 0.00139936 0.00139936 0.00139936 0.00139936 0.00139936 0.00139936 0.00139936 0.00139936 0.00139936 0.00139936 0.00139936 0.00139936 0.00139936 0.00139936 0.00139936 0.00139936 0.00139936 0.00139936 0.00139936 0.00139936 0.00139936 0.00139936 0.00139936 0.00139936 0.00139936 0.00139936 0.00139936 0.00139936 0.00139936 0.00139936 0.00139936 0.00139936 0.00139936 0.00139936 0.00139936 0.00139936 0.00139936 0.00139936 0.00139936 0.00139936 0.00139936 0.00139936 0.00139936 0.00139936 0.00139936 0.00139936 0.00139936 0.00139936 0.00139936 0.00139936 0.00139936 0.00139936 0.00139936 0.00139936 0.00139936 0.00139936 0.00139936 0.00139936 0.00139936 0.00139936 0.00139936 0.00139936 0.00139936 0.00139936 0.00139936 0.00139936 0.00139936 0.00139936 0.00139936 0.00139936 0.00139936 0.00139936 0.00139936 0.00139936 0.00139936 0.00139936 0.00139936 0.00139936 0.00139936 0.00139936 0.00139936 0.00139936 0.00139936 0.00139936 0.00139936 0.00139936 0.00139936 0.00139936 0.00139936 0.00139936 0.00139936 0.00139936 0.00139936 0.00139936 0.00139936 0.00139936 0.00139936 0.00139936 0.00139936 0.00139936 0.00139936 0.00139936 0.00139936 0.00139936 0.00139936 0.00139936 0.00139936 0.00139936 0.00139936 0.00139936 0.00139936 0.00139936 0.00139936 0.00139936 0.00139936 0.00139936 0.00139936 0.00139936 0.00139936 0.00139936 0.00139936 0.00139936 0.00139936 0.00139936 0.00139936 0.00139936 0.00139936 0.00139936 0.00139936 0.00139936 0.00139936 0.00139936 0.00139936 0.00139936 0.00139936 0.00139936 0.00139936 0.00139936 0.00139936 0.00139936 0.00139936 0.00139936 0.00139936 0.00139936 0.00139936 0.00139936 0.00139936 0.00139936 0.00139936 0.00139936 0.00139936 0.00139936 0.00139936 0.00139936 0.00139936 0.00139936 0.00139936 0.00139936 0.00139936 0.00139936 0.00139936 0.00139936 0.00139936 0.00139936 0.00139936 0.00139936 0.00139936 0.00139936 0.00139936 0.00139936 0.00139936 0.00139936 0.00139936 0.00139936 0.00139936 0.00139936 0.00139936 0.00139936 0.00139936 0.00139936 0.00139936 0.00139936 0.00139936 0.00139936 0.00139936 0.00139936 0.00139936 0.00139936 0.00139936 0.00139936 0.00139936 0.00139936 0.00139936 0.00139936 0.00139936 0.00139936 0.00139936 0.00139936 0.00139936 0.00139936 0.00139936 0.00139936 0.00139936 0.00139936 0.00139936 0.00139936 0.00139936 0.00139936 0.00139936 0.00139936 0.00139936 0.00139936 0.00139936 0.00139936 0.00139936 0.00139936 0.00139936 0.00139936 0.00139936
        </DataArray>
      </CellData>
    </Piece>
  </UnstructuredGrid>
</VTKFile>
