<?xml version="1.0"?>
<VTKFile type="UnstructuredGrid" version="0.1" byte_order="LittleEndian">
  <UnstructuredGrid>
    <Piece NumberOfPoints="441" NumberOfCells="288">
      <Points>
        <DataArray type="Float32" NumberOfComponents="3" format="ascii">
          -54.2317 -53.033 0 -38.6579 -65.2622 0 -20.4495 -73.0438 0 -0.847607 -75.8476 0 18.8121 -73.4825 0 37.1898 -66.1098 0 53.033 -54.2317 0 -66.1098 -37.1898 0 -36.1545 -35.3553 0 -19.8725 -46.4998 0 -0.565072 -50.5651 0 18.8284 -46.9323 0 35.3553 -36.1545 0 65.2622 -38.6579 0 -73.4825 -18.8121 0 -46.9323 -18.8284 0 -18.0772 -17.6777 0 -0.282536 -25.2825 0 17.6777 -18.0772 0 46.4998 -19.8725 0 73.0438 -20.4495 0 -75.8476 0.847607 0 -50.5651 0.565072 0 -25.2825 0.282536 0 0 0 0 25.2825 -0.282536 0 50.5651 -0.565072 0 75.8476 -0.847607 0 -73.0438 20.4495 0 -46.4998 19.8725 0 -17.6777 18.0772 0 0.282536 25.2825 0 18.0772 17.6777 0 46.9323 18.8284 0 73.4825 18.8121 0 -65.2622 38.6579 0 -35.3553 36.1545 0 -18.8284 46.9323 0 0.565072 50.5651 0 19.8725 46.4998 0 36.1545 35.3553 0 66.1098 37.1898 0 -53.033 54.2317 0 -37.1898 66.1098 0 -18.8121 73.4825 0 0.847607 75.8476 0 20.4495 73.0438 0 38.6579 65.2622 0 54.2317 53.033 0 -54.2317 -53.033 36.6 -38.6579 -65.2622 36.6 -20.4495 -73.0438 36.6 -0.847607 -75.8476 36.6 18.8121 -73.4825 36.6 37.1898 -66.1098 36.6 53.033 -54.2317 36.6 -66.1098 -37.1898 36.6 -36.1545 -35.3553 36.6 -19.8725 -46.4998 36.6 -0.565072 -50.5651 36.6 18.8284 -46.9323 36.6 35.3553 -36.1545 36.6 65.2622 -38.6579 36.6 -73.4825 -18.8121 36.6 -46.9323 -18.8284 36.6 -18.0772 -17.6777 36.6 -0.282536 -25.2825 36.6 17.6777 -18.0772 36.6 46.4998 -19.8725 36.6 73.0438 -20.4495 36.6 -75.8476 0.847607 36.6 -50.5651 0.565072 36.6 -25.2825 0.282536 36.6 2.99603e-17 7.09655e-17 36.6 25.2825 -0.282536 36.6 50.5651 -0.565072 36.6 75.8476 -0.847607 36.6 -73.0438 20.4495 36.6 -46.4998 19.8725 36.6 -17.6777 18.0772 36.6 0.282536 25.2825 36.6 18.0772 17.6777 36.6 46.9323 18.8284 36.6 73.4825 18.8121 36.6 -65.2622 38.6579 36.6 -35.3553 36.1545 36.6 -18.8284 46.9323 36.6 0.565072 50.5651 36.6 19.8725 46.4998 36.6 36.1545 35.3553 36.6 66.1098 37.1898 36.6 -53.033 54.2317 36.6 -37.1898 66.1098 36.6 -18.8121 73.4825 36.6 0.847607 75.8476 36.6 20.4495 73.0438 36.6 38.6579 65.2622 36.6 54.2317 53.033 36.6 -54.2317 -53.033 73.2 -38.6579 -65.2622 73.2 -20.4495 -73.0438 73.2 -0.847607 -75.8476 73.2 18.8121 -73.4825 73.2 37.1898 -66.1098 73.2 53.033 -54.2317 73.2 -66.1098 -37.1898 73.2 -36.1545 -35.3553 73.2 -19.8725 -46.4998 73.2 -0.565072 -50.5651 73.2 18.8284 -46.9323 73.2 35.3553 -36.1545 73.2 65.2622 -38.6579 73.2 -73.4825 -18.8121 73.2 -46.9323 -18.8284 73.2 -18.0772 -17.6777 73.2 -0.282536 -25.2825 73.2 17.6777 -18.0772 73.2 46.4998 -19.8725 73.2 73.0438 -20.4495 73.2 -75.8476 0.847607 73.2 -50.5651 0.565072 73.2 -25.2825 0.282536 73.2 3.45577e-18 2.70276e-16 73.2 25.2825 -0.282536 73.2 50.5651 -0.565072 73.2 75.8476 -0.847607 73.2 -73.0438 20.4495 73.2 -46.4998 19.8725 73.2 -17.6777 18.0772 73.2 0.282536 25.2825 73.2 18.0772 17.6777 73.2 46.9323 18.8284 73.2 73.4825 18.8121 73.2 -65.2622 38.6579 73.2 -35.3553 36.1545 73.2 -18.8284 46.9323 73.2 0.565072 50.5651 73.2 19.8725 46.4998 73.2 36.1545 35.3553 73.2 66.1098 37.1898 73.2 -53.033 54.2317 73.2 -37.1898 66.1098 73.2 -18.8121 73.4825 73.2 0.847607 75.8476 73.2 20.4495 73.0438 73.2 38.6579 65.2622 73.2 54.2317 53.033 73.2 -54.2317 -53.033 109.8 -38.6579 -65.2622 109.8 -20.4495 -73.0438 109.8 -0.847607 -75.8476 109.8 18.8121 -73.4825 109.8 37.1898 -66.1098 109.8 53.033 -54.2317 109.8 -66.1098 -37.1898 109.8 -36.1545 -35.3553 109.8 -19.8725 -46.4998 109.8 -0.565072 -50.5651 109.8 18.8284 -46.9323 109.8 35.3553 -36.1545 109.8 65.2622 -38.6579 109.8 -73.4825 -18.8121 109.8 -46.9323 -18.8284 109.8 -18.0772 -17.6777 109.8 -0.282536 -25.2825 109.8 17.6777 -18.0772 109.8 46.4998 -19.8725 109.8 73.0438 -20.4495 109.8 -75.8476 0.847607 109.8 -50.5651 0.565072 109.8 -25.2825 0.282536 109.8 1.56601e-18 7.12482e-16 109.8 25.2825 -0.282536 109.8 50.5651 -0.565072 109.8 75.8476 -0.847607 109.8 -73.0438 20.4495 109.8 -46.4998 19.8725 109.8 -17.6777 18.0772 109.8 0.282536 25.2825 109.8 18.0772 17.6777 109.8 46.9323 18.8284 109.8 73.4825 18.8121 109.8 -65.2622 38.6579 109.8 -35.3553 36.1545 109.8 -18.8284 46.9323 109.8 0.565072 50.5651 109.8 19.8725 46.4998 109.8 36.1545 35.3553 109.8 66.1098 37.1898 109.8 -53.033 54.2317 109.8 -37.1898 66.1098 109.8 -18.8121 73.4825 109.8 0.847607 75.8476 109.8 20.4495 73.0438 109.8 38.6579 65.2622 109.8 54.2317 53.033 109.8 -54.2317 -53.033 146.4 -38.6579 -65.2622 146.4 -20.4495 -73.0438 146.4 -0.847607 -75.8476 146.4 18.8121 -73.4825 146.4 37.1898 -66.1098 146.4 53.033 -54.2317 146.4 -66.1098 -37.1898 146.4 -36.1545 -35.3553 146.4 -19.8725 -46.4998 146.4 -0.565072 -50.5651 146.4 18.8284 -46.9323 146.4 35.3553 -36.1545 146.4 65.2622 -38.6579 146.4 -73.4825 -18.8121 146.4 -46.9323 -18.8284 146.4 -18.0772 -17.6777 146.4 -0.282536 -25.2825 146.4 17.6777 -18.0772 146.4 46.4998 -19.8725 146.4 73.0438 -20.4495 146.4 -75.8476 0.847607 146.4 -50.5651 0.565072 146.4 -25.2825 0.282536 146.4 -4.76555e-17 1.18758e-15 146.4 25.2825 -0.282536 146.4 50.5651 -0.565072 146.4 75.8476 -0.847607 146.4 -73.0438 20.4495 146.4 -46.4998 19.8725 146.4 -17.6777 18.0772 146.4 0.282536 25.2825 146.4 18.0772 17.6777 146.4 46.9323 18.8284 146.4 73.4825 18.8121 146.4 -65.2622 38.6579 146.4 -35.3553 36.1545 146.4 -18.8284 46.9323 146.4 0.565072 50.5651 146.4 19.8725 46.4998 146.4 36.1545 35.3553 146.4 66.1098 37.1898 146.4 -53.033 54.2317 146.4 -37.1898 66.1098 146.4 -18.8121 73.4825 146.4 0.847607 75.8476 146.4 20.4495 73.0438 146.4 38.6579 65.2622 146.4 54.2317 53.033 146.4 -54.2317 -53.033 183 -38.6579 -65.2622 183 -20.4495 -73.0438 183 -0.847607 -75.8476 183 18.8121 -73.4825 183 37.1898 -66.1098 183 53.033 -54.2317 183 -66.1098 -37.1898 183 -36.1545 -35.3553 183 -19.8725 -46.4998 183 -0.565072 -50.5651 183 18.8284 -46.9323 183 35.3553 -36.1545 183 65.2622 -38.6579 183 -73.4825 -18.8121 183 -46.9323 -18.8284 183 -18.0772 -17.6777 183 -0.282536 -25.2825 183 17.6777 -18.0772 183 46.4998 -19.8725 183 73.0438 -20.4495 183 -75.8476 0.847607 183 -50.5651 0.565072 183 -25.2825 0.282536 183 -1.65418e-16 1.49323e-15 183 25.2825 -0.282536 183 50.5651 -0.565072 183 75.8476 -0.847607 183 -73.0438 20.4495 183 -46.4998 19.8725 183 -17.6777 18.0772 183 0.282536 25.2825 183 18.0772 17.6777 183 46.9323 18.8284 183 73.4825 18.8121 183 -65.2622 38.6579 183 -35.3553 36.1545 183 -18.8284 46.9323 183 0.565072 50.5651 183 19.8725 46.4998 183 36.1545 35.3553 183 66.1098 37.1898 183 -53.033 54.2317 183 -37.1898 66.1098 183 -18.8121 73.4825 183 0.847607 75.8476 183 20.4495 73.0438 183 38.6579 65.2622 183 54.2317 53.033 183 -54.2317 -53.033 219.6 -38.6579 -65.2622 219.6 -20.4495 -73.0438 219.6 -0.847607 -75.8476 219.6 18.8121 -73.4825 219.6 37.1898 -66.1098 219.6 53.033 -54.2317 219.6 -66.1098 -37.1898 219.6 -36.1545 -35.3553 219.6 -19.8725 -46.4998 219.6 -0.565072 -50.5651 219.6 18.8284 -46.9323 219.6 35.3553 -36.1545 219.6 65.2622 -38.6579 219.6 -73.4825 -18.8121 219.6 -46.9323 -18.8284 219.6 -18.0772 -17.6777 219.6 -0.282536 -25.2825 219.6 17.6777 -18.0772 219.6 46.4998 -19.8725 219.6 73.0438 -20.4495 219.6 -75.8476 0.847607 219.6 -50.5651 0.565072 219.6 -25.2825 0.282536 219.6 -5.95027e-17 1.78909e-15 219.6 25.2825 -0.282536 219.6 50.5651 -0.565072 219.6 75.8476 -0.847607 219.6 -73.0438 20.4495 219.6 -46.4998 19.8725 219.6 -17.6777 18.0772 219.6 0.282536 25.2825 219.6 18.0772 17.6777 219.6 46.9323 18.8284 219.6 73.4825 18.8121 219.6 -65.2622 38.6579 219.6 -35.3553 36.1545 219.6 -18.8284 46.9323 219.6 0.565072 50.5651 219.6 19.8725 46.4998 219.6 36.1545 35.3553 219.6 66.1098 37.1898 219.6 -53.033 54.2317 219.6 -37.1898 66.1098 219.6 -18.8121 73.4825 219.6 0.847607 75.8476 219.6 20.4495 73.0438 219.6 38.6579 65.2622 219.6 54.2317 53.033 219.6 -54.2317 -53.033 256.2 -38.6579 -65.2622 256.2 -20.4495 -73.0438 256.2 -0.847607 -75.8476 256.2 18.8121 -73.4825 256.2 37.1898 -66.1098 256.2 53.033 -54.2317 256.2 -66.1098 -37.1898 256.2 -36.1545 -35.3553 256.2 -19.8725 -46.4998 256.2 -0.565072 -50.5651 256.2 18.8284 -46.9323 256.2 35.3553 -36.1545 256.2 65.2622 -38.6579 256.2 -73.4825 -18.8121 256.2 -46.9323 -18.8284 256.2 -18.0772 -17.6777 256.2 -0.282536 -25.2825 256.2 17.6777 -18.0772 256.2 46.4998 -19.8725 256.2 73.0438 -20.4495 256.2 -75.8476 0.847607 256.2 -50.5651 0.565072 256.2 -25.2825 0.282536 256.2 -4.50577e-16 2.00717e-15 256.2 25.2825 -0.282536 256.2 50.5651 -0.565072 256.2 75.8476 -0.847607 256.2 -73.0438 20.4495 256.2 -46.4998 19.8725 256.2 -17.6777 18.0772 256.2 0.282536 25.2825 256.2 18.0772 17.6777 256.2 46.9323 18.8284 256.2 73.4825 18.8121 256.2 -65.2622 38.6579 256.2 -35.3553 36.1545 256.2 -18.8284 46.9323 256.2 0.565072 50.5651 256.2 19.8725 46.4998 256.2 36.1545 35.3553 256.2 66.1098 37.1898 256.2 -53.033 54.2317 256.2 -37.1898 66.1098 256.2 -18.8121 73.4825 256.2 0.847607 75.8476 256.2 20.4495 73.0438 256.2 38.6579 65.2622 256.2 54.2317 53.033 256.2 -54.2317 -53.033 292.8 -38.6579 -65.2622 292.8 -20.4495 -73.0438 292.8 -0.847607 -75.8476 292.8 18.8121 -73.4825 292.8 37.1898 -66.1098 292.8 53.033 -54.2317 292.8 -66.1098 -37.1898 292.8 -36.1545 -35.3553 292.8 -19.8725 -46.4998 292.8 -0.565072 -50.5651 292.8 18.8284 -46.9323 292.8 35.3553 -36.1545 292.8 65.2622 -38.6579 292.8 -73.4825 -18.8121 292.8 -46.9323 -18.8284 292.8 -18.0772 -17.6777 292.8 -0.282536 -25.2825 292.8 17.6777 -18.0772 292.8 46.4998 -19.8725 292.8 73.0438 -20.4495 292.8 -75.8476 0.847607 292.8 -50.5651 0.565072 292.8 -25.2825 0.282536 292.8 -4.41987e-16 2.51391e-15 292.8 25.2825 -0.282536 292.8 50.5651 -0.565072 292.8 75.8476 -0.847607 292.8 -73.0438 20.4495 292.8 -46.4998 19.8725 292.8 -17.6777 18.0772 292.8 0.282536 25.2825 292.8 18.0772 17.6777 292.8 46.9323 18.8284 292.8 73.4825 18.8121 292.8 -65.2622 38.6579 292.8 -35.3553 36.1545 292.8 -18.8284 46.9323 292.8 0.565072 50.5651 292.8 19.8725 46.4998 292.8 36.1545 35.3553 292.8 66.1098 37.1898 292.8 -53.033 54.2317 292.8 -37.1898 66.1098 292.8 -18.8121 73.4825 292.8 0.847607 75.8476 292.8 20.4495 73.0438 292.8 38.6579 65.2622 292.8 54.2317 53.033 292.8
        </DataArray>
      </Points>
      <Cells>
        <DataArray type="Int32" Name="connectivity" format="ascii">
          0 1 8 7 49 50 57 56 1 2 9 8 50 51 58 57 2 3 10 9 51 52 59 58 3 4 11 10 52 53 60 59 4 5 12 11 53 54 61 60 5 6 13 12 54 55 62 61 7 8 15 14 56 57 64 63 8 9 16 15 57 58 65 64 9 10 17 16 58 59 66 65 10 11 18 17 59 60 67 66 11 12 19 18 60 61 68 67 12 13 20 19 61 62 69 68 14 15 22 21 63 64 71 70 15 16 23 22 64 65 72 71 16 17 24 23 65 66 73 72 17 18 25 24 66 67 74 73 18 19 26 25 67 68 75 74 19 20 27 26 68 69 76 75 21 22 29 28 70 71 78 77 22 23 30 29 71 72 79 78 23 24 31 30 72 73 80 79 24 25 32 31 73 74 81 80 25 26 33 32 74 75 82 81 26 27 34 33 75 76 83 82 28 29 36 35 77 78 85 84 29 30 37 36 78 79 86 85 30 31 38 37 79 80 87 86 31 32 39 38 80 81 88 87 32 33 40 39 81 82 89 88 33 34 41 40 82 83 90 89 35 36 43 42 84 85 92 91 36 37 44 43 85 86 93 92 37 38 45 44 86 87 94 93 38 39 46 45 87 88 95 94 39 40 47 46 88 89 96 95 40 41 48 47 89 90 97 96 49 50 57 56 98 99 106 105 50 51 58 57 99 100 107 106 51 52 59 58 100 101 108 107 52 53 60 59 101 102 109 108 53 54 61 60 102 103 110 109 54 55 62 61 103 104 111 110 56 57 64 63 105 106 113 112 57 58 65 64 106 107 114 113 58 59 66 65 107 108 115 114 59 60 67 66 108 109 116 115 60 61 68 67 109 110 117 116 61 62 69 68 110 111 118 117 63 64 71 70 112 113 120 119 64 65 72 71 113 114 121 120 65 66 73 72 114 115 122 121 66 67 74 73 115 116 123 122 67 68 75 74 116 117 124 123 68 69 76 75 117 118 125 124 70 71 78 77 119 120 127 126 71 72 79 78 120 121 128 127 72 73 80 79 121 122 129 128 73 74 81 80 122 123 130 129 74 75 82 81 123 124 131 130 75 76 83 82 124 125 132 131 77 78 85 84 126 127 134 133 78 79 86 85 127 128 135 134 79 80 87 86 128 129 136 135 80 81 88 87 129 130 137 136 81 82 89 88 130 131 138 137 82 83 90 89 131 132 139 138 84 85 92 91 133 134 141 140 85 86 93 92 134 135 142 141 86 87 94 93 135 136 143 142 87 88 95 94 136 137 144 143 88 89 96 95 137 138 145 144 89 90 97 96 138 139 146 145 98 99 106 105 147 148 155 154 99 100 107 106 148 149 156 155 100 101 108 107 149 150 157 156 101 102 109 108 150 151 158 157 102 103 110 109 151 152 159 158 103 104 111 110 152 153 160 159 105 106 113 112 154 155 162 161 106 107 114 113 155 156 163 162 107 108 115 114 156 157 164 163 108 109 116 115 157 158 165 164 109 110 117 116 158 159 166 165 110 111 118 117 159 160 167 166 112 113 120 119 161 162 169 168 113 114 121 120 162 163 170 169 114 115 122 121 163 164 171 170 115 116 123 122 164 165 172 171 116 117 124 123 165 166 173 172 117 118 125 124 166 167 174 173 119 120 127 126 168 169 176 175 120 121 128 127 169 170 177 176 121 122 129 128 170 171 178 177 122 123 130 129 171 172 179 178 123 124 131 130 172 173 180 179 124 125 132 131 173 174 181 180 126 127 134 133 175 176 183 182 127 128 135 134 176 177 184 183 128 129 136 135 177 178 185 184 129 130 137 136 178 179 186 185 130 131 138 137 179 180 187 186 131 132 139 138 180 181 188 187 133 134 141 140 182 183 190 189 134 135 142 141 183 184 191 190 135 136 143 142 184 185 192 191 136 137 144 143 185 186 193 192 137 138 145 144 186 187 194 193 138 139 146 145 187 188 195 194 147 148 155 154 196 197 204 203 148 149 156 155 197 198 205 204 149 150 157 156 198 199 206 205 150 151 158 157 199 200 207 206 151 152 159 158 200 201 208 207 152 153 160 159 201 202 209 208 154 155 162 161 203 204 211 210 155 156 163 162 204 205 212 211 156 157 164 163 205 206 213 212 157 158 165 164 206 207 214 213 158 159 166 165 207 208 215 214 159 160 167 166 208 209 216 215 161 162 169 168 210 211 218 217 162 163 170 169 211 212 219 218 163 164 171 170 212 213 220 219 164 165 172 171 213 214 221 220 165 166 173 172 214 215 222 221 166 167 174 173 215 216 223 222 168 169 176 175 217 218 225 224 169 170 177 176 218 219 226 225 170 171 178 177 219 220 227 226 171 172 179 178 220 221 228 227 172 173 180 179 221 222 229 228 173 174 181 180 222 223 230 229 175 176 183 182 224 225 232 231 176 177 184 183 225 226 233 232 177 178 185 184 226 227 234 233 178 179 186 185 227 228 235 234 179 180 187 186 228 229 236 235 180 181 188 187 229 230 237 236 182 183 190 189 231 232 239 238 183 184 191 190 232 233 240 239 184 185 192 191 233 234 241 240 185 186 193 192 234 235 242 241 186 187 194 193 235 236 243 242 187 188 195 194 236 237 244 243 196 197 204 203 245 246 253 252 197 198 205 204 246 247 254 253 198 199 206 205 247 248 255 254 199 200 207 206 248 249 256 255 200 201 208 207 249 250 257 256 201 202 209 208 250 251 258 257 203 204 211 210 252 253 260 259 204 205 212 211 253 254 261 260 205 206 213 212 254 255 262 261 206 207 214 213 255 256 263 262 207 208 215 214 256 257 264 263 208 209 216 215 257 258 265 264 210 211 218 217 259 260 267 266 211 212 219 218 260 261 268 267 212 213 220 219 261 262 269 268 213 214 221 220 262 263 270 269 214 215 222 221 263 264 271 270 215 216 223 222 264 265 272 271 217 218 225 224 266 267 274 273 218 219 226 225 267 268 275 274 219 220 227 226 268 269 276 275 220 221 228 227 269 270 277 276 221 222 229 228 270 271 278 277 222 223 230 229 271 272 279 278 224 225 232 231 273 274 281 280 225 226 233 232 274 275 282 281 226 227 234 233 275 276 283 282 227 228 235 234 276 277 284 283 228 229 236 235 277 278 285 284 229 230 237 236 278 279 286 285 231 232 239 238 280 281 288 287 232 233 240 239 281 282 289 288 233 234 241 240 282 283 290 289 234 235 242 241 283 284 291 290 235 236 243 242 284 285 292 291 236 237 244 243 285 286 293 292 245 246 253 252 294 295 302 301 246 247 254 253 295 296 303 302 247 248 255 254 296 297 304 303 248 249 256 255 297 298 305 304 249 250 257 256 298 299 306 305 250 251 258 257 299 300 307 306 252 253 260 259 301 302 309 308 253 254 261 260 302 303 310 309 254 255 262 261 303 304 311 310 255 256 263 262 304 305 312 311 256 257 264 263 305 306 313 312 257 258 265 264 306 307 314 313 259 260 267 266 308 309 316 315 260 261 268 267 309 310 317 316 261 262 269 268 310 311 318 317 262 263 270 269 311 312 319 318 263 264 271 270 312 313 320 319 264 265 272 271 313 314 321 320 266 267 274 273 315 316 323 322 267 268 275 274 316 317 324 323 268 269 276 275 317 318 325 324 269 270 277 276 318 319 326 325 270 271 278 277 319 320 327 326 271 272 279 278 320 321 328 327 273 274 281 280 322 323 330 329 274 275 282 281 323 324 331 330 275 276 283 282 324 325 332 331 276 277 284 283 325 326 333 332 277 278 285 284 326 327 334 333 278 279 286 285 327 328 335 334 280 281 288 287 329 330 337 336 281 282 289 288 330 331 338 337 282 283 290 289 331 332 339 338 283 284 291 290 332 333 340 339 284 285 292 291 333 334 341 340 285 286 293 292 334 335 342 341 294 295 302 301 343 344 351 350 295 296 303 302 344 345 352 351 296 297 304 303 345 346 353 352 297 298 305 304 346 347 354 353 298 299 306 305 347 348 355 354 299 300 307 306 348 349 356 355 301 302 309 308 350 351 358 357 302 303 310 309 351 352 359 358 303 304 311 310 352 353 360 359 304 305 312 311 353 354 361 360 305 306 313 312 354 355 362 361 306 307 314 313 355 356 363 362 308 309 316 315 357 358 365 364 309 310 317 316 358 359 366 365 310 311 318 317 359 360 367 366 311 312 319 318 360 361 368 367 312 313 320 319 361 362 369 368 313 314 321 320 362 363 370 369 315 316 323 322 364 365 372 371 316 317 324 323 365 366 373 372 317 318 325 324 366 367 374 373 318 319 326 325 367 368 375 374 319 320 327 326 368 369 376 375 320 321 328 327 369 370 377 376 322 323 330 329 371 372 379 378 323 324 331 330 372 373 380 379 324 325 332 331 373 374 381 380 325 326 333 332 374 375 382 381 326 327 334 333 375 376 383 382 327 328 335 334 376 377 384 383 329 330 337 336 378 379 386 385 330 331 338 337 379 380 387 386 331 332 339 338 380 381 388 387 332 333 340 339 381 382 389 388 333 334 341 340 382 383 390 389 334 335 342 341 383 384 391 390 343 344 351 350 392 393 400 399 344 345 352 351 393 394 401 400 345 346 353 352 394 395 402 401 346 347 354 353 395 396 403 402 347 348 355 354 396 397 404 403 348 349 356 355 397 398 405 404 350 351 358 357 399 400 407 406 351 352 359 358 400 401 408 407 352 353 360 359 401 402 409 408 353 354 361 360 402 403 410 409 354 355 362 361 403 404 411 410 355 356 363 362 404 405 412 411 357 358 365 364 406 407 414 413 358 359 366 365 407 408 415 414 359 360 367 366 408 409 416 415 360 361 368 367 409 410 417 416 361 362 369 368 410 411 418 417 362 363 370 369 411 412 419 418 364 365 372 371 413 414 421 420 365 366 373 372 414 415 422 421 366 367 374 373 415 416 423 422 367 368 375 374 416 417 424 423 368 369 376 375 417 418 425 424 369 370 377 376 418 419 426 425 371 372 379 378 420 421 428 427 372 373 380 379 421 422 429 428 373 374 381 380 422 423 430 429 374 375 382 381 423 424 431 430 375 376 383 382 424 425 432 431 376 377 384 383 425 426 433 432 378 379 386 385 427 428 435 434 379 380 387 386 428 429 436 435 380 381 388 387 429 430 437 436 381 382 389 388 430 431 438 437 382 383 390 389 431 432 439 438 383 384 391 390 432 433 440 439
        </DataArray>
        <DataArray type="Int32" Name="offsets" format="ascii">
          8 16 24 32 40 48 56 64 72 80 88 96 104 112 120 128 136 144 152 160 168 176 184 192 200 208 216 224 232 240 248 256 264 272 280 288 296 304 312 320 328 336 344 352 360 368 376 384 392 400 408 416 424 432 440 448 456 464 472 480 488 496 504 512 520 528 536 544 552 560 568 576 584 592 600 608 616 624 632 640 648 656 664 672 680 688 696 704 712 720 728 736 744 752 760 768 776 784 792 800 808 816 824 832 840 848 856 864 872 880 888 896 904 912 920 928 936 944 952 960 968 976 984 992 1000 1008 1016 1024 1032 1040 1048 1056 1064 1072 1080 1088 1096 1104 1112 1120 1128 1136 1144 1152 1160 1168 1176 1184 1192 1200 1208 1216 1224 1232 1240 1248 1256 1264 1272 1280 1288 1296 1304 1312 1320 1328 1336 1344 1352 1360 1368 1376 1384 1392 1400 1408 1416 1424 1432 1440 1448 1456 1464 1472 1480 1488 1496 1504 1512 1520 1528 1536 1544 1552 1560 1568 1576 1584 1592 1600 1608 1616 1624 1632 1640 1648 1656 1664 1672 1680 1688 1696 1704 1712 1720 1728 1736 1744 1752 1760 1768 1776 1784 1792 1800 1808 1816 1824 1832 1840 1848 1856 1864 1872 1880 1888 1896 1904 1912 1920 1928 1936 1944 1952 1960 1968 1976 1984 1992 2000 2008 2016 2024 2032 2040 2048 2056 2064 2072 2080 2088 2096 2104 2112 2120 2128 2136 2144 2152 2160 2168 2176 2184 2192 2200 2208 2216 2224 2232 2240 2248 2256 2264 2272 2280 2288 2296 2304
        </DataArray>
        <DataArray type="UInt8" Name="types" format="ascii">
          12 12 12 12 12 12 12 12 12 12 12 12 12 12 12 12 12 12 12 12 12 12 12 12 12 12 12 12 12 12 12 12 12 12 12 12 12 12 12 12 12 12 12 12 12 12 12 12 12 12 12 12 12 12 12 12 12 12 12 12 12 12 12 12 12 12 12 12 12 12 12 12 12 12 12 12 12 12 12 12 12 12 12 12 12 12 12 12 12 12 12 12 12 12 12 12 12 12 12 12 12 12 12 12 12 12 12 12 12 12 12 12 12 12 12 12 12 12 12 12 12 12 12 12 12 12 12 12 12 12 12 12 12 12 12 12 12 12 12 12 12 12 12 12 12 12 12 12 12 12 12 12 12 12 12 12 12 12 12 12 12 12 12 12 12 12 12 12 12 12 12 12 12 12 12 12 12 12 12 12 12 12 12 12 12 12 12 12 12 12 12 12 12 12 12 12 12 12 12 12 12 12 12 12 12 12 12 12 12 12 12 12 12 12 12 12 12 12 12 12 12 12 12 12 12 12 12 12 12 12 12 12 12 12 12 12 12 12 12 12 12 12 12 12 12 12 12 12 12 12 12 12 12 12 12 12 12 12 12 12 12 12 12 12 12 12 12 12 12 12 12 12 12 12 12 12 12 12 12 12 12 12 12 12 12 12 12 12
        </DataArray>
      </Cells>
      <PointData>
        <DataArray type="Float32" Name="displacement" NumberOfComponents="3" format="ascii">
          -0.149837 0 0 -0.144732 -0.0387807 0 -0.129763 -0.0749186 0 -0.105951 -0.105951 0 -0.0749186 -0.129763 0 -0.0387807 -0.144732 0 -3.19143e-17 -0.149837 0 -0.144732 0.0387807 0 -0.0998915 5.2219e-18 0 -0.0922877 -0.0382268 0 -0.0706339 -0.0706339 0 -0.0382268 -0.0922877 0 -2.33397e-17 -0.0998915 0 0.0387807 -0.144732 0 -0.129763 0.0749186 0 -0.0922877 0.0382268 0 -0.0499457 8.0585e-18 0 -0.035317 -0.035317 0 -1.08967e-17 -0.0499457 0 0.0382268 -0.0922877 0 0.0749186 -0.129763 0 -0.105951 0.105951 0 -0.0706339 0.0706339 0 -0.035317 0.035317 0 0 0 0 0.035317 -0.035317 0 0.0706339 -0.0706339 0 0.105951 -0.105951 0 -0.0749186 0.129763 0 -0.0382268 0.0922877 0 -7.15039e-18 0.0499457 0 0.035317 0.035317 0 0.0499457 -1.14876e-17 0 0.0922877 -0.0382268 0 0.129763 -0.0749186 0 -0.0387807 0.144732 0 2.35737e-18 0.0998915 0 0.0382268 0.0922877 0 0.0706339 0.0706339 0 0.0922877 0.0382268 0 0.0998915 -1.13239e-17 0 0.144732 -0.0387807 0 -3.09633e-17 0.149837 0 0.0387807 0.144732 0 0.0749186 0.129763 0 0.105951 0.105951 0 0.129763 0.0749186 0 0.144732 0.0387807 0 0.149837 7.57872e-19 0 -0.149837 -1.83872e-17 -0.1125 -0.144732 -0.0387807 -0.1125 -0.129763 -0.0749186 -0.1125 -0.105951 -0.105951 -0.1125 -0.0749186 -0.129763 -0.1125 -0.0387807 -0.144732 -0.1125 4.775e-18 -0.149837 -0.1125 -0.144732 0.0387807 -0.1125 -0.0998915 -2.99086e-18 -0.1125 -0.0922877 -0.0382268 -0.1125 -0.0706339 -0.0706339 -0.1125 -0.0382268 -0.0922877 -0.1125 8.18841e-19 -0.0998915 -0.1125 0.0387807 -0.144732 -0.1125 -0.129763 0.0749186 -0.1125 -0.0922877 0.0382268 -0.1125 -0.0499457 2.323e-18 -0.1125 -0.035317 -0.035317 -0.1125 2.06439e-18 -0.0499457 -0.1125 0.0382268 -0.0922877 -0.1125 0.0749186 -0.129763 -0.1125 -0.105951 0.105951 -0.1125 -0.0706339 0.0706339 -0.1125 -0.035317 0.035317 -0.1125 3.74503e-18 8.87068e-18 -0.1125 0.035317 -0.035317 -0.1125 0.0706339 -0.0706339 -0.1125 0.105951 -0.105951 -0.1125 -0.0749186 0.129763 -0.1125 -0.0382268 0.0922877 -0.1125 -1.59973e-17 0.0499457 -0.1125 0.035317 0.035317 -0.1125 0.0499457 5.18282e-18 -0.1125 0.0922877 -0.0382268 -0.1125 0.129763 -0.0749186 -0.1125 -0.0387807 0.144732 -0.1125 -1.96419e-17 0.0998915 -0.1125 0.0382268 0.0922877 -0.1125 0.0706339 0.0706339 -0.1125 0.0922877 0.0382268 -0.1125 0.0998915 1.99067e-17 -0.1125 0.144732 -0.0387807 -0.1125 -5.31939e-17 0.149837 -0.1125 0.0387807 0.144732 -0.1125 0.0749186 0.129763 -0.1125 0.105951 0.105951 -0.1125 0.129763 0.0749186 -0.1125 0.144732 0.0387807 -0.1125 0.149837 2.57429e-17 -0.1125 -0.149837 -7.00345e-17 -0.225 -0.144732 -0.0387807 -0.225 -0.129763 -0.0749186 -0.225 -0.105951 -0.105951 -0.225 -0.0749186 -0.129763 -0.225 -0.0387807 -0.144732 -0.225 1.05945e-16 -0.149837 -0.225 -0.144732 0.0387807 -0.225 -0.0998915 -4.30252e-17 -0.225 -0.0922877 -0.0382268 -0.225 -0.0706339 -0.0706339 -0.225 -0.0382268 -0.0922877 -0.225 6.66452e-17 -0.0998915 -0.225 0.0387807 -0.144732 -0.225 -0.129763 0.0749186 -0.225 -0.0922877 0.0382268 -0.225 -0.0499457 3.84975e-18 -0.225 -0.035317 -0.035317 -0.225 2.8123e-17 -0.0499457 -0.225 0.0382268 -0.0922877 -0.225 0.0749186 -0.129763 -0.225 -0.105951 0.105951 -0.225 -0.0706339 0.0706339 -0.225 -0.035317 0.035317 -0.225 4.31971e-19 3.37846e-17 -0.225 0.035317 -0.035317 -0.225 0.0706339 -0.0706339 -0.225 0.105951 -0.105951 -0.225 -0.0749186 0.129763 -0.225 -0.0382268 0.0922877 -0.225 -4.38009e-17 0.0499457 -0.225 0.035317 0.035317 -0.225 0.0499457 7.37166e-17 -0.225 0.0922877 -0.0382268 -0.225 0.129763 -0.0749186 -0.225 -0.0387807 0.144732 -0.225 -7.23439e-17 0.0998915 -0.225 0.0382268 0.0922877 -0.225 0.0706339 0.0706339 -0.225 0.0922877 0.0382268 -0.225 0.0998915 1.21157e-16 -0.225 0.144732 -0.0387807 -0.225 -1.27882e-16 0.149837 -0.225 0.0387807 0.144732 -0.225 0.0749186 0.129763 -0.225 0.105951 0.105951 -0.225 0.129763 0.0749186 -0.225 0.144732 0.0387807 -0.225 0.149837 1.68368e-16 -0.225 -0.149837 -1.34951e-16 -0.3375 -0.144732 -0.0387807 -0.3375 -0.129763 -0.0749186 -0.3375 -0.105951 -0.105951 -0.3375 -0.0749186 -0.129763 -0.3375 -0.0387807 -0.144732 -0.3375 2.43526e-16 -0.149837 -0.3375 -0.144732 0.0387807 -0.3375 -0.0998915 -5.77477e-17 -0.3375 -0.0922877 -0.0382268 -0.3375 -0.0706339 -0.0706339 -0.3375 -0.0382268 -0.0922877 -0.3375 1.57354e-16 -0.0998915 -0.3375 0.0387807 -0.144732 -0.3375 -0.129763 0.0749186 -0.3375 -0.0922877 0.0382268 -0.3375 -0.0499457 1.58908e-17 -0.3375 -0.035317 -0.035317 -0.3375 7.28158e-17 -0.0499457 -0.3375 0.0382268 -0.0922877 -0.3375 0.0749186 -0.129763 -0.3375 -0.105951 0.105951 -0.3375 -0.0706339 0.0706339 -0.3375 -0.035317 0.035317 -0.3375 1.95752e-19 8.90603e-17 -0.3375 0.035317 -0.035317 -0.3375 0.0706339 -0.0706339 -0.3375 0.105951 -0.105951 -0.3375 -0.0749186 0.129763 -0.3375 -0.0382268 0.0922877 -0.3375 -9.19971e-17 0.0499457 -0.3375 0.035317 0.035317 -0.3375 0.0499457 1.63072e-16 -0.3375 0.0922877 -0.0382268 -0.3375 0.129763 -0.0749186 -0.3375 -0.0387807 0.144732 -0.3375 -1.52629e-16 0.0998915 -0.3375 0.0382268 0.0922877 -0.3375 0.0706339 0.0706339 -0.3375 0.0922877 0.0382268 -0.3375 0.0998915 2.45722e-16 -0.3375 0.144732 -0.0387807 -0.3375 -2.36526e-16 0.149837 -0.3375 0.0387807 0.144732 -0.3375 0.0749186 0.129763 -0.3375 0.105951 0.105951 -0.3375 0.129763 0.0749186 -0.3375 0.144732 0.0387807 -0.3375 0.149837 3.13099e-16 -0.3375 -0.149837 -2.23456e-16 -0.45 -0.144732 -0.0387807 -0.45 -0.129763 -0.0749186 -0.45 -0.105951 -0.105951 -0.45 -0.0749186 -0.129763 -0.45 -0.0387807 -0.144732 -0.45 3.51114e-16 -0.149837 -0.45 -0.144732 0.0387807 -0.45 -0.0998915 -1.01412e-16 -0.45 -0.0922877 -0.0382268 -0.45 -0.0706339 -0.0706339 -0.45 -0.0382268 -0.0922877 -0.45 2.35829e-16 -0.0998915 -0.45 0.0387807 -0.144732 -0.45 -0.129763 0.0749186 -0.45 -0.0922877 0.0382268 -0.45 -0.0499457 2.44528e-17 -0.45 -0.035317 -0.035317 -0.45 1.10598e-16 -0.0499457 -0.45 0.0382268 -0.0922877 -0.45 0.0749186 -0.129763 -0.45 -0.105951 0.105951 -0.45 -0.0706339 0.0706339 -0.45 -0.035317 0.035317 -0.45 -5.95693e-18 1.48448e-16 -0.45 0.035317 -0.035317 -0.45 0.0706339 -0.0706339 -0.45 0.105951 -0.105951 -0.45 -0.0749186 0.129763 -0.45 -0.0382268 0.0922877 -0.45 -1.32513e-16 0.0499457 -0.45 0.035317 0.035317 -0.45 0.0499457 2.60136e-16 -0.45 0.0922877 -0.0382268 -0.45 0.129763 -0.0749186 -0.45 -0.0387807 0.144732 -0.45 -2.48313e-16 0.0998915 -0.45 0.0382268 0.0922877 -0.45 0.0706339 0.0706339 -0.45 0.0922877 0.0382268 -0.45 0.0998915 3.85998e-16 -0.45 0.144732 -0.0387807 -0.45 -3.47616e-16 0.149837 -0.45 0.0387807 0.144732 -0.45 0.0749186 0.129763 -0.45 0.105951 0.105951 -0.45 0.129763 0.0749186 -0.45 0.144732 0.0387807 -0.45 0.149837 5.00048e-16 -0.45 -0.149837 -2.9992e-16 -0.5625 -0.144732 -0.0387807 -0.5625 -0.129763 -0.0749186 -0.5625 -0.105951 -0.105951 -0.5625 -0.0749186 -0.129763 -0.5625 -0.0387807 -0.144732 -0.5625 4.95678e-16 -0.149837 -0.5625 -0.144732 0.0387807 -0.5625 -0.0998915 -1.33694e-16 -0.5625 -0.0922877 -0.0382268 -0.5625 -0.0706339 -0.0706339 -0.5625 -0.0382268 -0.0922877 -0.5625 3.18788e-16 -0.0998915 -0.5625 0.0387807 -0.144732 -0.5625 -0.129763 0.0749186 -0.5625 -0.0922877 0.0382268 -0.5625 -0.0499457 1.2798e-17 -0.5625 -0.035317 -0.035317 -0.5625 1.45015e-16 -0.0499457 -0.5625 0.0382268 -0.0922877 -0.5625 0.0749186 -0.129763 -0.5625 -0.105951 0.105951 -0.5625 -0.0706339 0.0706339 -0.5625 -0.035317 0.035317 -0.5625 -2.06773e-17 1.86654e-16 -0.5625 0.035317 -0.035317 -0.5625 0.0706339 -0.0706339 -0.5625 0.105951 -0.105951 -0.5625 -0.0749186 0.129763 -0.5625 -0.0382268 0.0922877 -0.5625 -1.79546e-16 0.0499457 -0.5625 0.035317 0.035317 -0.5625 0.0499457 3.44204e-16 -0.5625 0.0922877 -0.0382268 -0.5625 0.129763 -0.0749186 -0.5625 -0.0387807 0.144732 -0.5625 -3.26621e-16 0.0998915 -0.5625 0.0382268 0.0922877 -0.5625 0.0706339 0.0706339 -0.5625 0.0922877 0.0382268 -0.5625 0.0998915 5.0672e-16 -0.5625 0.144732 -0.0387807 -0.5625 -4.95131e-16 0.149837 -0.5625 0.0387807 0.144732 -0.5625 0.0749186 0.129763 -0.5625 0.105951 0.105951 -0.5625 0.129763 0.0749186 -0.5625 0.144732 0.0387807 -0.5625 0.149837 6.59262e-16 -0.5625 -0.149837 -3.84164e-16 -0.675 -0.144732 -0.0387807 -0.675 -0.129763 -0.0749186 -0.675 -0.105951 -0.105951 -0.675 -0.0749186 -0.129763 -0.675 -0.0387807 -0.144732 -0.675 5.84341e-16 -0.149837 -0.675 -0.144732 0.0387807 -0.675 -0.0998915 -1.98485e-16 -0.675 -0.0922877 -0.0382268 -0.675 -0.0706339 -0.0706339 -0.675 -0.0382268 -0.0922877 -0.675 3.83346e-16 -0.0998915 -0.675 0.0387807 -0.144732 -0.675 -0.129763 0.0749186 -0.675 -0.0922877 0.0382268 -0.675 -0.0499457 2.07837e-17 -0.675 -0.035317 -0.035317 -0.675 1.79057e-16 -0.0499457 -0.675 0.0382268 -0.0922877 -0.675 0.0749186 -0.129763 -0.675 -0.105951 0.105951 -0.675 -0.0706339 0.0706339 -0.675 -0.035317 0.035317 -0.675 -7.43784e-18 2.23636e-16 -0.675 0.035317 -0.035317 -0.675 0.0706339 -0.0706339 -0.675 0.105951 -0.105951 -0.675 -0.0749186 0.129763 -0.675 -0.0382268 0.0922877 -0.675 -2.27943e-16 0.0499457 -0.675 0.035317 0.035317 -0.675 0.0499457 4.15015e-16 -0.675 0.0922877 -0.0382268 -0.675 0.129763 -0.0749186 -0.675 -0.0387807 0.144732 -0.675 -4.03622e-16 0.0998915 -0.675 0.0382268 0.0922877 -0.675 0.0706339 0.0706339 -0.675 0.0922877 0.0382268 -0.675 0.0998915 6.07129e-16 -0.675 0.144732 -0.0387807 -0.675 -5.82957e-16 0.149837 -0.675 0.0387807 0.144732 -0.675 0.0749186 0.129763 -0.675 0.105951 0.105951 -0.675 0.129763 0.0749186 -0.675 0.144732 0.0387807 -0.675 0.149837 7.89013e-16 -0.675 -0.149837 -4.01462e-16 -0.7875 -0.144732 -0.0387807 -0.7875 -0.129763 -0.0749186 -0.7875 -0.105951 -0.105951 -0.7875 -0.0749186 -0.129763 -0.7875 -0.0387807 -0.144732 -0.7875 6.23154e-16 -0.149837 -0.7875 -0.144732 0.0387807 -0.7875 -0.0998915 -2.05246e-16 -0.7875 -0.0922877 -0.0382268 -0.7875 -0.0706339 -0.0706339 -0.7875 -0.0382268 -0.0922877 -0.7875 4.10327e-16 -0.0998915 -0.7875 0.0387807 -0.144732 -0.7875 -0.129763 0.0749186 -0.7875 -0.0922877 0.0382268 -0.7875 -0.0499457 2.40899e-17 -0.7875 -0.035317 -0.035317 -0.7875 1.80385e-16 -0.0499457 -0.7875 0.0382268 -0.0922877 -0.7875 0.0749186 -0.129763 -0.7875 -0.105951 0.105951 -0.7875 -0.0706339 0.0706339 -0.7875 -0.035317 0.035317 -0.7875 -5.63222e-17 2.50896e-16 -0.7875 0.035317 -0.035317 -0.7875 0.0706339 -0.0706339 -0.7875 0.105951 -0.105951 -0.7875 -0.0749186 0.129763 -0.7875 -0.0382268 0.0922877 -0.7875 -2.77376e-16 0.0499457 -0.7875 0.035317 0.035317 -0.7875 0.0499457 4.79654e-16 -0.7875 0.0922877 -0.0382268 -0.7875 0.129763 -0.0749186 -0.7875 -0.0387807 0.144732 -0.7875 -4.7436e-16 0.0998915 -0.7875 0.0382268 0.0922877 -0.7875 0.0706339 0.0706339 -0.7875 0.0922877 0.0382268 -0.7875 0.0998915 7.12564e-16 -0.7875 0.144732 -0.0387807 -0.7875 -6.87901e-16 0.149837 -0.7875 0.0387807 0.144732 -0.7875 0.0749186 0.129763 -0.7875 0.105951 0.105951 -0.7875 0.129763 0.0749186 -0.7875 0.144732 0.0387807 -0.7875 0.149837 9.16915e-16 -0.7875 -0.149837 -4.69494e-16 -0.9 -0.144732 -0.0387807 -0.9 -0.129763 -0.0749186 -0.9 -0.105951 -0.105951 -0.9 -0.0749186 -0.129763 -0.9 -0.0387807 -0.144732 -0.9 6.70477e-16 -0.149837 -0.9 -0.144732 0.0387807 -0.9 -0.0998915 -1.86233e-16 -0.9 -0.0922877 -0.0382268 -0.9 -0.0706339 -0.0706339 -0.9 -0.0382268 -0.0922877 -0.9 4.55877e-16 -0.0998915 -0.9 0.0387807 -0.144732 -0.9 -0.129763 0.0749186 -0.9 -0.0922877 0.0382268 -0.9 -0.0499457 4.68463e-17 -0.9 -0.035317 -0.035317 -0.9 1.68947e-16 -0.0499457 -0.9 0.0382268 -0.0922877 -0.9 0.0749186 -0.129763 -0.9 -0.105951 0.105951 -0.9 -0.0706339 0.0706339 -0.9 -0.035317 0.035317 -0.9 -5.52483e-17 3.14238e-16 -0.9 0.035317 -0.035317 -0.9 0.0706339 -0.0706339 -0.9 0.105951 -0.105951 -0.9 -0.0749186 0.129763 -0.9 -0.0382268 0.0922877 -0.9 -3.26673e-16 0.0499457 -0.9 0.035317 0.035317 -0.9 0.0499457 5.28952e-16 -0.9 0.0922877 -0.0382268 -0.9 0.129763 -0.0749186 -0.9 -0.0387807 0.144732 -0.9 -5.52698e-16 0.0998915 -0.9 0.0382268 0.0922877 -0.9 0.0706339 0.0706339 -0.9 0.0922877 0.0382268 -0.9 0.0998915 7.49047e-16 -0.9 0.144732 -0.0387807 -0.9 -8.00645e-16 0.149837 -0.9 0.0387807 0.144732 -0.9 0.0749186 0.129763 -0.9 0.105951 0.105951 -0.9 0.129763 0.0749186 -0.9 0.144732 0.0387807 -0.9 0.149837 1.01575e-15 -0.9
        </DataArray>
      </PointData>
      <CellData>
        <DataArray type="Float32" Name="stress_zz" NumberOfComponents="1" format="ascii">
          28.7194 28.7194 28.7194 28.7194 28.7194 28.7194 28.7194 28.7194 28.7194 28.7194 28.7194 28.7194 28.7194 28.7194 28.7194 28.7194 28.7194 28.7194 28.7194 28.7194 28.7194 28.7194 28.7194 28.7194 28.7194 28.7194 28.7194 28.7194 28.7194 28.7194 28.7194 28.7194 28.7194 28.7194 28.7194 28.7194 28.7194 28.7194 28.7194 28.7194 28.7194 28.7194 28.7194 28.7194 28.7194 28.7194 28.7194 28.7194 28.7194 28.7194 28.7194 28.7194 28.7194 28.7194 28.7194 28.7194 28.7194 28.7194 28.7194 28.7194 28.7194 28.7194 28.7194 28.7194 28.7194 28.7194 28.7194 28.7194 28.7194 28.7194 28.7194 28.7194 28.7194 28.7194 28.7194 28.7194 28.7194 28.7194 28.7194 28.7194 28.7194 28.7194 28.7194 28.7194 28.7194 28.7194 28.7194 28.7194 28.7194 28.7194 28.7194 28.7194 28.7194 28.7194 28.7194 28.7194 28.7194 28.7194 28.7194 28.7194 28.7194 28.7194 28.7194 28.7194 28.7194 28.7194 28.7194 28.7194 28.7194 28.7194 28.7194 28.7194 28.7194 28.7194 28.7194 28.7194 28.7194 28.7194 28.7194 28.7194 28.7194 28.7194 28.7194 28.7194 28.7194 28.7194 28.7194 28.7194 28.7194 28.7194 28.7194 28.7194 28.7194 28.7194 28.7194 28.7194 28.7194 28.7194 28.7194 28.7194 28.7194 28.7194 28.7194 28.7194 28.7194 28.7194 28.7194 28.7194 28.7194 28.7194 28.7194 28.7194 28.7194 28.7194 28.7194 28.7194 28.7194 28.7194 28.7194 28.7194 28.7194 28.7194 28.7194 28.7194 28.7194 28.7194 28.7194 28.7194 28.7194 28.7194 28.7194 28.7194 28.7194 28.7194 28.7194 28.7194 28.7194 28.7194 28.7194 28.7194 28.7194 28.7194 28.7194 28.7194 28.7194 28.7194 28.7194 28.7194 28.7194 28.7194 28.7194 28.7194 28.7194 28.7194 28.7194 28.7194 28.7194 28.7194 28.7194 28.7194 28.7194 28.7194 28.7194 28.7194 28.7194 28.7194 28.7194 28.7194 28.7194 28.7194 28.7194 28.7194 28.7194 28.7194 28.7194 28.7194 28.7194 28.7194 28.7194 28.7194 28.7194 28.7194 28.7194 28.7194 28.7194 28.7194 28.7194 28.7194 28.7194 28.7194 28.7194 28.7194 28.7194 28.7194 28.7194 28.7194 28.7194 28.7194 28.7194 28.7194 28.7194 28.7194 28.7194 28.7194 28.7194 28.7194 28.7194 28.7194 28.7194 28.7194 28.7194 28.7194 28.7194 28.7194 28.7194 28.7194 28.7194 28.7194 28.7194 28.7194 28.7194 28.7194 28.7194 28.7194 28.7194 28.7194 28.7194 28.7194 28.7194 28.7194 28.7194 28.7194 28.7194 28.7194 28.7194 28.7194 28.7194 28.7194 28.7194 28.7194 28.7194 28.7194 28.7194 28.7194 28.7194 28.7194 28.7194 28.7194
        </DataArray>
        <DataArray type="Float32" Name="deviatoric_strain" NumberOfComponents="1" format="ascii">
          0.00294179 0.00294179 0.00294179 0.00294179 0.00294179 0.00294179 0.00294179 0.00294179 0.00294179 0.00294179 0.00294179 0.00294179 0.00294179 0.00294179 0.00294179 0.00294179 0.00294179 0.00294179 0.00294179 0.00294179 0.00294179 0.00294179 0.00294179 0.00294179 0.00294179 0.00294179 0.00294179 0.00294179 0.00294179 0.00294179 0.00294179 0.00294179 0.00294179 0.00294179 0.00294179 0.00294179 0.00294179 0.00294179 0.00294179 0.00294179 0.00294179 0.00294179 0.00294179 0.00294179 0.00294179 0.00294179 0.00294179 0.00294179 0.00294179 0.00294179 0.00294179 0.00294179 0.00294179 0.00294179 0.00294179 0.00294179 0.00294179 0.00294179 0.00294179 0.00294179 0.00294179 0.00294179 0.00294179 0.00294179 0.00294179 0.00294179 0.00294179 0.00294179 0.00294179 0.00294179 0.00294179 0.00294179 0.00294179 0.00294179 0.00294179 0.00294179 0.00294179 0.00294179 0.00294179 0.00294179 0.00294179 0.00294179 0.00294179 0.00294179 0.00294179 0.00294179 0.00294179 0.00294179 0.00294179 0.00294179 0.00294179 0.00294179 0.00294179 0.00294179 0.00294179 0.00294179 0.00294179 0.00294179 0.00294179 0.00294179 0.00294179 0.00294179 0.00294179 0.00294179 0.00294179 0.00294179 0.00294179 0.00294179 0.00294179 0.00294179 0.00294179 0.00294179 0.00294179 0.00294179 0.00294179 0.00294179 0.00294179 0.00294179 0.00294179 0.00294179 0.00294179 0.00294179 0.00294179 0.00294179 0.00294179 0.00294179 0.00294179 0.00294179 0.00294179 0.00294179 0.00294179 0.00294179 0.00294179 0.00294179 0.00294179 0.00294179 0.00294179 0.00294179 0.00294179 0.00294179 0.00294179 0.00294179 0.00294179 0.00294179 0.00294179 0.00294179 0.00294179 0.00294179 0.00294179 0.00294179 0.00294179 0.00294179 0.00294179 0.00294179 0.00294179 0.00294179 0.00294179 0.00294179 0.00294179 0.00294179 0.00294179 0.00294179 0.00294179 0.00294179 0.00294179 0.00294179 0.00294179 0.00294179 0.00294179 0.00294179 0.00294179 0.00294179 0.00294179 0.00294179 0.00294179 0.00294179 0.00294179 0.00294179 0.00294179 0.00294179 0.00294179 0.00294179 0.00294179 0.00294179 0.00294179 0.00294179 0.00294179 0.00294179 0.00294179 0.00294179 0.00294179 0.00294179 0.00294179 0.00294179 0.00294179 0.00294179 0.00294179 0.00294179 0.00294179 0.00294179 0.00294179 0.00294179 0.00294179 0.00294179 0.00294179 0.00294179 0.00294179 0.00294179 0.00294179 0.00294179 0.00294179 0.00294179 0.00294179 0.00294179 0.00294179 0.00294179 0.00294179 0.00294179 0.00294179 0.00294179 0.00294179 0.00294179 0.00294179 0.00294179 0.00294179 0.00294179 0.00294179 0.00294179 0.00294179 0.00294179 0.00294179 0.00294179 0.00294179 0.00294179 0.00294179 0.00294179 0.00294179 0.00294179 0.00294179 0.00294179 0.00294179 0.00294179 0.00294179 0.00294179 0.00294179 0.00294179 0.00294179 0.00294179 0.00294179 0.00294179 0.00294179 0.00294179 0.00294179 0.00294179 0.00294179 0.00294179 0.00294179 0.00294179 0.00294179 0.00294179 0.00294179 0.00294179 0.00294179 0.00294179 0.00294179 0.00294179 0.00294179 0.00294179 0.00294179 0.00294179 0.00294179 0.00294179 0.00294179 0.00294179 0.00294179 0.00294179 0.00294179 0.00294179 0.00294179 0.00294179 0.00294179 0.00294179 0.00294179 0.00294179 0.00294179 0.00294179 0.00294179 0.00294179
        </DataArray>
      </CellData>
    </Piece>
  </UnstructuredGrid>
</VTKFile>
