<?xml version="1.0"?>
<VTKFile type="UnstructuredGrid" version="0.1" byte_order="LittleEndian">
  <UnstructuredGrid>
    <Piece NumberOfPoints="441" NumberOfCells="288">
      <Points>
        <DataArray type="Float32" NumberOfComponents="3" format="ascii">
          -57.5676 -53.033 0 -41.8801 -66.1255 0 -23.3385 -74.7117 0 -3.20643 -78.2064 0 17.1441 -76.3715 0 36.3264 -69.332 0 53.033 -57.5676 0 -69.332 -36.3264 0 -38.3784 -35.3553 0 -21.9271 -47.3508 0 -2.13762 -52.1376 0 17.9773 -48.9869 0 35.3553 -38.3784 0 66.1255 -41.8801 0 -76.3715 -17.1441 0 -48.9869 -17.9773 0 -19.1892 -17.6777 0 -1.06881 -26.0688 0 17.6777 -19.1892 0 47.3508 -21.9271 0 74.7117 -23.3385 0 -78.2064 3.20643 0 -52.1376 2.13762 0 -26.0688 1.06881 0 0 0 0 26.0688 -1.06881 0 52.1376 -2.13762 0 78.2064 -3.20643 0 -74.7117 23.3385 0 -47.3508 21.9271 0 -17.6777 19.1892 0 1.06881 26.0688 0 19.1892 17.6777 0 48.9869 17.9773 0 76.3715 17.1441 0 -66.1255 41.8801 0 -35.3553 38.3784 0 -17.9773 48.9869 0 2.13762 52.1376 0 21.9271 47.3508 0 38.3784 35.3553 0 69.332 36.3264 0 -53.033 57.5676 0 -36.3264 69.332 0 -17.1441 76.3715 0 3.20643 78.2064 0 23.3385 74.7117 0 41.8801 66.1255 0 57.5676 53.033 0 -57.5676 -53.033 34.656 -41.8801 -66.1255 34.656 -23.3385 -74.7117 34.656 -3.20643 -78.2064 34.656 17.1441 -76.3715 34.656 36.3264 -69.332 34.656 53.033 -57.5676 34.656 -69.332 -36.3264 34.656 -38.3784 -35.3553 34.656 -21.9271 -47.3508 34.656 -2.13762 -52.1376 34.656 17.9773 -48.9869 34.656 35.3553 -38.3784 34.656 66.1255 -41.8801 34.656 -76.3715 -17.1441 34.656 -48.9869 -17.9773 34.656 -19.1892 -17.6777 34.656 -1.06881 -26.0688 34.656 17.6777 -19.1892 34.656 47.3508 -21.9271 34.656 74.7117 -23.3385 34.656 -78.2064 3.20643 34.656 -52.1376 2.13762 34.656 -26.0688 1.06881 34.656 2.1983e-16 -1.52945e-16 34.656 26.0688 -1.06881 34.656 52.1376 -2.13762 34.656 78.2064 -3.20643 34.656 -74.7117 23.3385 34.656 -47.3508 21.9271 34.656 -17.6777 19.1892 34.656 1.06881 26.0688 34.656 19.1892 17.6777 34.656 48.9869 17.9773 34.656 76.3715 17.1441 34.656 -66.1255 41.8801 34.656 -35.3553 38.3784 34.656 -17.9773 48.9869 34.656 2.13762 52.1376 34.656 21.9271 47.3508 34.656 38.3784 35.3553 34.656 69.332 36.3264 34.656 -53.033 57.5676 34.656 -36.3264 69.332 34.656 -17.1441 76.3715 34.656 3.20643 78.2064 34.656 23.3385 74.7117 34.656 41.8801 66.1255 34.656 57.5676 53.033 34.656 -57.5676 -53.033 69.312 -41.8801 -66.1255 69.312 -23.3385 -74.7117 69.312 -3.20643 -78.2064 69.312 17.1441 -76.3715 69.312 36.3264 -69.332 69.312 53.033 -57.5676 69.312 -69.332 -36.3264 69.312 -38.3784 -35.3553 69.312 -21.9271 -47.3508 69.312 -2.13762 -52.1376 69.312 17.9773 -48.9869 69.312 35.3553 -38.3784 69.312 66.1255 -41.8801 69.312 -76.3715 -17.1441 69.312 -48.9869 -17.9773 69.312 -19.1892 -17.6777 69.312 -1.06881 -26.0688 69.312 17.6777 -19.1892 69.312 47.3508 -21.9271 69.312 74.7117 -23.3385 69.312 -78.2064 3.20643 69.312 -52.1376 2.13762 69.312 -26.0688 1.06881 69.312 6.25892e-16 -3.00734e-16 69.312 26.0688 -1.06881 69.312 52.1376 -2.13762 69.312 78.2064 -3.20643 69.312 -74.7117 23.3385 69.312 -47.3508 21.9271 69.312 -17.6777 19.1892 69.312 1.06881 26.0688 69.312 19.1892 17.6777 69.312 48.9869 17.9773 69.312 76.3715 17.1441 69.312 -66.1255 41.8801 69.312 -35.3553 38.3784 69.312 -17.9773 48.9869 69.312 2.13762 52.1376 69.312 21.9271 47.3508 69.312 38.3784 35.3553 69.312 69.332 36.3264 69.312 -53.033 57.5676 69.312 -36.3264 69.332 69.312 -17.1441 76.3715 69.312 3.20643 78.2064 69.312 23.3385 74.7117 69.312 41.8801 66.1255 69.312 57.5676 53.033 69.312 -57.5676 -53.033 103.968 -41.8801 -66.1255 103.968 -23.3385 -74.7117 103.968 -3.20643 -78.2064 103.968 17.1441 -76.3715 103.968 36.3264 -69.332 103.968 53.033 -57.5676 103.968 -69.332 -36.3264 103.968 -38.3784 -35.3553 103.968 -21.9271 -47.3508 103.968 -2.13762 -52.1376 103.968 17.9773 -48.9869 103.968 35.3553 -38.3784 103.968 66.1255 -41.8801 103.968 -76.3715 -17.1441 103.968 -48.9869 -17.9773 103.968 -19.1892 -17.6777 103.968 -1.06881 -26.0688 103.968 17.6777 -19.1892 103.968 47.3508 -21.9271 103.968 74.7117 -23.3385 103.968 -78.2064 3.20643 103.968 -52.1376 2.13762 103.968 -26.0688 1.06881 103.968 1.15305e-15 9.68817e-16 103.968 26.0688 -1.06881 103.968 52.1376 -2.13762 103.968 78.2064 -3.20643 103.968 -74.7117 23.3385 103.968 -47.3508 21.9271 103.968 -17.6777 19.1892 103.968 1.06881 26.0688 103.968 19.1892 17.6777 103.968 48.9869 17.9773 103.968 76.3715 17.1441 103.968 -66.1255 41.8801 103.968 -35.3553 38.3784 103.968 -17.9773 48.9869 103.968 2.13762 52.1376 103.968 21.9271 47.3508 103.968 38.3784 35.3553 103.968 69.332 36.3264 103.968 -53.033 57.5676 103.968 -36.3264 69.332 103.968 -17.1441 76.3715 103.968 3.20643 78.2064 103.968 23.3385 74.7117 103.968 41.8801 66.1255 103.968 57.5676 53.033 103.968 -57.5676 -53.033 138.624 -41.8801 -66.1255 138.624 -23.3385 -74.7117 138.624 -3.20643 -78.2064 138.624 17.1441 -76.3715 138.624 36.3264 -69.332 138.624 53.033 -57.5676 138.624 -69.332 -36.3264 138.624 -38.3784 -35.3553 138.624 -21.9271 -47.3508 138.624 -2.13762 -52.1376 138.624 17.9773 -48.9869 138.624 35.3553 -38.3784 138.624 66.1255 -41.8801 138.624 -76.3715 -17.1441 138.624 -48.9869 -17.9773 138.624 -19.1892 -17.6777 138.624 -1.06881 -26.0688 138.624 17.6777 -19.1892 138.624 47.3508 -21.9271 138.624 74.7117 -23.3385 138.624 -78.2064 3.20643 138.624 -52.1376 2.13762 138.624 -26.0688 1.06881 138.624 2.36498e-15 1.20384e-15 138.624 26.0688 -1.06881 138.624 52.1376 -2.13762 138.624 78.2064 -3.20643 138.624 -74.7117 23.3385 138.624 -47.3508 21.9271 138.624 -17.6777 19.1892 138.624 1.06881 26.0688 138.624 19.1892 17.6777 138.624 48.9869 17.9773 138.624 76.3715 17.1441 138.624 -66.1255 41.8801 138.624 -35.3553 38.3784 138.624 -17.9773 48.9869 138.624 2.13762 52.1376 138.624 21.9271 47.3508 138.624 38.3784 35.3553 138.624 69.332 36.3264 138.624 -53.033 57.5676 138.624 -36.3264 69.332 138.624 -17.1441 76.3715 138.624 3.20643 78.2064 138.624 23.3385 74.7117 138.624 41.8801 66.1255 138.624 57.5676 53.033 138.624 -57.5676 -53.033 173.28 -41.8801 -66.1255 173.28 -23.3385 -74.7117 173.28 -3.20643 -78.2064 173.28 17.1441 -76.3715 173.28 36.3264 -69.332 173.28 53.033 -57.5676 173.28 -69.332 -36.3264 173.28 -38.3784 -35.3553 173.28 -21.9271 -47.3508 173.28 -2.13762 -52.1376 173.28 17.9773 -48.9869 173.28 35.3553 -38.3784 173.28 66.1255 -41.8801 173.28 -76.3715 -17.1441 173.28 -48.9869 -17.9773 173.28 -19.1892 -17.6777 173.28 -1.06881 -26.0688 173.28 17.6777 -19.1892 173.28 47.3508 -21.9271 173.28 74.7117 -23.3385 173.28 -78.2064 3.20643 173.28 -52.1376 2.13762 173.28 -26.0688 1.06881 173.28 3.14919e-15 2.38125e-15 173.28 26.0688 -1.06881 173.28 52.1376 -2.13762 173.28 78.2064 -3.20643 173.28 -74.7117 23.3385 173.28 -47.3508 21.9271 173.28 -17.6777 19.1892 173.28 1.06881 26.0688 173.28 19.1892 17.6777 173.28 48.9869 17.9773 173.28 76.3715 17.1441 173.28 -66.1255 41.8801 173.28 -35.3553 38.3784 173.28 -17.9773 48.9869 173.28 2.13762 52.1376 173.28 21.9271 47.3508 173.28 38.3784 35.3553 173.28 69.332 36.3264 173.28 -53.033 57.5676 173.28 -36.3264 69.332 173.28 -17.1441 76.3715 173.28 3.20643 78.2064 173.28 23.3385 74.7117 173.28 41.8801 66.1255 173.28 57.5676 53.033 173.28 -57.5676 -53.033 207.936 -41.8801 -66.1255 207.936 -23.3385 -74.7117 207.936 -3.20643 -78.2064 207.936 17.1441 -76.3715 207.936 36.3264 -69.332 207.936 53.033 -57.5676 207.936 -69.332 -36.3264 207.936 -38.3784 -35.3553 207.936 -21.9271 -47.3508 207.936 -2.13762 -52.1376 207.936 17.9773 -48.9869 207.936 35.3553 -38.3784 207.936 66.1255 -41.8801 207.936 -76.3715 -17.1441 207.936 -48.9869 -17.9773 207.936 -19.1892 -17.6777 207.936 -1.06881 -26.0688 207.936 17.6777 -19.1892 207.936 47.3508 -21.9271 207.936 74.7117 -23.3385 207.936 -78.2064 3.20643 207.936 -52.1376 2.13762 207.936 -26.0688 1.06881 207.936 4.73133e-15 3.03233e-15 207.936 26.0688 -1.06881 207.936 52.1376 -2.13762 207.936 78.2064 -3.20643 207.936 -74.7117 23.3385 207.936 -47.3508 21.9271 207.936 -17.6777 19.1892 207.936 1.06881 26.0688 207.936 19.1892 17.6777 207.936 48.9869 17.9773 207.936 76.3715 17.1441 207.936 -66.1255 41.8801 207.936 -35.3553 38.3784 207.936 -17.9773 48.9869 207.936 2.13762 52.1376 207.936 21.9271 47.3508 207.936 38.3784 35.3553 207.936 69.332 36.3264 207.936 -53.033 57.5676 207.936 -36.3264 69.332 207.936 -17.1441 76.3715 207.936 3.20643 78.2064 207.936 23.3385 74.7117 207.936 41.8801 66.1255 207.936 57.5676 53.033 207.936 -57.5676 -53.033 242.592 -41.8801 -66.1255 242.592 -23.3385 -74.7117 242.592 -3.20643 -78.2064 242.592 17.1441 -76.3715 242.592 36.3264 -69.332 242.592 53.033 -57.5676 242.592 -69.332 -36.3264 242.592 -38.3784 -35.3553 242.592 -21.9271 -47.3508 242.592 -2.13762 -52.1376 242.592 17.9773 -48.9869 242.592 35.3553 -38.3784 242.592 66.1255 -41.8801 242.592 -76.3715 -17.1441 242.592 -48.9869 -17.9773 242.592 -19.1892 -17.6777 242.592 -1.06881 -26.0688 242.592 17.6777 -19.1892 242.592 47.3508 -21.9271 242.592 74.7117 -23.3385 242.592 -78.2064 3.20643 242.592 -52.1376 2.13762 242.592 -26.0688 1.06881 242.592 5.07043e-15 4.44621e-15 242.592 26.0688 -1.06881 242.592 52.1376 -2.13762 242.592 78.2064 -3.20643 242.592 -74.7117 23.3385 242.592 -47.3508 21.9271 242.592 -17.6777 19.1892 242.592 1.06881 26.0688 242.592 19.1892 17.6777 242.592 48.9869 17.9773 242.592 76.3715 17.1441 242.592 -66.1255 41.8801 242.592 -35.3553 38.3784 242.592 -17.9773 48.9869 242.592 2.13762 52.1376 242.592 21.9271 47.3508 242.592 38.3784 35.3553 242.592 69.332 36.3264 242.592 -53.033 57.5676 242.592 -36.3264 69.332 242.592 -17.1441 76.3715 242.592 3.20643 78.2064 242.592 23.3385 74.7117 242.592 41.8801 66.1255 242.592 57.5676 53.033 242.592 -57.5676 -53.033 277.248 -41.8801 -66.1255 277.248 -23.3385 -74.7117 277.248 -3.20643 -78.2064 277.248 17.1441 -76.3715 277.248 36.3264 -69.332 277.248 53.033 -57.5676 277.248 -69.332 -36.3264 277.248 -38.3784 -35.3553 277.248 -21.9271 -47.3508 277.248 -2.13762 -52.1376 277.248 17.9773 -48.9869 277.248 35.3553 -38.3784 277.248 66.1255 -41.8801 277.248 -76.3715 -17.1441 277.248 -48.9869 -17.9773 277.248 -19.1892 -17.6777 277.248 -1.06881 -26.0688 277.248 17.6777 -19.1892 277.248 47.3508 -21.9271 277.248 74.7117 -23.3385 277.248 -78.2064 3.20643 277.248 -52.1376 2.13762 277.248 -26.0688 1.06881 277.248 6.04473e-15 5.15994e-15 277.248 26.0688 -1.06881 277.248 52.1376 -2.13762 277.248 78.2064 -3.20643 277.248 -74.7117 23.3385 277.248 -47.3508 21.9271 277.248 -17.6777 19.1892 277.248 1.06881 26.0688 277.248 19.1892 17.6777 277.248 48.9869 17.9773 277.248 76.3715 17.1441 277.248 -66.1255 41.8801 277.248 -35.3553 38.3784 277.248 -17.9773 48.9869 277.248 2.13762 52.1376 277.248 21.9271 47.3508 277.248 38.3784 35.3553 277.248 69.332 36.3264 277.248 -53.033 57.5676 277.248 -36.3264 69.332 277.248 -17.1441 76.3715 277.248 3.20643 78.2064 277.248 23.3385 74.7117 277.248 41.8801 66.1255 277.248 57.5676 53.033 277.248
        </DataArray>
      </Points>
      <Cells>
        <DataArray type="Int32" Name="connectivity" format="ascii">
          0 1 8 7 49 50 57 56 1 2 9 8 50 51 58 57 2 3 10 9 51 52 59 58 3 4 11 10 52 53 60 59 4 5 12 11 53 54 61 60 5 6 13 12 54 55 62 61 7 8 15 14 56 57 64 63 8 9 16 15 57 58 65 64 9 10 17 16 58 59 66 65 10 11 18 17 59 60 67 66 11 12 19 18 60 61 68 67 12 13 20 19 61 62 69 68 14 15 22 21 63 64 71 70 15 16 23 22 64 65 72 71 16 17 24 23 65 66 73 72 17 18 25 24 66 67 74 73 18 19 26 25 67 68 75 74 19 20 27 26 68 69 76 75 21 22 29 28 70 71 78 77 22 23 30 29 71 72 79 78 23 24 31 30 72 73 80 79 24 25 32 31 73 74 81 80 25 26 33 32 74 75 82 81 26 27 34 33 75 76 83 82 28 29 36 35 77 78 85 84 29 30 37 36 78 79 86 85 30 31 38 37 79 80 87 86 31 32 39 38 80 81 88 87 32 33 40 39 81 82 89 88 33 34 41 40 82 83 90 89 35 36 43 42 84 85 92 91 36 37 44 43 85 86 93 92 37 38 45 44 86 87 94 93 38 39 46 45 87 88 95 94 39 40 47 46 88 89 96 95 40 41 48 47 89 90 97 96 49 50 57 56 98 99 106 105 50 51 58 57 99 100 107 106 51 52 59 58 100 101 108 107 52 53 60 59 101 102 109 108 53 54 61 60 102 103 110 109 54 55 62 61 103 104 111 110 56 57 64 63 105 106 113 112 57 58 65 64 106 107 114 113 58 59 66 65 107 108 115 114 59 60 67 66 108 109 116 115 60 61 68 67 109 110 117 116 61 62 69 68 110 111 118 117 63 64 71 70 112 113 120 119 64 65 72 71 113 114 121 120 65 66 73 72 114 115 122 121 66 67 74 73 115 116 123 122 67 68 75 74 116 117 124 123 68 69 76 75 117 118 125 124 70 71 78 77 119 120 127 126 71 72 79 78 120 121 128 127 72 73 80 79 121 122 129 128 73 74 81 80 122 123 130 129 74 75 82 81 123 124 131 130 75 76 83 82 124 125 132 131 77 78 85 84 126 127 134 133 78 79 86 85 127 128 135 134 79 80 87 86 128 129 136 135 80 81 88 87 129 130 137 136 81 82 89 88 130 131 138 137 82 83 90 89 131 132 139 138 84 85 92 91 133 134 141 140 85 86 93 92 134 135 142 141 86 87 94 93 135 136 143 142 87 88 95 94 136 137 144 143 88 89 96 95 137 138 145 144 89 90 97 96 138 139 146 145 98 99 106 105 147 148 155 154 99 100 107 106 148 149 156 155 100 101 108 107 149 150 157 156 101 102 109 108 150 151 158 157 102 103 110 109 151 152 159 158 103 104 111 110 152 153 160 159 105 106 113 112 154 155 162 161 106 107 114 113 155 156 163 162 107 108 115 114 156 157 164 163 108 109 116 115 157 158 165 164 109 110 117 116 158 159 166 165 110 111 118 117 159 160 167 166 112 113 120 119 161 162 169 168 113 114 121 120 162 163 170 169 114 115 122 121 163 164 171 170 115 116 123 122 164 165 172 171 116 117 124 123 165 166 173 172 117 118 125 124 166 167 174 173 119 120 127 126 168 169 176 175 120 121 128 127 169 170 177 176 121 122 129 128 170 171 178 177 122 123 130 129 171 172 179 178 123 124 131 130 172 173 180 179 124 125 132 131 173 174 181 180 126 127 134 133 175 176 183 182 127 128 135 134 176 177 184 183 128 129 136 135 177 178 185 184 129 130 137 136 178 179 186 185 130 131 138 137 179 180 187 186 131 132 139 138 180 181 188 187 133 134 141 140 182 183 190 189 134 135 142 141 183 184 191 190 135 136 143 142 184 185 192 191 136 137 144 143 185 186 193 192 137 138 145 144 186 187 194 193 138 139 146 145 187 188 195 194 147 148 155 154 196 197 204 203 148 149 156 155 197 198 205 204 149 150 157 156 198 199 206 205 150 151 158 157 199 200 207 206 151 152 159 158 200 201 208 207 152 153 160 159 201 202 209 208 154 155 162 161 203 204 211 210 155 156 163 162 204 205 212 211 156 157 164 163 205 206 213 212 157 158 165 164 206 207 214 213 158 159 166 165 207 208 215 214 159 160 167 166 208 209 216 215 161 162 169 168 210 211 218 217 162 163 170 169 211 212 219 218 163 164 171 170 212 213 220 219 164 165 172 171 213 214 221 220 165 166 173 172 214 215 222 221 166 167 174 173 215 216 223 222 168 169 176 175 217 218 225 224 169 170 177 176 218 219 226 225 170 171 178 177 219 220 227 226 171 172 179 178 220 221 228 227 172 173 180 179 221 222 229 228 173 174 181 180 222 223 230 229 175 176 183 182 224 225 232 231 176 177 184 183 225 226 233 232 177 178 185 184 226 227 234 233 178 179 186 185 227 228 235 234 179 180 187 186 228 229 236 235 180 181 188 187 229 230 237 236 182 183 190 189 231 232 239 238 183 184 191 190 232 233 240 239 184 185 192 191 233 234 241 240 185 186 193 192 234 235 242 241 186 187 194 193 235 236 243 242 187 188 195 194 236 237 244 243 196 197 204 203 245 246 253 252 197 198 205 204 246 247 254 253 198 199 206 205 247 248 255 254 199 200 207 206 248 249 256 255 200 201 208 207 249 250 257 256 201 202 209 208 250 251 258 257 203 204 211 210 252 253 260 259 204 205 212 211 253 254 261 260 205 206 213 212 254 255 262 261 206 207 214 213 255 256 263 262 207 208 215 214 256 257 264 263 208 209 216 215 257 258 265 264 210 211 218 217 259 260 267 266 211 212 219 218 260 261 268 267 212 213 220 219 261 262 269 268 213 214 221 220 262 263 270 269 214 215 222 221 263 264 271 270 215 216 223 222 264 265 272 271 217 218 225 224 266 267 274 273 218 219 226 225 267 268 275 274 219 220 227 226 268 269 276 275 220 221 228 227 269 270 277 276 221 222 229 228 270 271 278 277 222 223 230 229 271 272 279 278 224 225 232 231 273 274 281 280 225 226 233 232 274 275 282 281 226 227 234 233 275 276 283 282 227 228 235 234 276 277 284 283 228 229 236 235 277 278 285 284 229 230 237 236 278 279 286 285 231 232 239 238 280 281 288 287 232 233 240 239 281 282 289 288 233 234 241 240 282 283 290 289 234 235 242 241 283 284 291 290 235 236 243 242 284 285 292 291 236 237 244 243 285 286 293 292 245 246 253 252 294 295 302 301 246 247 254 253 295 296 303 302 247 248 255 254 296 297 304 303 248 249 256 255 297 298 305 304 249 250 257 256 298 299 306 305 250 251 258 257 299 300 307 306 252 253 260 259 301 302 309 308 253 254 261 260 302 303 310 309 254 255 262 261 303 304 311 310 255 256 263 262 304 305 312 311 256 257 264 263 305 306 313 312 257 258 265 264 306 307 314 313 259 260 267 266 308 309 316 315 260 261 268 267 309 310 317 316 261 262 269 268 310 311 318 317 262 263 270 269 311 312 319 318 263 264 271 270 312 313 320 319 264 265 272 271 313 314 321 320 266 267 274 273 315 316 323 322 267 268 275 274 316 317 324 323 268 269 276 275 317 318 325 324 269 270 277 276 318 319 326 325 270 271 278 277 319 320 327 326 271 272 279 278 320 321 328 327 273 274 281 280 322 323 330 329 274 275 282 281 323 324 331 330 275 276 283 282 324 325 332 331 276 277 284 283 325 326 333 332 277 278 285 284 326 327 334 333 278 279 286 285 327 328 335 334 280 281 288 287 329 330 337 336 281 282 289 288 330 331 338 337 282 283 290 289 331 332 339 338 283 284 291 290 332 333 340 339 284 285 292 291 333 334 341 340 285 286 293 292 334 335 342 341 294 295 302 301 343 344 351 350 295 296 303 302 344 345 352 351 296 297 304 303 345 346 353 352 297 298 305 304 346 347 354 353 298 299 306 305 347 348 355 354 299 300 307 306 348 349 356 355 301 302 309 308 350 351 358 357 302 303 310 309 351 352 359 358 303 304 311 310 352 353 360 359 304 305 312 311 353 354 361 360 305 306 313 312 354 355 362 361 306 307 314 313 355 356 363 362 308 309 316 315 357 358 365 364 309 310 317 316 358 359 366 365 310 311 318 317 359 360 367 366 311 312 319 318 360 361 368 367 312 313 320 319 361 362 369 368 313 314 321 320 362 363 370 369 315 316 323 322 364 365 372 371 316 317 324 323 365 366 373 372 317 318 325 324 366 367 374 373 318 319 326 325 367 368 375 374 319 320 327 326 368 369 376 375 320 321 328 327 369 370 377 376 322 323 330 329 371 372 379 378 323 324 331 330 372 373 380 379 324 325 332 331 373 374 381 380 325 326 333 332 374 375 382 381 326 327 334 333 375 376 383 382 327 328 335 334 376 377 384 383 329 330 337 336 378 379 386 385 330 331 338 337 379 380 387 386 331 332 339 338 380 381 388 387 332 333 340 339 381 382 389 388 333 334 341 340 382 383 390 389 334 335 342 341 383 384 391 390 343 344 351 350 392 393 400 399 344 345 352 351 393 394 401 400 345 346 353 352 394 395 402 401 346 347 354 353 395 396 403 402 347 348 355 354 396 397 404 403 348 349 356 355 397 398 405 404 350 351 358 357 399 400 407 406 351 352 359 358 400 401 408 407 352 353 360 359 401 402 409 408 353 354 361 360 402 403 410 409 354 355 362 361 403 404 411 410 355 356 363 362 404 405 412 411 357 358 365 364 406 407 414 413 358 359 366 365 407 408 415 414 359 360 367 366 408 409 416 415 360 361 368 367 409 410 417 416 361 362 369 368 410 411 418 417 362 363 370 369 411 412 419 418 364 365 372 371 413 414 421 420 365 366 373 372 414 415 422 421 366 367 374 373 415 416 423 422 367 368 375 374 416 417 424 423 368 369 376 375 417 418 425 424 369 370 377 376 418 419 426 425 371 372 379 378 420 421 428 427 372 373 380 379 421 422 429 428 373 374 381 380 422 423 430 429 374 375 382 381 423 424 431 430 375 376 383 382 424 425 432 431 376 377 384 383 425 426 433 432 378 379 386 385 427 428 435 434 379 380 387 386 428 429 436 435 380 381 388 387 429 430 437 436 381 382 389 388 430 431 438 437 382 383 390 389 431 432 439 438 383 384 391 390 432 433 440 439
        </DataArray>
        <DataArray type="Int32" Name="offsets" format="ascii">
          8 16 24 32 40 48 56 64 72 80 88 96 104 112 120 128 136 144 152 160 168 176 184 192 200 208 216 224 232 240 248 256 264 272 280 288 296 304 312 320 328 336 344 352 360 368 376 384 392 400 408 416 424 432 440 448 456 464 472 480 488 496 504 512 520 528 536 544 552 560 568 576 584 592 600 608 616 624 632 640 648 656 664 672 680 688 696 704 712 720 728 736 744 752 760 768 776 784 792 800 808 816 824 832 840 848 856 864 872 880 888 896 904 912 920 928 936 944 952 960 968 976 984 992 1000 1008 1016 1024 1032 1040 1048 1056 1064 1072 1080 1088 1096 1104 1112 1120 1128 1136 1144 1152 1160 1168 1176 1184 1192 1200 1208 1216 1224 1232 1240 1248 1256 1264 1272 1280 1288 1296 1304 1312 1320 1328 1336 1344 1352 1360 1368 1376 1384 1392 1400 1408 1416 1424 1432 1440 1448 1456 1464 1472 1480 1488 1496 1504 1512 1520 1528 1536 1544 1552 1560 1568 1576 1584 1592 1600 1608 1616 1624 1632 1640 1648 1656 1664 1672 1680 1688 1696 1704 1712 1720 1728 1736 1744 1752 1760 1768 1776 1784 1792 1800 1808 1816 1824 1832 1840 1848 1856 1864 1872 1880 1888 1896 1904 1912 1920 1928 1936 1944 1952 1960 1968 1976 1984 1992 2000 2008 2016 2024 2032 2040 2048 2056 2064 2072 2080 2088 2096 2104 2112 2120 2128 2136 2144 2152 2160 2168 2176 2184 2192 2200 2208 2216 2224 2232 2240 2248 2256 2264 2272 2280 2288 2296 2304
        </DataArray>
        <DataArray type="UInt8" Name="types" format="ascii">
          12 12 12 12 12 12 12 12 12 12 12 12 12 12 12 12 12 12 12 12 12 12 12 12 12 12 12 12 12 12 12 12 12 12 12 12 12 12 12 12 12 12 12 12 12 12 12 12 12 12 12 12 12 12 12 12 12 12 12 12 12 12 12 12 12 12 12 12 12 12 12 12 12 12 12 12 12 12 12 12 12 12 12 12 12 12 12 12 12 12 12 12 12 12 12 12 12 12 12 12 12 12 12 12 12 12 12 12 12 12 12 12 12 12 12 12 12 12 12 12 12 12 12 12 12 12 12 12 12 12 12 12 12 12 12 12 12 12 12 12 12 12 12 12 12 12 12 12 12 12 12 12 12 12 12 12 12 12 12 12 12 12 12 12 12 12 12 12 12 12 12 12 12 12 12 12 12 12 12 12 12 12 12 12 12 12 12 12 12 12 12 12 12 12 12 12 12 12 12 12 12 12 12 12 12 12 12 12 12 12 12 12 12 12 12 12 12 12 12 12 12 12 12 12 12 12 12 12 12 12 12 12 12 12 12 12 12 12 12 12 12 12 12 12 12 12 12 12 12 12 12 12 12 12 12 12 12 12 12 12 12 12 12 12 12 12 12 12 12 12 12 12 12 12 12 12 12 12 12 12 12 12 12 12 12 12 12 12
        </DataArray>
      </Cells>
      <PointData>
        <DataArray type="Float32" Name="displacement" NumberOfComponents="3" format="ascii">
          -0.566822 0 0 -0.547508 -0.146704 0 -0.490882 -0.283411 0 -0.400804 -0.400804 0 -0.283411 -0.490882 0 -0.146704 -0.547508 0 9.81612e-17 -0.566822 0 -0.547508 0.146704 0 -0.377881 -2.55083e-17 0 -0.349117 -0.144609 0 -0.267203 -0.267203 0 -0.144609 -0.349117 0 1.91947e-17 -0.377881 0 0.146704 -0.547508 0 -0.490882 0.283411 0 -0.349117 0.144609 0 -0.188941 -3.68658e-17 0 -0.133601 -0.133601 0 8.95614e-18 -0.188941 0 0.144609 -0.349117 0 0.283411 -0.490882 0 -0.400804 0.400804 0 -0.267203 0.267203 0 -0.133601 0.133601 0 0 0 0 0.133601 -0.133601 0 0.267203 -0.267203 0 0.400804 -0.400804 0 -0.283411 0.490882 0 -0.144609 0.349117 0 -3.48179e-18 0.188941 0 0.133601 0.133601 0 0.188941 3.68825e-18 0 0.349117 -0.144609 0 0.490882 -0.283411 0 -0.146704 0.547508 0 -5.38579e-17 0.377881 0 0.144609 0.349117 0 0.267203 0.267203 0 0.349117 0.144609 0 0.377881 2.57171e-17 0 0.547508 -0.146704 0 -1.96405e-17 0.566822 0 0.146704 0.547508 0 0.283411 0.490882 0 0.400804 0.400804 0 0.490882 0.283411 0 0.547508 0.146704 0 0.566822 1.16994e-16 0 -0.566822 -2.38684e-17 -0.3555 -0.547508 -0.146704 -0.3555 -0.490882 -0.283411 -0.3555 -0.400804 -0.400804 -0.3555 -0.283411 -0.490882 -0.3555 -0.146704 -0.547508 -0.3555 3.39161e-17 -0.566822 -0.3555 -0.547508 0.146704 -0.3555 -0.377881 -6.54542e-17 -0.3555 -0.349117 -0.144609 -0.3555 -0.267203 -0.267203 -0.3555 -0.144609 -0.349117 -0.3555 3.59358e-17 -0.377881 -0.3555 0.146704 -0.547508 -0.3555 -0.490882 0.283411 -0.3555 -0.349117 0.144609 -0.3555 -0.188941 -4.14656e-17 -0.3555 -0.133601 -0.133601 -0.3555 5.91535e-18 -0.188941 -0.3555 0.144609 -0.349117 -0.3555 0.283411 -0.490882 -0.3555 -0.400804 0.400804 -0.3555 -0.267203 0.267203 -0.3555 -0.133601 0.133601 -0.3555 2.74787e-17 -1.91181e-17 -0.3555 0.133601 -0.133601 -0.3555 0.267203 -0.267203 -0.3555 0.400804 -0.400804 -0.3555 -0.283411 0.490882 -0.3555 -0.144609 0.349117 -0.3555 -7.40249e-17 0.188941 -0.3555 0.133601 0.133601 -0.3555 0.188941 -8.64302e-18 -0.3555 0.349117 -0.144609 -0.3555 0.490882 -0.283411 -0.3555 -0.146704 0.547508 -0.3555 -4.08432e-17 0.377881 -0.3555 0.144609 0.349117 -0.3555 0.267203 0.267203 -0.3555 0.349117 0.144609 -0.3555 0.377881 6.91935e-17 -0.3555 0.547508 -0.146704 -0.3555 -1.27157e-16 0.566822 -0.3555 0.146704 0.547508 -0.3555 0.283411 0.490882 -0.3555 0.400804 0.400804 -0.3555 0.490882 0.283411 -0.3555 0.547508 0.146704 -0.3555 0.566822 1.75355e-16 -0.3555 -0.566822 -1.08987e-16 -0.711 -0.547508 -0.146704 -0.711 -0.490882 -0.283411 -0.711 -0.400804 -0.400804 -0.711 -0.283411 -0.490882 -0.711 -0.146704 -0.547508 -0.711 1.84073e-16 -0.566822 -0.711 -0.547508 0.146704 -0.711 -0.377881 -8.32139e-17 -0.711 -0.349117 -0.144609 -0.711 -0.267203 -0.267203 -0.711 -0.144609 -0.349117 -0.711 1.47073e-16 -0.377881 -0.711 0.146704 -0.547508 -0.711 -0.490882 0.283411 -0.711 -0.349117 0.144609 -0.711 -0.188941 -4.33015e-17 -0.711 -0.133601 -0.133601 -0.711 1.00026e-16 -0.188941 -0.711 0.144609 -0.349117 -0.711 0.283411 -0.490882 -0.711 -0.400804 0.400804 -0.711 -0.267203 0.267203 -0.711 -0.133601 0.133601 -0.711 7.82365e-17 -3.75918e-17 -0.711 0.133601 -0.133601 -0.711 0.267203 -0.267203 -0.711 0.400804 -0.400804 -0.711 -0.283411 0.490882 -0.711 -0.144609 0.349117 -0.711 7.42824e-18 0.188941 -0.711 0.133601 0.133601 -0.711 0.188941 5.54552e-17 -0.711 0.349117 -0.144609 -0.711 0.490882 -0.283411 -0.711 -0.146704 0.547508 -0.711 -4.91547e-18 0.377881 -0.711 0.144609 0.349117 -0.711 0.267203 0.267203 -0.711 0.349117 0.144609 -0.711 0.377881 1.16418e-16 -0.711 0.547508 -0.146704 -0.711 -4.96643e-17 0.566822 -0.711 0.146704 0.547508 -0.711 0.283411 0.490882 -0.711 0.400804 0.400804 -0.711 0.490882 0.283411 -0.711 0.547508 0.146704 -0.711 0.566822 2.18853e-16 -0.711 -0.566822 1.87014e-17 -1.0665 -0.547508 -0.146704 -1.0665 -0.490882 -0.283411 -1.0665 -0.400804 -0.400804 -1.0665 -0.283411 -0.490882 -1.0665 -0.146704 -0.547508 -1.0665 2.90184e-16 -0.566822 -1.0665 -0.547508 0.146704 -1.0665 -0.377881 3.04737e-17 -1.0665 -0.349117 -0.144609 -1.0665 -0.267203 -0.267203 -1.0665 -0.144609 -0.349117 -1.0665 2.90932e-16 -0.377881 -1.0665 0.146704 -0.547508 -1.0665 -0.490882 0.283411 -1.0665 -0.349117 0.144609 -1.0665 -0.188941 5.94691e-17 -1.0665 -0.133601 -0.133601 -1.0665 1.96985e-16 -0.188941 -1.0665 0.144609 -0.349117 -1.0665 0.283411 -0.490882 -1.0665 -0.400804 0.400804 -1.0665 -0.267203 0.267203 -1.0665 -0.133601 0.133601 -1.0665 1.44131e-16 1.21102e-16 -1.0665 0.133601 -0.133601 -1.0665 0.267203 -0.267203 -1.0665 0.400804 -0.400804 -1.0665 -0.283411 0.490882 -1.0665 -0.144609 0.349117 -1.0665 1.05567e-16 0.188941 -1.0665 0.133601 0.133601 -1.0665 0.188941 1.82832e-16 -1.0665 0.349117 -0.144609 -1.0665 0.490882 -0.283411 -1.0665 -0.146704 0.547508 -1.0665 8.64169e-17 0.377881 -1.0665 0.144609 0.349117 -1.0665 0.267203 0.267203 -1.0665 0.349117 0.144609 -1.0665 0.377881 2.63728e-16 -1.0665 0.547508 -0.146704 -1.0665 4.33823e-17 0.566822 -1.0665 0.146704 0.547508 -1.0665 0.283411 0.490882 -1.0665 0.400804 0.400804 -1.0665 0.490882 0.283411 -1.0665 0.547508 0.146704 -1.0665 0.566822 3.14522e-16 -1.0665 -0.566822 -2.93662e-17 -1.422 -0.547508 -0.146704 -1.422 -0.490882 -0.283411 -1.422 -0.400804 -0.400804 -1.422 -0.283411 -0.490882 -1.422 -0.146704 -0.547508 -1.422 5.52325e-16 -0.566822 -1.422 -0.547508 0.146704 -1.422 -0.377881 -1.37217e-18 -1.422 -0.349117 -0.144609 -1.422 -0.267203 -0.267203 -1.422 -0.144609 -0.349117 -1.422 3.88348e-16 -0.377881 -1.422 0.146704 -0.547508 -1.422 -0.490882 0.283411 -1.422 -0.349117 0.144609 -1.422 -0.188941 5.84051e-17 -1.422 -0.133601 -0.133601 -1.422 3.38491e-16 -0.188941 -1.422 0.144609 -0.349117 -1.422 0.283411 -0.490882 -1.422 -0.400804 0.400804 -1.422 -0.267203 0.267203 -1.422 -0.133601 0.133601 -1.422 2.95623e-16 1.5048e-16 -1.422 0.133601 -0.133601 -1.422 0.267203 -0.267203 -1.422 0.400804 -0.400804 -1.422 -0.283411 0.490882 -1.422 -0.144609 0.349117 -1.422 1.59029e-16 0.188941 -1.422 0.133601 0.133601 -1.422 0.188941 2.43789e-16 -1.422 0.349117 -0.144609 -1.422 0.490882 -0.283411 -1.422 -0.146704 0.547508 -1.422 1.98186e-16 0.377881 -1.422 0.144609 0.349117 -1.422 0.267203 0.267203 -1.422 0.349117 0.144609 -1.422 0.377881 3.41564e-16 -1.422 0.547508 -0.146704 -1.422 9.87744e-17 0.566822 -1.422 0.146704 0.547508 -1.422 0.283411 0.490882 -1.422 0.400804 0.400804 -1.422 0.490882 0.283411 -1.422 0.547508 0.146704 -1.422 0.566822 4.21022e-16 -1.422 -0.566822 9.40039e-17 -1.7775 -0.547508 -0.146704 -1.7775 -0.490882 -0.283411 -1.7775 -0.400804 -0.400804 -1.7775 -0.283411 -0.490882 -1.7775 -0.146704 -0.547508 -1.7775 6.44064e-16 -0.566822 -1.7775 -0.547508 0.146704 -1.7775 -0.377881 1.52002e-16 -1.7775 -0.349117 -0.144609 -1.7775 -0.267203 -0.267203 -1.7775 -0.144609 -0.349117 -1.7775 6.29441e-16 -0.377881 -1.7775 0.146704 -0.547508 -1.7775 -0.490882 0.283411 -1.7775 -0.349117 0.144609 -1.7775 -0.188941 2.70785e-16 -1.7775 -0.133601 -0.133601 -1.7775 5.42941e-16 -0.188941 -1.7775 0.144609 -0.349117 -1.7775 0.283411 -0.490882 -1.7775 -0.400804 0.400804 -1.7775 -0.267203 0.267203 -1.7775 -0.133601 0.133601 -1.7775 3.93649e-16 2.97656e-16 -1.7775 0.133601 -0.133601 -1.7775 0.267203 -0.267203 -1.7775 0.400804 -0.400804 -1.7775 -0.283411 0.490882 -1.7775 -0.144609 0.349117 -1.7775 3.88959e-16 0.188941 -1.7775 0.133601 0.133601 -1.7775 0.188941 3.37995e-16 -1.7775 0.349117 -0.144609 -1.7775 0.490882 -0.283411 -1.7775 -0.146704 0.547508 -1.7775 3.62466e-16 0.377881 -1.7775 0.144609 0.349117 -1.7775 0.267203 0.267203 -1.7775 0.349117 0.144609 -1.7775 0.377881 3.91587e-16 -1.7775 0.547508 -0.146704 -1.7775 2.84633e-16 0.566822 -1.7775 0.146704 0.547508 -1.7775 0.283411 0.490882 -1.7775 0.400804 0.400804 -1.7775 0.490882 0.283411 -1.7775 0.547508 0.146704 -1.7775 0.566822 4.6115e-16 -1.7775 -0.566822 1.15608e-16 -2.133 -0.547508 -0.146704 -2.133 -0.490882 -0.283411 -2.133 -0.400804 -0.400804 -2.133 -0.283411 -0.490882 -2.133 -0.146704 -0.547508 -2.133 8.61703e-16 -0.566822 -2.133 -0.547508 0.146704 -2.133 -0.377881 2.21552e-16 -2.133 -0.349117 -0.144609 -2.133 -0.267203 -0.267203 -2.133 -0.144609 -0.349117 -2.133 7.81264e-16 -0.377881 -2.133 0.146704 -0.547508 -2.133 -0.490882 0.283411 -2.133 -0.349117 0.144609 -2.133 -0.188941 2.94432e-16 -2.133 -0.133601 -0.133601 -2.133 6.77035e-16 -0.188941 -2.133 0.144609 -0.349117 -2.133 0.283411 -0.490882 -2.133 -0.400804 0.400804 -2.133 -0.267203 0.267203 -2.133 -0.133601 0.133601 -2.133 5.91416e-16 3.79041e-16 -2.133 0.133601 -0.133601 -2.133 0.267203 -0.267203 -2.133 0.400804 -0.400804 -2.133 -0.283411 0.490882 -2.133 -0.144609 0.349117 -2.133 5.16144e-16 0.188941 -2.133 0.133601 0.133601 -2.133 0.188941 4.15201e-16 -2.133 0.349117 -0.144609 -2.133 0.490882 -0.283411 -2.133 -0.146704 0.547508 -2.133 4.31192e-16 0.377881 -2.133 0.144609 0.349117 -2.133 0.267203 0.267203 -2.133 0.349117 0.144609 -2.133 0.377881 4.89203e-16 -2.133 0.547508 -0.146704 -2.133 2.37379e-16 0.566822 -2.133 0.146704 0.547508 -2.133 0.283411 0.490882 -2.133 0.400804 0.400804 -2.133 0.490882 0.283411 -2.133 0.547508 0.146704 -2.133 0.566822 5.48642e-16 -2.133 -0.566822 2.57929e-16 -2.4885 -0.547508 -0.146704 -2.4885 -0.490882 -0.283411 -2.4885 -0.400804 -0.400804 -2.4885 -0.283411 -0.490882 -2.4885 -0.146704 -0.547508 -2.4885 1.10977e-15 -0.566822 -2.4885 -0.547508 0.146704 -2.4885 -0.377881 2.47525e-16 -2.4885 -0.349117 -0.144609 -2.4885 -0.267203 -0.267203 -2.4885 -0.144609 -0.349117 -2.4885 9.0997e-16 -0.377881 -2.4885 0.146704 -0.547508 -2.4885 -0.490882 0.283411 -2.4885 -0.349117 0.144609 -2.4885 -0.188941 4.08394e-16 -2.4885 -0.133601 -0.133601 -2.4885 7.83739e-16 -0.188941 -2.4885 0.144609 -0.349117 -2.4885 0.283411 -0.490882 -2.4885 -0.400804 0.400804 -2.4885 -0.267203 0.267203 -2.4885 -0.133601 0.133601 -2.4885 6.33803e-16 5.55776e-16 -2.4885 0.133601 -0.133601 -2.4885 0.267203 -0.267203 -2.4885 0.400804 -0.400804 -2.4885 -0.283411 0.490882 -2.4885 -0.144609 0.349117 -2.4885 5.65666e-16 0.188941 -2.4885 0.133601 0.133601 -2.4885 0.188941 5.95462e-16 -2.4885 0.349117 -0.144609 -2.4885 0.490882 -0.283411 -2.4885 -0.146704 0.547508 -2.4885 5.19233e-16 0.377881 -2.4885 0.144609 0.349117 -2.4885 0.267203 0.267203 -2.4885 0.349117 0.144609 -2.4885 0.377881 6.51136e-16 -2.4885 0.547508 -0.146704 -2.4885 5.54882e-16 0.566822 -2.4885 0.146704 0.547508 -2.4885 0.283411 0.490882 -2.4885 0.400804 0.400804 -2.4885 0.490882 0.283411 -2.4885 0.547508 0.146704 -2.4885 0.566822 7.29523e-16 -2.4885 -0.566822 1.08422e-18 -2.844 -0.547508 -0.146704 -2.844 -0.490882 -0.283411 -2.844 -0.400804 -0.400804 -2.844 -0.283411 -0.490882 -2.844 -0.146704 -0.547508 -2.844 9.26975e-16 -0.566822 -2.844 -0.547508 0.146704 -2.844 -0.377881 1.99963e-16 -2.844 -0.349117 -0.144609 -2.844 -0.267203 -0.267203 -2.844 -0.144609 -0.349117 -2.844 9.72735e-16 -0.377881 -2.844 0.146704 -0.547508 -2.844 -0.490882 0.283411 -2.844 -0.349117 0.144609 -2.844 -0.188941 5.06847e-16 -2.844 -0.133601 -0.133601 -2.844 7.97813e-16 -0.188941 -2.844 0.144609 -0.349117 -2.844 0.283411 -0.490882 -2.844 -0.400804 0.400804 -2.844 -0.267203 0.267203 -2.844 -0.133601 0.133601 -2.844 7.55591e-16 6.44993e-16 -2.844 0.133601 -0.133601 -2.844 0.267203 -0.267203 -2.844 0.400804 -0.400804 -2.844 -0.283411 0.490882 -2.844 -0.144609 0.349117 -2.844 6.47088e-16 0.188941 -2.844 0.133601 0.133601 -2.844 0.188941 7.33035e-16 -2.844 0.349117 -0.144609 -2.844 0.490882 -0.283411 -2.844 -0.146704 0.547508 -2.844 5.15179e-16 0.377881 -2.844 0.144609 0.349117 -2.844 0.267203 0.267203 -2.844 0.349117 0.144609 -2.844 0.377881 8.21084e-16 -2.844 0.547508 -0.146704 -2.844 4.62224e-16 0.566822 -2.844 0.146704 0.547508 -2.844 0.283411 0.490882 -2.844 0.400804 0.400804 -2.844 0.490882 0.283411 -2.844 0.547508 0.146704 -2.844 0.566822 7.89256e-16 -2.844
        </DataArray>
      </PointData>
      <CellData>
        <DataArray type="Float32" Name="stress_zz" NumberOfComponents="1" format="ascii">
          24.3973 24.3973 24.3973 24.3973 24.3973 24.3973 24.3973 24.3973 24.3973 24.3973 24.3973 24.3973 24.3973 24.3973 24.3973 24.3973 24.3973 24.3973 24.3973 24.3973 24.3973 24.3973 24.3973 24.3973 24.3973 24.3973 24.3973 24.3973 24.3973 24.3973 24.3973 24.3973 24.3973 24.3973 24.3973 24.3973 24.3973 24.3973 24.3973 24.3973 24.3973 24.3973 24.3973 24.3973 24.3973 24.3973 24.3973 24.3973 24.3973 24.3973 24.3973 24.3973 24.3973 24.3973 24.3973 24.3973 24.3973 24.3973 24.3973 24.3973 24.3973 24.3973 24.3973 24.3973 24.3973 24.3973 24.3973 24.3973 24.3973 24.3973 24.3973 24.3973 24.3973 24.3973 24.3973 24.3973 24.3973 24.3973 24.3973 24.3973 24.3973 24.3973 24.3973 24.3973 24.3973 24.3973 24.3973 24.3973 24.3973 24.3973 24.3973 24.3973 24.3973 24.3973 24.3973 24.3973 24.3973 24.3973 24.3973 24.3973 24.3973 24.3973 24.3973 24.3973 24.3973 24.3973 24.3973 24.3973 24.3973 24.3973 24.3973 24.3973 24.3973 24.3973 24.3973 24.3973 24.3973 24.3973 24.3973 24.3973 24.3973 24.3973 24.3973 24.3973 24.3973 24.3973 24.3973 24.3973 24.3973 24.3973 24.3973 24.3973 24.3973 24.3973 24.3973 24.3973 24.3973 24.3973 24.3973 24.3973 24.3973 24.3973 24.3973 24.3973 24.3973 24.3973 24.3973 24.3973 24.3973 24.3973 24.3973 24.3973 24.3973 24.3973 24.3973 24.3973 24.3973 24.3973 24.3973 24.3973 24.3973 24.3973 24.3973 24.3973 24.3973 24.3973 24.3973 24.3973 24.3973 24.3973 24.3973 24.3973 24.3973 24.3973 24.3973 24.3973 24.3973 24.3973 24.3973 24.3973 24.3973 24.3973 24.3973 24.3973 24.3973 24.3973 24.3973 24.3973 24.3973 24.3973 24.3973 24.3973 24.3973 24.3973 24.3973 24.3973 24.3973 24.3973 24.3973 24.3973 24.3973 24.3973 24.3973 24.3973 24.3973 24.3973 24.3973 24.3973 24.3973 24.3973 24.3973 24.3973 24.3973 24.3973 24.3973 24.3973 24.3973 24.3973 24.3973 24.3973 24.3973 24.3973 24.3973 24.3973 24.3973 24.3973 24.3973 24.3973 24.3973 24.3973 24.3973 24.3973 24.3973 24.3973 24.3973 24.3973 24.3973 24.3973 24.3973 24.3973 24.3973 24.3973 24.3973 24.3973 24.3973 24.3973 24.3973 24.3973 24.3973 24.3973 24.3973 24.3973 24.3973 24.3973 24.3973 24.3973 24.3973 24.3973 24.3973 24.3973 24.3973 24.3973 24.3973 24.3973 24.3973 24.3973 24.3973 24.3973 24.3973 24.3973 24.3973 24.3973 24.3973 24.3973 24.3973 24.3973 24.3973 24.3973 24.3973 24.3973 24.3973 24.3973 24.3973 24.3973 24.3973 24.3973 24.3973 24.3973
        </DataArray>
        <DataArray type="Float32" Name="deviatoric_strain" NumberOfComponents="1" format="ascii">
          0.0098827 0.0098827 0.0098827 0.0098827 0.0098827 0.0098827 0.0098827 0.0098827 0.0098827 0.0098827 0.0098827 0.0098827 0.0098827 0.0098827 0.0098827 0.0098827 0.0098827 0.0098827 0.0098827 0.0098827 0.0098827 0.0098827 0.0098827 0.0098827 0.0098827 0.0098827 0.0098827 0.0098827 0.0098827 0.0098827 0.0098827 0.0098827 0.0098827 0.0098827 0.0098827 0.0098827 0.0098827 0.0098827 0.0098827 0.0098827 0.0098827 0.0098827 0.0098827 0.0098827 0.0098827 0.0098827 0.0098827 0.0098827 0.0098827 0.0098827 0.0098827 0.0098827 0.0098827 0.0098827 0.0098827 0.0098827 0.0098827 0.0098827 0.0098827 0.0098827 0.0098827 0.0098827 0.0098827 0.0098827 0.0098827 0.0098827 0.0098827 0.0098827 0.0098827 0.0098827 0.0098827 0.0098827 0.0098827 0.0098827 0.0098827 0.0098827 0.0098827 0.0098827 0.0098827 0.0098827 0.0098827 0.0098827 0.0098827 0.0098827 0.0098827 0.0098827 0.0098827 0.0098827 0.0098827 0.0098827 0.0098827 0.0098827 0.0098827 0.0098827 0.0098827 0.0098827 0.0098827 0.0098827 0.0098827 0.0098827 0.0098827 0.0098827 0.0098827 0.0098827 0.0098827 0.0098827 0.0098827 0.0098827 0.0098827 0.0098827 0.0098827 0.0098827 0.0098827 0.0098827 0.0098827 0.0098827 0.0098827 0.0098827 0.0098827 0.0098827 0.0098827 0.0098827 0.0098827 0.0098827 0.0098827 0.0098827 0.0098827 0.0098827 0.0098827 0.0098827 0.0098827 0.0098827 0.0098827 0.0098827 0.0098827 0.0098827 0.0098827 0.0098827 0.0098827 0.0098827 0.0098827 0.0098827 0.0098827 0.0098827 0.0098827 0.0098827 0.0098827 0.0098827 0.0098827 0.0098827 0.0098827 0.0098827 0.0098827 0.0098827 0.0098827 0.0098827 0.0098827 0.0098827 0.0098827 0.0098827 0.0098827 0.0098827 0.0098827 0.0098827 0.0098827 0.0098827 0.0098827 0.0098827 0.0098827 0.0098827 0.0098827 0.0098827 0.0098827 0.0098827 0.0098827 0.0098827 0.0098827 0.0098827 0.0098827 0.0098827 0.0098827 0.0098827 0.0098827 0.0098827 0.0098827 0.0098827 0.0098827 0.0098827 0.0098827 0.0098827 0.0098827 0.0098827 0.0098827 0.0098827 0.0098827 0.0098827 0.0098827 0.0098827 0.0098827 0.0098827 0.0098827 0.0098827 0.0098827 0.0098827 0.0098827 0.0098827 0.0098827 0.0098827 0.0098827 0.0098827 0.0098827 0.0098827 0.0098827 0.0098827 0.0098827 0.0098827 0.0098827 0.0098827 0.0098827 0.0098827 0.0098827 0.0098827 0.0098827 0.0098827 0.0098827 0.0098827 0.0098827 0.0098827 0.0098827 0.0098827 0.0098827 0.0098827 0.0098827 0.0098827 0.0098827 0.0098827 0.0098827 0.0098827 0.0098827 0.0098827 0.0098827 0.0098827 0.0098827 0.0098827 0.0098827 0.0098827 0.0098827 0.0098827 0.0098827 0.0098827 0.0098827 0.0098827 0.0098827 0.0098827 0.0098827 0.0098827 0.0098827 0.0098827 0.0098827 0.0098827 0.0098827 0.0098827 0.0098827 0.0098827 0.0098827 0.0098827 0.0098827 0.0098827 0.0098827 0.0098827 0.0098827 0.0098827 0.0098827 0.0098827 0.0098827 0.0098827 0.0098827 0.0098827 0.0098827 0.0098827 0.0098827 0.0098827 0.0098827 0.0098827 0.0098827 0.0098827 0.0098827 0.0098827
        </DataArray>
      </CellData>
    </Piece>
  </UnstructuredGrid>
</VTKFile>
